<svg width="1360" height="160" viewBox="0 0 1360 160" fill="none" xmlns="http://www.w3.org/2000/svg">
<g clip-path="url(#clip0)">
<rect width="1360" height="160" fill="#18313E"/>
<path d="M579.056 96L589.664 64.848H596.768L606.944 96H600.992L598.832 89.28H587.264L585.056 96H579.056ZM588.704 85.008H597.488L593.12 71.616L588.704 85.008ZM624.415 96.672C622.959 96.672 621.623 96.264 620.407 95.448C619.207 94.632 618.247 93.416 617.527 91.8C616.807 90.168 616.447 88.128 616.447 85.68H618.175C618.175 86.848 618.439 87.872 618.967 88.752C619.495 89.632 620.175 90.32 621.007 90.816C621.839 91.296 622.703 91.536 623.599 91.536C624.703 91.536 625.687 91.232 626.551 90.624C627.415 90.016 628.095 89.168 628.591 88.08C629.103 86.992 629.359 85.712 629.359 84.24C629.359 82.816 629.111 81.576 628.615 80.52C628.119 79.448 627.431 78.616 626.551 78.024C625.687 77.432 624.687 77.136 623.551 77.136C622.607 77.136 621.727 77.368 620.911 77.832C620.095 78.28 619.431 78.936 618.919 79.8C618.423 80.648 618.175 81.68 618.175 82.896H616.447C616.447 80.544 616.783 78.56 617.455 76.944C618.143 75.328 619.111 74.112 620.359 73.296C621.623 72.464 623.119 72.048 624.847 72.048C626.735 72.048 628.447 72.552 629.983 73.56C631.535 74.552 632.767 75.968 633.679 77.808C634.607 79.632 635.071 81.776 635.071 84.24C635.071 86.736 634.591 88.92 633.631 90.792C632.687 92.648 631.407 94.096 629.791 95.136C628.175 96.16 626.383 96.672 624.415 96.672ZM612.511 96V63.072H618.175V90.24L616.207 96H612.511ZM651.163 96.672C649.035 96.672 647.107 96.216 645.379 95.304C643.667 94.392 642.307 93.032 641.299 91.224C640.291 89.4 639.787 87.12 639.787 84.384C639.787 81.6 640.291 79.296 641.299 77.472C642.307 75.648 643.667 74.288 645.379 73.392C647.107 72.496 649.035 72.048 651.163 72.048C653.259 72.048 655.155 72.496 656.851 73.392C658.563 74.288 659.923 75.648 660.931 77.472C661.939 79.296 662.443 81.6 662.443 84.384C662.443 87.12 661.939 89.4 660.931 91.224C659.923 93.032 658.563 94.392 656.851 95.304C655.155 96.216 653.259 96.672 651.163 96.672ZM650.971 91.728C652.091 91.728 653.083 91.456 653.947 90.912C654.827 90.352 655.515 89.528 656.011 88.44C656.523 87.352 656.779 86 656.779 84.384C656.779 81.92 656.291 80.064 655.315 78.816C654.355 77.568 653.035 76.944 651.355 76.944C650.219 76.944 649.211 77.224 648.331 77.784C647.451 78.328 646.755 79.152 646.243 80.256C645.747 81.36 645.499 82.736 645.499 84.384C645.499 86.816 645.987 88.648 646.963 89.88C647.955 91.112 649.291 91.728 650.971 91.728ZM684.687 72.624H690.351V96H684.687V72.624ZM668.703 72.624H674.367V86.928C674.367 88.448 674.743 89.592 675.495 90.36C676.247 91.112 677.279 91.488 678.591 91.488C679.711 91.488 680.727 91.2 681.639 90.624C682.567 90.032 683.303 89.168 683.847 88.032C684.407 86.88 684.687 85.456 684.687 83.76H686.223C686.223 86.608 685.855 88.968 685.119 90.84C684.383 92.712 683.367 94.112 682.071 95.04C680.775 95.968 679.279 96.432 677.583 96.432C675.919 96.432 674.415 96.136 673.071 95.544C671.727 94.952 670.663 94 669.879 92.688C669.095 91.376 668.703 89.648 668.703 87.504V72.624ZM707.148 96.672C705.773 96.672 704.509 96.416 703.357 95.904C702.221 95.392 701.309 94.608 700.621 93.552C699.949 92.496 699.613 91.152 699.613 89.52V66.528H705.277V89.328C705.277 91.248 706.189 92.208 708.013 92.208C708.573 92.208 709.133 92.144 709.693 92.016C710.253 91.888 710.893 91.696 711.613 91.44L712.429 95.424C711.533 95.776 710.661 96.072 709.812 96.312C708.965 96.552 708.077 96.672 707.148 96.672ZM696.349 76.464V72.72H711.613V76.464H696.349ZM745.859 72.624H751.523V96H745.859V72.624ZM729.875 72.624H735.539V86.928C735.539 88.448 735.915 89.592 736.667 90.36C737.419 91.112 738.451 91.488 739.763 91.488C740.883 91.488 741.899 91.2 742.811 90.624C743.739 90.032 744.475 89.168 745.019 88.032C745.579 86.88 745.859 85.456 745.859 83.76H747.395C747.395 86.608 747.027 88.968 746.291 90.84C745.555 92.712 744.539 94.112 743.243 95.04C741.947 95.968 740.451 96.432 738.755 96.432C737.091 96.432 735.587 96.136 734.243 95.544C732.899 94.952 731.835 94 731.051 92.688C730.267 91.376 729.875 89.648 729.875 87.504V72.624ZM769.136 96.672C766.896 96.672 764.968 96.368 763.352 95.76C761.752 95.136 760.52 94.248 759.656 93.096C758.792 91.928 758.352 90.528 758.336 88.896H763.568C763.616 90.048 764.072 90.888 764.936 91.416C765.8 91.944 766.976 92.208 768.464 92.208C769.28 92.208 770 92.088 770.624 91.848C771.264 91.608 771.76 91.28 772.112 90.864C772.464 90.448 772.64 89.984 772.64 89.472C772.64 88.816 772.4 88.304 771.92 87.936C771.456 87.552 770.704 87.2 769.664 86.88L764.576 85.056C762.752 84.4 761.352 83.536 760.376 82.464C759.4 81.392 758.912 80.112 758.912 78.624C758.912 76.656 759.8 75.072 761.576 73.872C763.368 72.656 765.76 72.048 768.752 72.048C771.728 72.048 774.024 72.704 775.64 74.016C777.272 75.312 778.112 76.96 778.16 78.96H772.832C772.752 78.192 772.384 77.584 771.728 77.136C771.072 76.688 770.08 76.464 768.752 76.464C767.552 76.464 766.608 76.712 765.92 77.208C765.248 77.688 764.912 78.256 764.912 78.912C764.912 80.016 765.856 80.848 767.744 81.408L773.264 83.472C775.056 84.08 776.448 84.864 777.44 85.824C778.432 86.784 778.928 88 778.928 89.472C778.928 90.704 778.512 91.872 777.68 92.976C776.864 94.064 775.72 94.952 774.248 95.64C772.776 96.328 771.072 96.672 769.136 96.672Z" fill="white"/>
<path opacity="0.25" d="M1320.93 189.459C1305.41 189.459 1291.95 184.208 1280.56 173.708C1269.18 163.207 1264 149.556 1264 132.754C1264 114.903 1269.18 101.252 1279.53 90.7512C1289.88 80.2504 1303.34 75 1318.86 75C1334.39 75 1347.85 80.2504 1359.23 89.7011C1370.62 100.202 1375.8 113.853 1375.8 130.654C1375.8 147.456 1370.62 161.107 1360.27 171.607C1349.92 183.158 1336.46 189.459 1320.93 189.459Z" fill="#DEB580"/>
<path opacity="0.25" d="M1202.93 75.4589C1187.41 75.4589 1173.95 70.2085 1162.56 59.7077C1151.18 49.2068 1146 35.5558 1146 18.7545C1146 0.903099 1151.18 -12.748 1161.53 -23.2488C1171.88 -33.7496 1185.34 -39 1200.86 -39C1216.39 -39 1229.85 -33.7496 1241.23 -24.2989C1252.62 -13.798 1257.8 -0.146992 1257.8 16.6543C1257.8 33.4556 1252.62 47.1067 1242.27 57.6075C1231.92 69.1584 1218.46 75.4589 1202.93 75.4589Z" fill="#D4E6ED"/>
<path opacity="0.25" d="M21.25 180C10 180 0.25 176.147 -8 168.44C-16.25 160.734 -20 150.716 -20 138.385C-20 125.284 -16.25 115.266 -8.75 107.56C-1.25 99.8532 8.49999 96 19.75 96C31 96 40.75 99.8532 49 106.789C57.25 114.495 61 124.514 61 136.844C61 149.174 57.25 159.193 49.75 166.899C42.25 175.376 33.25 180 21.25 180Z" fill="white"/>
</g>
<defs>
<clipPath id="clip0">
<rect width="1360" height="160" fill="white"/>
</clipPath>
</defs>
</svg>
