<svg width="495" height="485" viewBox="0 0 495 485" fill="none" xmlns="http://www.w3.org/2000/svg">
<path d="M223.187 120.421C224.337 108.041 227.512 95.9341 232.585 84.583C233.999 81.4241 235.556 78.3348 237.255 75.315C237.34 75.1571 237.36 74.9722 237.312 74.7995C237.263 74.6267 237.15 74.4796 236.995 74.389C236.84 74.2985 236.656 74.2716 236.481 74.3141C236.307 74.3567 236.156 74.4652 236.06 74.6169C229.883 85.6157 225.555 97.5551 223.25 109.958C222.609 113.421 222.127 116.909 221.804 120.421C221.722 121.307 223.106 121.302 223.187 120.421Z" fill="#E6E6E6"/>
<path d="M240.603 77.5334C245.441 77.5334 249.363 73.6116 249.363 68.7738C249.363 63.936 245.441 60.0142 240.603 60.0142C235.766 60.0142 231.844 63.936 231.844 68.7738C231.844 73.6116 235.766 77.5334 240.603 77.5334Z" fill="#E6E6E6"/>
<path d="M224.083 120.654C224.829 112.623 226.889 104.768 230.18 97.4042C231.097 95.3549 232.107 93.3507 233.209 91.3916C233.264 91.2891 233.278 91.1692 233.246 91.0572C233.215 90.9451 233.141 90.8496 233.041 90.7909C232.94 90.7321 232.821 90.7147 232.708 90.7423C232.594 90.7699 232.497 90.8403 232.434 90.9387C228.427 98.0742 225.619 105.82 224.124 113.866C223.708 116.113 223.395 118.376 223.186 120.654C223.133 121.229 224.03 121.225 224.083 120.654Z" fill="#E6E6E6"/>
<path d="M235.38 92.8309C238.519 92.8309 241.063 90.2866 241.063 87.1481C241.063 84.0096 238.519 81.4653 235.38 81.4653C232.242 81.4653 229.697 84.0096 229.697 87.1481C229.697 90.2866 232.242 92.8309 235.38 92.8309Z" fill="#E6E6E6"/>
<path d="M222.948 120.118C218.596 113.327 215.389 105.867 213.455 98.036C212.918 95.8559 212.482 93.6546 212.146 91.4321C212.126 91.3173 212.063 91.2146 211.969 91.1456C211.875 91.0766 211.759 91.0466 211.643 91.0621C211.528 91.0776 211.423 91.1373 211.351 91.2286C211.279 91.3199 211.245 91.4357 211.256 91.5515C212.485 99.6426 215.035 107.477 218.805 114.741C219.859 116.768 221.004 118.745 222.241 120.67C222.552 121.156 223.258 120.601 222.948 120.118Z" fill="#E6E6E6"/>
<path d="M211.251 92.432C214.39 92.432 216.934 89.8877 216.934 86.7492C216.934 83.6107 214.39 81.0664 211.251 81.0664C208.113 81.0664 205.568 83.6107 205.568 86.7492C205.568 89.8877 208.113 92.432 211.251 92.432Z" fill="#E6E6E6"/>
<path d="M205.504 125.146V113.98C205.505 112.87 205.947 111.806 206.732 111.021C207.517 110.236 208.581 109.795 209.691 109.793H235.744C236.854 109.795 237.918 110.236 238.703 111.021C239.488 111.806 239.929 112.87 239.931 113.98V125.146C239.929 126.256 239.488 127.32 238.703 128.105C237.918 128.89 236.854 129.332 235.744 129.333H209.691C208.581 129.332 207.517 128.89 206.732 128.105C205.947 127.32 205.505 126.256 205.504 125.146Z" fill="#F2F2F2"/>
<path d="M234.813 53.9662H223.648C222.538 53.9649 221.474 53.5234 220.689 52.7384C219.904 51.9535 219.462 50.8892 219.461 49.7791V4.18703C219.462 3.07694 219.904 2.01268 220.689 1.22773C221.474 0.442784 222.538 0.00125105 223.648 0H234.813C235.923 0.00125105 236.988 0.442784 237.773 1.22773C238.558 2.01268 238.999 3.07694 239 4.18703V49.7791C238.999 50.8892 238.558 51.9535 237.773 52.7384C236.988 53.5234 235.923 53.9649 234.813 53.9662Z" fill="#F2F2F2"/>
<path d="M238.535 8.83936H219.926V12.5612H238.535V8.83936Z" fill="#CCCCCC"/>
<path d="M238.535 37.6831H219.926V41.4049H238.535V37.6831Z" fill="#CCCCCC"/>
<path d="M262.727 53.9662H251.562C250.452 53.9649 249.388 53.5234 248.603 52.7384C247.818 51.9535 247.376 50.8892 247.375 49.7791V4.18703C247.376 3.07694 247.818 2.01268 248.603 1.22773C249.388 0.442784 250.452 0.00125105 251.562 0H262.727C263.838 0.00125105 264.902 0.442784 265.687 1.22773C266.472 2.01268 266.913 3.07694 266.914 4.18703V49.7791C266.913 50.8892 266.472 51.9535 265.687 52.7384C264.902 53.5234 263.838 53.9649 262.727 53.9662Z" fill="#F2F2F2"/>
<path d="M266.449 8.83936H247.84V12.5612H266.449V8.83936Z" fill="#CCCCCC"/>
<path d="M266.449 37.6831H247.84V41.4049H266.449V37.6831Z" fill="#CCCCCC"/>
<path d="M290.642 53.9662H279.476C278.366 53.9649 277.302 53.5234 276.517 52.7384C275.732 51.9535 275.29 50.8892 275.289 49.7791V4.18703C275.29 3.07694 275.732 2.01268 276.517 1.22773C277.302 0.442784 278.366 0.00125105 279.476 0H290.642C291.752 0.00125105 292.816 0.442784 293.601 1.22773C294.386 2.01268 294.827 3.07694 294.829 4.18703V49.7791C294.827 50.8892 294.386 51.9535 293.601 52.7384C292.816 53.5234 291.752 53.9649 290.642 53.9662Z" fill="#F2F2F2"/>
<path d="M294.363 8.83936H275.754V12.5612H294.363V8.83936Z" fill="#CCCCCC"/>
<path d="M294.363 37.6831H275.754V41.4049H294.363V37.6831Z" fill="#CCCCCC"/>
<path d="M305.528 129.333H294.363C293.253 129.332 292.188 128.89 291.404 128.105C290.619 127.32 290.177 126.256 290.176 125.146V79.5537C290.177 78.4436 290.619 77.3794 291.404 76.5944C292.188 75.8095 293.253 75.368 294.363 75.3667H305.528C306.638 75.368 307.703 75.8095 308.488 76.5944C309.272 77.3794 309.714 78.4436 309.715 79.5537V125.146C309.714 126.256 309.272 127.32 308.488 128.105C307.703 128.89 306.638 129.332 305.528 129.333Z" fill="#F2F2F2"/>
<path d="M309.25 84.2061H290.641V87.9279H309.25V84.2061Z" fill="#CCCCCC"/>
<path d="M309.25 113.05H290.641V116.772H309.25V113.05Z" fill="#CCCCCC"/>
<path d="M333.442 129.333H322.277C321.167 129.332 320.103 128.89 319.318 128.105C318.533 127.32 318.091 126.256 318.09 125.146V79.5537C318.091 78.4436 318.533 77.3794 319.318 76.5944C320.103 75.8095 321.167 75.368 322.277 75.3667H333.442C334.552 75.368 335.617 75.8095 336.402 76.5944C337.187 77.3794 337.628 78.4436 337.629 79.5537V125.146C337.628 126.256 337.187 127.32 336.402 128.105C335.617 128.89 334.552 129.332 333.442 129.333Z" fill="#F2F2F2"/>
<path d="M337.164 84.2061H318.555V87.9279H337.164V84.2061Z" fill="#CCCCCC"/>
<path d="M337.164 113.05H318.555V116.772H337.164V113.05Z" fill="#CCCCCC"/>
<path d="M361.354 129.333H350.189C349.079 129.332 348.015 128.89 347.23 128.105C346.445 127.32 346.003 126.256 346.002 125.146V79.5537C346.003 78.4436 346.445 77.3794 347.23 76.5944C348.015 75.8095 349.079 75.368 350.189 75.3667H361.354C362.464 75.368 363.529 75.8095 364.314 76.5944C365.099 77.3794 365.54 78.4436 365.541 79.5537V125.146C365.54 126.256 365.099 127.32 364.314 128.105C363.529 128.89 362.464 129.332 361.354 129.333Z" fill="#F2F2F2"/>
<path d="M365.078 84.2061H346.469V87.9279H365.078V84.2061Z" fill="#CCCCCC"/>
<path d="M365.078 113.05H346.469V116.772H365.078V113.05Z" fill="#CCCCCC"/>
<path d="M232.022 204.699H220.857C219.747 204.698 218.683 204.256 217.898 203.471C217.113 202.686 216.671 201.622 216.67 200.512V154.92C216.671 153.81 217.113 152.746 217.898 151.961C218.683 151.176 219.747 150.734 220.857 150.733H232.022C233.132 150.734 234.197 151.176 234.982 151.961C235.767 152.746 236.208 153.81 236.209 154.92V200.512C236.208 201.622 235.767 202.686 234.982 203.471C234.197 204.256 233.132 204.698 232.022 204.699Z" fill="#F2F2F2"/>
<path d="M235.744 159.572H217.135V163.294H235.744V159.572Z" fill="#CCCCCC"/>
<path d="M235.744 188.417H217.135V192.138H235.744V188.417Z" fill="#CCCCCC"/>
<path d="M259.936 204.699H248.771C247.661 204.698 246.597 204.256 245.812 203.471C245.027 202.686 244.585 201.622 244.584 200.512V154.92C244.585 153.81 245.027 152.746 245.812 151.961C246.597 151.176 247.661 150.734 248.771 150.733H259.936C261.047 150.734 262.111 151.176 262.896 151.961C263.681 152.746 264.122 153.81 264.123 154.92V200.512C264.122 201.622 263.681 202.686 262.896 203.471C262.111 204.256 261.047 204.698 259.936 204.699Z" fill="#F2F2F2"/>
<path d="M263.658 159.572H245.049V163.294H263.658V159.572Z" fill="#CCCCCC"/>
<path d="M263.658 188.417H245.049V192.138H263.658V188.417Z" fill="#CCCCCC"/>
<path d="M287.85 204.699H276.685C275.575 204.698 274.511 204.256 273.726 203.471C272.941 202.686 272.499 201.622 272.498 200.512V154.92C272.499 153.81 272.941 152.746 273.726 151.961C274.511 151.176 275.575 150.734 276.685 150.733H287.85C288.961 150.734 290.025 151.176 290.81 151.961C291.595 152.746 292.036 153.81 292.038 154.92V200.512C292.036 201.622 291.595 202.686 290.81 203.471C290.025 204.256 288.961 204.698 287.85 204.699Z" fill="#F2F2F2"/>
<path d="M291.572 159.572H272.963V163.294H291.572V159.572Z" fill="#CCCCCC"/>
<path d="M291.572 188.417H272.963V192.138H291.572V188.417Z" fill="#CCCCCC"/>
<path d="M318.554 53.9662H307.388C306.278 53.9649 305.214 53.5234 304.429 52.7384C303.644 51.9535 303.202 50.8892 303.201 49.7791V4.18703C303.202 3.07694 303.644 2.01268 304.429 1.22773C305.214 0.442784 306.278 0.00125105 307.388 0H318.554C319.664 0.00125105 320.728 0.442784 321.513 1.22773C322.298 2.01268 322.739 3.07694 322.741 4.18703V49.7791C322.739 50.8892 322.298 51.9535 321.513 52.7384C320.728 53.5234 319.664 53.9649 318.554 53.9662Z" fill="#F2F2F2"/>
<path d="M322.277 8.83936H303.668V12.5612H322.277V8.83936Z" fill="#CCCCCC"/>
<path d="M322.277 37.6831H303.668V41.4049H322.277V37.6831Z" fill="#CCCCCC"/>
<path d="M346.468 53.9662H335.302C334.192 53.9649 333.128 53.5234 332.343 52.7384C331.558 51.9535 331.116 50.8892 331.115 49.7791V4.18703C331.116 3.07694 331.558 2.01268 332.343 1.22773C333.128 0.442784 334.192 0.00125105 335.302 0H346.468C347.578 0.00125105 348.642 0.442784 349.427 1.22773C350.212 2.01268 350.653 3.07694 350.655 4.18703V49.7791C350.653 50.8892 350.212 51.9535 349.427 52.7384C348.642 53.5234 347.578 53.9649 346.468 53.9662Z" fill="#F2F2F2"/>
<path d="M350.189 8.83936H331.58V12.5612H350.189V8.83936Z" fill="#CCCCCC"/>
<path d="M350.189 37.6831H331.58V41.4049H350.189V37.6831Z" fill="#CCCCCC"/>
<path d="M374.382 53.9662H363.216C362.106 53.9649 361.042 53.5234 360.257 52.7384C359.472 51.9535 359.031 50.8892 359.029 49.7791V4.18703C359.031 3.07694 359.472 2.01268 360.257 1.22773C361.042 0.442784 362.106 0.00125105 363.216 0H374.382C375.492 0.00125105 376.556 0.442784 377.341 1.22773C378.126 2.01268 378.568 3.07694 378.569 4.18703V49.7791C378.568 50.8892 378.126 51.9535 377.341 52.7384C376.556 53.5234 375.492 53.9649 374.382 53.9662Z" fill="#F2F2F2"/>
<path d="M378.103 8.83936H359.494V12.5612H378.103V8.83936Z" fill="#CCCCCC"/>
<path d="M378.103 37.6831H359.494V41.4049H378.103V37.6831Z" fill="#CCCCCC"/>
<path d="M402.296 53.9662H391.13C390.02 53.9649 388.956 53.5234 388.171 52.7384C387.386 51.9535 386.945 50.8892 386.943 49.7791V4.18703C386.945 3.07694 387.386 2.01268 388.171 1.22773C388.956 0.442784 390.02 0.00125105 391.13 0H402.296C403.406 0.00125105 404.47 0.442784 405.255 1.22773C406.04 2.01268 406.482 3.07694 406.483 4.18703V49.7791C406.482 50.8892 406.04 51.9535 405.255 52.7384C404.47 53.5234 403.406 53.9649 402.296 53.9662Z" fill="#F2F2F2"/>
<path d="M406.017 8.83936H387.408V12.5612H406.017V8.83936Z" fill="#CCCCCC"/>
<path d="M406.017 37.6831H387.408V41.4049H406.017V37.6831Z" fill="#CCCCCC"/>
<path d="M444.109 55.3619H178.93C178.684 55.3619 178.447 55.2638 178.273 55.0893C178.098 54.9148 178 54.6782 178 54.4314C178 54.1847 178.098 53.948 178.273 53.7735C178.447 53.599 178.684 53.501 178.93 53.501H444.109C444.356 53.501 444.592 53.599 444.767 53.7735C444.941 53.948 445.039 54.1847 445.039 54.4314C445.039 54.6782 444.941 54.9148 444.767 55.0893C444.592 55.2638 444.356 55.3619 444.109 55.3619Z" fill="#CCCCCC"/>
<path d="M444.109 130.729H178.93C178.684 130.729 178.447 130.631 178.273 130.456C178.098 130.282 178 130.045 178 129.798C178 129.551 178.098 129.315 178.273 129.14C178.447 128.966 178.684 128.868 178.93 128.868H444.109C444.356 128.868 444.592 128.966 444.767 129.14C444.941 129.315 445.039 129.551 445.039 129.798C445.039 130.045 444.941 130.282 444.767 130.456C444.592 130.631 444.356 130.729 444.109 130.729Z" fill="#CCCCCC"/>
<path d="M444.109 206.095H178.93C178.684 206.095 178.447 205.997 178.273 205.822C178.098 205.648 178 205.411 178 205.164C178 204.918 178.098 204.681 178.273 204.506C178.447 204.332 178.684 204.234 178.93 204.234H444.109C444.356 204.234 444.592 204.332 444.767 204.506C444.941 204.681 445.039 204.918 445.039 205.164C445.039 205.411 444.941 205.648 444.767 205.822C444.592 205.997 444.356 206.095 444.109 206.095Z" fill="#CCCCCC"/>
<path d="M185.224 395.159C185.224 387.965 158.147 382.133 124.745 382.133C91.3432 382.133 64.2656 387.965 64.2656 395.159C64.2656 399.77 75.3979 403.818 92.1792 406.133V477.504C92.1792 479.108 92.8164 480.646 93.9506 481.781C95.0848 482.915 96.6231 483.552 98.2271 483.552C99.8311 483.552 101.369 482.915 102.504 481.781C103.638 480.646 104.275 479.108 104.275 477.504V407.419C110.669 407.914 117.559 408.185 124.745 408.185C131.931 408.185 138.821 407.914 145.215 407.419V477.504C145.215 479.108 145.852 480.646 146.986 481.781C148.121 482.915 149.659 483.552 151.263 483.552C152.867 483.552 154.405 482.915 155.539 481.781C156.674 480.646 157.311 479.108 157.311 477.504V406.133C174.092 403.818 185.224 399.77 185.224 395.159Z" fill="#CCCCCC"/>
<path d="M173.588 471.851H184.995L190.422 427.852H173.586L173.588 471.851Z" fill="#A0616A"/>
<path d="M206.994 482.441L171.143 482.443L171.143 468.592L193.142 468.591C196.816 468.59 200.339 470.05 202.937 472.647C205.534 475.245 206.994 478.768 206.994 482.441L206.994 482.441Z" fill="#2F2E41"/>
<path d="M191.395 465.485L202.278 462.069L194.284 418.463L178.221 423.504L191.395 465.485Z" fill="#A0616A"/>
<path d="M226.439 465.587L192.233 476.322L188.086 463.106L209.076 456.519C212.581 455.419 216.38 455.756 219.636 457.457C222.892 459.158 225.339 462.082 226.439 465.587Z" fill="#2F2E41"/>
<path d="M183.763 445.233L162.896 390.456C158.214 391.556 118.954 400.243 105.804 386.243C101.298 381.444 100.419 374.492 103.192 365.579L110.866 355.936L111.104 355.949C114.006 356.101 182.224 359.925 186.9 380.502C190.843 397.85 198.044 430.193 200.156 439.693C200.371 440.677 200.224 441.706 199.743 442.591C199.263 443.476 198.48 444.16 197.538 444.516L189.146 447.663C188.679 447.839 188.183 447.929 187.683 447.929C186.834 447.929 186.005 447.671 185.305 447.19C184.605 446.708 184.067 446.026 183.763 445.233Z" fill="#2F2E41"/>
<path d="M171.667 451.746L150.8 396.97C146.118 398.069 106.858 406.756 93.7085 392.756C89.2021 387.958 88.3232 381.006 91.0962 372.093L98.7701 362.449L99.0086 362.462C101.91 362.615 170.128 366.438 174.804 387.015C178.747 404.363 185.948 436.706 188.061 446.206C188.275 447.19 188.128 448.219 187.648 449.104C187.167 449.99 186.385 450.673 185.442 451.029L177.05 454.176C176.583 454.352 176.087 454.442 175.588 454.442C174.738 454.442 173.909 454.184 173.209 453.703C172.509 453.222 171.971 452.539 171.667 451.746Z" fill="#2F2E41"/>
<path d="M199.867 320.439C199.559 320.851 199.283 321.287 199.044 321.743L153.154 326.578L146.548 317.521L131.576 325.704L144.551 347.682L200.831 333.332C202.251 334.716 204.059 335.636 206.014 335.968C207.969 336.3 209.979 336.028 211.776 335.19C213.573 334.352 215.073 332.987 216.075 331.276C217.078 329.564 217.535 327.589 217.387 325.611C217.239 323.634 216.493 321.748 215.247 320.205C214.002 318.662 212.316 317.535 210.414 316.973C208.512 316.412 206.484 316.443 204.6 317.062C202.716 317.681 201.065 318.859 199.867 320.439V320.439Z" fill="#A0616A"/>
<path d="M90.7999 374.985C90.1718 374.532 89.6813 373.914 89.3827 373.2C89.084 372.486 88.9888 371.703 89.1077 370.938C91.6967 353.871 88.7179 329.422 85.763 311.917C85.1581 308.366 85.3935 304.722 86.4502 301.277C87.507 297.833 89.3557 294.684 91.8484 292.082C94.341 289.481 97.4083 287.5 100.804 286.297C104.201 285.094 107.831 284.703 111.406 285.156C114.515 285.567 117.596 286.174 120.629 286.974C125.667 288.243 130.124 291.188 133.266 295.326C136.408 299.463 138.049 304.547 137.919 309.74C137.477 326.632 140.907 347.708 142.402 355.985C142.504 356.553 142.488 357.137 142.354 357.699C142.221 358.261 141.973 358.789 141.626 359.251C141.286 359.709 140.854 360.09 140.358 360.37C139.862 360.65 139.313 360.824 138.746 360.88C122.176 362.571 104.308 370.651 95.1316 375.317C94.5418 375.621 93.8882 375.781 93.2245 375.783C92.3521 375.78 91.5032 375.501 90.7999 374.985Z" fill="#E0B581"/>
<path d="M135.53 330.964C135.018 330.763 134.55 330.462 134.155 330.079C133.76 329.696 133.445 329.239 133.228 328.733L123.987 307.387C123.428 306.097 123.128 304.709 123.105 303.304C123.082 301.898 123.336 300.502 123.853 299.194C124.37 297.887 125.139 296.694 126.117 295.684C127.096 294.674 128.263 293.867 129.553 293.309C130.844 292.75 132.231 292.451 133.637 292.43C135.043 292.408 136.439 292.663 137.746 293.181C139.053 293.699 140.245 294.469 141.254 295.448C142.263 296.427 143.069 297.595 143.627 298.886L152.867 320.233C153.307 321.252 153.325 322.404 152.916 323.436C152.508 324.468 151.706 325.296 150.688 325.738L138.734 330.913C138.23 331.133 137.687 331.251 137.137 331.26C136.587 331.268 136.041 331.168 135.53 330.964H135.53Z" fill="#E0B581"/>
<path d="M156.137 318.578C155.828 318.99 155.553 319.426 155.313 319.882L109.423 324.716L102.817 315.659L87.8457 323.842L100.82 345.821L157.101 331.471C158.521 332.855 160.329 333.774 162.284 334.106C164.239 334.438 166.249 334.167 168.046 333.329C169.843 332.491 171.342 331.125 172.345 329.414C173.347 327.703 173.805 325.727 173.657 323.75C173.509 321.772 172.762 319.887 171.517 318.344C170.271 316.801 168.585 315.673 166.683 315.112C164.781 314.551 162.754 314.581 160.87 315.2C158.986 315.819 157.335 316.997 156.137 318.578V318.578Z" fill="#A0616A"/>
<path d="M91.7973 331.894C91.2852 331.693 90.818 331.392 90.423 331.009C90.0279 330.626 89.7127 330.169 89.4957 329.663L80.255 308.317C79.6955 307.027 79.3956 305.64 79.3725 304.234C79.3495 302.828 79.6037 301.432 80.1206 300.124C80.6375 298.817 81.4069 297.624 82.385 296.614C83.3631 295.604 84.5306 294.797 85.8209 294.239C87.1111 293.68 88.4987 293.382 89.9044 293.36C91.3101 293.338 92.7064 293.593 94.0134 294.111C95.3203 294.629 96.5124 295.4 97.5215 296.379C98.5306 297.357 99.3368 298.526 99.8942 299.816L109.135 321.163C109.575 322.182 109.592 323.334 109.184 324.366C108.775 325.398 107.974 326.226 106.956 326.669L95.0016 331.843C94.4974 332.063 93.9546 332.181 93.4045 332.19C92.8545 332.199 92.3082 332.098 91.7973 331.894H91.7973Z" fill="#E0B581"/>
<path d="M109.706 277.894C122.328 277.894 132.559 267.663 132.559 255.041C132.559 242.42 122.328 232.188 109.706 232.188C97.0851 232.188 86.8535 242.42 86.8535 255.041C86.8535 267.663 97.0851 277.894 109.706 277.894Z" fill="#A0616A"/>
<path d="M93.3662 270.725C93.2682 270.438 93.2371 270.133 93.2753 269.832C93.3136 269.531 93.4201 269.244 93.5868 268.99C93.7536 268.737 93.976 268.525 94.2372 268.372C94.4983 268.218 94.7912 268.126 95.0935 268.102C95.7124 268.136 96.3182 268.295 96.8741 268.569C97.43 268.843 97.9245 269.227 98.3278 269.698C99.1549 270.652 100.118 271.478 101.185 272.152C102.291 272.709 103.79 272.63 104.42 271.567C105.012 270.569 104.607 269.234 104.248 268.075C103.337 265.126 102.827 262.069 102.732 258.984C102.629 255.541 103.114 251.948 105.021 249.263C107.481 245.797 111.879 244.481 116.042 244.577C120.205 244.672 124.3 245.957 128.424 246.769C129.847 247.05 131.521 247.193 132.473 246.09C133.485 244.917 133.113 243.018 132.683 241.434C131.565 237.324 130.38 233.075 127.784 229.755C124.976 226.306 120.967 224.048 116.562 223.437C112.333 222.913 108.039 223.401 104.036 224.859C97.512 226.915 91.7717 230.914 87.5825 236.321C83.264 242.071 81.3979 249.297 82.3923 256.419C83.3638 262.622 86.6508 268.226 91.5906 272.101L93.3662 270.725Z" fill="#2F2E41"/>
<path d="M77.7499 325.742C78.8994 313.362 82.0744 301.255 87.1479 289.904C88.562 286.745 90.1184 283.656 91.817 280.636C91.9022 280.478 91.9227 280.293 91.8742 280.12C91.8258 279.948 91.7121 279.8 91.5571 279.71C91.4022 279.619 91.2182 279.592 91.0439 279.635C90.8696 279.677 90.7186 279.786 90.6228 279.938C84.4453 290.937 80.1175 302.876 77.8125 315.278C77.1713 318.742 76.6894 322.23 76.3668 325.742C76.2848 326.628 77.6684 326.623 77.7499 325.742Z" fill="#3F3D56"/>
<path d="M95.1678 282.854C100.006 282.854 103.927 278.932 103.927 274.094C103.927 269.256 100.006 265.334 95.1678 265.334C90.33 265.334 86.4082 269.256 86.4082 274.094C86.4082 278.932 90.33 282.854 95.1678 282.854Z" fill="#E0B581"/>
<path d="M78.6476 325.975C79.3934 317.943 81.4531 310.088 84.7445 302.724C85.6619 300.675 86.6716 298.671 87.7736 296.712C87.8289 296.609 87.8422 296.49 87.8107 296.377C87.7793 296.265 87.7055 296.17 87.605 296.111C87.5045 296.052 87.3851 296.035 87.2721 296.063C87.159 296.09 87.061 296.161 86.9988 296.259C82.9912 303.394 80.1836 311.14 78.6882 319.186C78.2722 321.433 77.9596 323.696 77.7503 325.975C77.6971 326.549 78.5948 326.546 78.6476 325.975Z" fill="#3F3D56"/>
<path d="M89.9445 298.151C93.083 298.151 95.6273 295.607 95.6273 292.468C95.6273 289.33 93.083 286.786 89.9445 286.786C86.806 286.786 84.2617 289.33 84.2617 292.468C84.2617 295.607 86.806 298.151 89.9445 298.151Z" fill="#E0B581"/>
<path d="M77.5145 325.438C73.1627 318.647 69.9557 311.187 68.0217 303.356C67.4846 301.176 67.048 298.974 66.7119 296.752C66.6925 296.637 66.6293 296.534 66.5355 296.465C66.4418 296.396 66.3249 296.366 66.2095 296.382C66.0941 296.397 65.9893 296.457 65.9171 296.548C65.8449 296.64 65.811 296.756 65.8225 296.871C67.0513 304.962 69.6015 312.797 73.3713 320.06C74.4253 322.088 75.5706 324.064 76.807 325.99C77.1186 326.476 77.8241 325.921 77.5145 325.438Z" fill="#3F3D56"/>
<path d="M65.8156 297.752C68.9541 297.752 71.4984 295.208 71.4984 292.069C71.4984 288.931 68.9541 286.387 65.8156 286.387C62.6771 286.387 60.1328 288.931 60.1328 292.069C60.1328 295.208 62.6771 297.752 65.8156 297.752Z" fill="#E0B581"/>
<path d="M60.0684 330.466V319.301C60.0696 318.191 60.5112 317.126 61.2961 316.341C62.0811 315.557 63.1453 315.115 64.2554 315.114H90.308C91.4181 315.115 92.4824 315.557 93.2673 316.341C94.0523 317.126 94.4938 318.191 94.4951 319.301V330.466C94.4938 331.576 94.0523 332.641 93.2673 333.426C92.4824 334.21 91.4181 334.652 90.308 334.653H64.2554C63.1453 334.652 62.0811 334.21 61.2961 333.426C60.5112 332.641 60.0696 331.576 60.0684 330.466Z" fill="#CCCCCC"/>
<path d="M221.977 327.236H148.471C146.673 327.236 145.215 328.694 145.215 330.493C145.215 332.291 146.673 333.749 148.471 333.749H221.977C223.776 333.749 225.234 332.291 225.234 330.493C225.234 328.694 223.776 327.236 221.977 327.236Z" fill="#CCCCCC"/>
<path d="M271.292 333.749H188.482C186.878 333.748 185.341 333.11 184.207 331.976C183.073 330.842 182.435 329.305 182.434 327.702V282.109C182.435 280.506 183.073 278.969 184.207 277.835C185.341 276.701 186.878 276.063 188.482 276.062H271.292C272.895 276.063 274.432 276.701 275.566 277.835C276.7 278.969 277.338 280.506 277.34 282.109V327.702C277.338 329.305 276.7 330.842 275.566 331.976C274.432 333.11 272.895 333.748 271.292 333.749Z" fill="#CCCCCC"/>
<path d="M229.887 310.488C232.971 310.488 235.47 307.989 235.47 304.905C235.47 301.822 232.971 299.323 229.887 299.323C226.804 299.323 224.305 301.822 224.305 304.905C224.305 307.989 226.804 310.488 229.887 310.488Z" fill="white"/>
<path d="M482.039 395.159C482.039 387.965 454.961 382.133 421.559 382.133C388.158 382.133 361.08 387.965 361.08 395.159C361.08 399.77 372.212 403.818 388.994 406.133V477.504C388.994 479.108 389.631 480.646 390.765 481.781C391.899 482.915 393.438 483.552 395.042 483.552C396.646 483.552 398.184 482.915 399.318 481.781C400.452 480.646 401.089 479.108 401.089 477.504V407.419C407.484 407.914 414.373 408.185 421.559 408.185C428.745 408.185 435.635 407.914 442.029 407.419V477.504C442.029 479.108 442.667 480.646 443.801 481.781C444.935 482.915 446.473 483.552 448.077 483.552C449.681 483.552 451.22 482.915 452.354 481.781C453.488 480.646 454.125 479.108 454.125 477.504V406.133C470.906 403.818 482.039 399.77 482.039 395.159Z" fill="#CCCCCC"/>
<path d="M428.248 275.929C442.636 275.929 454.301 264.265 454.301 249.876C454.301 235.488 442.636 223.824 428.248 223.824C413.859 223.824 402.195 235.488 402.195 249.876C402.195 264.265 413.859 275.929 428.248 275.929Z" fill="#2F2E41"/>
<path d="M363.412 472.781H352.005L346.578 428.782H363.414L363.412 472.781Z" fill="#FFB8B8"/>
<path d="M343.857 469.521H365.857V483.373H330.006C330.006 481.553 330.364 479.752 331.06 478.072C331.756 476.391 332.777 474.864 334.063 473.578C335.349 472.292 336.876 471.271 338.557 470.575C340.237 469.879 342.038 469.521 343.857 469.521Z" fill="#2F2E41"/>
<path d="M345.606 466.415L334.723 463L342.717 419.394L358.78 424.434L345.606 466.415Z" fill="#FFB8B8"/>
<path d="M327.925 457.45L348.915 464.037L344.768 477.253L310.562 466.518C311.106 464.783 311.987 463.171 313.155 461.776C314.322 460.381 315.753 459.23 317.365 458.388C318.977 457.546 320.74 457.029 322.552 456.868C324.364 456.707 326.189 456.905 327.925 457.45Z" fill="#2F2E41"/>
<path d="M349.317 448.859C348.818 448.859 348.322 448.769 347.854 448.593L339.462 445.446C338.52 445.09 337.738 444.407 337.257 443.521C336.777 442.636 336.63 441.607 336.844 440.623C338.957 431.123 346.158 398.78 350.101 381.432C354.777 360.855 422.995 357.032 425.896 356.879L426.135 356.866L433.809 366.51C436.582 375.422 435.703 382.375 431.196 387.173C418.047 401.173 378.786 392.486 374.105 391.386L353.237 446.163C352.933 446.956 352.396 447.639 351.696 448.12C350.996 448.601 350.167 448.859 349.317 448.859Z" fill="#2F2E41"/>
<path d="M361.413 455.372C360.913 455.372 360.418 455.282 359.95 455.106L351.558 451.959C350.616 451.603 349.833 450.92 349.353 450.034C348.872 449.149 348.726 448.121 348.94 447.136C351.053 437.636 358.253 405.293 362.196 387.945C366.873 367.368 435.09 363.545 437.992 363.392L438.23 363.379L445.904 373.023C448.677 381.936 447.799 388.888 443.292 393.686C430.143 407.686 390.882 398.999 386.201 397.9L365.333 452.676C365.029 453.469 364.492 454.152 363.792 454.633C363.092 455.114 362.262 455.372 361.413 455.372Z" fill="#2F2E41"/>
<path d="M337.133 321.369C337.442 321.781 337.717 322.217 337.957 322.673L383.847 327.508L390.453 318.451L405.424 326.634L392.45 348.612L336.169 334.262C334.749 335.647 332.941 336.566 330.986 336.898C329.031 337.23 327.021 336.959 325.224 336.12C323.427 335.282 321.927 333.917 320.925 332.206C319.923 330.495 319.465 328.519 319.613 326.541C319.761 324.564 320.507 322.678 321.753 321.135C322.999 319.592 324.685 318.465 326.587 317.904C328.489 317.342 330.516 317.373 332.4 317.992C334.284 318.611 335.935 319.789 337.133 321.369Z" fill="#FFB8B8"/>
<path d="M443.775 376.714C443.111 376.712 442.457 376.552 441.868 376.248C432.691 371.582 414.823 363.501 398.253 361.81C397.686 361.755 397.137 361.581 396.641 361.301C396.145 361.02 395.713 360.639 395.373 360.182C395.026 359.72 394.778 359.192 394.645 358.63C394.512 358.068 394.495 357.484 394.597 356.915C396.093 348.639 399.522 327.563 399.081 310.671C398.95 305.477 400.591 300.394 403.734 296.256C406.876 292.119 411.332 289.174 416.37 287.905C419.403 287.105 422.484 286.497 425.594 286.087C429.168 285.634 432.799 286.025 436.195 287.227C439.591 288.43 442.658 290.412 445.151 293.013C447.644 295.614 449.492 298.763 450.549 302.208C451.606 305.652 451.841 309.296 451.236 312.848C448.281 330.353 445.303 354.802 447.892 371.869C448.01 372.634 447.915 373.417 447.617 374.131C447.318 374.845 446.827 375.463 446.199 375.915C445.496 376.431 444.647 376.711 443.775 376.714Z" fill="#E0B581"/>
<path d="M399.93 332.19C399.358 332.19 398.792 332.071 398.267 331.843L386.313 326.669C385.295 326.226 384.494 325.398 384.085 324.366C383.677 323.334 383.694 322.182 384.134 321.163L393.375 299.816C393.932 298.526 394.738 297.357 395.747 296.379C396.756 295.4 397.949 294.629 399.256 294.111C400.563 293.593 401.959 293.338 403.364 293.36C404.77 293.382 406.158 293.68 407.448 294.239C408.738 294.797 409.906 295.604 410.884 296.614C411.862 297.624 412.631 298.817 413.148 300.124C413.665 301.432 413.919 302.828 413.896 304.234C413.873 305.64 413.573 307.027 413.014 308.317L403.773 329.663C403.448 330.413 402.911 331.052 402.228 331.5C401.546 331.949 400.747 332.189 399.93 332.19Z" fill="#E0B581"/>
<path d="M427.294 278.825C439.915 278.825 450.147 268.593 450.147 255.972C450.147 243.351 439.915 233.119 427.294 233.119C414.673 233.119 404.441 243.351 404.441 255.972C404.441 268.593 414.673 278.825 427.294 278.825Z" fill="#FFB8B8"/>
<path d="M404.029 244.744C414.854 251.352 427.057 255.373 439.69 256.494L435.931 251.99C438.668 253.002 441.548 253.574 444.464 253.684C447.376 253.639 450.428 252.518 452.081 250.119C452.818 248.927 453.256 247.574 453.358 246.176C453.459 244.778 453.22 243.376 452.663 242.09C451.517 239.524 449.734 237.295 447.484 235.613C443.494 232.458 438.786 230.338 433.778 229.443C428.771 228.548 423.62 228.906 418.784 230.484C415.467 231.476 412.497 233.381 410.213 235.983C408.046 238.655 403.875 241.037 404.985 244.293L404.029 244.744Z" fill="#2F2E41"/>
<path d="M431.137 226.302C423.929 218.993 415.207 213.352 405.584 209.778C399.407 207.489 392.683 206.076 386.226 207.375C379.768 208.675 373.661 213.142 371.859 219.478C370.386 224.659 371.907 230.238 374.193 235.115C376.48 239.992 379.532 244.515 381.381 249.574C383.267 254.736 383.835 260.288 383.031 265.725C382.228 271.162 380.079 276.312 376.781 280.708C373.482 285.104 369.138 288.607 364.142 290.898C359.146 293.189 353.658 294.197 348.174 293.828C354.519 294.679 360.368 297.661 366.57 299.248C372.772 300.835 380.092 300.728 384.701 296.284C389.577 291.583 389.675 283.94 389.439 277.171L388.387 246.982C388.209 241.85 388.056 236.554 389.907 231.764C391.757 226.974 396.156 222.78 401.291 222.824C405.182 222.857 408.627 225.214 411.748 227.539C414.869 229.864 418.172 232.345 422.048 232.691C425.925 233.036 430.351 230.168 430.061 226.287" fill="#2F2E41"/>
<path d="M324.91 304.538L377.53 305.78L385.153 362.031L336.558 363.122L324.91 304.538Z" fill="#E6E6E6"/>
<path d="M380.866 319.508C381.174 319.921 381.449 320.357 381.689 320.812L427.579 325.647L434.185 316.59L449.157 324.773L436.182 346.751L379.902 332.401C378.482 333.786 376.674 334.705 374.719 335.037C372.764 335.369 370.754 335.098 368.957 334.26C367.159 333.421 365.66 332.056 364.658 330.345C363.655 328.634 363.198 326.658 363.346 324.68C363.493 322.703 364.24 320.817 365.486 319.274C366.731 317.731 368.417 316.604 370.319 316.043C372.221 315.481 374.249 315.512 376.133 316.131C378.017 316.75 379.668 317.928 380.866 319.508V319.508Z" fill="#FFB8B8"/>
<path d="M443.66 333.121C443.088 333.12 442.522 333.002 441.998 332.774L430.043 327.599C429.025 327.157 428.224 326.329 427.816 325.297C427.407 324.265 427.425 323.113 427.864 322.094L437.105 300.747C437.663 299.456 438.469 298.288 439.478 297.309C440.487 296.33 441.679 295.56 442.986 295.042C444.293 294.524 445.689 294.268 447.095 294.29C448.501 294.312 449.888 294.611 451.179 295.169C452.469 295.728 453.636 296.535 454.614 297.545C455.592 298.555 456.362 299.748 456.879 301.055C457.396 302.362 457.65 303.759 457.627 305.165C457.604 306.57 457.304 307.958 456.744 309.247L447.504 330.594C447.179 331.344 446.642 331.982 445.959 332.431C445.276 332.88 444.477 333.12 443.66 333.121Z" fill="#E0B581"/>
<path d="M407.135 332.819H36.8155C35.2115 332.819 33.6732 333.457 32.539 334.591C31.4048 335.725 30.7676 337.263 30.7676 338.867C30.7676 340.471 31.4048 342.01 32.539 343.144C33.6732 344.278 35.2115 344.915 36.8155 344.915H47.5157V476.574C47.5157 478.178 48.1529 479.716 49.2871 480.851C50.4213 481.985 51.9596 482.622 53.5636 482.622C55.1676 482.622 56.706 481.985 57.8402 480.851C58.9744 479.716 59.6116 478.178 59.6116 476.574V356.537L127.415 479.429C128.218 480.814 129.539 481.824 131.087 482.238C132.634 482.651 134.283 482.433 135.67 481.632C137.057 480.831 138.07 479.512 138.486 477.965C138.903 476.418 138.688 474.77 137.89 473.381L67.012 344.915H390.852V344.994L320.018 473.381C319.216 474.77 318.999 476.42 319.414 477.97C319.829 479.519 320.842 480.84 322.231 481.642C323.62 482.444 325.271 482.661 326.821 482.246C328.37 481.831 329.691 480.818 330.493 479.429L390.852 370.028V476.574C390.852 478.178 391.489 479.716 392.624 480.851C393.758 481.985 395.296 482.622 396.9 482.622C398.504 482.622 400.042 481.985 401.177 480.851C402.311 479.716 402.948 478.178 402.948 476.574V348.104L404.708 344.915H407.135C408.739 344.915 410.277 344.278 411.412 343.144C412.546 342.01 413.183 340.471 413.183 338.867C413.183 337.263 412.546 335.725 411.412 334.591C410.277 333.457 408.739 332.819 407.135 332.819Z" fill="#3F3D56"/>
<path d="M494.204 484.034H0.793447C0.582801 484.033 0.380995 483.935 0.232261 483.76C0.0835272 483.586 0 483.35 0 483.103C0 482.857 0.0835272 482.621 0.232261 482.446C0.380995 482.272 0.582801 482.174 0.793447 482.173H494.204C494.415 482.173 494.618 482.271 494.767 482.445C494.916 482.62 495 482.857 495 483.103C495 483.35 494.916 483.587 494.767 483.761C494.618 483.936 494.415 484.034 494.204 484.034Z" fill="#3F3D56"/>
</svg>
