<svg width="1360" height="160" viewBox="0 0 1360 160" fill="none" xmlns="http://www.w3.org/2000/svg">
<g clip-path="url(#clip0)">
<rect width="1360" height="160" fill="#18313E"/>
<path d="M609.792 96.672C607.056 96.672 604.672 96.024 602.64 94.728C600.624 93.416 599.056 91.544 597.936 89.112C596.816 86.68 596.256 83.76 596.256 80.352C596.256 76.832 596.832 73.88 597.984 71.496C599.152 69.096 600.752 67.288 602.784 66.072C604.832 64.84 607.168 64.224 609.792 64.224C613.424 64.224 616.256 65.104 618.288 66.864C620.336 68.624 621.648 70.912 622.224 73.728L616.176 74.832C615.68 73.2 614.888 71.88 613.8 70.872C612.712 69.864 611.376 69.36 609.792 69.36C608.4 69.36 607.144 69.768 606.024 70.584C604.904 71.384 604.008 72.6 603.336 74.232C602.68 75.864 602.352 77.904 602.352 80.352C602.352 82.656 602.64 84.64 603.216 86.304C603.808 87.968 604.656 89.248 605.76 90.144C606.864 91.04 608.208 91.488 609.792 91.488C611.824 91.488 613.392 90.952 614.496 89.88C615.616 88.792 616.176 87.408 616.176 85.728H622.224C622.224 88.048 621.72 90.024 620.712 91.656C619.72 93.272 618.296 94.512 616.44 95.376C614.584 96.24 612.368 96.672 609.792 96.672ZM643.718 96L642.998 90.336V80.976C642.998 79.344 642.662 78.136 641.99 77.352C641.334 76.568 640.214 76.176 638.63 76.176C637.718 76.176 636.926 76.312 636.254 76.584C635.582 76.856 635.062 77.248 634.694 77.76C634.342 78.256 634.166 78.864 634.166 79.584H627.974C627.974 77.824 628.398 76.392 629.246 75.288C630.094 74.168 631.31 73.352 632.894 72.84C634.494 72.312 636.406 72.048 638.63 72.048C640.646 72.048 642.406 72.376 643.91 73.032C645.414 73.672 646.582 74.664 647.414 76.008C648.246 77.352 648.662 79.072 648.662 81.168V96H643.718ZM636.086 96.672C634.086 96.672 632.414 96.328 631.07 95.64C629.742 94.936 628.742 94.016 628.07 92.88C627.398 91.744 627.062 90.512 627.062 89.184C627.062 87.712 627.446 86.48 628.214 85.488C628.998 84.48 630.102 83.728 631.526 83.232C632.95 82.72 634.63 82.464 636.566 82.464C637.83 82.464 639.022 82.56 640.142 82.752C641.278 82.944 642.406 83.2 643.526 83.52V86.832C642.646 86.544 641.686 86.32 640.646 86.16C639.606 86 638.63 85.92 637.718 85.92C636.374 85.92 635.27 86.168 634.406 86.664C633.542 87.16 633.11 88 633.11 89.184C633.11 90.048 633.462 90.792 634.166 91.416C634.87 92.04 635.99 92.352 637.526 92.352C638.694 92.352 639.686 92.096 640.502 91.584C641.318 91.072 641.934 90.432 642.35 89.664C642.782 88.896 642.998 88.128 642.998 87.36H644.342C644.342 89.04 644.03 90.592 643.406 92.016C642.782 93.424 641.854 94.552 640.622 95.4C639.406 96.248 637.894 96.672 636.086 96.672ZM656.964 96V72.624H662.628V96H656.964ZM661.236 85.776C661.236 82.72 661.58 80.192 662.268 78.192C662.956 76.192 663.876 74.712 665.028 73.752C666.196 72.776 667.492 72.288 668.916 72.288C669.3 72.288 669.66 72.312 669.996 72.36C670.348 72.408 670.692 72.48 671.028 72.576L670.932 78.24C670.516 78.144 670.068 78.064 669.588 78C669.108 77.936 668.676 77.904 668.292 77.904C667.044 77.904 665.996 78.208 665.148 78.816C664.316 79.408 663.684 80.288 663.252 81.456C662.836 82.624 662.628 84.064 662.628 85.776H661.236ZM684.496 96.672C682.512 96.672 680.696 96.16 679.048 95.136C677.4 94.112 676.08 92.68 675.088 90.84C674.096 88.984 673.6 86.816 673.6 84.336C673.6 81.776 674.088 79.576 675.064 77.736C676.056 75.896 677.376 74.488 679.024 73.512C680.672 72.536 682.496 72.048 684.496 72.048C686.352 72.048 687.952 72.424 689.296 73.176C690.656 73.912 691.744 74.92 692.56 76.2C693.392 77.464 693.952 78.896 694.24 80.496C694.528 82.096 694.544 83.744 694.288 85.44H678.112V82.368H690.28L689.176 83.088C689.224 82.336 689.184 81.576 689.056 80.808C688.944 80.04 688.72 79.336 688.384 78.696C688.048 78.056 687.568 77.544 686.944 77.16C686.336 76.76 685.552 76.56 684.592 76.56C683.44 76.56 682.464 76.848 681.664 77.424C680.864 78 680.256 78.784 679.84 79.776C679.424 80.768 679.216 81.888 679.216 83.136V85.392C679.216 86.704 679.408 87.864 679.792 88.872C680.192 89.88 680.776 90.672 681.544 91.248C682.328 91.824 683.312 92.112 684.496 92.112C685.6 92.112 686.528 91.856 687.28 91.344C688.032 90.832 688.512 90.064 688.72 89.04H694.432C694.192 90.544 693.624 91.872 692.728 93.024C691.848 94.16 690.704 95.056 689.296 95.712C687.888 96.352 686.288 96.672 684.496 96.672ZM709.949 96.672C707.965 96.672 706.149 96.16 704.501 95.136C702.853 94.112 701.533 92.68 700.541 90.84C699.549 88.984 699.053 86.816 699.053 84.336C699.053 81.776 699.541 79.576 700.517 77.736C701.509 75.896 702.829 74.488 704.477 73.512C706.125 72.536 707.949 72.048 709.949 72.048C711.805 72.048 713.405 72.424 714.749 73.176C716.109 73.912 717.197 74.92 718.013 76.2C718.845 77.464 719.405 78.896 719.693 80.496C719.981 82.096 719.997 83.744 719.741 85.44H703.565V82.368H715.733L714.629 83.088C714.677 82.336 714.637 81.576 714.509 80.808C714.397 80.04 714.173 79.336 713.837 78.696C713.501 78.056 713.021 77.544 712.397 77.16C711.789 76.76 711.005 76.56 710.045 76.56C708.893 76.56 707.917 76.848 707.117 77.424C706.317 78 705.709 78.784 705.293 79.776C704.877 80.768 704.669 81.888 704.669 83.136V85.392C704.669 86.704 704.861 87.864 705.245 88.872C705.645 89.88 706.229 90.672 706.997 91.248C707.781 91.824 708.765 92.112 709.949 92.112C711.053 92.112 711.981 91.856 712.733 91.344C713.485 90.832 713.965 90.064 714.173 89.04H719.885C719.645 90.544 719.077 91.872 718.181 93.024C717.301 94.16 716.157 95.056 714.749 95.712C713.341 96.352 711.741 96.672 709.949 96.672ZM726.714 96V72.624H732.378V96H726.714ZM730.986 85.776C730.986 82.72 731.33 80.192 732.018 78.192C732.706 76.192 733.626 74.712 734.778 73.752C735.946 72.776 737.242 72.288 738.666 72.288C739.05 72.288 739.41 72.312 739.746 72.36C740.098 72.408 740.442 72.48 740.778 72.576L740.682 78.24C740.266 78.144 739.818 78.064 739.338 78C738.858 77.936 738.426 77.904 738.042 77.904C736.794 77.904 735.746 78.208 734.898 78.816C734.066 79.408 733.434 80.288 733.002 81.456C732.586 82.624 732.378 84.064 732.378 85.776H730.986ZM754.246 96.672C752.006 96.672 750.078 96.368 748.462 95.76C746.862 95.136 745.63 94.248 744.766 93.096C743.902 91.928 743.462 90.528 743.446 88.896H748.678C748.726 90.048 749.182 90.888 750.046 91.416C750.91 91.944 752.086 92.208 753.574 92.208C754.39 92.208 755.11 92.088 755.734 91.848C756.374 91.608 756.87 91.28 757.222 90.864C757.574 90.448 757.75 89.984 757.75 89.472C757.75 88.816 757.51 88.304 757.03 87.936C756.566 87.552 755.814 87.2 754.774 86.88L749.686 85.056C747.862 84.4 746.462 83.536 745.486 82.464C744.51 81.392 744.022 80.112 744.022 78.624C744.022 76.656 744.91 75.072 746.686 73.872C748.478 72.656 750.87 72.048 753.862 72.048C756.838 72.048 759.134 72.704 760.75 74.016C762.382 75.312 763.222 76.96 763.27 78.96H757.942C757.862 78.192 757.494 77.584 756.838 77.136C756.182 76.688 755.19 76.464 753.862 76.464C752.662 76.464 751.718 76.712 751.03 77.208C750.358 77.688 750.022 78.256 750.022 78.912C750.022 80.016 750.966 80.848 752.854 81.408L758.374 83.472C760.166 84.08 761.558 84.864 762.55 85.824C763.542 86.784 764.038 88 764.038 89.472C764.038 90.704 763.622 91.872 762.79 92.976C761.974 94.064 760.83 94.952 759.358 95.64C757.886 96.328 756.182 96.672 754.246 96.672Z" fill="white"/>
<path opacity="0.25" d="M1320.93 189.459C1305.41 189.459 1291.95 184.208 1280.56 173.708C1269.18 163.207 1264 149.556 1264 132.754C1264 114.903 1269.18 101.252 1279.53 90.7512C1289.88 80.2504 1303.34 75 1318.86 75C1334.39 75 1347.85 80.2504 1359.23 89.7011C1370.62 100.202 1375.8 113.853 1375.8 130.654C1375.8 147.456 1370.62 161.107 1360.27 171.607C1349.92 183.158 1336.46 189.459 1320.93 189.459Z" fill="#DEB580"/>
<path opacity="0.25" d="M1202.93 75.4589C1187.41 75.4589 1173.95 70.2085 1162.56 59.7077C1151.18 49.2068 1146 35.5558 1146 18.7545C1146 0.903099 1151.18 -12.748 1161.53 -23.2488C1171.88 -33.7496 1185.34 -39 1200.86 -39C1216.39 -39 1229.85 -33.7496 1241.23 -24.2989C1252.62 -13.798 1257.8 -0.146992 1257.8 16.6543C1257.8 33.4556 1252.62 47.1067 1242.27 57.6075C1231.92 69.1584 1218.46 75.4589 1202.93 75.4589Z" fill="#D4E6ED"/>
<path opacity="0.25" d="M21.25 180C10 180 0.25 176.147 -8 168.44C-16.25 160.734 -20 150.716 -20 138.385C-20 125.284 -16.25 115.266 -8.75 107.56C-1.25 99.8532 8.49999 96 19.75 96C31 96 40.75 99.8532 49 106.789C57.25 114.495 61 124.514 61 136.844C61 149.174 57.25 159.193 49.75 166.899C42.25 175.376 33.25 180 21.25 180Z" fill="white"/>
</g>
<defs>
<clipPath id="clip0">
<rect width="1360" height="160" fill="white"/>
</clipPath>
</defs>
</svg>
