<svg width="576" height="488" viewBox="0 0 576 488" fill="none" xmlns="http://www.w3.org/2000/svg">
<path opacity="0.1" d="M421.457 1.35176C394.446 0.0384339 366.97 0.258286 340.886 6.73232C314.803 13.2064 289.998 26.5305 275.154 46.9651C266.655 58.6635 261.583 72.3637 251.685 83.1248C234.515 101.783 206.451 108.194 180.552 114.627C119.731 129.67 58.5706 151.406 14.4536 192.125C8.11989 197.962 1.94742 204.621 0.513701 212.692C-1.68582 225.102 7.99897 236.714 18.7432 244.658C29.4875 252.601 42.2009 258.902 50.1526 269.206C60.2922 282.345 60.8623 299.707 57.9833 315.49C55.1044 331.273 49.1795 346.628 47.6191 362.585C47.2333 366.519 47.1412 370.621 48.8398 374.26C51.0911 379.085 56.0947 382.36 61.0005 385.113C78.3932 394.923 97.1606 402.036 116.668 406.213C150.277 413.451 185.325 412.091 219.734 415.065C254.144 418.039 289.981 426.359 314.164 448.656C328.996 462.327 342.378 482.27 363.526 481.593C375.376 481.217 385.844 473.939 397.665 473.129C410.972 472.215 423 479.493 435.546 483.641C453.367 489.543 474.003 488.97 490.713 480.835C507.422 472.701 519.554 456.768 520.533 439.642C521.489 422.864 512.437 407.168 507.209 391.044C490.062 338.216 514.182 282.391 538.164 231.779C562.145 181.167 586.893 125.759 570.938 72.624C552.414 10.9963 480.665 4.23296 421.457 1.35176Z" fill="#E0B581"/>
<path d="M194.012 202.767C193.784 203.099 193.583 203.448 193.409 203.812L157.842 208.927L152.441 202.028L141.027 208.868L151.756 225.699L195.134 212.833C196.279 213.876 197.712 214.543 199.243 214.746C200.773 214.949 202.329 214.679 203.704 213.97C205.078 213.262 206.205 212.15 206.936 210.781C207.666 209.412 207.966 207.852 207.794 206.308C207.622 204.765 206.986 203.31 205.973 202.138C204.959 200.966 203.615 200.133 202.119 199.748C200.623 199.364 199.046 199.447 197.598 199.986C196.15 200.525 194.899 201.495 194.012 202.767Z" fill="#FFB8B8"/>
<path d="M469.5 165.5L515.5 205.5L519 208.5L520 210.5L517 211L370 278L360.5 282H357.5L317.5 263.5L199.5 210.5L222.5 191L238 178L375 83.5L384.5 92.5L469.5 165.5Z" fill="#F2F2F3"/>
<path d="M203 211.5L243.5 230L269.5 241.5L312 261L350.5 278.5L357.5 282H360.5L366 279.5L412 259L455 239L511.5 213.5L518 210.5L521 211L523 213.5V392.5L523.5 399L521 401.5L517.5 402.5L205.5 402H198.5L196 399.5L195.5 397V240.5V220.5L196.5 211.5L200.5 210.5L203 211.5Z" fill="white"/>
<path d="M575.999 212.019C576 226.341 570.628 240.137 560.958 250.647C551.287 261.157 538.03 267.607 523.837 268.708C523.359 268.745 522.874 268.781 522.388 268.803V214.84C522.389 214.3 522.269 213.768 522.039 213.281C521.808 212.794 521.472 212.365 521.055 212.026C521.007 211.976 520.954 211.932 520.896 211.895C520.843 211.852 520.788 211.813 520.729 211.778C520.22 211.449 519.637 211.252 519.034 211.208C518.43 211.163 517.825 211.272 517.273 211.523L516.672 210.196C517.33 209.895 518.043 209.739 518.766 209.737L477.5 173.968C477.819 173.604 478.152 173.247 478.485 172.889C486.265 164.638 496.325 158.924 507.366 156.485C518.407 154.046 529.921 154.994 540.42 159.207C550.92 163.42 559.923 170.705 566.265 180.119C572.607 189.533 575.998 200.645 575.999 212.019Z" fill="#F2F2F2"/>
<path d="M39.3275 250.788C39.1223 249.733 39.1494 248.645 39.4071 247.602C39.6647 246.559 40.1465 245.585 40.8186 244.75C41.4907 243.914 42.3368 243.237 43.2971 242.766C44.2574 242.295 45.3087 242.041 46.3769 242.023L78.9508 203.008L87.083 213.47L53.8857 249.78C53.7968 251.588 53.052 253.3 51.7924 254.592C50.5328 255.884 48.8459 256.666 47.0514 256.79C45.257 256.914 43.4795 256.372 42.056 255.266C40.6324 254.159 39.6616 252.566 39.3275 250.788H39.3275Z" fill="#FFB8B8"/>
<path d="M133.258 333.123L139.552 339.428L166.72 318.004L157.431 308.697L133.258 333.123Z" fill="#FFB8B8"/>
<path d="M145.871 357.47L126.09 337.652L133.7 329.963L145.838 342.123C146.842 343.129 147.639 344.323 148.184 345.639C148.729 346.954 149.011 348.365 149.014 349.79C149.017 351.215 148.741 352.626 148.201 353.944C147.662 355.262 146.87 356.46 145.871 357.47L145.871 357.47Z" fill="#2F2E41"/>
<path d="M99.7983 393.604H108.68L112.905 359.134H99.7969L99.7983 393.604Z" fill="#FFB8B8"/>
<path d="M125.812 401.901L97.8981 401.902L97.8976 391.051L115.027 391.05C116.443 391.05 117.846 391.331 119.154 391.876C120.463 392.421 121.652 393.22 122.653 394.228C123.655 395.236 124.449 396.432 124.991 397.748C125.533 399.065 125.812 400.476 125.812 401.901Z" fill="#2F2E41"/>
<path d="M97.8682 366.981L87.7513 291.91C86.168 280.565 86.6594 269.024 89.2012 257.857C91.2772 248.882 94.0819 242.666 97.5375 239.381C98.0828 238.866 98.7809 238.545 99.5248 238.468L132.928 234.967C133.571 234.9 134.22 235.02 134.798 235.311C135.377 235.601 135.861 236.052 136.195 236.609L137.293 238.45C137.426 238.674 137.534 238.912 137.614 239.16L144.676 261.189C144.781 261.521 144.951 261.83 145.176 262.096C145.401 262.362 145.676 262.58 145.986 262.739C157.105 268.45 193.224 287.732 191.157 296.051C189.215 303.867 171.032 316.541 165.505 320.239C164.942 320.618 164.279 320.817 163.602 320.812C162.925 320.807 162.266 320.597 161.709 320.21L152.535 313.895C152.087 313.586 151.719 313.174 151.461 312.694C151.204 312.213 151.065 311.677 151.055 311.131C151.046 310.585 151.166 310.045 151.407 309.555C151.647 309.066 152.001 308.641 152.438 308.317L158.764 303.627C159.151 303.34 159.453 302.952 159.638 302.505C159.822 302.058 159.882 301.569 159.811 301.09C159.739 300.612 159.54 300.162 159.233 299.789C158.927 299.416 158.525 299.134 158.071 298.974L124.094 286.979C123.713 286.844 123.306 286.799 122.904 286.847C122.503 286.896 122.118 287.036 121.779 287.258C121.44 287.479 121.156 287.776 120.948 288.125C120.741 288.475 120.616 288.867 120.583 289.272L114.319 366.312C114.249 367.138 113.885 367.911 113.294 368.488C112.702 369.064 111.923 369.406 111.1 369.449L101.407 369.937C101.348 369.94 101.289 369.942 101.231 369.942C100.408 369.945 99.6126 369.646 98.9935 369.101C98.3744 368.556 97.9743 367.802 97.8682 366.981Z" fill="#2F2E41"/>
<path d="M113.184 172.812C123.012 172.812 130.978 164.797 130.978 154.909C130.978 145.021 123.012 137.006 113.184 137.006C103.357 137.006 95.3906 145.021 95.3906 154.909C95.3906 164.797 103.357 172.812 113.184 172.812Z" fill="#FFB8B8"/>
<path d="M96.5432 236.314L83.4453 188.23L83.6696 188.078C83.9509 187.887 112.182 169.13 145.236 184.246L145.835 184.591L138.074 234.5C137.904 235.639 137.345 236.682 136.493 237.451C135.641 238.22 134.549 238.665 133.405 238.71L101.468 239.946C101.404 239.949 101.34 239.95 101.276 239.95C100.199 239.953 99.1518 239.598 98.2962 238.94C97.4405 238.283 96.8243 237.36 96.5432 236.314Z" fill="#CCCCCC"/>
<path d="M82.9475 219.533L72.039 206.911C71.5136 206.305 71.2178 205.531 71.2037 204.727C71.1895 203.923 71.4581 203.139 71.9619 202.514L83.3655 188.34L92.1196 190.743L96.7607 207.087L88.2984 219.25C88.0033 219.677 87.6148 220.03 87.1628 220.282C86.7108 220.535 86.2073 220.679 85.6912 220.705C85.6301 220.708 85.5694 220.709 85.5087 220.709C85.0229 220.71 84.5425 220.606 84.1005 220.403C83.6585 220.2 83.2652 219.903 82.9475 219.533Z" fill="#CCCCCC"/>
<path d="M143.273 216.904C142.757 216.878 142.253 216.734 141.801 216.482C141.349 216.23 140.961 215.876 140.665 215.45L132.203 203.286L136.273 186.081L144.334 183.869L145.838 184.591L157.002 198.714C157.506 199.338 157.774 200.122 157.76 200.926C157.746 201.731 157.45 202.504 156.925 203.111L146.016 215.732C145.699 216.102 145.305 216.399 144.863 216.602C144.421 216.805 143.941 216.909 143.455 216.908C143.395 216.908 143.334 216.907 143.273 216.904Z" fill="#CCCCCC"/>
<path d="M522.39 211.268C522.396 211.449 522.334 211.626 522.216 211.763C522.091 211.91 521.913 212.001 521.722 212.016C521.53 212.031 521.34 211.969 521.194 211.844L518.767 209.737L477.501 173.968L361.76 73.6299C361.1 73.0612 360.259 72.7493 359.39 72.7506C358.52 72.752 357.68 73.0665 357.022 73.6372L201.159 209.883L199.753 211.107C199.699 211.155 199.638 211.195 199.572 211.224C199.456 211.276 199.329 211.296 199.203 211.282C199.022 211.263 198.854 211.177 198.732 211.042C198.669 210.97 198.621 210.886 198.59 210.796C198.559 210.705 198.546 210.61 198.552 210.514C198.558 210.419 198.583 210.325 198.625 210.24C198.667 210.154 198.725 210.077 198.797 210.014L198.992 209.839L356.073 72.5365C356.996 71.7389 358.171 71.2991 359.388 71.2964C360.605 71.2937 361.782 71.7283 362.709 72.5219L478.487 172.889L522.136 210.736C522.212 210.802 522.274 210.884 522.318 210.975C522.362 211.067 522.386 211.166 522.39 211.268Z" fill="#3F3D56"/>
<path d="M434.383 232.793L432.478 227.516L425.914 209.292L411.772 170.054L395.964 126.194L367.456 47.0822C366.896 45.5395 365.752 44.2828 364.273 43.5874C362.794 42.892 361.102 42.8145 359.567 43.3719L194.742 103.502C193.208 104.065 191.959 105.216 191.268 106.704C190.576 108.192 190.5 109.895 191.055 111.44L231.473 223.594L232.161 225.511L274.586 244.857L286.511 250.295L288.445 251.177L338.934 274.204L340.89 273.49L374.005 261.411L423.958 243.188L430.688 240.731C432.223 240.169 433.473 239.018 434.166 237.53C434.858 236.043 434.936 234.339 434.383 232.793Z" fill="#E6E6E6"/>
<path d="M365.273 139.373C364.451 137.102 362.767 135.253 360.592 134.229C358.416 133.206 355.926 133.092 353.667 133.913L288.45 157.713L256.957 169.201C255.838 169.608 254.81 170.233 253.931 171.04C253.052 171.847 252.34 172.82 251.836 173.904C251.331 174.989 251.043 176.162 250.99 177.358C250.936 178.554 251.117 179.749 251.523 180.874C251.928 182 252.55 183.034 253.353 183.917C254.156 184.801 255.124 185.516 256.202 186.023C257.28 186.53 258.447 186.818 259.636 186.871C260.824 186.924 262.012 186.74 263.13 186.331L288.45 177.095L359.847 151.051C362.104 150.223 363.942 148.529 364.959 146.34C365.976 144.151 366.089 141.646 365.273 139.373Z" fill="white"/>
<path d="M376.756 171.242C375.934 168.971 374.251 167.122 372.075 166.098C369.899 165.075 367.409 164.961 365.15 165.782L354.102 169.813L288.45 193.766L268.441 201.063C266.184 201.888 264.345 203.581 263.329 205.769C262.312 207.957 262.201 210.462 263.019 212.734C263.837 215.005 265.517 216.856 267.691 217.881C269.865 218.906 272.355 219.021 274.613 218.2L288.45 213.148L371.33 182.912C371.518 182.846 371.699 182.766 371.881 182.686C373.985 181.757 375.659 180.058 376.565 177.933C377.47 175.808 377.539 173.416 376.756 171.242Z" fill="white"/>
<path d="M388.363 203.446C387.543 201.176 385.86 199.326 383.686 198.303C381.511 197.279 379.022 197.166 376.764 197.987L345.779 209.292L321.791 218.047L288.451 230.206L280.047 233.274C278.105 233.986 276.463 235.344 275.392 237.123C274.32 238.902 273.885 240.995 274.157 243.057C274.24 243.67 274.386 244.274 274.592 244.857L286.517 250.295L288.451 249.588H288.465L348.966 227.516L382.937 215.124C385.194 214.298 387.034 212.605 388.052 210.415C389.069 208.225 389.181 205.719 388.363 203.446H388.363Z" fill="white"/>
<path d="M320.455 108.043C319.633 105.773 317.949 103.923 315.774 102.9C313.598 101.876 311.108 101.763 308.849 102.584L271.394 116.244C269.137 117.069 267.299 118.762 266.282 120.95C265.265 123.139 265.154 125.644 265.972 127.915C266.79 130.186 268.47 132.038 270.645 133.063C272.819 134.088 275.308 134.202 277.566 133.381L289.419 129.059L297.265 126.194L315.029 119.714C317.285 118.888 319.123 117.195 320.141 115.008C321.158 112.82 321.271 110.315 320.455 108.043Z" fill="white"/>
<path d="M469.93 126.194H294.607C293.573 126.195 292.556 126.458 291.649 126.958C290.743 127.459 289.976 128.181 289.42 129.058C288.784 130.051 288.447 131.208 288.449 132.39V251.177L338.938 274.204L346.052 277.448L357.289 282.572C357.947 282.871 358.66 283.026 359.382 283.026C360.104 283.026 360.818 282.871 361.476 282.572L372.713 277.448L407.879 261.411L440.654 246.461L476.088 230.308V132.39C476.087 130.747 475.437 129.171 474.283 128.01C473.128 126.848 471.562 126.195 469.93 126.194Z" fill="#E0B581"/>
<path d="M433.709 209.292H330.834C328.495 209.294 326.247 210.206 324.561 211.838C322.876 213.47 321.884 215.695 321.792 218.047C321.78 218.166 321.776 218.285 321.778 218.404C321.781 220.82 322.737 223.135 324.434 224.843C326.132 226.551 328.433 227.513 330.834 227.516H433.709C436.111 227.516 438.414 226.556 440.112 224.847C441.811 223.138 442.765 220.821 442.765 218.404C442.765 215.988 441.811 213.67 440.112 211.961C438.414 210.252 436.111 209.292 433.709 209.292Z" fill="white"/>
<path d="M439.569 245.36C437.937 243.955 435.857 243.184 433.708 243.188H330.833C328.431 243.188 326.128 244.148 324.43 245.857C322.731 247.566 321.777 249.883 321.777 252.3C321.777 254.716 322.731 257.034 324.43 258.743C326.128 260.451 328.431 261.411 330.833 261.411H407.881L440.656 246.461C440.326 246.064 439.962 245.696 439.569 245.36Z" fill="white"/>
<path d="M346.051 277.448L357.287 282.572C357.945 282.871 358.659 283.026 359.381 283.026C360.103 283.026 360.817 282.871 361.475 282.572L372.711 277.448H346.051Z" fill="white"/>
<path d="M410.696 170.447C410.059 168.693 408.901 167.179 407.38 166.108C405.859 165.038 404.047 164.464 402.191 164.463H362.345C360.605 164.464 358.903 164.97 357.441 165.919C355.979 166.867 354.819 168.219 354.101 169.813C353.564 170.994 353.287 172.277 353.289 173.575C353.292 175.99 354.248 178.306 355.945 180.014C357.643 181.722 359.944 182.683 362.345 182.686H402.191C403.648 182.686 405.083 182.333 406.375 181.656C407.667 180.979 408.778 179.998 409.613 178.796C410.447 177.595 410.982 176.209 411.171 174.755C411.359 173.302 411.197 171.824 410.696 170.447Z" fill="white"/>
<path d="M404.363 261.411L369.197 277.448L360.873 281.246C360.404 281.458 359.896 281.568 359.381 281.568C358.866 281.568 358.358 281.458 357.889 281.246L349.565 277.448H346.051L357.287 282.572C357.945 282.872 358.659 283.026 359.381 283.026C360.103 283.026 360.817 282.872 361.475 282.572L372.711 277.448L407.877 261.411H404.363ZM404.363 261.411L369.197 277.448L360.873 281.246C360.404 281.458 359.896 281.568 359.381 281.568C358.866 281.568 358.358 281.458 357.889 281.246L349.565 277.448H346.051L357.287 282.572C357.945 282.872 358.659 283.026 359.381 283.026C360.103 283.026 360.817 282.872 361.475 282.572L372.711 277.448L407.877 261.411H404.363ZM404.363 261.411L369.197 277.448L360.873 281.246C360.404 281.458 359.896 281.568 359.381 281.568C358.866 281.568 358.358 281.458 357.889 281.246L349.565 277.448H346.051L357.287 282.572C357.945 282.872 358.659 283.026 359.381 283.026C360.103 283.026 360.817 282.872 361.475 282.572L372.711 277.448L407.877 261.411H404.363ZM522.387 211.268C522.12 211 521.826 210.761 521.511 210.554C520.799 210.089 519.982 209.813 519.136 209.751C518.29 209.688 517.443 209.842 516.671 210.196L439.566 245.36L404.363 261.411L369.197 277.448L360.873 281.246C360.404 281.458 359.896 281.568 359.381 281.568C358.866 281.568 358.358 281.458 357.889 281.246L349.565 277.448L340.892 273.49L288.462 249.588L288.448 249.581L274.154 243.057L231.476 223.594L202.091 210.196C201.792 210.057 201.478 209.952 201.156 209.883C200.447 209.705 199.706 209.69 198.99 209.839C197.844 210.075 196.814 210.701 196.074 211.612C195.334 212.523 194.928 213.663 194.926 214.84V397.897C194.927 399.25 195.462 400.547 196.413 401.504C197.364 402.46 198.653 402.999 199.997 403H518.765C520.109 402.999 521.398 402.46 522.349 401.504C523.3 400.547 523.835 399.25 523.836 397.897V214.84C523.839 213.504 523.318 212.221 522.387 211.268V211.268ZM522.387 397.897C522.387 398.864 522.005 399.791 521.326 400.474C520.647 401.158 519.725 401.542 518.765 401.542H199.997C199.036 401.542 198.115 401.158 197.436 400.474C196.757 399.791 196.375 398.864 196.375 397.897V214.84C196.375 214.231 196.527 213.631 196.817 213.096C197.107 212.562 197.525 212.108 198.034 211.778C198.392 211.547 198.786 211.38 199.2 211.282C199.322 211.256 199.445 211.236 199.57 211.224C199.711 211.204 199.854 211.194 199.997 211.195C200.512 211.196 201.021 211.308 201.489 211.523L232.164 225.511L274.589 244.857L286.513 250.295L288.448 251.177L338.937 274.204L346.051 277.448L357.287 282.572C357.945 282.872 358.659 283.026 359.381 283.026C360.103 283.026 360.817 282.872 361.475 282.572L372.711 277.448L407.877 261.411L440.652 246.461L517.272 211.523C517.824 211.272 518.429 211.163 519.033 211.208C519.636 211.252 520.219 211.449 520.728 211.778C520.787 211.813 520.842 211.852 520.895 211.895C520.953 211.932 521.006 211.976 521.054 212.026C521.471 212.365 521.807 212.794 522.038 213.281C522.268 213.768 522.388 214.3 522.387 214.84L522.387 397.897ZM404.363 261.411L369.197 277.448L360.873 281.246C360.404 281.458 359.896 281.568 359.381 281.568C358.866 281.568 358.358 281.458 357.889 281.246L349.565 277.448H346.051L357.287 282.572C357.945 282.872 358.659 283.026 359.381 283.026C360.103 283.026 360.817 282.872 361.475 282.572L372.711 277.448L407.877 261.411H404.363ZM404.363 261.411L369.197 277.448L360.873 281.246C360.404 281.458 359.896 281.568 359.381 281.568C358.866 281.568 358.358 281.458 357.889 281.246L349.565 277.448H346.051L357.287 282.572C357.945 282.872 358.659 283.026 359.381 283.026C360.103 283.026 360.817 282.872 361.475 282.572L372.711 277.448L407.877 261.411H404.363ZM286.513 250.295L288.448 251.177V249.588L286.513 250.295ZM404.363 261.411L369.197 277.448L360.873 281.246C360.404 281.458 359.896 281.568 359.381 281.568C358.866 281.568 358.358 281.458 357.889 281.246L349.565 277.448H346.051L357.287 282.572C357.945 282.872 358.659 283.026 359.381 283.026C360.103 283.026 360.817 282.872 361.475 282.572L372.711 277.448L407.877 261.411H404.363Z" fill="#3F3D56"/>
<path d="M152.164 403H70.2987C70.1065 403 69.9223 402.923 69.7864 402.787C69.6505 402.65 69.5742 402.464 69.5742 402.271C69.5742 402.078 69.6505 401.892 69.7864 401.756C69.9223 401.619 70.1065 401.542 70.2987 401.542H152.164C152.356 401.542 152.54 401.619 152.676 401.756C152.812 401.892 152.889 402.078 152.889 402.271C152.889 402.464 152.812 402.65 152.676 402.787C152.54 402.923 152.356 403 152.164 403Z" fill="#3F3D56"/>
<path d="M106.425 168.002C105.088 167.32 103.977 166.262 103.225 164.957C102.474 163.653 102.114 162.157 102.19 160.651C102.266 159.144 102.774 157.693 103.653 156.471C104.532 155.25 105.744 154.311 107.142 153.768C112.511 151.683 118.531 155.938 124.159 154.728C129.769 153.522 133.014 146.774 131.675 141.162C130.336 135.55 125.463 131.322 120.089 129.304C116.579 127.988 112.82 127.484 109.09 127.828C105.361 128.172 101.756 129.355 98.542 131.291C95.3614 133.283 92.7126 136.026 90.8257 139.283C88.9388 142.539 87.871 146.21 87.715 149.976C87.6419 153.746 88.5573 157.468 90.3688 160.768C92.1804 164.069 94.8242 166.831 98.0341 168.776C99.4646 169.606 101.13 170.272 102.739 169.898C104.059 169.466 105.304 168.826 106.425 168.002Z" fill="#2F2E41"/>
<path d="M100.655 130.854C95.9207 124.536 89.5293 119.345 82.0919 116.771C74.6546 114.198 66.1556 114.404 59.1705 118.041C52.1855 121.678 46.9764 128.901 46.4326 136.796C45.5277 149.935 56.6857 161.103 57.8308 174.223C58.1938 178.382 57.5229 182.566 55.8787 186.399C54.2345 190.231 51.6685 193.592 48.4119 196.179C45.1553 198.766 41.3104 200.496 37.2234 201.216C33.1365 201.935 28.9359 201.62 25 200.3C27.8034 202.621 31.0537 204.335 34.5467 205.332C38.0397 206.33 41.7 206.589 45.2976 206.095C48.8893 205.553 52.3161 204.213 55.3293 202.173C58.3426 200.133 60.8669 197.444 62.7192 194.3C65.2304 189.91 66.2615 184.811 66.6621 179.762C67.2912 171.778 66.4393 163.746 64.1498 156.076C62.8983 151.891 61.2009 147.585 61.9946 143.288C62.447 141.053 63.5421 139.001 65.1438 137.387C66.7455 135.773 68.7832 134.668 71.0037 134.21C74.5923 133.533 78.2613 134.635 81.6878 135.904C85.1143 137.172 88.569 138.64 92.2191 138.723C95.8691 138.807 99.8447 137.126 101.255 133.738L100.655 130.854Z" fill="#2F2E41"/>
</svg>
