<svg width="1360" height="160" viewBox="0 0 1360 160" fill="none" xmlns="http://www.w3.org/2000/svg">
<g clip-path="url(#clip0)">
<rect width="1360" height="160" fill="#18313E"/>
<path d="M537.464 96V64.848H550.04C552.44 64.848 554.432 65.224 556.016 65.976C557.6 66.712 558.784 67.704 559.568 68.952C560.352 70.2 560.744 71.584 560.744 73.104C560.744 74.864 560.248 76.368 559.256 77.616C558.28 78.864 556.904 79.744 555.128 80.256C556.296 80.496 557.344 80.936 558.272 81.576C559.2 82.216 559.928 83.024 560.456 84C561 84.976 561.272 86.096 561.272 87.36C561.272 88.352 561.096 89.352 560.744 90.36C560.408 91.368 559.816 92.304 558.968 93.168C558.136 94.016 556.992 94.704 555.536 95.232C554.096 95.744 552.28 96 550.088 96H537.464ZM543.128 91.056H549.944C551.752 91.056 553.072 90.696 553.904 89.976C554.752 89.24 555.176 88.256 555.176 87.024C555.176 85.792 554.744 84.808 553.88 84.072C553.016 83.32 551.704 82.944 549.944 82.944H543.128V91.056ZM543.128 69.744V78H549.8C551.48 78 552.752 77.632 553.616 76.896C554.496 76.144 554.936 75.12 554.936 73.824C554.936 72.592 554.504 71.608 553.64 70.872C552.792 70.12 551.528 69.744 549.848 69.744H543.128ZM577.757 96.672C575.629 96.672 573.701 96.216 571.973 95.304C570.261 94.392 568.901 93.032 567.893 91.224C566.885 89.4 566.381 87.12 566.381 84.384C566.381 81.6 566.885 79.296 567.893 77.472C568.901 75.648 570.261 74.288 571.973 73.392C573.701 72.496 575.629 72.048 577.757 72.048C579.853 72.048 581.749 72.496 583.445 73.392C585.157 74.288 586.517 75.648 587.525 77.472C588.533 79.296 589.037 81.6 589.037 84.384C589.037 87.12 588.533 89.4 587.525 91.224C586.517 93.032 585.157 94.392 583.445 95.304C581.749 96.216 579.853 96.672 577.757 96.672ZM577.565 91.728C578.685 91.728 579.677 91.456 580.541 90.912C581.421 90.352 582.109 89.528 582.605 88.44C583.117 87.352 583.373 86 583.373 84.384C583.373 81.92 582.885 80.064 581.909 78.816C580.949 77.568 579.629 76.944 577.949 76.944C576.813 76.944 575.805 77.224 574.925 77.784C574.045 78.328 573.349 79.152 572.837 80.256C572.341 81.36 572.093 82.736 572.093 84.384C572.093 86.816 572.581 88.648 573.557 89.88C574.549 91.112 575.885 91.728 577.565 91.728ZM604.945 96.672C602.817 96.672 600.889 96.216 599.161 95.304C597.449 94.392 596.089 93.032 595.081 91.224C594.073 89.4 593.569 87.12 593.569 84.384C593.569 81.6 594.073 79.296 595.081 77.472C596.089 75.648 597.449 74.288 599.161 73.392C600.889 72.496 602.817 72.048 604.945 72.048C607.041 72.048 608.937 72.496 610.633 73.392C612.345 74.288 613.705 75.648 614.713 77.472C615.721 79.296 616.225 81.6 616.225 84.384C616.225 87.12 615.721 89.4 614.713 91.224C613.705 93.032 612.345 94.392 610.633 95.304C608.937 96.216 607.041 96.672 604.945 96.672ZM604.753 91.728C605.873 91.728 606.865 91.456 607.729 90.912C608.609 90.352 609.297 89.528 609.793 88.44C610.305 87.352 610.561 86 610.561 84.384C610.561 81.92 610.073 80.064 609.097 78.816C608.137 77.568 606.817 76.944 605.137 76.944C604.001 76.944 602.993 77.224 602.113 77.784C601.233 78.328 600.537 79.152 600.025 80.256C599.529 81.36 599.281 82.736 599.281 84.384C599.281 86.816 599.769 88.648 600.745 89.88C601.737 91.112 603.073 91.728 604.753 91.728ZM622.964 96V63.072H628.628V96H622.964ZM627.86 81.552L637.844 72.72H645.524L627.86 87.408V81.552ZM639.188 96L628.772 81.168L634.148 79.872L646.1 96H639.188ZM678.343 96L677.623 90.336V80.976C677.623 79.344 677.287 78.136 676.615 77.352C675.959 76.568 674.839 76.176 673.255 76.176C672.343 76.176 671.551 76.312 670.879 76.584C670.207 76.856 669.687 77.248 669.319 77.76C668.967 78.256 668.791 78.864 668.791 79.584H662.599C662.599 77.824 663.023 76.392 663.871 75.288C664.719 74.168 665.935 73.352 667.519 72.84C669.119 72.312 671.031 72.048 673.255 72.048C675.271 72.048 677.031 72.376 678.535 73.032C680.039 73.672 681.207 74.664 682.039 76.008C682.871 77.352 683.287 79.072 683.287 81.168V96H678.343ZM670.711 96.672C668.711 96.672 667.039 96.328 665.695 95.64C664.367 94.936 663.367 94.016 662.695 92.88C662.023 91.744 661.687 90.512 661.687 89.184C661.687 87.712 662.071 86.48 662.839 85.488C663.623 84.48 664.727 83.728 666.151 83.232C667.575 82.72 669.255 82.464 671.191 82.464C672.455 82.464 673.647 82.56 674.767 82.752C675.903 82.944 677.031 83.2 678.151 83.52V86.832C677.271 86.544 676.311 86.32 675.271 86.16C674.231 86 673.255 85.92 672.343 85.92C670.999 85.92 669.895 86.168 669.031 86.664C668.167 87.16 667.735 88 667.735 89.184C667.735 90.048 668.087 90.792 668.791 91.416C669.495 92.04 670.615 92.352 672.151 92.352C673.319 92.352 674.311 92.096 675.127 91.584C675.943 91.072 676.559 90.432 676.975 89.664C677.407 88.896 677.623 88.128 677.623 87.36H678.967C678.967 89.04 678.655 90.592 678.031 92.016C677.407 93.424 676.479 94.552 675.247 95.4C674.031 96.248 672.519 96.672 670.711 96.672ZM712.322 96.672C710.37 96.672 708.586 96.16 706.97 95.136C705.37 94.096 704.09 92.648 703.13 90.792C702.186 88.92 701.714 86.736 701.714 84.24C701.714 81.776 702.17 79.632 703.082 77.808C704.01 75.968 705.242 74.552 706.778 73.56C708.33 72.552 710.05 72.048 711.938 72.048C713.666 72.048 715.162 72.464 716.426 73.296C717.69 74.112 718.658 75.328 719.33 76.944C720.002 78.56 720.338 80.544 720.338 82.896H718.562C718.562 81.68 718.314 80.648 717.818 79.8C717.322 78.936 716.666 78.28 715.85 77.832C715.05 77.368 714.178 77.136 713.234 77.136C712.098 77.136 711.09 77.432 710.21 78.024C709.346 78.616 708.666 79.448 708.17 80.52C707.674 81.576 707.426 82.816 707.426 84.24C707.426 85.712 707.674 86.992 708.17 88.08C708.666 89.168 709.346 90.016 710.21 90.624C711.09 91.232 712.082 91.536 713.186 91.536C714.082 91.536 714.938 91.296 715.754 90.816C716.586 90.32 717.258 89.632 717.77 88.752C718.298 87.872 718.562 86.848 718.562 85.68H720.338C720.338 88.128 719.97 90.168 719.234 91.8C718.514 93.416 717.546 94.632 716.33 95.448C715.114 96.264 713.778 96.672 712.322 96.672ZM719.618 96L718.562 90.24V63.072H724.274V96H719.618ZM741.902 96.672C739.918 96.672 738.102 96.16 736.454 95.136C734.806 94.112 733.486 92.68 732.494 90.84C731.502 88.984 731.006 86.816 731.006 84.336C731.006 81.776 731.494 79.576 732.47 77.736C733.462 75.896 734.782 74.488 736.43 73.512C738.078 72.536 739.902 72.048 741.902 72.048C743.758 72.048 745.358 72.424 746.702 73.176C748.062 73.912 749.15 74.92 749.966 76.2C750.798 77.464 751.358 78.896 751.646 80.496C751.934 82.096 751.95 83.744 751.694 85.44H735.518V82.368H747.686L746.582 83.088C746.63 82.336 746.59 81.576 746.462 80.808C746.35 80.04 746.126 79.336 745.79 78.696C745.454 78.056 744.974 77.544 744.35 77.16C743.742 76.76 742.958 76.56 741.998 76.56C740.846 76.56 739.87 76.848 739.07 77.424C738.27 78 737.662 78.784 737.246 79.776C736.83 80.768 736.622 81.888 736.622 83.136V85.392C736.622 86.704 736.814 87.864 737.198 88.872C737.598 89.88 738.182 90.672 738.95 91.248C739.734 91.824 740.718 92.112 741.902 92.112C743.006 92.112 743.934 91.856 744.686 91.344C745.438 90.832 745.918 90.064 746.126 89.04H751.838C751.598 90.544 751.03 91.872 750.134 93.024C749.254 94.16 748.11 95.056 746.702 95.712C745.294 96.352 743.694 96.672 741.902 96.672ZM790.299 96V82.368C790.299 80.64 789.883 79.336 789.051 78.456C788.219 77.576 787.131 77.136 785.787 77.136C784.091 77.136 782.755 77.824 781.779 79.2C780.803 80.576 780.315 82.656 780.315 85.44H777.963C777.963 82.992 778.187 80.92 778.635 79.224C779.099 77.512 779.747 76.136 780.579 75.096C781.427 74.04 782.419 73.272 783.555 72.792C784.691 72.296 785.947 72.048 787.323 72.048C789.227 72.048 790.819 72.48 792.099 73.344C793.395 74.192 794.371 75.392 795.027 76.944C795.683 78.496 796.011 80.304 796.011 82.368V96H790.299ZM758.667 96V72.72H763.611L764.235 76.704C765.003 75.152 766.019 73.992 767.283 73.224C768.547 72.44 769.995 72.048 771.627 72.048C773.547 72.048 775.147 72.48 776.427 73.344C777.723 74.192 778.691 75.392 779.331 76.944C779.987 78.496 780.315 80.304 780.315 82.368V96H774.651V82.368C774.651 80.64 774.235 79.336 773.403 78.456C772.571 77.576 771.483 77.136 770.139 77.136C769.003 77.136 767.995 77.448 767.115 78.072C766.251 78.696 765.571 79.64 765.075 80.904C764.579 82.152 764.331 83.712 764.331 85.584V96H758.667ZM813.398 96.672C811.27 96.672 809.342 96.216 807.614 95.304C805.902 94.392 804.542 93.032 803.534 91.224C802.526 89.4 802.022 87.12 802.022 84.384C802.022 81.6 802.526 79.296 803.534 77.472C804.542 75.648 805.902 74.288 807.614 73.392C809.342 72.496 811.27 72.048 813.398 72.048C815.494 72.048 817.39 72.496 819.086 73.392C820.798 74.288 822.158 75.648 823.166 77.472C824.174 79.296 824.678 81.6 824.678 84.384C824.678 87.12 824.174 89.4 823.166 91.224C822.158 93.032 820.798 94.392 819.086 95.304C817.39 96.216 815.494 96.672 813.398 96.672ZM813.206 91.728C814.326 91.728 815.318 91.456 816.182 90.912C817.062 90.352 817.75 89.528 818.246 88.44C818.758 87.352 819.014 86 819.014 84.384C819.014 81.92 818.526 80.064 817.55 78.816C816.59 77.568 815.27 76.944 813.59 76.944C812.454 76.944 811.446 77.224 810.566 77.784C809.686 78.328 808.99 79.152 808.478 80.256C807.982 81.36 807.734 82.736 807.734 84.384C807.734 86.816 808.222 88.648 809.198 89.88C810.19 91.112 811.526 91.728 813.206 91.728Z" fill="white"/>
<path opacity="0.25" d="M1320.93 189.459C1305.41 189.459 1291.95 184.208 1280.56 173.708C1269.18 163.207 1264 149.556 1264 132.754C1264 114.903 1269.18 101.252 1279.53 90.7512C1289.88 80.2504 1303.34 75 1318.86 75C1334.39 75 1347.85 80.2504 1359.23 89.7011C1370.62 100.202 1375.8 113.853 1375.8 130.654C1375.8 147.456 1370.62 161.107 1360.27 171.607C1349.92 183.158 1336.46 189.459 1320.93 189.459Z" fill="#DEB580"/>
<path opacity="0.25" d="M1202.93 75.4589C1187.41 75.4589 1173.95 70.2085 1162.56 59.7077C1151.18 49.2068 1146 35.5558 1146 18.7545C1146 0.903099 1151.18 -12.748 1161.53 -23.2488C1171.88 -33.7496 1185.34 -39 1200.86 -39C1216.39 -39 1229.85 -33.7496 1241.23 -24.2989C1252.62 -13.798 1257.8 -0.146992 1257.8 16.6543C1257.8 33.4556 1252.62 47.1067 1242.27 57.6075C1231.92 69.1584 1218.46 75.4589 1202.93 75.4589Z" fill="#D4E6ED"/>
<path opacity="0.25" d="M21.25 180C10 180 0.25 176.147 -8 168.44C-16.25 160.734 -20 150.716 -20 138.385C-20 125.284 -16.25 115.266 -8.75 107.56C-1.25 99.8532 8.49999 96 19.75 96C31 96 40.75 99.8532 49 106.789C57.25 114.495 61 124.514 61 136.844C61 149.174 57.25 159.193 49.75 166.899C42.25 175.376 33.25 180 21.25 180Z" fill="white"/>
</g>
<defs>
<clipPath id="clip0">
<rect width="1360" height="160" fill="white"/>
</clipPath>
</defs>
</svg>
