<svg width="183" height="120" viewBox="0 0 183 120" fill="none" xmlns="http://www.w3.org/2000/svg">
<g clip-path="url(#clip0)">
<path opacity="0.1" d="M169.256 98.4673C168.686 98.9681 168.104 99.4547 167.509 99.927C167.409 100.008 167.305 100.086 167.204 100.168C165.081 101.815 162.853 103.32 160.533 104.674L160.099 104.927C159.994 104.991 159.891 105.049 159.781 105.108C157.358 106.507 154.843 107.796 152.299 109.015L152.272 109.03L152.08 109.12C150.027 110.104 147.945 111.045 145.831 111.944L145.78 111.963C144.827 112.365 143.874 112.755 142.921 113.136C142.532 113.294 142.141 113.442 141.751 113.593C141.015 113.874 140.278 114.15 139.535 114.416L139.443 114.451L139.284 114.506L139.085 114.579C137.147 115.272 135.182 115.911 133.191 116.498L133.156 116.508C131.768 116.912 130.371 117.286 128.965 117.631L128.772 117.678C126.708 118.177 124.609 118.606 122.499 118.949L122.012 119.027C120.469 119.269 118.914 119.467 117.349 119.621C108.551 120.47 99.6488 119.78 90.905 118.595C73.2492 116.199 55.8268 111.709 39.9371 104.671C36.8875 103.321 33.8972 101.876 30.9662 100.335C30.9424 100.322 30.9217 100.31 30.8979 100.299C29.1433 99.3763 27.4126 98.4154 25.7056 97.4158C25.2053 97.1267 24.7082 96.8313 24.2142 96.5343C23.6064 96.1679 23.0013 95.7973 22.3987 95.4225C21.6046 94.9269 20.8104 94.4186 20.0162 93.8992L19.6446 93.6515L19.5016 93.5546C19.2999 93.4196 19.1014 93.2846 18.9012 93.148C11.4361 88.0653 4.77939 81.9058 1.6345 74.1976C-1.9996 65.3029 0.325715 54.0258 9.32678 48.7684C12.4209 46.9577 16.0168 45.9745 19.6509 45.1629L20.0226 45.0803C20.6373 44.9453 21.252 44.815 21.8635 44.6848C24.0061 44.2305 26.1599 43.7795 28.293 43.276C29.4049 43.0139 30.5056 42.7391 31.5999 42.4421L32.0479 42.3182C34.6871 41.6101 37.2683 40.7011 39.7687 39.599H39.7846C40.053 39.4798 40.3183 39.356 40.5788 39.2289C40.7471 39.1495 40.9155 39.0701 41.0839 38.9827C43.784 37.639 46.643 35.7759 48.8429 33.5554C49.0192 33.3775 49.1907 33.1964 49.3575 33.0153C49.4861 32.874 49.6132 32.731 49.7355 32.5881C51.2778 30.7901 52.3451 28.7936 52.5484 26.6747C52.6169 25.9627 52.5848 25.2446 52.4531 24.5416C52.2038 23.209 51.9623 21.905 51.7845 20.6327C51.4525 18.2423 51.3397 15.9567 51.8003 13.7536C52.2689 11.5077 53.3315 9.34602 55.3598 7.24943C55.6658 6.93176 55.9956 6.6141 56.3493 6.29643C57.9896 4.85733 59.8457 3.68464 61.8497 2.82116C62.0975 2.71527 62.3468 2.60938 62.5978 2.50349C68.1697 0.248064 74.8645 -0.222081 81.1193 0.0892316C86.963 0.389963 92.7695 1.19775 98.4734 2.50349C98.9261 2.60515 99.3788 2.71157 99.8283 2.82116C104.68 3.99654 109.455 5.47284 114.123 7.24149C126.255 11.8048 137.705 18.1406 148.403 25.1324C148.507 25.2007 148.612 25.269 148.72 25.3389C149.167 25.6301 149.611 25.9224 150.053 26.2157C150.907 26.7822 151.755 27.3524 152.594 27.9263L153.161 28.3123C153.441 28.5029 153.719 28.694 153.995 28.8857L154.846 29.4749C154.887 29.499 154.925 29.5261 154.961 29.556L155.685 30.0579C156.104 30.3501 156.521 30.644 156.938 30.9394L157.834 31.5747C158.02 31.7081 158.207 31.84 158.393 31.975L159.346 32.6707L159.559 32.8295C159.604 32.8613 159.648 32.893 159.691 32.928L159.718 32.9454C162.3 34.8403 164.821 36.8051 167.183 38.8874L167.488 39.1574L167.52 39.186C167.777 39.4147 168.034 39.6466 168.287 39.8801C171.371 42.6883 174.135 45.7061 176.394 49.0416C186.769 64.4484 183.689 85.7813 169.256 98.4673Z" fill="#E0B581"/>
<path d="M128.902 56.1887C128.902 56.1887 129.827 51.3443 132.797 51.3188L134.97 55.7884L133.508 56.7811C133.508 56.7811 130.37 56.8812 128.902 56.1887Z" fill="#65617D"/>
<path opacity="0.1" d="M134.963 55.7822L133.509 56.7812C133.509 56.7812 131.294 56.8511 129.712 56.4636C129.434 56.3989 129.163 56.3069 128.902 56.1888C128.902 56.1888 128.902 56.1618 128.918 56.111C128.918 56.1046 128.918 56.0982 128.918 56.0919C129.055 55.4841 129.243 54.889 129.48 54.313C129.571 54.0954 129.676 53.8714 129.787 53.6475C130.222 52.8104 130.834 51.9892 131.671 51.5826C131.98 51.4311 132.317 51.343 132.66 51.3237H132.749H132.792L132.841 51.4222L133.575 52.9327L134.963 55.7822Z" fill="black"/>
<path d="M159.635 75.9082C159.635 75.9082 162.756 75.6095 163.03 75.8335C163.305 76.0574 165.078 77.2074 166.128 76.4831C167.178 75.7588 166.477 73.2366 166.477 73.1365C166.477 73.0364 166.377 69.4659 166.377 69.4659L164.504 66.9436L162.157 62.5248L157.363 62.0483L157.487 69.0656L157.463 72.6616L159.635 75.9082Z" fill="#65617D"/>
<path opacity="0.1" d="M159.635 75.9082C159.635 75.9082 162.756 75.6095 163.03 75.8335C163.305 76.0574 165.078 77.2074 166.128 76.4831C167.178 75.7588 166.477 73.2366 166.477 73.1365C166.477 73.0364 166.377 69.4659 166.377 69.4659L164.504 66.9436L162.157 62.5248L157.363 62.0483L157.487 69.0656L157.463 72.6616L159.635 75.9082Z" fill="black"/>
<path d="M132.167 51.1887C132.167 51.1887 131.92 54.2351 130.015 54.2827C130.015 54.2827 129.478 53.9651 128.753 53.4171C127.086 52.1703 124.441 49.7719 125.172 47.5403C126.22 44.3446 131.314 50.2404 131.314 50.2404L131.706 50.6788L132.167 51.1887Z" fill="#A5636D"/>
<path opacity="0.1" d="M132.166 47.4388C132.166 47.4388 131.92 50.4852 130.014 50.5329C130.014 50.5329 129.477 50.2152 128.753 49.6672L128.594 49.4592C128.916 49.628 129.271 49.724 129.634 49.7403C130.111 49.7498 130.647 49.5815 130.992 48.8842C131.191 48.4921 131.367 48.0885 131.518 47.6755C131.608 47.4331 131.672 47.1817 131.708 46.9258L132.166 47.4388Z" fill="black"/>
<path d="M131.341 56.7066L130.913 56.1571L129.484 54.3067L128.742 53.3616C129.064 53.5297 129.418 53.6251 129.781 53.6411C130.257 53.6523 130.794 53.4823 131.139 52.785C131.339 52.3933 131.514 51.9896 131.665 51.5763C131.901 50.9029 131.897 50.5566 131.812 50.4391C131.728 50.3215 132.343 50.8918 132.638 51.1729L132.649 51.1824L132.786 51.3127L132.839 51.4143L133.561 52.8613C133.561 52.8613 133.561 52.8819 133.561 52.9216C133.628 53.3807 133.871 56.2937 131.341 56.7066Z" fill="#FBF5EF"/>
<path d="M145.688 111.841C145.742 111.867 145.792 111.901 145.837 111.939C145.837 111.939 141.875 113.75 139.375 114.375L139.375 107.5L139.752 101.066L139.375 100.625L139.752 98.75L139.375 96.25L139.752 92.2266L139.375 88.125V86.25V84.375L140.027 78.6734C140.053 78.4839 140.106 78.2992 140.186 78.1254C140.287 77.8764 140.355 77.6153 140.388 77.3487C140.393 77.3201 140.393 77.2772 140.402 77.2597C140.412 77.2423 140.412 77.2232 140.412 77.2026V77.1676C140.496 76.58 140.532 75.978 140.532 75.978L142.929 70.4839L144.103 65.6459H144.276L147.135 65.6189H147.369L148.741 65.6046H148.916L151.775 65.5776H151.935L157.416 65.5252L159.927 65.5029H159.95C159.95 65.5029 159.999 65.8571 160.082 66.5052C160.09 66.5639 160.104 66.6243 160.104 66.6878C160.109 66.7228 160.118 66.7577 160.118 66.7927C160.136 66.9404 160.155 67.0992 160.175 67.258C160.188 67.3676 160.204 67.4836 160.217 67.6011C160.253 67.9018 160.291 68.2301 160.333 68.5859C160.34 68.6574 160.348 68.7288 160.358 68.8019C160.387 69.0497 160.415 69.3102 160.445 69.5818C160.458 69.7104 160.474 69.8422 160.487 69.9757C160.498 70.0741 160.509 70.1758 160.52 70.279C160.647 71.4782 160.787 72.8633 160.925 74.3928C160.969 74.9043 161.001 75.3728 161.022 75.8048C161.214 79.8583 160.399 80.635 160.399 80.635L160.301 84.1547C160.301 84.1547 160.423 89.5248 160.05 90.373C159.677 91.2212 159.677 94.6424 159.677 94.6424C159.677 94.6424 159.923 96.2625 159.65 96.6136C159.376 96.9646 159.578 98.2638 159.777 98.9373C159.975 99.6107 159.8 101.285 159.8 101.285L159.78 105.114C157.356 106.514 154.838 107.802 152.297 109.022L152.27 109.036L152.078 109.126C152.111 108.833 152.143 108.593 152.159 108.45C152.235 107.851 152.61 104.955 152.61 104.955C152.61 104.955 152.408 101.275 152.559 101.134C152.71 100.993 153.209 99.5424 152.959 99.0691C152.71 98.5958 152.31 95.4731 152.31 95.2984C152.31 95.1237 151.992 91.0798 151.992 91.0798C151.992 91.0798 151.69 88.2558 151.767 87.6586C151.843 87.0613 151.567 84.8377 151.567 84.8377C151.567 83.2827 150.809 81.6229 150.567 81.1353L150.494 80.9939L150.467 81.067L148.147 87.163C148.147 87.163 147.764 89.0102 147.446 90.0601C147.403 90.1951 147.364 90.3365 147.327 90.4826C147.313 90.5318 147.302 90.5795 147.289 90.6287C147.268 90.7113 147.246 90.8034 147.23 90.8702C147.214 90.9369 147.199 91.0052 147.184 91.0719C147.138 91.2863 147.095 91.496 147.059 91.6866C147.046 91.7469 147.035 91.8073 147.025 91.8645C147.008 91.9661 146.992 92.0455 146.978 92.1249C146.971 92.1615 146.96 92.1948 146.96 92.2266L146.936 92.36C146.929 92.4156 146.922 92.4633 146.914 92.4998L146.9 92.6014C146.9 92.6014 147.075 93.9229 146.8 94.3486C146.525 94.7743 146.227 96.0449 146.227 96.396C146.227 96.747 146.25 98.0939 146.25 98.0939C146.25 98.0939 146.35 100.765 146.076 101.066C145.801 101.366 145.95 101.615 145.95 101.615C145.95 101.615 146.401 103.631 146.201 104.157C146.001 104.682 146.15 105.904 146.15 105.904C146.15 105.904 145.752 109.767 145.701 109.967C145.65 110.167 145.377 111.715 145.675 111.841H145.688Z" fill="#3F3D56"/>
<path d="M158.935 36.9047L155.239 40.8517C155.239 40.8517 150.496 38.9457 150.995 38.3104C151.189 38.0594 151.154 37.2668 151.046 36.3916C150.871 35.0082 150.496 33.4151 150.496 33.4151C150.496 33.4151 158.786 32.0666 158.085 33.4659C157.831 33.9758 157.874 34.5778 158.033 35.1242C158.237 35.7619 158.541 36.363 158.935 36.9047Z" fill="#A5636D"/>
<path opacity="0.1" d="M158.085 33.4597C157.831 33.9695 157.709 34.0187 157.868 34.5715C156.784 35.7341 155.406 37.0064 153.692 37.0064C152.774 37.0081 151.868 36.796 151.046 36.387C150.871 35.0035 150.496 33.4104 150.496 33.4104C150.496 33.4104 158.786 32.0603 158.085 33.4597Z" fill="black"/>
<path d="M159.637 30.9119C159.637 32.4883 159.011 34 157.896 35.1147C156.782 36.2293 155.27 36.8555 153.694 36.8555C152.117 36.8555 150.605 36.2293 149.491 35.1147C148.376 34 147.75 32.4883 147.75 30.9119C147.75 30.8834 147.75 30.8548 147.75 30.8262C147.784 29.2653 148.431 27.7806 149.551 26.6928C150.671 25.605 152.174 25.0016 153.735 25.0129C155.296 25.0241 156.79 25.6492 157.894 26.753C158.998 27.8568 159.624 29.3508 159.635 30.9119H159.637Z" fill="#A5636D"/>
<path opacity="0.1" d="M160.493 70.1188C159.699 70.1188 157.084 70.1474 154.155 70.1934H154.119L153.151 70.2093H153.121C149.648 70.2649 146.225 69.5867 144.851 69.7153C141.928 69.9901 145.899 67.0152 145.899 67.0152C148.076 67.5434 150.316 67.77 152.554 67.6886L153.395 67.6442C156.049 67.4949 158.717 67.2455 160.112 66.8262C160.208 67.6013 160.35 68.7242 160.493 70.1188Z" fill="black"/>
<path d="M160.493 69.9694C159.699 69.9694 157.084 69.9964 154.155 70.044H154.119L153.151 70.0599H153.121C149.648 70.1155 146.225 69.4373 144.851 69.566C141.928 69.8392 145.899 66.8658 145.899 66.8658C148.076 67.3939 150.316 67.62 152.554 67.5376L153.395 67.4948C156.049 67.3455 158.717 67.0945 160.112 66.6768C160.208 67.4519 160.35 68.578 160.493 69.9694Z" fill="#5F5D7E"/>
<path opacity="0.1" d="M152.092 38.5584L147.497 40.7058L143.953 68.1172C143.953 68.1172 146.05 67.1642 147.249 67.7678C148.448 68.3714 152.143 67.8186 152.143 67.8186C152.143 67.8186 154.843 67.6598 155.238 67.9679C155.634 68.2761 160.334 66.7195 160.334 66.7195C160.334 66.7195 161.182 64.8215 160.532 64.5229C159.883 64.2242 160.732 61.2715 160.732 61.2715L160.334 41.4952L159.539 38.9539L157.392 37.6562L155.195 39.4034L154.147 39.5543L152.092 38.5584Z" fill="black"/>
<path d="M152.092 38.2536L147.498 40.401L143.953 67.8187C143.953 67.8187 146.05 66.8657 147.249 67.4693C148.448 68.0729 152.143 67.5185 152.143 67.5185C152.143 67.5185 154.843 67.3692 155.238 67.6679C155.634 67.9665 160.334 66.4194 160.334 66.4194C160.334 66.4194 161.182 64.523 160.532 64.2228C159.883 63.9226 160.732 60.9762 160.732 60.9762L160.334 41.2L159.539 38.6586L157.392 37.3594L155.195 39.1065L154.147 39.2558L152.092 38.2536Z" fill="#FBF5EF"/>
<path opacity="0.1" d="M152.02 39.5272C152.02 39.5272 153.344 41.0997 153.319 41.4253C153.294 41.7509 153.244 42.5228 153.244 42.5228L152.253 44.5463C152.253 44.5463 151.704 47.0686 151.704 47.5928C151.704 48.1169 150.83 52.6611 150.83 52.6611L149.782 59.6498L148.457 68.8144L149.806 71.1366L151.403 69.7881L153.524 53.4601L153.973 50.2389C153.973 50.2389 154.45 44.4463 154.45 43.8475C154.45 43.2487 154.175 41.6746 154.175 41.6746C154.175 41.6746 154.501 40.1768 155.849 39.8274C157.198 39.478 155.749 39.7512 155.749 39.7512L154.976 39.127L154.301 39.4017C154.301 39.4017 152.42 38.8283 152.02 39.5272Z" fill="black"/>
<path d="M151.869 39.3778C151.869 39.3778 153.192 40.9502 153.168 41.2743C153.144 41.5983 153.092 42.3734 153.092 42.3734L152.093 44.3969C152.093 44.3969 151.543 46.9176 151.543 47.4417C151.543 47.9659 150.67 52.5117 150.67 52.5117L149.62 59.5003L148.297 68.6634L149.645 70.9855L151.243 69.6371L153.364 53.3106L153.813 50.0895C153.813 50.0895 154.29 44.2969 154.29 43.6965C154.29 43.0961 154.015 41.5252 154.015 41.5252C154.015 41.5252 154.333 40.0258 155.687 39.6764C157.042 39.327 155.589 39.6018 155.589 39.6018L154.814 38.9775L154.14 39.2523C154.14 39.2523 152.269 38.6773 151.869 39.3778Z" fill="#E0B581"/>
<path opacity="0.1" d="M150.995 36.7554C150.995 36.7554 150.795 36.9047 150.746 37.9037C150.697 38.9028 149.996 41.1503 149.996 41.1503C149.996 41.1503 152.593 39.3523 153.892 39.5524L150.995 36.7554Z" fill="black"/>
<path d="M150.995 36.4556C150.995 36.4556 150.795 36.6065 150.746 37.6039C150.697 38.6014 149.996 40.8505 149.996 40.8505C149.996 40.8505 152.593 39.0525 153.892 39.2526L150.995 36.4556Z" fill="#FBF5EF"/>
<path opacity="0.1" d="M158.088 35.9565L154 39.5525C154 39.5525 157.447 41.5999 157.896 42.0939C158.346 42.5878 158.795 37.2002 158.795 37.2002L158.088 35.9565Z" fill="black"/>
<path d="M158.235 35.6562L154.141 39.2522C154.141 39.2522 157.586 41.2996 158.035 41.7935C158.485 42.2875 158.934 36.8983 158.934 36.8983L158.235 35.6562Z" fill="#FBF5EF"/>
<path opacity="0.1" d="M151.139 36.7557C151.139 36.7557 150.69 36.5301 150.265 37.1797C149.841 37.8294 149.042 38.1327 149.042 38.1327C149.042 38.1327 144.497 38.857 144.322 39.4558L142.2 39.5797C142.2 39.5797 141.45 39.6702 141.38 41.2586C141.31 42.8469 140.904 42.9803 140.904 42.9803C140.904 42.9803 140.029 44.5289 140.11 45.3279C140.191 46.1268 139.435 46.5271 139.435 46.5271L142.562 54.6339C142.562 54.6339 142.662 57.9805 142.086 59.2035C141.509 60.4266 140.437 65.8459 140.437 65.8459C140.437 65.8459 140.886 65.7459 140.861 66.0461C140.836 66.3463 140.311 69.6166 140.311 69.6166C140.311 69.6166 140.162 70.9143 139.913 71.3638C139.663 71.8133 139.638 74.1609 139.638 74.1609L139.227 75.8588C139.227 75.8588 140.18 77.9808 141.625 77.6806C143.07 77.3804 145.694 71.7132 145.694 71.7132L147.367 65.5966L148.666 59.553L149.041 55.4583L149.64 46.3936L150.513 40.4009C150.513 40.4009 151.493 37.1797 151.139 36.7557Z" fill="black"/>
<path d="M150.993 36.4553C150.993 36.4553 150.543 36.2313 150.119 36.8809C149.695 37.5306 148.895 37.8339 148.895 37.8339C148.895 37.8339 144.351 38.5582 144.176 39.157L142.054 39.2825C142.054 39.2825 141.304 39.3826 141.229 40.955C141.155 42.5275 140.753 42.6783 140.753 42.6783C140.753 42.6783 139.879 44.227 139.959 45.0259C140.038 45.8248 139.285 46.2235 139.285 46.2235L142.402 54.3335C142.402 54.3335 142.502 57.6801 141.925 58.9032C141.349 60.1262 140.278 65.5456 140.278 65.5456C140.278 65.5456 140.728 65.4455 140.702 65.7457C140.677 66.0459 140.153 69.3162 140.153 69.3162C140.153 69.3162 140.003 70.6139 139.754 71.0634C139.505 71.5129 139.479 73.8605 139.479 73.8605L139.082 75.5663C139.082 75.5663 140.035 77.6883 141.479 77.3897C142.923 77.0911 145.55 71.4208 145.55 71.4208L147.222 65.3041L148.521 59.2685L148.895 55.1737L149.495 46.1107L150.369 40.118C150.369 40.118 151.342 36.8809 150.993 36.4553Z" fill="#65617D"/>
<path opacity="0.1" d="M134.963 55.7823L133.508 56.7814C133.508 56.7814 131.294 56.8513 129.712 56.4637L128.905 56.1063L128.746 56.0349L128.913 56.0873C129.748 56.3351 130.401 56.3303 130.911 56.1588C132.962 55.4694 132.734 52.0847 132.658 51.3191C132.658 51.2429 132.645 51.1936 132.642 51.1746C132.642 51.1714 132.642 51.1682 132.642 51.165L132.655 51.1841C132.682 51.2307 132.714 51.2749 132.749 51.3159C132.777 51.3501 132.808 51.3825 132.841 51.4128L133.563 52.8598C133.563 52.8598 133.563 52.8804 133.563 52.9201L134.963 55.7823Z" fill="black"/>
<path d="M139.981 46.0234L139.282 46.2236L139.182 47.6531C139.182 47.6531 138.358 47.5292 138.134 48.5028C137.91 49.4765 137.51 49.9323 137.51 49.9323C137.51 49.9323 136.136 51.0807 136.061 52.0543L135.211 52.5785C135.211 52.5785 133.239 52.129 132.789 51.3301C132.789 51.3301 133.688 57.7723 128.895 56.1999C128.895 56.1999 134.263 58.5474 134.512 58.8714C134.762 59.1955 136.411 60.1421 137.908 59.3479C139.406 58.5538 139.732 57.3006 139.732 57.3006C139.732 57.3006 141.18 55.2786 141.23 54.9784C141.279 54.6783 142.403 54.3288 142.403 54.3288L144.551 49.1366L139.981 46.0234Z" fill="#65617D"/>
<path opacity="0.1" d="M157.511 38.952L158.235 35.6562C158.235 35.6562 158.553 36.73 158.885 36.9793C159.217 37.2287 159.959 37.8037 159.959 37.8037C159.959 37.8037 161.033 38.304 161.406 38.304C161.779 38.304 163.804 38.8281 164.054 39.0982C164.303 39.3682 165.302 39.1728 165.302 39.1728C165.302 39.1728 166.126 39.4476 166.851 39.6223C167.575 39.797 167.924 40.9962 167.773 41.4695C167.713 41.7055 167.714 41.9529 167.775 42.1887C167.836 42.4245 167.956 42.641 168.123 42.818C168.423 43.1182 168.572 44.0887 168.572 44.0887C168.94 44.2084 169.246 44.4688 169.422 44.813C169.672 45.3625 169.597 46.5601 169.597 46.5601L165.877 51.8016C165.877 51.8016 165.926 53.8236 165.777 54.2731C165.628 54.7226 166.301 62.364 166.301 62.364L167.075 75.498C167.075 75.498 166.052 76.3715 165.826 76.4716C165.601 76.5717 165.377 71.8273 165.377 71.6526C165.377 71.4779 159.609 63.0121 159.609 63.0121C159.609 63.0121 158.834 61.7636 158.834 61.4889C158.834 61.2141 158.11 58.6934 158.11 58.6934L157.016 53.8347L157.511 38.952Z" fill="black"/>
<path d="M169.906 46.2822C169.906 46.4537 169.897 46.5681 169.897 46.5681L166.179 51.8096C166.179 51.8096 166.229 53.8331 166.08 54.2826C165.993 54.5431 166.183 57.2306 166.36 59.4368C166.485 61.0251 166.604 62.372 166.604 62.372L166.931 67.9439L167.376 75.5075C167.376 75.5075 166.353 76.3811 166.129 76.4812C165.905 76.5812 165.68 71.8369 165.68 71.6606C165.68 71.4843 159.908 63.0184 159.908 63.0184C159.908 63.0184 159.134 61.7684 159.134 61.4936C159.134 61.2189 158.41 58.6966 158.41 58.6966L157.312 53.8284L157.811 38.9457L158.235 35.6499C158.235 35.6499 158.86 36.7252 159.188 36.973C159.517 37.2208 160.26 37.7973 160.26 37.7973C160.26 37.7973 161.334 38.2976 161.709 38.2976C162.084 38.2976 164.106 38.8218 164.357 39.0918C164.608 39.3618 165.605 39.1665 165.605 39.1665C165.605 39.1665 166.428 39.4413 167.152 39.616C167.876 39.7907 168.226 40.9899 168.077 41.4632C168.016 41.6992 168.016 41.9467 168.077 42.1825C168.138 42.4184 168.258 42.6349 168.426 42.8117C168.725 43.1103 168.876 44.0824 168.876 44.0824C169.243 44.2026 169.548 44.4628 169.725 44.8066C169.895 45.2005 169.911 45.8931 169.906 46.2822Z" fill="#65617D"/>
<path opacity="0.1" d="M142.922 113.135C142.532 113.294 142.142 113.442 141.751 113.593C140.526 113.235 139.383 112.814 139.383 112.814C140.567 112.857 141.749 112.964 142.922 113.135Z" fill="black"/>
<path opacity="0.1" d="M154.738 99.8047C154.738 99.8047 157.71 100.504 157.885 100.978L154.738 99.8047Z" fill="black"/>
<path opacity="0.1" d="M143.277 101.952C143.277 101.952 141.729 102.402 143.228 103.301C144.728 104.2 143.277 101.952 143.277 101.952Z" fill="black"/>
<path opacity="0.1" d="M150.145 77.9486C150.319 77.9486 153.042 77.0496 153.99 77.4499C154.938 77.8501 156.114 77.8485 156.114 77.8485L150.145 77.9486Z" fill="black"/>
<path opacity="0.1" d="M150.503 80.8079L150.476 81.0556L148.147 87.1453C148.147 87.1453 147.773 88.9925 147.447 90.0408C147.243 90.7534 147.08 91.4773 146.961 92.2089L149.026 79.4292L150.503 80.8079Z" fill="black"/>
<path d="M154.119 70.0442L153.152 70.0601H153.122L152.555 67.5425C152.833 67.5298 153.114 67.5155 153.395 67.498L154.119 70.0442Z" fill="#3F3D56"/>
<path d="M165.901 66.9894L165.28 67.5025L163.211 69.2131C163.211 69.2131 157.593 72.2103 156.046 69.3624C154.681 66.8544 161.051 65.0644 162.585 64.6737C162.793 64.6212 162.912 64.5942 162.912 64.5942L165.901 66.9894Z" fill="#A5636D"/>
<path opacity="0.1" d="M141.906 42.4482C141.906 42.4482 143.004 42.9486 143.253 43.6474C143.503 44.3463 141.906 42.4482 141.906 42.4482Z" fill="black"/>
<path opacity="0.1" d="M138.509 49.9404C138.509 49.9404 136.911 51.8877 137.556 52.6406C138.201 53.3935 138.509 49.9404 138.509 49.9404Z" fill="black"/>
<path opacity="0.1" d="M167.076 43.5474C167.076 43.5474 165.578 43.6967 165.527 44.9959L167.076 43.5474Z" fill="black"/>
<path opacity="0.1" d="M153.191 64.0226C153.35 63.8733 156.787 58.7812 157.586 59.2291L153.191 64.0226Z" fill="black"/>
<path opacity="0.1" d="M159.637 30.9124C159.638 31.8912 159.396 32.8549 158.933 33.7174H158.889C158.513 33.638 158.317 33.1996 158.03 32.9232C157.853 32.755 157.628 32.6464 157.386 32.6125C157.144 32.5786 156.898 32.6212 156.681 32.7342C156.462 32.8649 156.284 33.0542 156.167 33.2807C156.05 33.5072 155.999 33.7619 156.019 34.016C155.828 33.2218 155.889 32.3657 155.701 31.5652C155.514 30.7647 154.956 29.9531 154.191 29.9388C153.86 29.9388 153.476 30.0611 153.238 29.8133C153.093 29.664 153.065 29.4289 152.957 29.2478C152.409 28.3631 150.744 28.8111 150.064 29.2653C149.384 29.7196 148.595 30.4439 147.75 30.833C147.784 29.2721 148.431 27.7874 149.551 26.6996C150.671 25.6119 152.174 25.0084 153.735 25.0197C155.296 25.031 156.79 25.656 157.894 26.7599C158.998 27.8637 159.624 29.3576 159.635 30.9188L159.637 30.9124Z" fill="black"/>
<path d="M152.959 29.0922C153.067 29.2732 153.095 29.5083 153.24 29.6576C153.478 29.9038 153.862 29.7767 154.193 29.7831C154.958 29.7958 155.517 30.6074 155.703 31.408C155.889 32.2085 155.829 33.0598 156.021 33.8587C156.001 33.6049 156.053 33.3505 156.17 33.1243C156.287 32.8981 156.465 32.7091 156.683 32.5786C156.899 32.4654 157.146 32.4228 157.387 32.4567C157.629 32.4906 157.854 32.5993 158.03 32.7676C158.318 33.0408 158.507 33.4791 158.891 33.5617C159.275 33.6443 159.631 33.279 159.768 32.8819C159.904 32.4848 159.893 32.0496 159.982 31.6383C160.152 30.8584 160.66 30.2199 160.935 29.4797C161.27 28.5786 161.261 27.5855 160.91 26.6906C160.722 26.2141 160.444 25.7996 160.254 25.331C159.968 24.6194 159.892 23.8173 159.542 23.1391C158.955 22.0034 157.57 21.4364 156.432 21.8684C155.889 22.0733 155.417 22.4688 154.866 22.6451C154.129 22.8818 153.34 22.7039 152.576 22.5975C151.812 22.4911 150.967 22.4815 150.352 22.9834C149.645 23.5616 149.452 24.648 148.788 25.2833C148.508 25.5502 148.162 25.7201 147.868 25.9663C147.574 26.2125 147.32 26.5794 147.353 26.9797C147.398 27.4975 147.905 27.9676 147.717 28.4457C147.65 28.5848 147.555 28.709 147.439 28.811C146.884 29.3946 146.47 30.0985 146.23 30.8679C147.568 31.2857 149.013 29.8117 150.06 29.1208C150.748 28.6554 152.412 28.2059 152.959 29.0922Z" fill="#4C3E42"/>
<path opacity="0.1" d="M165.9 66.9896L165.279 67.5026C164.731 66.5893 162.48 64.7659 162.48 64.7659L162.577 64.6722C162.785 64.6198 162.905 64.5928 162.905 64.5928L165.9 66.9896Z" fill="black"/>
<path d="M166.503 66.0698C166.503 66.0698 166.28 66.6257 166.049 67.1069C165.819 67.5882 165.573 68.0234 165.554 67.6692C165.528 66.9687 162.633 64.6212 162.633 64.6212L163.025 64.24L163.481 63.7969L166.503 66.0698Z" fill="#FBF5EF"/>
<path opacity="0.1" d="M166.603 62.3736L166.93 67.9454C166.155 66.7399 164.025 63.6474 162.656 63.7475L165.977 59.9355C166.116 59.7819 166.244 59.6184 166.359 59.4463C166.484 61.0314 166.603 62.3736 166.603 62.3736Z" fill="black"/>
<path opacity="0.1" d="M166.499 66.0698C166.499 66.0698 166.275 66.6257 166.045 67.107C165.175 65.9125 163.98 64.5037 163.027 64.24L163.483 63.7969L166.499 66.0698Z" fill="black"/>
<path d="M168.998 45.8647L169.897 46.5636C169.897 46.5636 171.394 46.589 171.544 47.8343C171.693 49.0795 173.067 49.6577 173.067 49.6577C173.067 49.6577 174.091 50.6806 174.091 51.1555C174.091 51.6304 174.865 52.4786 174.865 52.5532C174.865 52.6279 175.615 54.1511 175.515 54.4258C175.414 54.7006 176.309 55.8998 176.039 56.3493C175.813 56.7525 175.613 57.1695 175.44 57.5977C175.44 57.5977 174.266 59.8452 173.666 60.2693C173.065 60.6934 170.321 64.264 170.321 64.264C170.321 64.264 167.374 67.6598 167.374 68.7113C167.374 68.7113 164.503 63.9161 162.805 64.0416L166.126 60.2217C166.126 60.2217 166.699 59.5975 166.725 59.2226C166.75 58.8478 168.323 57.1244 169.072 57.0498C169.072 57.0498 169.196 56.0253 168.872 56.0015C168.548 55.9776 168.273 55.1771 168.273 55.1771C168.273 55.1771 166.075 52.5802 166.05 50.9315C166.024 49.2828 168.998 45.8647 168.998 45.8647Z" fill="#65617D"/>
<path opacity="0.1" d="M170.321 48.2471C170.321 48.2471 168.223 49.7941 168.673 50.2944C169.122 50.7947 170.321 48.2471 170.321 48.2471Z" fill="black"/>
<path opacity="0.1" d="M170.422 54.6339C170.422 54.6339 174.316 53.3856 174.71 54.6339H170.422Z" fill="black"/>
<path opacity="0.1" d="M142.941 47.9424C142.941 47.9424 142.941 53.635 142.453 54.1972C141.965 54.7595 142.941 47.9424 142.941 47.9424Z" fill="black"/>
<path opacity="0.1" d="M165.453 49.7769L166.177 51.8115C166.177 51.8115 166.465 49.815 165.453 49.7769Z" fill="black"/>
<g opacity="0.1">
<path opacity="0.1" d="M147.804 27.9515C147.987 27.4829 147.508 27.0239 147.445 26.522C147.382 26.6636 147.355 26.8185 147.366 26.9731C147.397 27.3527 147.683 27.7053 147.751 28.0563C147.772 28.023 147.79 27.988 147.804 27.9515Z" fill="black"/>
<path opacity="0.1" d="M156.084 33.3297C155.904 32.5356 155.957 31.7081 155.775 30.9218C155.594 30.1356 155.031 29.3081 154.265 29.2954C153.935 29.2954 153.55 29.4161 153.312 29.1699C153.167 29.0206 153.139 28.7855 153.031 28.6044C152.484 27.7197 150.82 28.1677 150.138 28.6219C149.117 29.3001 147.715 30.7201 146.404 30.3993C146.342 30.5502 146.284 30.7026 146.234 30.8599C147.572 31.2776 149.017 29.8036 150.064 29.1127C150.745 28.66 152.408 28.2105 152.956 29.0968C153.064 29.2779 153.093 29.513 153.237 29.6623C153.476 29.9085 153.86 29.7814 154.19 29.7878C154.956 29.8005 155.515 30.6121 155.701 31.4126C155.887 32.2131 155.826 33.0645 156.018 33.8634C156.004 33.683 156.027 33.5015 156.084 33.3297Z" fill="black"/>
<path opacity="0.1" d="M159.837 32.3921C159.701 32.7892 159.345 33.1529 158.961 33.0719C158.576 32.9909 158.389 32.5541 158.101 32.2777C157.924 32.11 157.699 32.0018 157.457 31.9682C157.215 31.9346 156.969 31.9773 156.753 32.0903C156.545 32.2144 156.373 32.3919 156.257 32.6044C156.14 32.817 156.083 33.0568 156.09 33.299C156.191 32.994 156.4 32.7367 156.678 32.5763C156.894 32.4632 157.14 32.4206 157.382 32.4545C157.624 32.4884 157.848 32.5971 158.025 32.7654C158.313 33.0386 158.502 33.4769 158.886 33.5595C159.27 33.6421 159.626 33.2768 159.763 32.8797C159.833 32.6458 159.879 32.4052 159.899 32.1618C159.883 32.2396 159.862 32.3165 159.837 32.3921Z" fill="black"/>
<path opacity="0.1" d="M161.01 28.9922C160.729 29.7324 160.216 30.3709 160.057 31.1491C160.023 31.308 160.003 31.4668 159.984 31.6256C160.154 30.8505 160.661 30.2136 160.937 29.475C161.063 29.1424 161.14 28.7938 161.168 28.4395C161.13 28.6276 161.077 28.8124 161.01 28.9922Z" fill="black"/>
</g>
<path d="M124.925 47.0721C124.959 47.0721 124.987 47.0444 124.987 47.0102C124.987 46.976 124.959 46.9482 124.925 46.9482C124.891 46.9482 124.863 46.976 124.863 47.0102C124.863 47.0444 124.891 47.0721 124.925 47.0721Z" fill="#E6E8EC"/>
<path d="M75.0117 81.8612C75.0117 81.8612 76.7589 80.6081 78.5743 81.3847C78.5743 81.3847 78.0661 82.4616 75.8106 82.4473L75.0117 81.8612Z" fill="#E0B581"/>
<path d="M74.7923 81.9341C74.7923 81.9341 74.3253 84.0354 75.7453 85.3982C75.7453 85.3982 76.5395 84.5088 75.6389 82.4392L74.7923 81.9341Z" fill="#E0B581"/>
<path d="M72.4766 80.0216C72.4766 80.0216 72.5417 78.2474 76.5586 78.681C76.5586 78.681 76.6221 79.8231 75.2403 80.4171C73.8584 81.0111 73.1993 80.5807 72.4766 80.0216Z" fill="#E0B581"/>
<path d="M72.2313 80.0137C72.2313 80.0137 70.5635 80.6204 72.2122 84.3101C72.2122 84.3101 73.324 84.0179 73.4575 82.5201C73.5909 81.0223 72.9841 80.5346 72.2313 80.0137Z" fill="#E0B581"/>
<path d="M69.8741 77.5966C69.8741 77.5966 69.5342 74.6947 73.6289 74.8361C73.6289 74.8361 74.0196 77.46 70.6222 78.2684L69.8741 77.5966Z" fill="#E0B581"/>
<path d="M67.0508 74.4132C67.0508 74.4132 67.4844 71.092 71.6029 71.9195C71.6029 71.9195 71.7268 74.7785 67.7465 75.174L67.0508 74.4132Z" fill="#E0B581"/>
<path d="M64.9492 71.0907C64.9492 71.0907 65.7624 67.8346 69.8429 68.6494C69.8429 68.6494 68.9915 71.5751 65.2367 71.6673L64.9492 71.0907Z" fill="#E0B581"/>
<path d="M62.9492 67.8438C62.9492 67.8438 63.7434 64.4734 67.6777 65.3263C67.6777 65.3263 66.496 68.5442 63.2304 68.4029L62.9492 67.8438Z" fill="#E0B581"/>
<path d="M61.6211 64.7389C61.6211 64.7389 62.1691 60.6363 65.8476 61.3955C65.8476 61.3955 64.9328 65.1471 61.9149 65.3219L61.6211 64.7389Z" fill="#E0B581"/>
<path d="M60.3438 60.9731C60.3438 60.9731 61.0315 56.8291 64.7561 57.8838C64.7561 57.8838 63.4616 61.8244 60.6265 61.5369L60.3438 60.9731Z" fill="#E0B581"/>
<path d="M59.5039 57.4593C59.5039 57.4593 60.6888 53.2963 63.5414 53.2979C63.5414 53.2979 62.3343 57.6928 59.7739 58.2741L59.5039 57.4593Z" fill="#E0B581"/>
<path d="M58.9297 54.0145C58.9297 54.0145 60.2004 49.0096 62.532 49.3019C62.532 49.3019 61.6664 53.1234 59.0377 54.7816L58.9297 54.0145Z" fill="#E0B581"/>
<path d="M58.5156 49.8926C58.5156 49.8926 59.7259 45.7153 62.0099 45.4644C62.0099 45.4644 61.2333 49.5575 58.6093 50.9616L58.5156 49.8926Z" fill="#E0B581"/>
<path d="M58.0938 46.057C58.0938 46.057 59.6424 41.8638 61.1513 41.7129C61.1513 41.7129 60.5652 45.806 58.2701 46.7288L58.0938 46.057Z" fill="#E0B581"/>
<path d="M57.7656 42.4828C57.7656 42.4828 58.644 37.9577 60.1386 37.5288C60.1386 37.5288 60.0735 41.2042 57.9308 42.8116L57.7656 42.4828Z" fill="#E0B581"/>
<path d="M57.0195 37.8183C57.0195 37.8183 57.9868 34.2017 59.1892 33.6108C59.1892 33.6108 59.1082 37.8326 57.3372 38.6808L57.0195 37.8183Z" fill="#E0B581"/>
<path d="M56.4286 34.7575L55.9648 28.4629C55.9648 28.4629 58.4283 33.1326 56.6335 35.8582L56.4286 34.7575Z" fill="#E0B581"/>
<path d="M54.4229 28.5615C54.4229 28.5615 52.6027 24.0237 52.1992 23.7822C52.1992 23.7822 55.5347 26.6412 55.3759 30.4961L54.4229 28.5615Z" fill="#E0B581"/>
<path d="M69.7593 77.5788C69.7593 77.5788 66.8495 77.3119 67.0925 81.4003C67.0925 81.4003 69.726 81.7179 70.4502 78.3094L69.7593 77.5788Z" fill="#E0B581"/>
<path d="M66.9088 74.3086C66.9088 74.3086 63.5622 74.4261 63.9958 78.5971C63.9958 78.5971 66.823 78.991 67.5997 75.0678L66.9088 74.3086Z" fill="#E0B581"/>
<path d="M64.9265 71.3637C64.9265 71.3637 61.834 70.0549 60.0312 73.805C60.0312 73.805 62.8823 74.8851 65.2172 71.9467L64.9265 71.3637Z" fill="#E0B581"/>
<path d="M62.8845 67.8776C62.8845 67.8776 59.7157 66.4815 58.0273 70.1425C58.0273 70.1425 61.3104 71.1337 63.1624 68.4367L62.8845 67.8776Z" fill="#E0B581"/>
<path d="M61.6609 64.826C61.6609 64.826 58.5589 62.0814 56.2812 65.0643C56.2812 65.0643 59.4293 67.2991 61.8229 65.4566L61.6609 64.826Z" fill="#E0B581"/>
<path d="M60.5093 60.8697C60.5093 60.8697 57.3851 58.0599 55.1328 61.2096C55.1328 61.2096 58.6049 63.4793 60.6395 61.478L60.5093 60.8697Z" fill="#E0B581"/>
<path d="M59.8112 57.3275C59.8112 57.3275 57.3509 53.7664 54.6523 54.6845C54.6523 54.6845 57.2064 58.4584 59.8176 58.1788L59.8112 57.3275Z" fill="#E0B581"/>
<path d="M58.9943 53.9889C58.9943 53.9889 56.48 49.4781 54.3008 50.3612C54.3008 50.3612 56.121 53.8317 59.0849 54.7593L58.9943 53.9889Z" fill="#E0B581"/>
<path d="M58.669 49.6514C58.669 49.6514 56.1277 46.1238 53.8945 46.6527C53.8945 46.6527 55.9975 50.2471 58.9422 50.6902L58.669 49.6514Z" fill="#E0B581"/>
<path d="M58.3426 45.966C58.3426 45.966 56.3255 41.9761 54.8086 41.9952C54.8086 41.9952 55.8585 45.9946 58.2426 46.6506L58.3426 45.966Z" fill="#E0B581"/>
<path d="M57.8381 42.3911C57.8381 42.3911 55.6144 38.3568 54.0547 38.4092C54.0547 38.4092 55.2491 41.886 57.7825 42.7565L57.8381 42.3911Z" fill="#E0B581"/>
<path d="M57.3578 38.0562C57.3578 38.0562 55.6789 34.7111 54.3828 34.376C54.3828 34.376 55.3152 38.4945 57.2228 38.9663L57.3578 38.0562Z" fill="#E0B581"/>
<path d="M56.2408 34.6447L52.5781 29.5049C52.5781 29.5049 53.6645 34.6701 56.784 35.6279L56.2408 34.6447Z" fill="#E0B581"/>
<path d="M53.644 29.0156C53.644 29.0156 49.5143 26.3932 49.3555 25.9517C49.3555 25.9517 51.5569 29.7637 55.3752 30.3021L53.644 29.0156Z" fill="#E0B581"/>
<path d="M53.3564 27.7766C53.3564 27.7766 48.5692 23.5152 47.3906 23.5644C47.3906 23.5644 51.2026 23.593 53.458 27.5352L53.3564 27.7766Z" fill="#E0B581"/>
<path d="M57.3388 38.7171L57.1704 38.7457C56.0427 31.9873 54.6291 28.0213 53.1758 27.5797L53.225 27.4209C54.7609 27.8847 56.1825 31.7936 57.3388 38.7171Z" fill="#444053"/>
<path d="M59.2353 54.9087L58.9827 54.9405C58.9049 54.3051 58.8398 53.6603 58.7858 53.0154C58.3284 47.4022 57.755 42.2545 57.1133 38.4028L57.2531 38.2153C57.8884 42.0734 58.5825 47.3737 59.0415 52.9868C59.0923 53.6364 59.1591 54.2829 59.2353 54.9087Z" fill="#444053"/>
<path d="M79.8775 84.9137C79.8314 84.8946 75.2808 83.0696 70.4539 78.4809C67.6278 75.7959 65.2449 72.6802 63.3938 69.2495C61.0796 64.961 59.5643 59.637 58.9258 54.4336L59.1958 54.548C60.6253 66.2254 66.2702 74.0304 70.6778 78.2236C75.4571 82.771 79.9569 84.5769 80.0014 84.5976L79.8775 84.9137Z" fill="#444053"/>
<g opacity="0.7">
<path opacity="0.7" d="M83.0391 79.7325C83.0391 79.7325 85.0817 79.0574 86.581 80.3345C86.581 80.3345 85.7758 81.2128 83.6267 80.5266L83.0391 79.7325Z" fill="#E0B581"/>
<path opacity="0.7" d="M82.8095 79.7358C82.8095 79.7358 81.739 81.6037 82.692 83.3286C82.692 83.3286 83.7133 82.714 83.4702 80.4696L82.8095 79.7358Z" fill="#E0B581"/>
<path opacity="0.7" d="M81.168 77.2234C81.168 77.2234 81.7588 75.5477 85.4565 77.1583C85.4565 77.1583 85.1769 78.2701 83.6807 78.429C82.1845 78.5878 81.6921 77.9715 81.168 77.2234Z" fill="#E0B581"/>
<path opacity="0.7" d="M80.9326 77.1548C80.9326 77.1548 79.1584 77.239 79.6365 81.2511C79.6365 81.2511 80.7769 81.3019 81.3566 79.9137C81.9364 78.5255 81.4964 77.8632 80.9326 77.1548Z" fill="#E0B581"/>
<path opacity="0.7" d="M79.4023 74.1368C79.4023 74.1368 79.9424 71.2651 83.8084 72.6183C83.8084 72.6183 83.4002 75.239 79.917 75.0008L79.4023 74.1368Z" fill="#E0B581"/>
<path opacity="0.7" d="M77.6523 70.2537C77.6523 70.2537 79.0548 67.212 82.735 69.2276C82.735 69.2276 82.006 71.9866 78.086 71.186L77.6523 70.2537Z" fill="#E0B581"/>
<path opacity="0.7" d="M76.6367 66.4557C76.6367 66.4557 78.3839 63.5888 82.0371 65.5805C82.0371 65.5805 80.3534 68.1219 76.7415 67.099L76.6367 66.4557Z" fill="#E0B581"/>
<path opacity="0.7" d="M75.6914 62.7613C75.6914 62.7613 77.4481 59.7784 80.9568 61.7638C80.9568 61.7638 78.8713 64.4846 75.7915 63.3775L75.6914 62.7613Z" fill="#E0B581"/>
<path opacity="0.7" d="M75.3477 59.4005C75.3477 59.4005 77.0948 55.6441 80.3731 57.4659C80.3731 57.4659 78.3829 60.7744 75.4493 60.0438L75.3477 59.4005Z" fill="#E0B581"/>
<path opacity="0.7" d="M75.25 55.4264C75.25 55.4264 77.1401 51.6747 80.3819 53.7904C80.3819 53.7904 77.9724 57.1672 75.3501 56.0411L75.25 55.4264Z" fill="#E0B581"/>
<path opacity="0.7" d="M75.4961 51.8192C75.4961 51.8192 77.8659 48.1979 80.5883 49.0476C80.5883 49.0476 78.128 52.885 75.5056 52.6785L75.4961 51.8192Z" fill="#E0B581"/>
<path opacity="0.7" d="M75.97 48.3615C75.97 48.3615 78.6701 43.9603 80.8112 44.9355C80.8112 44.9355 78.8464 48.325 75.8477 49.1271L75.97 48.3615Z" fill="#E0B581"/>
<path opacity="0.7" d="M76.8061 44.3036C76.8061 44.3036 79.2045 40.6775 81.4568 41.1159C81.4568 41.1159 79.4983 44.7929 76.5742 45.3535L76.8061 44.3036Z" fill="#E0B581"/>
<path opacity="0.7" d="M77.538 40.517C77.538 40.517 80.2652 36.9734 81.7503 37.2784C81.7503 37.2784 79.9729 41.0109 77.5078 41.2111L77.538 40.517Z" fill="#E0B581"/>
<path opacity="0.7" d="M78.2891 37.0069C78.2891 37.0069 80.473 32.9487 82.0296 32.9836C82.0296 32.9836 80.8733 36.4779 78.3478 37.3706L78.2891 37.0069Z" fill="#E0B581"/>
<path opacity="0.7" d="M78.9648 32.3305C78.9648 32.3305 80.963 29.1666 82.2876 28.9585C82.2876 28.9585 80.9534 32.9659 79.0109 33.247L78.9648 32.3305Z" fill="#E0B581"/>
<path opacity="0.7" d="M79.3107 29.2317L80.7402 23.0864C80.7402 23.0864 81.7043 28.2755 79.1836 30.3499L79.3107 29.2317Z" fill="#E0B581"/>
<path opacity="0.7" d="M79.2388 22.7212C79.2388 22.7212 78.8512 17.8466 78.5352 17.4956C78.5352 17.4956 80.8748 21.2218 79.5676 24.8496L79.2388 22.7212Z" fill="#E0B581"/>
<path opacity="0.7" d="M79.2989 74.0831C79.2989 74.0831 76.5988 72.9601 75.6172 76.9421C75.6172 76.9421 78.033 78.0364 79.7469 74.99L79.2989 74.0831Z" fill="#E0B581"/>
<path opacity="0.7" d="M77.5504 70.1104C77.5504 70.1104 74.3213 69.2272 73.4922 73.3442C73.4922 73.3442 76.0732 74.5624 77.984 71.0475L77.5504 70.1104Z" fill="#E0B581"/>
<path opacity="0.7" d="M76.5331 66.7097C76.5331 66.7097 73.9712 64.5401 71.1328 67.5849C71.1328 67.5849 73.5328 69.4639 76.6364 67.353L76.5331 66.7097Z" fill="#E0B581"/>
<path opacity="0.7" d="M75.6183 62.7739C75.6183 62.7739 73.0103 60.4978 70.3086 63.495C70.3086 63.495 73.1469 65.4168 75.7184 63.3917L75.6183 62.7739Z" fill="#E0B581"/>
<path opacity="0.7" d="M75.3628 59.497C75.3628 59.497 73.217 55.9535 70.1562 58.1231C70.1562 58.1231 72.4959 61.195 75.3294 60.1467L75.3628 59.497Z" fill="#E0B581"/>
<path opacity="0.7" d="M75.4368 55.3758C75.4368 55.3758 73.2894 51.7656 70.1953 54.1052C70.1953 54.1052 72.8351 57.3057 75.3733 56.0001L75.4368 55.3758Z" fill="#E0B581"/>
<path opacity="0.7" d="M75.8228 51.7862C75.8228 51.7862 74.5347 47.6565 71.6836 47.728C71.6836 47.728 73.0003 52.0927 75.575 52.6089L75.8228 51.7862Z" fill="#E0B581"/>
<path opacity="0.7" d="M76.0389 48.3564C76.0389 48.3564 74.9795 43.3023 72.6367 43.4977C72.6367 43.4977 73.3419 47.3526 75.896 49.1188L76.0389 48.3564Z" fill="#E0B581"/>
<path opacity="0.7" d="M77.019 44.1176C77.019 44.1176 75.6419 39.9879 73.3516 39.8291C73.3516 39.8291 74.2919 43.8889 76.9698 45.1865L77.019 44.1176Z" fill="#E0B581"/>
<path opacity="0.7" d="M77.8033 40.5042C77.8033 40.5042 77.0647 36.095 75.6098 35.6646C75.6098 35.6646 75.4224 39.7942 77.5047 41.1316L77.8033 40.5042Z" fill="#E0B581"/>
<path opacity="0.7" d="M78.3918 36.9399C78.3918 36.9399 77.4658 32.4259 75.9648 32.0161C75.9648 32.0161 76.0697 35.6899 78.2314 37.2751L78.3918 36.9399Z" fill="#E0B581"/>
<path opacity="0.7" d="M79.2197 32.661C79.2197 32.661 78.6114 28.9682 77.4726 28.2598C77.4726 28.2598 77.1374 32.4704 78.8179 33.4885L79.2197 32.661Z" fill="#E0B581"/>
<path opacity="0.7" d="M79.1648 29.0697L77.1969 23.0737C77.1969 23.0737 76.6965 28.3295 79.3903 30.172L79.1648 29.0697Z" fill="#E0B581"/>
<path opacity="0.7" d="M78.3642 22.9244C78.3642 22.9244 75.2018 19.1918 75.1875 18.7217C75.1875 18.7217 76.1548 23.0102 79.6348 24.6652L78.3642 22.9244Z" fill="#E0B581"/>
<path opacity="0.7" d="M78.4551 21.6553C78.4551 21.6553 75.153 16.1613 74.0078 15.8579C74.0078 15.8579 77.6419 17.0206 78.6139 21.4552L78.4551 21.6553Z" fill="#E0B581"/>
<path opacity="0.7" d="M79.0045 33.285L78.8361 33.2612C79.7701 26.4742 79.5954 22.2652 78.3438 21.4122L78.4406 21.2725C79.7669 22.1762 79.9623 26.3281 79.0045 33.285Z" fill="#444053"/>
<path opacity="0.7" d="M75.9971 49.3083L75.7461 49.2623C75.8605 48.6349 75.9891 47.9916 76.1321 47.3658C77.3646 41.8718 78.3557 36.7859 78.8815 32.912L79.0705 32.7754C78.5368 36.6493 77.6156 41.9146 76.3798 47.415C76.2401 48.0504 76.1098 48.6841 75.9971 49.3083Z" fill="#444053"/>
<path opacity="0.7" d="M86.7763 84.0941C86.7382 84.064 82.9357 80.9651 79.6939 75.1503C77.7913 71.7464 76.4409 68.0623 75.6929 64.2352C74.759 59.4512 74.8987 53.9111 75.8343 48.7617L76.0582 48.9507C73.9537 60.5265 77.0112 69.6562 79.9766 74.9708C83.1867 80.7332 86.9447 83.7987 86.9828 83.8289L86.7763 84.0941Z" fill="#444053"/>
</g>
<path d="M48.8204 69.4624C48.447 69.6163 48.0591 69.7323 47.6625 69.8087C46.9695 69.9384 46.2662 70.0048 45.5612 70.0072C45.5818 70.1931 45.5977 70.3662 45.6136 70.5234C45.6517 70.9555 45.6739 71.2525 45.6739 71.2525L44.929 71.2017L38.7853 70.7823L35.1925 70.2503C35.3659 70.483 35.5543 70.7043 35.7564 70.9126C35.9657 71.1341 36.2078 71.3222 36.4743 71.4701C36.4743 71.4701 39.7161 74.0956 40.2768 74.1194C40.3562 74.1194 40.3816 74.1988 40.3689 74.3243C41.7333 74.3243 45.9757 74.5229 44.7988 76.8847C44.604 77.3057 44.2607 77.64 43.8346 77.8234C42.4734 78.4 40.4197 77.3628 39.3619 76.7259C39.2587 76.9276 39.1602 77.115 39.0728 77.2754C38.8933 77.6138 38.7679 77.8377 38.7679 77.8377L38.6614 77.7615L33.2103 73.8796L32.0159 72.8662C31.665 72.8502 31.3176 72.7899 30.9819 72.6868L30.823 72.6359C30.8161 72.6498 30.8103 72.6641 30.8056 72.6788C30.7621 72.8028 30.7296 72.9303 30.7087 73.06C30.7087 73.0791 30.7087 73.0981 30.7087 73.1172C30.6864 73.2651 30.6715 73.4141 30.6642 73.5635C30.6642 73.6652 30.6563 73.7732 30.6563 73.8812C30.6467 76.0445 31.514 79.5213 31.514 79.5213C31.514 79.5213 33.7614 85.2536 32.9641 86.5767C32.923 86.6438 32.869 86.7021 32.8053 86.7482C32.5241 86.9516 32.3558 87.3137 32.2684 87.7441C31.9714 89.1482 32.4924 91.2909 32.4924 91.2909C32.4924 91.2909 32.4447 91.3703 32.3637 91.4942C32.1884 91.7744 31.9909 92.0399 31.7729 92.2883C31.7395 92.3265 31.7046 92.3662 31.668 92.4027C31.5697 92.5061 31.4635 92.6016 31.3504 92.6886C31.371 92.7505 31.3932 92.8141 31.4155 92.8824C31.4377 92.9507 31.4663 93.0571 31.4885 93.1524C31.6654 93.933 31.5961 94.7492 31.29 95.4888C31.0818 96.0279 30.9472 96.5926 30.8897 97.1677C30.7865 98.2206 30.8137 99.2822 30.9707 100.328C30.9469 100.316 30.9263 100.303 30.9024 100.292C29.1458 99.3739 27.4139 98.4151 25.707 97.4155C25.2067 97.1264 24.7095 96.831 24.2156 96.5339C23.6078 96.1676 23.0026 95.797 22.4001 95.4221C21.6059 94.9266 20.8118 94.4183 20.0176 93.8989L19.6459 93.6511L19.503 93.5542C19.3013 93.4192 19.1027 93.2842 18.9026 93.1476C18.0814 92.0864 17.3312 90.9721 16.6567 89.8121C16.5439 89.6104 16.4423 89.4182 16.3581 89.2419V89.2324L16.3041 89.1164L16.0801 89.037C15.6592 88.8893 15.3924 88.7861 15.3924 88.7861C15.5866 88.0774 15.6797 87.3448 15.6688 86.6101C15.656 85.1806 15.2605 83.2746 13.6309 81.7466C11.223 79.4705 10.891 77.223 10.8561 76.3606C10.8561 76.3002 10.8561 76.2462 10.8561 76.2017C10.8553 76.1291 10.8585 76.0564 10.8656 75.9841L11.0499 75.8078C10.5829 75.7141 10.1445 75.6712 10.1445 75.6712C10.1445 75.6712 11.7424 69.8897 14.433 67.9599C15.7672 67.0069 16.8775 65.4186 17.6621 64.0558C19.0935 61.5929 20.7008 59.2365 22.4716 57.0052L22.956 56.3937L23.0974 56.2142L23.1276 56.1777L23.1657 56.1268C23.1 56.0273 23.0333 55.9288 22.9656 55.8314L22.9211 55.7663C22.7098 55.4486 22.5288 55.1309 22.5573 54.7513C22.5573 54.7513 22.5573 54.7434 22.5573 54.7402C22.5573 54.7132 22.5573 54.6878 22.5573 54.6592C22.5641 54.5959 22.5758 54.5333 22.5923 54.4718C22.5977 54.4819 22.6041 54.4915 22.6114 54.5004C22.8385 53.8396 23.7137 53.5474 24.3585 53.1821C25.8785 52.3275 26.5266 50.4581 26.8522 48.7189C27.1047 47.3656 27.3144 45.8487 28.3627 44.9799C29.0393 44.4208 29.951 44.2366 30.6356 43.6823C31.0317 43.3323 31.3592 42.9116 31.6013 42.4418C31.7601 42.1718 31.8967 41.8922 32.0445 41.6222C32.7211 40.3992 33.6106 39.2619 34.7875 38.5297C35.9645 37.7975 37.4575 37.5132 38.7472 38.0056C39.2444 38.1946 39.7002 38.4821 40.1767 38.6933C40.4709 38.8133 40.7749 38.9079 41.0852 38.976C42.0557 39.2032 43.077 39.2619 43.9887 39.667C45.4706 40.3245 46.4347 41.7794 47.3147 43.1613C47.7705 43.876 48.4869 44.9212 48.8935 45.9726C48.8935 45.9345 48.8935 45.8996 48.8935 45.863C49.0896 46.3261 49.1973 46.8217 49.2112 47.3243C49.2191 47.5383 49.1961 47.7522 49.1429 47.9596C48.9967 48.4997 48.6235 48.8412 48.1549 49.0921L48.0803 49.1286C47.9801 49.1801 47.8772 49.2263 47.7721 49.2668C47.7562 49.3542 47.7388 49.4431 47.7197 49.5289C47.7118 49.5654 47.7022 49.6036 47.6927 49.6401C47.6721 49.729 47.6482 49.8164 47.6228 49.9037C47.2833 51.039 46.6211 52.051 45.7168 52.8167C45.0906 53.3525 44.3668 53.7624 43.5853 54.0239C43.5297 54.0429 43.4709 54.0572 43.4153 54.0747C43.3681 54.2076 43.3006 54.3325 43.2152 54.4448C43.1533 54.5239 43.0806 54.594 42.9992 54.6529C42.9485 54.6872 42.8954 54.718 42.8404 54.745C42.8269 54.7534 42.8125 54.7604 42.7975 54.7656C42.2257 55.0229 41.4426 54.8212 40.8915 54.4368C40.8629 54.4178 40.8359 54.3955 40.8089 54.3749C40.8089 54.4654 40.7946 54.5607 40.7787 54.6592C40.7628 54.7577 40.7517 54.818 40.7342 54.9006C40.7168 54.9832 40.7104 55.0229 40.6993 55.0817C40.6882 55.1405 40.6802 55.1802 40.6707 55.2262L40.6516 55.3072C40.337 56.8403 39.7367 58.3005 38.8822 59.6116C38.7583 59.7994 38.6242 59.9802 38.4804 60.1532L38.0865 60.7536V60.8346C38.1611 62.2165 37.7069 63.5046 37.0652 64.6133C36.8503 64.9808 36.6143 65.3356 36.3584 65.6759L36.4473 65.7283C37.3368 66.235 39.0903 67.1355 40.199 67.0593C40.199 67.0593 44.3922 67.6009 44.8782 67.3293C44.9449 67.2912 45.01 67.3436 45.0704 67.4564C45.7486 67.0434 47.3083 66.1682 48.5393 66.0523C49.4002 65.9697 50.1006 66.2572 50.2309 67.323C50.3611 68.3887 49.7194 69.0765 48.8204 69.4624Z" fill="url(#paint0_linear)"/>
<path d="M25.865 91.3035C26.1335 91.7614 26.2936 92.2747 26.3333 92.8041C26.3729 93.3335 26.291 93.8649 26.0937 94.3578C25.7078 95.3251 25.6649 96.5306 25.7046 97.4153C25.2043 97.1262 24.7071 96.8308 24.2131 96.5338C23.6053 96.1674 23.0002 95.7968 22.3977 95.422C21.6035 94.9264 20.8094 94.4181 20.0152 93.8988L19.6435 93.651L19.5006 93.5541C19.4881 93.531 19.4726 93.5096 19.4545 93.4906C19.2417 93.265 18.0012 91.4861 17.2642 90.136C17.1308 89.8883 17.0148 89.6595 16.9227 89.4499V89.4388C16.7639 89.0862 16.6892 88.8034 16.7369 88.6748C16.7946 88.4723 16.8926 88.2836 17.025 88.1198C17.1573 87.9561 17.3213 87.8207 17.5072 87.7218C18.4221 87.2453 19.8897 87.6853 21.3414 88.3857C22.5905 89.017 23.7876 89.7462 24.9215 90.5665L25.0502 90.6602L25.0629 90.6697C25.5394 91.008 25.8158 91.232 25.8158 91.232C25.8158 91.232 25.8364 91.2574 25.865 91.3035Z" fill="#FBBEBE"/>
<path opacity="0.05" d="M25.6227 91.0924C25.8917 91.5508 26.0521 92.0647 26.0917 92.5947C26.1314 93.1246 26.0492 93.6567 25.8514 94.15C25.4654 95.1173 25.4226 96.3228 25.4623 97.2091C24.9625 96.9179 24.4653 96.6235 23.9708 96.326C23.362 95.9596 22.7568 95.589 22.1554 95.2141C21.3612 94.717 20.567 94.2087 19.7808 93.6893L19.4091 93.4416L19.2662 93.3447C19.2533 93.3218 19.2379 93.3005 19.2201 93.2811C19.0073 93.0572 17.7668 91.2782 17.0298 89.9266C16.8964 89.6788 16.7805 89.4501 16.6883 89.2404V89.2309C16.5295 88.8767 16.4549 88.5956 16.5025 88.4653C16.5605 88.263 16.6586 88.0743 16.7909 87.9106C16.9232 87.7469 17.0871 87.6114 17.2728 87.5123C18.1877 87.0358 19.6553 87.4758 21.1071 88.1762C22.3561 88.8075 23.5532 89.5367 24.6872 90.357L24.8158 90.4507L24.8285 90.4603C25.305 90.7986 25.5814 91.0225 25.5814 91.0225C25.5814 91.0225 25.5941 91.0464 25.6227 91.0924Z" fill="black"/>
<path d="M31.4735 94.9441C31.4273 95.216 31.3522 95.4823 31.2495 95.7383C31.0736 96.199 30.9526 96.6788 30.889 97.1678C30.7639 98.2057 30.7682 99.2551 30.9017 100.292C29.145 99.374 27.4132 98.4151 25.7062 97.4155C25.2059 97.1265 24.7088 96.831 24.2148 96.534C24.1036 95.689 23.9448 94.9457 23.7653 94.763C23.5302 94.5153 22.1881 92.5966 21.3542 91.0829C21.2462 90.8923 21.1525 90.708 21.0651 90.5333V90.5254C21.0318 90.4555 21 90.3888 20.9698 90.3221C20.7554 89.8615 20.6411 89.5025 20.6982 89.3294C20.8097 88.9529 21.0391 88.6222 21.3526 88.3859C22.7615 87.3567 25.6904 88.7496 27.9394 90.1331L27.995 90.1664C28.4207 90.4317 28.8241 90.6938 29.1863 90.9384L29.3975 91.0813C30.3283 91.7166 30.9462 92.2106 30.9462 92.2106C31.0997 92.4474 31.2229 92.7024 31.3131 92.9698C31.3661 93.1206 31.4101 93.2744 31.4449 93.4304C31.5548 93.9281 31.5645 94.4427 31.4735 94.9441Z" fill="#FBBEBE"/>
<path opacity="0.1" d="M17.2737 90.1364C18.4284 90.5399 20.1327 91.0751 21.0603 91.0894C21.1564 91.0924 21.2525 91.0876 21.3478 91.0751C22.0006 90.9862 24.013 91.1292 25.8602 91.2959C26.6004 91.3611 27.3136 91.4293 27.9028 91.4897L29.3832 91.6485V91.0767C28.9718 90.794 28.4937 90.4795 27.9823 90.1619C25.7252 88.7673 22.7598 87.3425 21.3398 88.3797C19.3401 87.414 17.3102 86.9502 16.7337 88.6688C16.667 88.8928 16.91 89.4614 17.2737 90.1364Z" fill="black"/>
<path d="M11.7258 76.8246C11.7575 77.6807 12.0784 79.9028 14.3767 82.1471C17.3087 85.0061 16.0587 89.1167 16.0587 89.1167C16.0587 89.1167 19.553 90.489 21.0604 90.5256C21.1564 90.5285 21.2526 90.5237 21.3479 90.5113C22.2516 90.3858 25.8444 90.7178 27.9093 90.9258L29.3896 91.0847V78.9308L13.1981 74.998L11.7321 76.4593C11.7222 76.5808 11.7201 76.7028 11.7258 76.8246Z" fill="#5C5C8E"/>
<g opacity="0.1">
<path opacity="0.1" d="M29.1245 90.9333L29.3898 90.9603V91.0906L27.9095 90.9317C26.4275 90.7824 24.1626 90.5696 22.668 90.5076C23.702 90.4155 27.1248 90.7316 29.1245 90.9333Z" fill="black"/>
<path opacity="0.1" d="M11.7322 76.4671L13.1983 75.0059L14.1767 75.2425L12.9553 76.4671C12.9475 76.5888 12.9475 76.7108 12.9553 76.8324C12.987 77.6885 13.3079 79.909 15.6062 82.1549C18.5382 85.0139 17.2882 89.1229 17.2882 89.1229C17.2882 89.1229 20.179 90.2586 21.8356 90.4921C21.6764 90.4914 21.5173 90.5004 21.3591 90.5191C21.2638 90.5315 21.1677 90.5363 21.0716 90.5334C19.5643 90.4952 16.07 89.1229 16.07 89.1229C16.07 89.1229 17.32 85.0139 14.3879 82.1549C12.0785 79.909 11.7577 77.6885 11.7259 76.8372C11.72 76.7138 11.7221 76.5902 11.7322 76.4671Z" fill="black"/>
</g>
<path d="M44.0859 68.2412C44.0859 68.2412 48.9827 64.8454 49.3401 67.9013C49.6975 70.9573 44.0859 70.5284 44.0859 70.5284V68.2412Z" fill="#FBBEBE"/>
<path d="M35.6425 65.9888C35.6425 65.9888 38.2902 67.7359 39.7562 67.6327C39.7562 67.6327 43.7588 68.1695 44.2242 67.9011C44.6896 67.6327 44.9755 71.7798 44.9755 71.7798L38.3982 71.3144L34.1796 70.6711C34.1796 70.6711 32.0703 69.3846 32.0703 68.276C32.0703 67.1673 35.6425 65.9888 35.6425 65.9888Z" fill="#F7CDDD"/>
<path d="M35.6425 65.9888C35.6425 65.9888 38.2902 67.7359 39.7562 67.6327C39.7562 67.6327 43.7588 68.1695 44.2242 67.9011C44.6896 67.6327 44.9755 71.7798 44.9755 71.7798L38.3982 71.3144L34.1796 70.6711C34.1796 70.6711 32.0703 69.3846 32.0703 68.276C32.0703 67.1673 35.6425 65.9888 35.6425 65.9888Z" fill="#E0B581"/>
<path d="M39.5254 74.8259C39.5254 74.8259 45.48 74.5797 44.1458 77.3529C42.8116 80.1261 38.3008 76.7589 38.3008 76.7589L39.5254 74.8259Z" fill="#FBBEBE"/>
<path d="M33.5352 68.9192C33.5352 68.9192 38.3605 65.309 37.6823 60.9125C37.0041 56.5159 33.5352 64.2734 33.5352 64.2734V68.9192Z" fill="#5C5C8E"/>
<path d="M34.875 48.9874C34.8759 50.5689 35.4909 52.0882 36.5904 53.2251C37.1834 53.8373 37.8974 54.3193 38.687 54.6403C38.9416 54.7467 39.2039 54.8338 39.4716 54.9008C39.756 54.9742 40.0453 55.0272 40.3373 55.0596C40.5469 55.0802 40.7582 55.0913 40.9726 55.0913C41.6551 55.0899 42.3324 54.9723 42.9755 54.7435C44.0333 54.3761 44.9696 53.7245 45.6816 52.8602C46.3936 51.9959 46.854 50.9522 47.0122 49.8436C47.1704 48.735 47.0203 47.6042 46.5784 46.5753C46.1365 45.5463 45.4199 44.6589 44.5071 44.0102C43.5942 43.3616 42.5204 42.9767 41.4034 42.8979C40.2863 42.8191 39.1691 43.0494 38.1743 43.5635C37.1794 44.0775 36.3453 44.8556 35.7633 45.8123C35.1813 46.7691 34.874 47.8676 34.875 48.9874Z" fill="#FBBEBE"/>
<path opacity="0.1" d="M11.7258 76.8246C12.2721 76.9247 12.9472 77.1089 12.9472 77.3917C12.9472 77.8682 20.5712 80.4428 20.5712 80.4428C20.5712 80.4428 20.2853 81.1084 21.0477 82.2535C21.8101 83.3987 28.0093 89.9744 28.0093 89.9744L27.9887 90.1682L27.9093 90.9258L27.5312 94.5488C27.5312 94.5488 29.9137 93.6911 30.6761 93.7864C30.9223 93.8166 31.1908 93.6593 31.437 93.4306C31.3463 92.9978 31.1779 92.585 30.9398 92.2124C30.9398 92.2124 30.3219 91.7263 29.3896 91.0831V78.9308L13.1981 74.998L11.7321 76.4593C11.7222 76.5808 11.7201 76.7028 11.7258 76.8246Z" fill="black"/>
<path d="M11.0391 76.1525C11.0391 76.1525 12.9451 76.3415 12.9451 76.8196C12.9451 77.2976 20.569 79.8707 20.569 79.8707C20.569 79.8707 20.2831 80.5363 21.0455 81.6814C21.8079 82.8266 28.0072 89.4023 28.0072 89.4023L27.5307 93.9767C27.5307 93.9767 29.9132 93.119 30.6756 93.2143C31.0171 93.2572 31.3935 92.9411 31.7048 92.579C31.9631 92.2736 32.1932 91.9457 32.3926 91.599C32.3926 91.599 31.5333 87.9744 32.6785 87.1167C33.8237 86.259 31.4396 79.9692 31.4396 79.9692C31.4396 79.9692 30.3611 75.4965 30.6788 73.5778C30.699 73.45 30.7298 73.324 30.7709 73.2013C30.7709 73.187 30.7788 73.1728 30.7852 73.1585C31.465 71.3255 38.7777 55.9489 38.7777 55.9489C38.773 55.5128 38.7422 55.0773 38.6855 54.6449C38.6712 54.5242 38.6522 54.3987 38.6284 54.2732C38.5914 54.0446 38.5421 53.8182 38.4806 53.595C38.4393 53.4489 38.3949 53.3091 38.3425 53.1757C38.1169 52.5943 37.7707 52.148 37.2529 52.1369C37.2529 52.1369 36.6811 51.5016 35.3469 51.3332C34.3621 51.2045 32.9644 51.3332 31.0584 52.1369C26.5793 54.0429 25.531 54.1382 25.531 54.1382L23.2787 57.0877L22.8149 57.6945C21.1198 59.9056 19.5853 62.2352 18.2231 64.6656C17.4734 66.0126 16.4124 67.5834 15.1401 68.5269C12.5654 70.4345 11.0391 76.1525 11.0391 76.1525Z" fill="#E0B581"/>
<path opacity="0.1" d="M27.7436 65.1309C27.7436 65.1309 21.3807 66.7033 18.9141 70.671L27.7436 65.1309Z" fill="black"/>
<path opacity="0.1" d="M25.7788 72.1006C25.7788 72.1006 24.5765 80.1788 24.91 80.7872C25.2436 81.3955 25.7788 72.1006 25.7788 72.1006Z" fill="black"/>
<path opacity="0.1" d="M26.207 76.2479C26.6708 76.8547 28.5498 81.5386 28.5498 81.5386L28.0066 89.4025L27.5301 93.9769C27.5301 93.9769 29.9126 93.1192 30.6765 93.2145C31.0165 93.2574 31.3945 92.9429 31.7058 92.5792C31.2102 89.8996 30.1524 84.2944 29.9586 84.1864C29.7061 84.0435 28.4195 79.5389 28.3512 78.2873C28.2829 77.0357 26.4913 74.2148 26.4913 74.2148C26.4913 74.2148 25.7416 75.6412 26.207 76.2479Z" fill="black"/>
<path opacity="0.1" d="M28.007 68.5272C28.123 68.8846 28.3072 70.9574 28.3072 70.9574C28.4375 72.7855 29.8193 73.3828 30.677 73.5734C30.6972 73.4455 30.7281 73.3196 30.7692 73.1969C31.3409 71.5784 38.7759 55.9445 38.7759 55.9445C38.7682 55.151 38.6685 54.3611 38.4789 53.5906C36.8604 53.1141 34.2968 53.8479 34.2968 53.8479C33.5567 53.751 31.1408 58.5557 31.1408 58.5557C31.1408 58.5557 29.5303 62.2358 29.3539 62.7362C29.1776 63.2365 29.3539 64.0608 29.2825 64.3467C29.211 64.6326 28.4581 64.8804 28.3517 65.2759C28.2453 65.6714 28.3152 66.4529 28.2437 66.5958C28.1722 66.7388 27.8832 68.1699 28.007 68.5272Z" fill="black"/>
<path d="M28.5801 68.241C28.6977 68.5984 28.8803 70.6712 28.8803 70.6712C28.9883 72.1928 29.9668 72.8615 30.7863 73.1537C31.1544 73.2852 31.5396 73.3622 31.9299 73.3824L33.0799 74.3799L38.3865 78.2951C38.3865 78.2951 40.3656 74.642 39.8287 74.6182C39.2918 74.5943 36.1962 71.9974 36.1962 71.9974C35.2432 71.4923 34.2997 69.8023 33.8598 68.9351C33.8857 68.8306 33.9048 68.7245 33.9169 68.6174C34.1091 66.9989 38.1117 60.8028 38.1117 60.8028C38.1117 60.8028 39.6588 58.981 40.2623 55.6058C40.2798 55.5296 40.2909 55.447 40.3052 55.3691C40.3223 55.264 40.3329 55.1579 40.337 55.0515C40.4084 53.7538 39.465 53.2821 38.3436 53.1693C37.761 53.124 37.1752 53.1421 36.5964 53.2233C36.0175 53.2956 35.4444 53.4082 34.8811 53.56C34.4046 53.4981 33.2197 55.4914 32.4446 56.9035C32.0268 57.6691 31.7266 58.2679 31.7266 58.2679C31.7266 58.2679 30.1081 61.9496 29.927 62.4499C29.746 62.9503 29.927 63.773 29.8556 64.0605C29.7841 64.348 29.0312 64.5942 28.9264 64.9897C28.8216 65.3852 28.8883 66.1666 28.8168 66.3096C28.7453 66.4525 28.4594 67.8836 28.5801 68.241Z" fill="#E0B581"/>
<path opacity="0.1" d="M22.4219 60.0007C23.4289 61.0363 25.0712 61.0395 26.3832 60.5137C27.6951 59.988 28.8086 59.0286 30.0268 58.2901C30.821 57.8136 31.6533 57.4117 32.4315 56.9146C32.5459 56.8399 32.6571 56.7653 32.7651 56.689C33.6641 56.0537 34.4408 55.2389 35.37 54.656C35.9927 54.244 36.7171 54.012 37.4634 53.9857C37.8077 53.9822 38.1486 54.0537 38.4624 54.1953C38.5172 54.2192 38.5703 54.2468 38.6213 54.2779C38.9267 54.4547 39.2094 54.668 39.4631 54.9133C39.7252 55.1499 39.9777 55.4025 40.2572 55.6217C40.2747 55.5454 40.2858 55.4628 40.3001 55.385C40.3172 55.2799 40.3279 55.1738 40.3319 55.0673C40.5416 55.088 40.7528 55.0991 40.9672 55.0991C41.6513 55.0955 42.3297 54.9752 42.9733 54.7433C42.9733 54.7179 42.9828 54.6909 42.9876 54.6655C43.2163 53.4647 43.6229 52.1924 44.595 51.5174C45.1557 51.1251 46.0515 50.9662 46.8266 50.6676C47.0955 49.7312 47.1361 48.7439 46.945 47.7885C46.754 46.8331 46.3369 45.9374 45.7285 45.1764C45.1202 44.4153 44.3384 43.811 43.4486 43.4142C42.5588 43.0173 41.5869 42.8394 40.6142 42.8953C39.6415 42.9512 38.6963 43.2394 37.8579 43.7356C37.0194 44.2318 36.312 44.9217 35.7949 45.7474C35.2778 46.5732 34.9661 47.5108 34.8858 48.4818C34.8055 49.4528 34.959 50.4289 35.3334 51.3284C34.3487 51.1997 32.9509 51.3284 31.0449 52.1321C26.5658 54.0381 25.5175 54.1334 25.5175 54.1334L23.278 57.0877C23.521 57.4594 23.7958 57.8263 23.8212 58.2599C23.872 59.0636 23.0969 59.6179 22.4219 60.0007Z" fill="black"/>
<path d="M44.6013 50.9475C43.6341 51.6241 43.2227 52.8948 42.994 54.094C42.9225 54.4688 42.8542 54.8643 42.6255 55.1613C42.1124 55.8268 41.08 55.6378 40.4097 55.1613C39.7395 54.6848 39.2121 53.9605 38.464 53.6222C37.4697 53.1743 36.3023 53.5015 35.3731 54.0844C34.444 54.6673 33.6657 55.4822 32.7667 56.1159C31.8979 56.729 30.929 57.1658 30.0236 57.7169C28.807 58.4587 27.6951 59.4164 26.3816 59.9406C25.068 60.4647 23.4273 60.4647 22.4219 59.4292C23.0969 59.0543 23.872 58.5 23.8196 57.6979C23.7672 56.8958 22.8317 56.2938 22.8952 55.4742C22.9587 54.6546 23.926 54.3274 24.6201 53.924C26.0735 53.079 26.685 51.2238 27.0026 49.5084C27.2441 48.1695 27.4426 46.6717 28.4448 45.8124C29.0897 45.2581 29.9649 45.077 30.6145 44.529C31.2308 44.0081 31.5675 43.2187 31.9614 42.4928C32.6078 41.2809 33.456 40.1564 34.579 39.4321C35.7019 38.7078 37.1298 38.4283 38.3624 38.9159C38.8389 39.1017 39.2645 39.3924 39.7315 39.5941C40.891 40.096 42.2204 40.0293 43.3704 40.5566C44.7856 41.2078 45.7052 42.6469 46.5471 44.0128C47.2666 45.1802 48.6738 47.2467 48.2799 48.7556C47.8781 50.2947 45.6512 50.2121 44.6013 50.9475Z" fill="#7C5C5C"/>
<g opacity="0.1">
<path opacity="0.1" d="M22.8975 55.3743C22.9026 55.3114 22.9138 55.2492 22.9309 55.1885C23.1866 55.5919 23.5058 55.9826 23.536 56.4591C23.5433 56.5684 23.5342 56.6782 23.509 56.7847C23.2247 56.3273 22.8578 55.9 22.8975 55.3743Z" fill="black"/>
<path opacity="0.1" d="M26.0981 58.7001C27.4117 58.1727 28.5235 57.215 29.7402 56.4764C30.6455 55.9252 31.6144 55.4885 32.4832 54.8754C33.3822 54.24 34.1605 53.4252 35.0897 52.8439C36.0188 52.2626 37.1863 51.9338 38.1806 52.3817C38.9287 52.72 39.4512 53.4363 40.1263 53.9208C40.8013 54.4052 41.829 54.5942 42.342 53.9287C42.5723 53.6317 42.639 53.2378 42.7105 52.8629C42.9392 51.6622 43.3458 50.3915 44.3179 49.7149C45.3694 48.9811 47.5946 49.0637 47.998 47.515C48.0653 47.2403 48.083 46.9558 48.0505 46.6748C48.3094 47.3626 48.4412 48.0551 48.2855 48.6586C47.8805 50.2073 45.6553 50.1247 44.6038 50.8585C43.6381 51.5351 43.2251 52.8058 42.9964 54.0065C42.9249 54.3814 42.8582 54.7769 42.6295 55.0723C42.1149 55.7378 41.0824 55.5488 40.4058 55.0644C39.7292 54.5799 39.2082 53.8636 38.4601 53.5253C37.4658 53.0774 36.2984 53.4062 35.3692 53.9875C34.44 54.5688 33.6618 55.3852 32.7628 56.019C31.894 56.6336 30.9251 57.0688 30.0197 57.62C28.8031 58.3633 27.6912 59.3195 26.3777 59.8437C25.0641 60.3678 23.4234 60.3662 22.418 59.3306C22.6778 59.1899 22.9244 59.0262 23.155 58.8414C24.073 59.1766 25.169 59.0717 26.0981 58.7001Z" fill="black"/>
</g>
<path d="M129.54 43.1074L123.027 36.5587C122.708 36.2322 122.327 35.9723 121.907 35.7937C121.487 35.6152 121.035 35.5217 120.579 35.5186C120.122 35.5155 119.669 35.6029 119.247 35.7757C118.824 35.9485 118.44 36.2033 118.116 36.5253L77.2231 77.0722L59.9325 59.6466C59.2905 58.9954 58.4161 58.6259 57.5016 58.6194C56.5872 58.6128 55.7076 58.9698 55.0563 59.6117L48.4743 66.1239C47.8238 66.7735 47.4555 67.6533 47.4493 68.5726C47.4431 69.4919 47.7993 70.3766 48.4409 71.035L74.6992 97.4997C75.3486 98.1504 76.2283 98.5189 77.1476 98.5255C78.0669 98.532 78.9517 98.176 79.6103 97.5347L129.503 48.0169C129.829 47.6979 130.089 47.3174 130.268 46.8974C130.447 46.4774 130.54 46.0262 130.544 45.5697C130.547 45.1133 130.46 44.6608 130.288 44.2381C130.115 43.8155 129.861 43.4312 129.54 43.1074Z" fill="#E0B581"/>
<g opacity="0.5">
<path opacity="0.5" d="M119.725 95.6191C119.725 95.6191 114.868 95.3268 115.437 98.7307C115.408 98.9032 115.434 99.0806 115.511 99.2375C115.589 99.3943 115.714 99.5227 115.869 99.6042C115.869 99.6042 115.869 99.3517 116.366 99.4375C116.541 99.4673 116.718 99.4758 116.895 99.4629C117.133 99.4474 117.36 99.3542 117.54 99.1976C117.54 99.1976 118.904 98.6338 119.436 96.4005C119.436 96.4005 119.829 95.9145 119.813 95.789L118.993 96.1401C118.993 96.1401 119.274 96.7309 119.054 97.2217C119.054 97.2217 119.027 96.1607 118.869 96.1861C118.838 96.1861 118.444 96.391 118.444 96.391C118.444 96.391 118.92 97.4203 118.561 98.17C118.561 98.17 118.699 96.8993 118.293 96.4657L117.716 96.8024C117.716 96.8024 118.278 97.8666 117.897 98.7338C117.897 98.7338 117.996 97.4028 117.594 96.885L117.071 97.2916C117.071 97.2916 117.6 98.3399 117.278 99.061C117.278 99.061 117.237 97.5108 116.96 97.3933C116.96 97.3933 116.503 97.7967 116.433 97.9635C116.433 97.9635 116.795 98.7243 116.571 99.1262C116.571 99.1262 116.433 98.0921 116.32 98.089C116.32 98.089 115.864 98.7719 115.817 99.2405C115.839 98.8071 115.974 98.387 116.209 98.0222C115.946 98.0726 115.704 98.1984 115.512 98.3844C115.512 98.3844 115.581 97.9079 116.322 97.8571C116.322 97.8571 116.698 97.3393 116.798 97.3075C116.798 97.3075 116.063 97.2455 115.616 97.4441C115.616 97.4441 116.009 96.9866 116.932 97.1947L117.448 96.7738C117.448 96.7738 116.48 96.6404 116.069 96.7865C116.069 96.7865 116.546 96.3831 117.588 96.6769L118.15 96.3418C118.15 96.3418 117.324 96.1639 116.831 96.2274C116.831 96.2274 117.351 95.9479 118.315 96.2512L118.717 96.0702C118.717 96.0702 118.112 95.951 117.934 95.9336C117.756 95.9161 117.748 95.8653 117.748 95.8653C118.131 95.8019 118.524 95.8459 118.884 95.9923C118.884 95.9923 119.74 95.6731 119.725 95.6191Z" fill="#E0B581"/>
</g>
<g opacity="0.5">
<path opacity="0.5" d="M111.008 71.848C111.008 71.848 108.541 76.0428 111.835 77.0784C111.976 77.1828 112.146 77.2403 112.321 77.2426C112.496 77.2448 112.667 77.1918 112.811 77.0911C112.811 77.0911 112.59 76.9688 112.887 76.5717C112.992 76.4295 113.081 76.2754 113.151 76.1127C113.243 75.8928 113.263 75.6489 113.206 75.417C113.206 75.417 113.322 73.9446 111.575 72.4579C111.575 72.4579 111.319 71.8861 111.202 71.8433L111.141 72.7327C111.141 72.7327 111.794 72.7518 112.132 73.1711C112.132 73.1711 111.179 72.7137 111.125 72.8646C111.116 72.8963 111.114 73.3411 111.114 73.3411C111.114 73.3411 112.252 73.3792 112.754 74.0431C112.754 74.0431 111.686 73.3442 111.113 73.5094L111.151 74.1765C111.151 74.1765 112.355 74.1575 112.955 74.8913C112.955 74.8913 111.813 74.1987 111.17 74.321L111.295 74.9723C111.295 74.9723 112.471 74.9723 112.965 75.5901C112.965 75.5901 111.565 74.9246 111.335 75.1136C111.335 75.1136 111.494 75.7045 111.602 75.8427C111.602 75.8427 112.445 75.8649 112.701 76.2477C112.701 76.2477 111.718 75.9014 111.662 75.9999C111.662 75.9999 112.066 76.7162 112.457 76.972C112.08 76.7551 111.768 76.4435 111.55 76.0682C111.471 76.3271 111.471 76.6035 111.55 76.8624C111.55 76.8624 111.151 76.5797 111.45 75.9094C111.45 75.9094 111.157 75.3392 111.175 75.2343C111.175 75.2343 110.787 75.8617 110.76 76.3462C110.76 76.3462 110.531 75.7887 111.135 75.0596L110.995 74.4084C110.995 74.4084 110.438 75.2121 110.381 75.6441C110.381 75.6441 110.236 75.039 110.973 74.2416L110.929 73.5888C110.929 73.5888 110.395 74.2432 110.23 74.7102C110.23 74.7102 110.215 74.1209 110.922 73.3998L110.944 72.9599C110.944 72.9599 110.563 73.4459 110.468 73.5952C110.373 73.7445 110.323 73.7302 110.323 73.7302C110.44 73.3605 110.657 73.0305 110.951 72.7772C110.951 72.7772 111.062 71.8591 111.008 71.848Z" fill="#E0B581"/>
</g>
<g opacity="0.5">
<path opacity="0.5" d="M95.5815 38.3801C95.5815 38.3801 93.1164 42.5765 96.409 43.6105C96.5494 43.7154 96.7194 43.7732 96.8946 43.7754C97.0698 43.7777 97.2413 43.7244 97.3843 43.6232C97.3843 43.6232 97.1635 43.5009 97.4621 43.1038C97.5671 42.9616 97.6551 42.8075 97.7242 42.6448C97.8177 42.4251 97.8372 42.1809 97.7798 41.9491C97.7798 41.9491 97.8973 40.4767 96.1486 38.9901C96.1486 38.9901 95.8928 38.4198 95.7753 38.377L95.7149 39.2648C95.7149 39.2648 96.3693 39.2839 96.7061 39.7032C96.7061 39.7032 95.753 39.2458 95.7006 39.3967C95.6895 39.4284 95.6895 39.8732 95.6895 39.8732C95.6895 39.8732 96.8252 39.9113 97.3271 40.5752C97.3271 40.5752 96.2597 39.8763 95.6863 40.0415L95.7261 40.7086C95.7261 40.7086 96.9284 40.6896 97.5288 41.4234C97.5288 41.4234 96.3868 40.7325 95.7435 40.8532L95.869 41.5044C95.869 41.5044 97.0444 41.5044 97.54 42.1238C97.54 42.1238 96.139 41.4567 95.9087 41.6473C95.9087 41.6473 96.0675 42.2366 96.1771 42.3748C96.1771 42.3748 97.019 42.397 97.2747 42.7798C97.2747 42.7798 96.2915 42.4336 96.2375 42.532C96.2375 42.532 96.6394 43.25 97.0317 43.5041C96.6553 43.2878 96.3421 42.9768 96.1231 42.6019C96.0471 42.858 96.0471 43.1305 96.1231 43.3866C96.1231 43.3866 95.7245 43.1038 96.0231 42.4256C96.0231 42.4256 95.7308 41.8554 95.7483 41.7506C95.7483 41.7506 95.3607 42.378 95.3337 42.8624C95.3337 42.8624 95.105 42.3049 95.7102 41.5759L95.5688 40.9246C95.5688 40.9246 95.0113 41.7283 94.9557 42.1604C94.9557 42.1604 94.8096 41.5552 95.5466 40.7579L95.5021 40.1051C95.5021 40.1051 94.9684 40.7595 94.8032 41.2264C94.8032 41.2264 94.7889 40.6372 95.4957 39.9176L95.518 39.4761C95.518 39.4761 95.1368 39.9621 95.0415 40.1114C94.9462 40.2607 94.8969 40.2464 94.8969 40.2464C95.0163 39.876 95.2363 39.5461 95.5323 39.2934C95.5323 39.2934 95.6355 38.3992 95.5815 38.3801Z" fill="#E0B581"/>
</g>
<g opacity="0.5">
<path opacity="0.5" d="M42.4754 6.59961C42.4754 6.59961 33.2948 13.2706 39.3718 18.555C39.3718 18.555 40.0595 19.8066 41.4462 19.4905C41.4462 19.4905 41.0872 19.0235 42.0958 18.4517C42.4533 18.2463 42.785 17.9989 43.0837 17.7148C43.4878 17.3341 43.7571 16.8324 43.8509 16.2853C43.8509 16.2853 45.4742 13.2452 43.1219 8.4389C43.1219 8.4389 43.1076 6.97922 42.8931 6.7775L41.9401 8.62314C41.9401 8.62314 43.3204 9.27277 43.6524 10.4847C43.6524 10.4847 42.0307 8.61202 41.7845 8.89634C41.7352 8.95193 41.3207 9.89698 41.3207 9.89698C41.3207 9.89698 43.7175 11.0374 44.1717 12.9243C44.1717 12.9243 42.5389 10.4338 41.1539 10.2528L40.6155 11.7156C40.6155 11.7156 43.206 12.7973 43.8064 14.9256C43.8064 14.9256 42.0084 12.3843 40.5186 12.0428L40.1818 13.5533C40.1818 13.5533 42.6882 14.6572 43.1759 16.4314C43.1759 16.4314 40.7934 13.7026 40.1278 13.9043C40.1278 13.9043 39.9023 15.3084 40.0214 15.7103C40.0214 15.7103 41.8035 16.5442 41.9941 17.6004C41.9941 17.6004 40.2136 15.9453 40.004 16.1042C40.004 16.1042 40.1977 18.0102 40.8076 18.9266C40.8076 18.9266 39.8086 17.6417 39.7069 16.1502C39.7069 16.1502 39.0255 16.9444 38.9874 17.8355C38.9874 17.8355 38.3966 16.8586 39.6656 15.6865C39.6656 15.6865 39.5751 14.1934 39.7101 13.9869C39.7101 13.9869 38.2933 14.9669 37.7835 15.9835C37.7835 15.9835 37.8136 14.5794 39.7848 13.5835L40.0897 12.0603C40.0897 12.0603 38.1504 13.2563 37.6278 14.1251C37.6278 14.1251 37.8804 12.6956 40.1977 11.6759L40.7124 10.2385C40.7124 10.2385 38.9652 11.1422 38.171 11.9856C38.171 11.9856 38.6904 10.715 40.8712 9.83028L41.327 8.90904C41.327 8.90904 40.0564 9.59203 39.7149 9.82075C39.3734 10.0495 39.2781 9.97958 39.2781 9.97958C39.8731 9.29643 40.6462 8.79215 41.5113 8.52308C41.5113 8.52308 42.5818 6.67426 42.4754 6.59961Z" fill="#E0B581"/>
</g>
<g opacity="0.5">
<path opacity="0.5" d="M33.5585 28.6125C33.5585 28.6125 21.6826 23.6188 20.126 32.623C20.126 32.623 19.3144 34.0271 20.4437 35.1866C20.4437 35.1866 20.6867 34.564 21.8351 35.2072C22.2447 35.4338 22.6797 35.6108 23.1311 35.7346C23.7408 35.9027 24.3885 35.8682 24.9768 35.6361C24.9768 35.6361 28.8809 35.4248 32.1672 30.3152C32.1672 30.3152 33.5744 29.4448 33.6459 29.1176L31.2904 29.2764C31.2904 29.2764 31.4715 30.9997 30.4962 32.0337C30.4962 32.0337 31.3619 29.359 30.9457 29.2843C30.8616 29.2685 29.7021 29.4209 29.7021 29.4209C29.7021 29.4209 30.0023 32.4181 28.4314 33.9683C28.4314 33.9683 29.8895 30.9203 29.2542 29.4749L27.5181 29.8101C27.5181 29.8101 27.9946 32.9629 26.276 34.7959C26.276 34.7959 27.6881 31.5557 27.1433 29.9101L25.4787 30.4692C25.4787 30.4692 25.8805 33.5522 24.4431 35.0754C24.4431 35.0754 25.6979 31.1665 25.107 30.6281C25.107 30.6281 23.6108 31.2348 23.29 31.5811C23.29 31.5811 23.5282 33.8047 22.6133 34.6068C22.6133 34.6068 23.1756 31.9067 22.8977 31.7955C22.8977 31.7955 21.1584 33.1043 20.6279 34.2336C20.6279 34.2336 21.2903 32.5087 22.6785 31.5334C22.6785 31.5334 21.5126 31.3349 20.6136 31.8241C20.6136 31.8241 21.2156 30.6789 23.0994 31.2221C23.0994 31.2221 24.4955 30.2548 24.7751 30.2691C24.7751 30.2691 22.993 29.4749 21.7048 29.5734C21.7048 29.5734 23.0851 28.7793 25.2103 30.1055L26.8669 29.5051C26.8669 29.5051 24.5654 28.325 23.4107 28.3298C23.4107 28.3298 24.945 27.7357 27.2989 29.3876L28.9984 29.0366C28.9984 29.0366 27.0924 27.8691 25.8059 27.5991C25.8059 27.5991 27.3482 27.3545 29.4876 28.9571L30.6503 28.8603C30.6503 28.8603 29.243 28.0311 28.8174 27.8294C28.3917 27.6277 28.4108 27.4975 28.4108 27.4975C29.4239 27.6734 30.3682 28.1276 31.1379 28.8094C31.1379 28.8094 33.5474 28.7602 33.5585 28.6125Z" fill="#E0B581"/>
</g>
<g opacity="0.5">
<path opacity="0.5" d="M26.4447 16.0041C26.4447 16.0041 22.234 6.27242 16.1809 10.7356C16.1809 10.7356 14.8991 11.1073 14.9102 12.4352C14.9102 12.4352 15.409 12.2033 15.7235 13.2404C15.8407 13.6078 16.0006 13.9602 16.2 14.2903C16.466 14.7379 16.8709 15.0865 17.3531 15.283C17.3531 15.283 19.7928 17.3828 24.6594 16.2186C24.6594 16.2186 25.992 16.5029 26.2207 16.3504L24.7325 15.1004C24.7325 15.1004 23.8589 16.2281 22.6867 16.2821C22.6867 16.2821 24.7245 15.1861 24.5196 14.905C24.4783 14.8478 23.7032 14.2792 23.7032 14.2792C23.7032 14.2792 22.1737 16.2297 20.3677 16.2599C20.3677 16.2599 22.971 15.2783 23.4157 14.06L22.1927 13.2658C22.1927 13.2658 20.6568 15.4149 18.5936 15.5276C18.5936 15.5276 21.2778 14.4079 21.8925 13.1181L20.5853 12.5098C20.5853 12.5098 19.0669 14.5746 17.3499 14.6525C17.3499 14.6525 20.3217 13.0451 20.2756 12.3891C20.2756 12.3891 19.0415 11.8967 18.6507 11.9253C18.6507 11.9253 17.5278 13.3786 16.5256 13.3373C16.5256 13.3373 18.3982 12.0524 18.295 11.8284C18.295 11.8284 16.516 11.6156 15.5583 11.9872C15.5583 11.9872 16.9338 11.3392 18.314 11.552C18.314 11.552 17.7343 10.769 16.9242 10.5514C16.9242 10.5514 17.936 10.2131 18.7445 11.6076C18.7445 11.6076 20.1247 11.83 20.2851 11.9952C20.2851 11.9952 19.6816 10.5037 18.8556 9.83187C18.8556 9.83187 20.1263 10.1495 20.6362 12.1461L21.9624 12.7353C21.9624 12.7353 21.2683 10.7213 20.579 10.0685C20.579 10.0685 21.829 10.5895 22.2864 12.9117L23.492 13.6725C23.492 13.6725 23.025 11.8935 22.4167 10.9993C22.4167 10.9993 23.4713 11.7331 23.8303 13.9044L24.5768 14.5079C24.5768 14.5079 24.2115 13.215 24.0733 12.8529C23.9351 12.4907 24.0225 12.424 24.0225 12.424C24.5235 13.1055 24.8254 13.9127 24.8945 14.7557C24.8945 14.7557 26.3557 16.0883 26.4447 16.0041Z" fill="#E0B581"/>
</g>
<g opacity="0.5">
<path opacity="0.5" d="M108.513 21.0676C108.513 21.0676 107.52 16.3026 104.383 17.7496C104.208 17.7663 104.044 17.8379 103.913 17.954C103.781 18.0701 103.69 18.2249 103.652 18.3961C103.652 18.3961 103.899 18.3373 103.945 18.8328C103.962 19.0087 104 19.1819 104.057 19.3491C104.137 19.5744 104.287 19.7682 104.485 19.9018C104.485 19.9018 105.387 21.0708 107.679 20.9977C107.679 20.9977 108.252 21.2487 108.37 21.201L107.815 20.5022C107.815 20.5022 107.318 20.9278 106.788 20.8437C106.788 20.8437 107.804 20.5403 107.741 20.3942C107.726 20.364 107.431 20.0368 107.431 20.0368C107.431 20.0368 106.564 20.7722 105.746 20.6181C105.746 20.6181 107.005 20.418 107.32 19.9113L106.843 19.4428C106.843 19.4428 105.963 20.2655 105.026 20.1242C105.026 20.1242 106.337 19.87 106.732 19.3475L106.202 18.9504C106.202 18.9504 105.328 19.735 104.548 19.6127C104.548 19.6127 106.033 19.1648 106.073 18.8662C106.073 18.8662 105.565 18.5311 105.385 18.5072C105.385 18.5072 104.75 19.0568 104.3 18.9456C104.3 18.9456 105.253 18.5422 105.236 18.431C105.236 18.431 104.456 18.1705 103.991 18.2483C104.415 18.1564 104.855 18.1767 105.269 18.3071C105.153 18.0663 104.967 17.8653 104.737 17.729C104.737 17.729 105.223 17.6702 105.458 18.3643C105.458 18.3643 106.057 18.5914 106.114 18.682C106.114 18.682 105.981 17.9561 105.673 17.5701C105.673 17.5701 106.216 17.829 106.259 18.7757L106.8 19.1632C106.8 19.1632 106.675 18.1943 106.426 17.8354C106.426 17.8354 106.939 18.1864 106.929 19.2649L107.406 19.7191C107.406 19.7191 107.361 18.8757 107.17 18.4183C107.17 18.4183 107.576 18.8456 107.536 19.8478L107.815 20.1893C107.815 20.1893 107.772 19.5746 107.744 19.3951C107.715 19.2156 107.76 19.1966 107.76 19.1966C107.922 19.5499 107.983 19.9414 107.936 20.3275C107.936 20.3275 108.465 21.0962 108.513 21.0676Z" fill="#E0B581"/>
</g>
<g opacity="0.5">
<path opacity="0.5" d="M91.4166 109.398C91.4166 109.398 90.4255 104.633 87.2869 106.08C87.1122 106.096 86.9473 106.168 86.8157 106.284C86.6842 106.4 86.5928 106.555 86.5547 106.726C86.5547 106.726 86.8009 106.667 86.8469 107.163C86.8641 107.339 86.9025 107.512 86.9613 107.679C87.0402 107.904 87.1895 108.098 87.387 108.232C87.387 108.232 88.2891 109.401 90.5827 109.328C90.5827 109.328 91.1561 109.579 91.272 109.531L90.7193 108.832C90.7193 108.832 90.2221 109.258 89.6901 109.174C89.6901 109.174 90.7066 108.87 90.6431 108.724C90.6303 108.694 90.3333 108.367 90.3333 108.367C90.3333 108.367 89.4661 109.102 88.6481 108.948C88.6481 108.948 89.9092 108.748 90.2221 108.241L89.7456 107.765C89.7456 107.765 88.8752 108.591 87.9349 108.445C87.9349 108.445 89.2453 108.191 89.6408 107.668L89.1103 107.271C89.1103 107.271 88.2383 108.056 87.4584 107.933C87.4584 107.933 88.9435 107.487 88.9832 107.187C88.9832 107.187 88.4734 106.852 88.2955 106.828C88.2955 106.828 87.6602 107.377 87.2091 107.266C87.2091 107.266 88.1621 106.863 88.1446 106.752C88.1446 106.752 87.3647 106.491 86.8994 106.569C87.3239 106.477 87.7652 106.497 88.1795 106.628C88.0622 106.387 87.8773 106.186 87.6475 106.05C87.6475 106.05 88.1319 105.991 88.367 106.685C88.367 106.685 88.9674 106.912 89.0245 107.003C89.0245 107.003 88.8911 106.277 88.583 105.891C88.583 105.891 89.1262 106.15 89.1675 107.096L89.7107 107.484C89.7107 107.484 89.5836 106.515 89.3343 106.156C89.3343 106.156 89.8489 106.507 89.8394 107.585L90.3159 108.04C90.3159 108.04 90.2714 107.196 90.0792 106.739C90.0792 106.739 90.4858 107.166 90.4461 108.168L90.7257 108.51C90.7257 108.51 90.6812 107.895 90.6526 107.716C90.624 107.536 90.6685 107.519 90.6685 107.519C90.8309 107.872 90.892 108.263 90.8448 108.648C90.8448 108.648 91.3721 109.422 91.4166 109.398Z" fill="#E0B581"/>
</g>
</g>
<defs>
<linearGradient id="paint0_linear" x1="8654.38" y1="44083.6" x2="8654.38" y2="19432.2" gradientUnits="userSpaceOnUse">
<stop stop-color="#808080" stop-opacity="0.25"/>
<stop offset="0.54" stop-color="#808080" stop-opacity="0.12"/>
<stop offset="1" stop-color="#808080" stop-opacity="0.1"/>
</linearGradient>
<clipPath id="clip0">
<rect width="182.518" height="120" fill="white"/>
</clipPath>
</defs>
</svg>
