<svg width="736" height="590" viewBox="0 0 736 590" fill="none" xmlns="http://www.w3.org/2000/svg">
<g clip-path="url(#clip0)">
<path opacity="0.1" d="M238.087 20.8211C258.564 2.55422 290.719 -1.14407 320.032 0.259454C412.026 4.83495 495.066 49.2425 566.898 99.4817C592.905 117.664 618.506 137.265 635.383 162.311C669.769 213.294 659.552 283.919 611.776 325.919C595.516 340.207 575.81 351.183 555.579 360.874C519.606 378.138 480.792 391.997 439.963 395.962C410.854 398.77 381.38 396.489 352.432 392.566C271.568 381.597 192.192 357.344 125.658 315.856C96.4783 297.66 68.9622 275.035 56.9481 245.596C44.9339 216.157 52.6182 178.851 82.415 161.426C94.738 154.219 109.475 150.963 123.896 147.903C145.132 143.405 166.704 138.97 185.862 129.826C205.659 120.38 229.09 102.113 225.161 81.2008C220.964 58.7654 217.596 39.0669 238.087 20.8211Z" fill="white"/>
<path opacity="0.1" d="M323.463 582.87C375.065 582.87 416.896 569.775 416.896 553.621C416.896 537.467 375.065 524.371 323.463 524.371C271.862 524.371 230.031 537.467 230.031 553.621C230.031 569.775 271.862 582.87 323.463 582.87Z" fill="#E0B581"/>
<path d="M515.059 252.803L518.448 432.959L525.655 433.808L522.94 252.087L515.059 252.803Z" fill="#F5C5CC"/>
<path d="M497.634 249.414L501.023 429.57L508.23 430.419L505.515 248.698L497.634 249.414Z" fill="#F5C5CC"/>
<path d="M501.894 239.996L502.245 436.49L509.613 435.788L506.806 236.136L501.894 239.996Z" fill="#CC929B"/>
<path d="M298.642 207.188L301.751 370.496L308.958 371.254L306.53 206.529L298.642 207.188Z" fill="#F5C5CC"/>
<path d="M302.804 204.136L306.369 374.103L308.958 371.254L306.53 206.529L302.804 204.136Z" fill="#CC929B"/>
<path d="M313.976 211.322L317.084 374.622L324.292 375.38L321.863 210.662L313.976 211.322Z" fill="#F5C5CC"/>
<path d="M318.137 208.262L321.709 378.229L324.292 375.38L321.863 210.662L318.137 208.262Z" fill="#CC929B"/>
<path d="M328.965 215.799L332.074 379.106L339.281 379.864L336.853 215.146L328.965 215.799Z" fill="#F5C5CC"/>
<path d="M333.127 212.753L336.699 382.713L339.281 379.864L336.853 215.146L333.127 212.753Z" fill="#CC929B"/>
<path d="M343.548 216.711L346.748 385.752L353.955 386.538L351.429 216.038L343.548 216.711Z" fill="#F5C5CC"/>
<path d="M347.702 213.553L351.373 389.485L353.955 386.538L351.429 216.037L347.702 213.553Z" fill="#CC929B"/>
<path d="M359.359 218.031L362.566 387.064L369.773 387.85L367.246 217.35L359.359 218.031Z" fill="#F5C5CC"/>
<path d="M363.52 214.873L367.19 390.797L369.773 387.85L367.246 217.35L363.52 214.873Z" fill="#CC929B"/>
<path d="M374.896 223.554L378.096 392.594L385.303 393.38L382.783 222.88L374.896 223.554Z" fill="#F5C5CC"/>
<path d="M379.05 220.396L382.72 396.327L385.303 393.38L382.783 222.88L379.05 220.396Z" fill="#CC929B"/>
<path d="M392.678 227.203L395.963 400.959L403.17 401.766L400.566 226.508L392.678 227.203Z" fill="#F5C5CC"/>
<path d="M396.833 223.96L400.587 404.798L403.17 401.766L400.566 226.508L396.833 223.96Z" fill="#CC929B"/>
<path d="M408.152 229.048L411.429 402.805L418.644 403.612L416.033 228.354L408.152 229.048Z" fill="#F5C5CC"/>
<path d="M412.307 225.799L416.061 406.644L418.644 403.612L416.033 228.354L412.307 225.799Z" fill="#CC929B"/>
<path d="M424.545 233.68L427.83 407.436L435.037 408.25L432.433 232.992L424.545 233.68Z" fill="#F5C5CC"/>
<path d="M428.707 230.438L432.454 411.282L435.037 408.251L432.433 232.992L428.707 230.438Z" fill="#CC929B"/>
<path d="M284.6 206.9L284.249 196.556L287.898 194.563L549.614 248.241L550.098 261.371L284.6 206.9Z" fill="#F5C5CC"/>
<path d="M287.898 194.563L550.575 248.199L550.308 253.119L284.789 196.255" fill="#CC929B"/>
<path d="M298.733 464.335L291.365 467.016H284.347L283.996 190.143L287.856 184.781L291.582 183.686L296.277 182.978L298.733 464.335Z" fill="#F5C5CC"/>
<path d="M298.733 464.335L291.365 467.016L290.909 190.69L291.582 183.686L296.277 182.978L298.733 464.335Z" fill="#CC929B"/>
<path d="M442.356 238.824L445.64 412.573L452.847 413.387L450.244 238.129L442.356 238.824Z" fill="#F5C5CC"/>
<path d="M446.511 235.575L450.265 416.419L452.848 413.387L450.244 238.129L446.511 235.575Z" fill="#CC929B"/>
<path d="M460.3 241.568L463.648 419.037L470.855 419.865L468.181 240.866L460.3 241.568Z" fill="#F5C5CC"/>
<path d="M478.778 244.817L482.167 424.973L489.374 425.823L486.665 244.101L478.778 244.817Z" fill="#F5C5CC"/>
<path d="M482.932 241.456L486.799 428.967L489.374 425.823L486.665 244.101L482.932 241.456Z" fill="#CC929B"/>
<path d="M196.627 411.226L189.258 411.927L188.915 218.108L188.908 215.434L193.82 211.574L193.897 216.95L196.627 411.226Z" fill="#F5C5CC"/>
<path d="M222.592 400.349L215.224 401.051L214.88 210.396L214.873 204.557L219.785 200.697L219.897 208.529L222.592 400.349Z" fill="#F5C5CC"/>
<path d="M265.4 382.804L258.031 383.506L257.694 195.258L257.68 187.013L262.593 183.153L262.747 194.086L265.4 382.804Z" fill="#F5C5CC"/>
<path d="M283.996 375.787L276.628 376.489L276.298 192.837L276.277 179.995L281.189 176.135L281.442 193.974L283.996 375.787Z" fill="#F5C5CC"/>
<path d="M209.61 409.121L202.241 409.822L201.89 214.732V213.329L206.802 209.469L206.852 213.168L209.61 409.121Z" fill="#F5C5CC"/>
<path d="M247.505 391.576L240.136 392.278L239.792 200.865L239.785 195.784L244.698 191.925L244.796 199.125L247.505 391.576Z" fill="#F5C5CC"/>
<path d="M235.224 395.085L227.855 395.787L227.518 205.532L227.504 199.293L232.417 195.434L232.529 203.56L235.224 395.085Z" fill="#F5C5CC"/>
<path d="M188.767 378.847L187.013 382.531C187.013 382.531 182.451 389.373 182.978 399.9C183.504 410.426 175.63 438.321 175.63 438.321C175.63 438.321 182.823 441.654 188.262 441.304C193.701 440.953 205.455 446.742 205.455 446.742L229.82 454.3L279.119 465.879C279.119 465.879 308.067 482.02 315.962 482.02C323.856 482.02 355.26 492.722 355.26 492.722C355.26 492.722 397.717 502.02 401.05 505.529C404.384 509.038 418.44 513.761 419.844 513.95C421.247 514.14 442.651 516.231 442.651 516.231C442.651 516.231 467.563 522.02 471.072 515.88C473.117 512.427 474.487 508.616 475.107 504.652C475.107 504.652 486.16 507.108 489.143 503.424C492.125 499.739 492.301 491.845 495.809 492.195C499.318 492.546 513.704 496.932 515.283 495.353C516.862 493.774 525.283 475.178 531.248 477.985C537.213 480.792 547.564 485.178 547.564 485.178L541.599 424.475L538.968 407.808C538.968 407.808 443.353 446.756 440.019 446.756C436.686 446.756 188.767 378.847 188.767 378.847Z" fill="#E0B581"/>
<path d="M538.441 325.688L537.915 411.303L438.595 449.388L187.013 382.545C187.013 382.545 169.995 358.51 185.785 336.053C185.785 336.053 165.434 307.983 190.697 289.737L191.322 289.589L286.839 266.579L329.316 274.34L517.003 308.67C517.003 308.67 535.438 315.513 538.441 325.688Z" fill="#E0B581"/>
<path opacity="0.1" d="M325.962 282.53C321.225 284.986 286.838 293.933 279.996 299.372C273.154 304.811 225.785 309.035 225.785 309.035L220.522 310.088C220.522 310.088 220.873 306.579 199.995 296.404C196.66 294.763 193.705 292.442 191.322 289.589L286.838 266.579L329.316 274.34C329.372 277.702 328.797 281.056 325.962 282.53Z" fill="black"/>
<path d="M181.574 248.684C181.574 248.684 179.82 282.719 200.697 292.895C221.575 303.07 221.245 306.565 221.245 306.565L226.508 305.512C226.508 305.512 208.262 285.161 209.49 281.652C210.718 278.144 193.174 260.424 190.697 259.722C188.22 259.021 181.574 248.684 181.574 248.684Z" fill="#E0B581"/>
<path opacity="0.1" d="M181.946 249.196C181.946 249.196 180.192 283.231 201.069 293.407C221.946 303.582 221.596 307.091 221.596 307.091L226.859 306.039C226.859 306.039 208.613 285.687 209.841 282.179C211.069 278.67 193.504 260.95 191.069 260.249C188.634 259.547 181.946 249.196 181.946 249.196Z" fill="black"/>
<path opacity="0.1" d="M186.858 263.582C186.858 263.582 203.701 289.021 206.683 289.898C209.666 290.775 190.872 263.933 186.858 263.582Z" fill="black"/>
<path d="M179.139 243.933C179.139 243.933 190.016 235.161 191.42 233.406C192.823 231.652 208.262 230.95 208.788 230.95C209.315 230.95 221.069 223.757 234.227 221.476C247.385 219.195 252.649 218.143 252.649 218.143C252.649 218.143 271.947 210.073 273 208.318C274.052 206.564 283 204.634 294.053 213.231C305.105 221.827 329.492 260.424 329.667 264.635C329.842 268.845 331.421 276.565 326.685 279.021C321.948 281.477 287.561 290.424 280.719 295.863C273.877 301.302 226.487 305.526 226.487 305.526L208.613 286.038L199.139 270.775L183.35 254.108L179.139 243.933Z" fill="#E0B581"/>
<path opacity="0.1" d="M208.473 395.458C208.473 395.458 201.925 396.861 205.666 400.601C209.406 404.342 208.473 395.458 208.473 395.458Z" fill="black"/>
<path opacity="0.1" d="M231.399 402.945C231.399 402.945 224.382 411.366 225.785 413.703C227.189 416.04 231.399 402.945 231.399 402.945Z" fill="black"/>
<path opacity="0.1" d="M272.572 413.703C272.572 413.703 265.554 422.124 266.958 424.461C268.361 426.798 272.572 413.703 272.572 413.703Z" fill="black"/>
<path opacity="0.1" d="M322.628 427.738C322.628 427.738 315.611 436.159 317.014 438.496C318.418 440.833 322.628 427.738 322.628 427.738Z" fill="black"/>
<path opacity="0.1" d="M389.998 444.581C389.998 444.581 382.98 453.002 384.383 455.339C385.787 457.675 389.998 444.581 389.998 444.581Z" fill="black"/>
<path opacity="0.1" d="M251.519 405.282C251.519 405.282 244.501 413.703 245.905 416.04C247.308 418.377 251.519 405.282 251.519 405.282Z" fill="black"/>
<path opacity="0.1" d="M349.295 434.756C349.295 434.756 342.278 443.177 343.681 445.514C345.085 447.851 349.295 434.756 349.295 434.756Z" fill="black"/>
<path opacity="0.1" d="M369.878 441.303C369.878 441.303 362.86 449.724 364.264 452.068C365.667 454.412 369.878 441.303 369.878 441.303Z" fill="black"/>
<path opacity="0.1" d="M290.818 419.317C290.818 419.317 283.8 427.739 285.203 430.075C286.607 432.412 290.818 419.317 290.818 419.317Z" fill="black"/>
<path opacity="0.1" d="M467.662 470.314L475.086 504.638C475.086 504.638 475.142 480.602 467.662 470.314Z" fill="black"/>
<path opacity="0.1" d="M490.581 475.458L495.788 492.195C495.788 492.195 495.262 485.753 490.581 475.458Z" fill="black"/>
<path opacity="0.1" d="M515.283 495.339C515.283 495.339 504.174 454.876 501.831 452.069C499.487 449.262 508.596 492.771 515.283 495.339Z" fill="black"/>
<path opacity="0.1" d="M528.477 476.391C528.477 476.391 515.382 453.472 520.525 449.261C525.669 445.051 528.477 476.391 528.477 476.391Z" fill="black"/>
<path opacity="0.1" d="M185.785 336.039L440.054 393.121L537.838 364.58L439.121 390.313C439.121 390.313 193.504 333.702 185.785 336.039Z" fill="black"/>
<path d="M193.469 274.031L193.82 437.366L201.013 438.244L201.364 273.505L193.469 274.031Z" fill="#F5C5CC"/>
<path d="M197.68 271.049L198.381 441.051L201.013 438.244L201.364 273.505L197.68 271.049Z" fill="#CC929B"/>
<path d="M208.732 278.417L209.083 441.753L216.276 442.63L216.627 277.891L208.732 278.417Z" fill="#F5C5CC"/>
<path d="M212.943 275.435L213.645 445.437L216.276 442.63L216.627 277.891L212.943 275.435Z" fill="#CC929B"/>
<path d="M223.645 283.154L223.996 446.49L231.189 447.367L231.54 282.628L223.645 283.154Z" fill="#F5C5CC"/>
<path d="M227.855 280.172L228.557 450.174L231.189 447.367L231.54 282.628L227.855 280.172Z" fill="#CC929B"/>
<path d="M238.206 284.312L238.557 453.381L245.75 454.286L246.101 283.765L238.206 284.312Z" fill="#F5C5CC"/>
<path d="M242.417 281.224L243.119 457.191L245.75 454.286L246.101 283.764L242.417 281.224Z" fill="#CC929B"/>
<path d="M253.996 285.891L254.347 454.96L261.54 455.865L261.891 285.344L253.996 285.891Z" fill="#F5C5CC"/>
<path d="M258.207 282.803L258.908 458.77L261.54 455.865L261.891 285.344L258.207 282.803Z" fill="#CC929B"/>
<path d="M269.435 291.681L269.786 460.749L276.979 461.655L277.33 291.133L269.435 291.681Z" fill="#F5C5CC"/>
<path d="M273.645 288.593L274.347 464.56L276.979 461.654L277.33 291.133L273.645 288.593Z" fill="#CC929B"/>
<path d="M291.365 292.453L292.067 473.332L294.698 470.342L295.049 295.063L291.365 292.453Z" fill="#CC929B"/>
<path d="M302.593 297.73L302.944 471.514L310.137 472.448L310.488 297.168L302.593 297.73Z" fill="#F5C5CC"/>
<path d="M306.804 294.558L307.505 475.437L310.137 472.447L310.488 297.168L306.804 294.558Z" fill="#CC929B"/>
<path d="M318.909 302.642L319.26 476.427L326.453 477.36L326.804 302.081L318.909 302.642Z" fill="#F5C5CC"/>
<path d="M323.12 299.47L323.821 480.35L326.453 477.36L326.804 302.081L323.12 299.47Z" fill="#CC929B"/>
<path d="M336.629 308.081L336.979 481.866L344.172 482.799L344.523 307.52L336.629 308.081Z" fill="#F5C5CC"/>
<path d="M340.839 304.909L341.541 485.788L344.172 482.799L344.523 307.519L340.839 304.909Z" fill="#CC929B"/>
<path d="M354.524 311.134L354.874 488.623L362.068 489.578L362.418 310.558L354.524 311.134Z" fill="#F5C5CC"/>
<path d="M358.734 307.891L359.436 492.63L362.068 489.577L362.418 310.558L358.734 307.891Z" fill="#CC929B"/>
<path d="M372.945 314.691L373.296 494.883L380.489 495.851L380.84 314.109L372.945 314.691Z" fill="#CC929B"/>
<path d="M391.717 319.604L392.068 499.796L399.261 500.764L399.612 319.021L391.717 319.604Z" fill="#F5C5CC"/>
<path d="M395.927 316.312L396.629 503.859L399.261 500.764L399.612 319.021L395.927 316.312Z" fill="#CC929B"/>
<path d="M409.086 323.288L409.436 503.48L416.63 504.448L416.98 322.706L409.086 323.288Z" fill="#CC929B"/>
<path d="M183.995 469.121L176.627 471.929H169.609L169.258 214.382L173.118 208.768L176.844 207.624L182.241 205.96L183.995 469.121Z" fill="#F5C5CC"/>
<path d="M183.995 469.121L176.627 471.929L176.17 214.95L176.844 207.624L182.241 205.96L183.995 469.121Z" fill="#CC929B"/>
<path d="M177.328 479.999C181.979 479.999 185.75 476.228 185.75 471.577C185.75 466.927 181.979 463.156 177.328 463.156C172.678 463.156 168.907 466.927 168.907 471.577C168.907 476.228 172.678 479.999 177.328 479.999Z" fill="#40414D"/>
<path d="M560.842 508.547L553.473 511.227H546.456L546.105 228.038L549.964 228.992L553.691 227.898L559.087 226.312L560.842 508.547Z" fill="#F5C5CC"/>
<path d="M560.842 508.547L553.473 511.227L553.017 234.901L553.691 227.898L559.087 226.312L560.842 508.547Z" fill="#CC929B"/>
<path d="M458.735 455.437L451.367 456.139L451.03 266.951L451.016 259.645L455.928 255.786L456.069 265.87L458.735 455.437Z" fill="#F5C5CC"/>
<path d="M484.701 444.56L477.332 445.261L477.002 259.568L476.981 248.768L481.893 244.908L482.076 257.722L484.701 444.56Z" fill="#F5C5CC"/>
<path d="M527.508 427.016L520.139 427.717L519.81 242.459L519.789 231.224L524.701 227.364L524.883 240.354L527.508 427.016Z" fill="#F5C5CC"/>
<path d="M538.385 224.206L538.736 420.699L546.105 419.998L543.298 220.346L538.385 224.206Z" fill="#F5C5CC"/>
<path d="M471.718 453.332L464.349 454.033L464.013 263.772L463.999 257.54L468.911 253.68L469.03 262.249L471.718 453.332Z" fill="#F5C5CC"/>
<path d="M497.332 439.297L489.964 439.998L489.634 254.796L489.613 243.505L494.525 239.645L494.708 252.754L497.332 439.297Z" fill="#F5C5CC"/>
<path d="M511.599 434.616L504.231 435.318L503.901 250.115V249.014L503.88 238.824L508.792 234.964L508.96 246.936L508.974 248.073L511.599 434.616Z" fill="#F5C5CC"/>
<path d="M443.998 454.153L545.754 410.875L552.771 412.51L553.003 428.651L445.872 470.055L443.998 454.153Z" fill="#F5C5CC"/>
<path d="M545.754 410.875L443.998 454.153L552.393 412.419" fill="#CC929B"/>
<path d="M180.367 431.226L436.981 509.122L436.51 521.753L179.434 442.454L180.367 431.226Z" fill="#F5C5CC"/>
<path d="M448.209 553.333L440.84 556.14H433.823L433.472 267.715V266.312L434.019 265.512L437.332 260.698L441.058 259.554L446.454 257.891L446.511 267.715L448.209 553.333Z" fill="#F5C5CC"/>
<path d="M448.209 553.333L440.84 556.14L440.384 266.88L441.058 259.554L446.454 257.891L448.209 553.333Z" fill="#CC929B"/>
<path opacity="0.1" d="M446.454 257.891L446.511 267.715C444.48 268.012 442.435 268.204 440.384 268.291C435.331 268.487 433.472 267.722 433.472 267.722C433.472 267.624 433.668 266.838 434.019 265.526L437.331 260.712L441.058 259.568L446.454 257.891Z" fill="black"/>
<path opacity="0.1" d="M455.928 255.786L456.069 265.87C454.258 266.291 452.578 266.651 451.03 266.951V259.645L455.928 255.786Z" fill="black"/>
<path opacity="0.1" d="M468.911 253.68L469.03 262.249C467.283 262.803 465.606 263.308 464.013 263.772V257.54L468.911 253.68Z" fill="black"/>
<path opacity="0.1" d="M481.893 244.908L482.076 257.722C480.322 258.373 478.63 258.988 477.002 259.568V248.768L481.893 244.908Z" fill="black"/>
<path opacity="0.1" d="M494.525 239.645L494.708 252.754L490.665 254.382L489.634 254.796V243.505L494.525 239.645Z" fill="black"/>
<path opacity="0.1" d="M524.883 240.354L519.81 242.459V231.231L524.722 227.371L524.883 240.354Z" fill="black"/>
<path opacity="0.1" d="M508.967 246.936L503.908 249.042V238.852L508.82 234.992L508.967 246.936Z" fill="black"/>
<path d="M563.298 232.627C563.298 232.627 550.315 232.627 546.806 231.575C543.298 230.522 535.929 234.733 490.665 252.978C463.297 264.017 448.104 266.579 440.384 266.88C435.331 267.077 433.472 266.312 433.472 266.312C433.472 266.312 442.714 223.911 472.146 215.989C475.428 215.095 478.654 214.01 481.809 212.739L482.378 212.522C484.849 211.564 487.384 210.779 489.964 210.171C499.409 208.002 506.153 203.855 523.227 203.729C533.821 203.551 544.16 206.981 552.547 213.455C558.4 218.059 563.445 224.424 563.298 232.627Z" fill="#CC929B"/>
<path d="M483.648 212.276C447.226 227.982 441.668 257.337 440.384 266.881C435.331 267.077 433.472 266.312 433.472 266.312C433.472 266.312 442.714 223.912 472.146 215.989C475.428 215.095 478.654 214.01 481.809 212.74L482.378 212.522C482.799 212.459 483.22 212.375 483.648 212.276Z" fill="#F5C5CC"/>
<path opacity="0.1" d="M193.82 211.574L193.897 216.95C192.122 217.392 190.465 217.778 188.915 218.108V215.434L193.82 211.574Z" fill="black"/>
<path opacity="0.1" d="M206.802 209.469L206.852 213.168C205.125 213.738 203.471 214.26 201.89 214.732V213.329L206.802 209.469Z" fill="black"/>
<path opacity="0.1" d="M219.785 200.697L219.897 208.529C218.171 209.189 216.499 209.811 214.88 210.396V204.557L219.785 200.697Z" fill="black"/>
<path opacity="0.1" d="M232.417 195.434L232.529 203.56C230.915 204.182 229.245 204.84 227.518 205.532V199.293L232.417 195.434Z" fill="black"/>
<path opacity="0.1" d="M244.698 191.925L244.796 199.125C243.205 199.658 241.537 200.238 239.792 200.865V195.784L244.698 191.925Z" fill="black"/>
<path opacity="0.1" d="M262.593 183.153L262.747 194.086C261.196 194.409 259.519 194.788 257.694 195.258V187.013L262.593 183.153Z" fill="black"/>
<path opacity="0.1" d="M281.442 193.946C279.79 193.324 278.058 192.941 276.298 192.809V179.967L281.21 176.107L281.442 193.946Z" fill="black"/>
<path d="M299.084 194.03C299.084 194.03 286.102 194.03 282.593 192.978C279.084 191.925 271.716 186.311 226.452 204.557C199.083 215.595 183.89 218.157 176.171 218.459C171.118 218.655 169.258 217.89 169.258 217.89C169.258 217.89 176.227 181.048 206.957 174.83C208.672 174.496 210.366 174.062 212.031 173.532C213.918 172.914 216.894 172.03 220.894 171.111C231.21 168.739 248.312 166.135 271.042 167.237C278.92 167.532 286.392 170.808 291.947 176.402C294.272 178.702 296.103 181.451 297.33 184.482C298.557 187.512 299.154 190.761 299.084 194.03Z" fill="#CC929B"/>
<path d="M220.894 171.111C184.472 186.816 177.455 208.915 176.171 218.459C171.118 218.655 169.258 217.89 169.258 217.89C169.258 217.89 176.227 181.048 206.957 174.83C208.672 174.496 210.366 174.062 212.031 173.532C213.918 172.893 216.894 172.03 220.894 171.111Z" fill="#F5C5CC"/>
<path d="M179.434 273.505L179.258 263.154L182.943 261.224L434.875 317.716L434.174 330.874L179.434 273.505Z" fill="#F5C5CC"/>
<path d="M182.943 261.224L434.875 317.716L434.525 322.628L179.806 262.866" fill="#CC929B"/>
<path d="M553.473 519.648C558.124 519.648 561.894 515.878 561.894 511.227C561.894 506.576 558.124 502.806 553.473 502.806C548.822 502.806 545.052 506.576 545.052 511.227C545.052 515.878 548.822 519.648 553.473 519.648Z" fill="#40414D"/>
<path d="M441.893 567.368C446.544 567.368 450.314 563.598 450.314 558.947C450.314 554.296 446.544 550.526 441.893 550.526C437.242 550.526 433.472 554.296 433.472 558.947C433.472 563.598 437.242 567.368 441.893 567.368Z" fill="#40414D"/>
<path d="M189.027 385.843C189.027 385.843 181.539 394.264 179.202 401.752C176.865 409.24 182.009 437.311 182.009 437.311C184.646 432.64 186.54 427.588 187.623 422.335C189.49 413.451 189.027 385.843 189.027 385.843Z" fill="#E0B581"/>
<path d="M544.35 455.788C544.35 455.788 548.912 478.946 549.263 482.455C549.614 485.964 537.684 480.701 537.684 480.701L544.35 455.788Z" fill="#E0B581"/>
<path d="M406.103 169.251H405.984C405.955 169.013 405.866 168.786 405.724 168.592C405.404 168.217 405.006 167.915 404.559 167.707L401.268 165.876L404.11 166.907C403.977 166.679 403.829 166.458 403.668 166.248L403.998 166.43L403.773 166.114L403.471 166.009C401.956 164.234 399.429 163.497 396.98 163.532H397.022C397.338 163.49 397.661 163.462 397.977 163.441C397.275 163.397 396.57 163.418 395.871 163.504C395.95 163.538 396.032 163.561 396.117 163.574C395.892 163.574 395.668 163.616 395.415 163.644C395.055 163.742 394.674 163.742 394.314 163.644C394.091 163.531 393.899 163.368 393.751 163.166C393.604 162.965 393.505 162.732 393.464 162.486C393.113 161.083 393.668 159.574 393.829 158.107C393.908 157.419 393.834 156.722 393.612 156.065C393.612 155.925 393.612 155.785 393.612 155.644C393.496 155.334 393.308 155.055 393.065 154.83C392.821 154.606 392.527 154.442 392.208 154.353C392.205 154.407 392.205 154.461 392.208 154.514L392.089 154.465C392.089 155.721 392.089 156.985 392.089 158.241C390.999 157.381 390.033 156.375 389.219 155.251C389.073 155.08 388.974 154.875 388.931 154.655C388.861 154.016 389.675 153.574 389.724 152.928C389.721 152.721 389.651 152.52 389.525 152.356C389.398 152.191 389.222 152.072 389.022 152.016L389.233 151.939C388.983 151.823 388.707 151.775 388.433 151.798C387.832 151.936 387.241 152.114 386.664 152.332L386.847 152.367C386.711 152.412 386.573 152.449 386.433 152.479C384.671 152.844 383.099 151.441 381.829 150.17L381.555 149.897C380.952 144.612 379.977 138.556 379.977 138.556C379.977 138.556 379.099 131.637 377.871 127.918C376.643 124.198 374.875 117.63 374.875 117.63C374.875 117.63 370.833 109.651 369.962 109.3C369.623 109.13 369.293 108.943 368.973 108.738C368.593 107.545 368.358 106.31 368.271 105.061C368.054 98.0856 375.506 93.1311 376.629 86.2188C377.548 80.6047 374.012 74.9906 374.524 69.2993C374.762 66.808 375.766 64.4641 376.306 62.022C376.819 59.6529 376.888 57.2091 376.51 54.8149C376.331 53.5274 375.942 52.2781 375.359 51.1166C376.379 49.7986 377.23 48.3582 377.892 46.8288C379.029 43.5867 377.801 39.9656 376.026 37.0041C370.32 27.5795 358.762 20.1618 347.955 19.2004C343.597 18.8004 339.225 18.7232 334.86 18.653C329.85 18.5618 324.671 18.5057 320.039 20.4425C310.832 24.2952 306.474 34.5901 300.881 42.8989C296.261 49.7708 290.344 55.6753 283.463 60.2816C280.228 62.443 276.445 64.7448 275.688 68.5835C275.615 68.9516 275.571 69.3245 275.554 69.6993C275.46 69.3619 275.382 69.0199 275.323 68.6747C274.558 72.6817 277.386 76.3941 278.831 80.2187C279.587 82.2176 280.022 84.3229 280.123 86.4574C280.179 85.4476 280.179 84.4355 280.123 83.4257C281.526 90.71 278.951 98.5277 277.358 105.973C277.238 106.521 277.147 107.068 277.035 107.615C275.727 107.98 274.483 108.541 273.344 109.279C270.845 110.942 268.015 112.043 265.049 112.507C261.07 113.132 257.491 115.281 255.07 118.5C254.621 119.103 254.185 119.517 253.807 119.56C252.228 119.742 243.427 147.223 243.427 147.223C243.427 147.223 241.596 158.542 241.596 161.195C241.596 163.848 238.431 183.006 238.431 183.006C238.431 183.006 237.371 186.515 237.729 187.967C237.933 188.774 237.448 191.476 236.992 193.652C236.801 193.572 236.632 193.447 236.501 193.287C235.975 192.227 226.29 193.287 229.287 200.382C230.032 202.29 231.189 204.011 232.676 205.42C231.343 208.761 230.185 211.869 230.34 212.262C230.34 212.262 230.34 214.796 230.564 217.926C228.508 219.329 226.824 220.592 226.824 220.592C226.676 224.466 229.259 225.084 231.687 224.943C232.312 227.189 233.224 228.971 234.564 229.456C238.964 231.056 241.778 230.347 243.189 231.561C244.599 232.775 252.122 235.133 252.122 235.133C255.317 235.614 258.536 235.921 261.765 236.052L263.056 236.698L262.901 235.996C263.315 235.919 263.126 235.428 262.607 234.592C262.375 233.519 262.08 232.115 261.751 230.515L263.68 229.813L264.207 230.592C263.505 234.27 263.056 236.719 263.056 236.719C263.056 236.719 259.547 249.308 261.119 251.259C262.691 253.21 261.119 255.694 261.119 255.694C261.119 255.694 260.768 258.88 261.652 258.88C262.536 258.88 263.582 262.958 262.705 263.14C261.828 263.323 257.793 266.684 259.196 267.393C260.6 268.102 259.196 269.695 259.196 271.295C259.196 272.46 261.343 274.186 262.508 275.035C262.298 275.793 262.08 276.6 261.877 277.393C261.273 279.737 260.803 281.997 260.95 282.818C261.301 284.769 260.073 290.263 260.424 292.039C260.775 293.814 262.01 297.709 261.126 299.309C260.242 300.909 261.301 306.221 261.301 306.221L262.887 321.288C262.887 321.288 261.835 325.548 262.887 326.608C263.94 327.667 264.824 340.088 265.877 341.506C266.93 342.924 268.523 350.369 267.28 352.854C266.038 355.338 268.866 360.475 268.866 360.475C268.866 360.475 268.691 366.503 268.691 368.096C268.691 369.689 270.27 372.173 270.27 372.173C270.27 372.173 271.856 380.685 271.673 382.812C271.491 384.938 272.726 387.956 272.726 387.956C272.726 387.956 273.786 394.159 273.61 395.577C273.435 396.994 275.014 398.945 275.014 398.945C275.014 398.945 276.951 403.556 276.417 405.507C275.884 407.458 277.645 409.409 277.645 409.409C277.645 409.409 277.47 413.661 277.47 414.195C277.47 414.728 281.168 418.981 281.168 418.981C281.168 418.981 279.582 422.174 280.467 423.416C281.351 424.658 281.168 429.086 282.572 430.511C283.975 431.935 283.624 437.774 285.379 438.84C287.133 439.907 288.719 440.791 289.07 443.093C289.421 445.395 290.832 448.77 292.418 449.304C292.719 449.511 292.98 449.77 293.189 450.069L292.488 453.051L290.319 462.069C290.319 462.069 288.214 475.185 288.382 477.136C288.551 479.087 286.277 481.037 286.277 481.037C286.277 481.037 284.34 492.385 283.989 493.803C283.638 495.22 284.165 497.88 284.165 497.88C284.165 497.88 282.937 504.617 283.814 504.975C284.691 505.333 288.389 509.052 288.389 509.052H288.677L288.298 510.385L282.228 531.929C282.228 531.929 276.614 541.326 289.625 546.112C290.06 546.954 290.46 546.975 289.989 546.814C290.418 547.179 299.112 554.533 299.814 557.979C300.516 561.424 306.502 565.067 308.614 565.424C310.727 565.782 324.804 577.123 329.906 565.958C335.008 554.793 320.93 547.516 320.93 547.516L310.214 540.617C310.214 540.617 304.762 532.638 303.898 531.221C303.035 529.803 301.435 522.884 302.495 521.824C303.035 521.277 304.726 516.42 306.256 511.803C306.397 511.361 306.544 510.926 306.684 510.49C309.674 511.192 313.056 509.789 313.056 509.789L320.895 497.424L322.299 495.255L322.551 495.76C322.551 495.76 329.064 496.294 332.229 496.827C333.234 496.868 334.24 496.742 335.204 496.455C335.323 496.715 335.443 496.982 335.555 497.248C336.323 498.892 336.975 500.587 337.506 502.322C338.032 504.624 338.565 512.778 338.565 512.778C338.565 512.778 335.057 524.484 334.165 526.61C333.274 528.736 335.043 546.47 352.467 539.375C352.467 539.375 354.573 536.007 356.51 536.007C358.446 536.007 363.197 531.221 361.422 526.077C359.646 520.933 352.299 505.157 357.38 496.827C361.478 490.118 361.148 481.122 355.639 476.939C355.408 476.764 355.162 476.609 354.938 476.455C354.997 475.562 354.997 474.667 354.938 473.774C353.702 456.757 345.815 455.865 345.815 455.865C345.815 455.865 341.239 454.806 340.713 453.058C340.404 452.034 336.439 446.742 333.155 442.441C333.267 442.258 333.372 442.076 333.478 441.893C333.478 441.83 333.548 441.767 333.576 441.704C333.73 441.416 333.878 441.121 334.018 440.812C336.572 435.072 335.913 426.721 335.779 425.226C335.604 423.275 335.779 420.791 335.779 417.956C335.779 415.121 338.587 410.861 338.243 409.268C337.899 407.675 341.59 401.114 341.59 399.514C341.59 397.914 344.18 388.335 344.18 388.335C344.18 388.335 349.281 377.338 350.341 374.145C351.352 371.085 369.373 315.309 370.833 310.79C370.86 310.69 370.892 310.591 370.931 310.495C370.931 310.495 376.685 291.667 372.833 279.302C372.583 278.485 372.28 277.686 371.927 276.909C373.106 276.34 373.92 275.926 373.92 275.926C373.92 275.926 371.633 269.189 372.685 266.705C373.738 264.221 373.036 259.435 373.036 259.435C373.036 259.435 368.825 256.951 368.643 255.891C368.461 254.831 366.706 253.407 367.239 251.989C367.773 250.572 370.748 251.287 370.404 248.087C370.061 244.887 366.362 241.526 366.713 239.575C367.064 237.624 368.468 234.08 366.713 231.954C364.959 229.827 364.25 226.459 364.075 223.799C364.025 223.098 364.18 221.027 364.425 218.298C366.301 219.465 368.239 220.531 370.229 221.491C370.229 221.491 377.794 222.557 378.152 221.848C378.829 220.945 379.595 220.113 380.44 219.364C389.942 217.062 385.717 199.715 385.717 199.715C385.717 199.715 385.577 198.445 385.352 196.353C385.591 196.293 385.815 196.186 386.012 196.038C386.819 195.448 387.015 194.325 387.506 193.441C388.065 192.605 388.72 191.837 389.457 191.153C391.198 189.259 392.229 186.838 393.226 184.459C393.857 182.943 394.503 181.427 395.142 179.904C395.78 178.381 396.545 176.564 397.949 175.462C399.563 174.164 401.752 173.911 403.808 173.722C403.726 172.147 403.137 170.641 402.131 169.427C402.749 169.238 403.402 169.19 404.041 169.287C404.68 169.384 405.289 169.624 405.822 169.988C405.851 169.941 405.877 169.891 405.9 169.841H405.942C406.059 169.668 406.116 169.46 406.103 169.251ZM255.835 217.806C255.877 217.455 255.94 217.105 256.017 216.754C256.361 216.431 256.775 216.052 257.217 215.701L259.673 215.94C259.07 216.431 258.543 216.88 258.115 217.245C257.357 216.859 256.529 217.238 255.835 217.806ZM260.747 212.943C261.095 212.918 261.437 212.845 261.765 212.726C262.235 212.726 262.719 212.726 263.21 212.726H263.912C262.74 213.547 261.554 214.459 260.501 215.308L260.747 212.999V212.943ZM264.796 177.153C264.796 177.153 264.635 182.192 264.993 187.259C264.445 187.645 263.877 188.066 263.315 188.508L264.558 176.823L264.796 177.153Z" fill="url(#paint0_linear)"/>
<path d="M356.453 535.262C354.524 535.262 352.418 538.596 352.418 538.596C335.05 545.613 333.295 528.069 334.172 525.964C335.05 523.859 338.558 512.28 338.558 512.28C338.558 512.28 338.032 504.209 337.506 501.929C336.974 500.214 336.324 498.537 335.562 496.911C334.383 494.223 333.12 491.578 333.12 491.578C333.12 491.578 340.664 472.981 350.664 474.735C352.446 475.034 354.131 475.756 355.576 476.841C361.071 480.981 361.401 489.886 357.31 496.49C352.222 504.736 359.59 520.35 361.345 525.438C363.099 530.526 358.383 535.262 356.453 535.262Z" fill="#FDC2CC"/>
<path d="M329.962 564.912C324.874 575.965 310.839 564.737 308.734 564.386C306.628 564.035 300.663 560.526 299.961 557.017C299.26 553.508 290.579 546.329 290.137 545.971C290.607 546.119 290.207 546.098 289.772 545.27C276.789 540.533 282.403 531.234 282.403 531.234L288.453 509.915L290.123 504.041L309.07 502.813C309.07 502.813 307.772 506.96 306.326 511.318C304.804 515.887 303.119 520.694 302.579 521.234C301.526 522.287 303.105 529.129 303.983 530.533C304.86 531.936 310.298 539.831 310.298 539.831L321 546.673C321 546.673 335.05 553.859 329.962 564.912Z" fill="#FDC2CC"/>
<path opacity="0.1" d="M309.084 502.806C309.084 502.806 307.786 506.954 306.34 511.311C305.351 511.027 304.471 510.447 303.821 509.648L288.558 509.999L288.467 509.908L290.137 504.034L309.084 502.806Z" fill="black"/>
<path d="M370.839 312.102C370.839 312.102 370.839 312.2 370.748 312.389C369.289 316.86 351.323 372.039 350.313 375.085C349.26 378.243 344.172 389.12 344.172 389.12C344.172 389.12 341.541 398.594 341.541 400.173C341.541 401.752 337.857 408.243 338.207 409.822C338.558 411.401 335.751 415.612 335.751 418.419C335.751 421.226 335.576 423.682 335.751 425.612C335.885 427.093 336.537 435.359 333.99 441.051C333.434 442.375 332.61 443.57 331.569 444.559C331.285 444.816 330.983 445.051 330.664 445.261C324.348 449.472 323.821 492.63 323.821 492.63L323.527 493.093L320.965 497.107L313.12 509.318C313.12 509.318 306.804 511.95 303.821 508.265L288.558 508.616C288.558 508.616 284.874 504.932 283.996 504.581C283.119 504.23 284.347 497.564 284.347 497.564C284.347 497.564 283.821 494.932 284.172 493.528C284.523 492.125 286.453 480.897 286.453 480.897C286.453 480.897 288.733 478.967 288.558 477.037C288.382 475.107 290.488 462.125 290.488 462.125L292.649 453.205L293.716 448.805L295.926 439.682L310.839 307.926L329.786 302.137L366.278 303.891L370.278 311.119L370.839 312.102Z" fill="#5F5D7E"/>
<path opacity="0.1" d="M319.435 376.84C319.26 380.173 318.383 385.261 318.734 388.243C319.084 391.226 320.312 402.454 319.786 404.559C319.26 406.665 321.716 409.121 322.593 410.173C323.47 411.226 322.944 414.384 323.12 416.84C323.295 419.296 325.576 421.577 325.576 421.577C325.576 421.577 322.944 427.191 324.874 428.068C326.804 428.946 330.839 437.016 330.839 437.016C330.839 437.016 332.193 438.721 333.99 441.037C333.303 442.727 332.149 444.188 330.663 445.247C324.348 449.458 323.821 492.616 323.821 492.616L323.527 493.08L319.611 485.248C319.611 485.248 296.277 449.984 294.698 449.458C294.318 449.309 293.98 449.068 293.716 448.756L295.926 439.633L310.839 307.877L329.786 302.088L366.278 303.842L347.064 305.772C347.064 305.772 338.523 311.899 338.467 312.088L323.12 318.579L320.312 360.685C320.312 360.685 319.611 373.506 319.435 376.84Z" fill="black"/>
<path opacity="0.1" d="M370.278 311.084C369.794 313.035 319.26 307.189 319.26 307.189L319.611 320.698L316.804 362.804C316.804 362.804 316.102 375.611 315.927 378.945C315.751 382.278 314.874 387.366 315.225 390.348C315.576 393.331 316.804 404.559 316.277 406.664C315.751 408.77 318.207 411.226 319.084 412.278C319.962 413.331 319.435 416.489 319.611 418.945C319.786 421.401 322.067 423.682 322.067 423.682C322.067 423.682 319.435 429.296 321.365 430.173C323.295 431.051 327.33 439.121 327.33 439.121C327.33 439.121 329.26 441.556 331.541 444.545C331.257 444.802 330.955 445.037 330.635 445.247C324.32 449.458 323.793 492.616 323.793 492.616L323.499 493.079L320.965 497.107L316.102 487.388C316.102 487.388 298.102 460.181 292.649 453.205L293.716 448.805L295.926 439.682L310.839 307.926L329.786 302.137L366.278 303.891L370.278 311.084Z" fill="black"/>
<path opacity="0.1" d="M355.597 476.813C354.895 489.374 341.66 495.522 335.562 496.911C334.383 494.223 333.12 491.578 333.12 491.578C333.12 491.578 340.664 472.981 350.664 474.735C352.451 475.022 354.143 475.735 355.597 476.813Z" fill="black"/>
<path d="M317.33 376.839C317.155 380.173 316.277 385.26 316.628 388.243C316.979 391.225 318.207 402.454 317.681 404.559C317.155 406.664 319.611 409.12 320.488 410.173C321.365 411.226 320.839 414.384 321.014 416.84C321.19 419.296 323.47 421.577 323.47 421.577C323.47 421.577 320.839 427.191 322.769 428.068C324.699 428.945 328.734 437.015 328.734 437.015C328.734 437.015 340.137 451.402 340.664 453.156C341.19 454.91 345.751 455.963 345.751 455.963C345.751 455.963 353.646 456.84 354.874 473.683C356.102 490.525 335.4 497.016 332.243 496.49C329.085 495.964 322.593 495.437 322.593 495.437L317.506 485.262C317.506 485.262 294.172 449.998 292.593 449.472C291.014 448.945 289.61 445.612 289.26 443.331C288.909 441.051 287.33 440.173 285.575 439.121C283.821 438.068 284.172 432.279 282.768 430.875C281.365 429.472 281.54 425.086 280.663 423.857C279.786 422.629 281.365 419.471 281.365 419.471C281.365 419.471 277.68 415.261 277.68 414.735C277.68 414.208 277.856 409.998 277.856 409.998C277.856 409.998 276.102 408.068 276.628 406.138C277.154 404.208 275.224 399.647 275.224 399.647C275.224 399.647 273.645 397.717 273.821 396.313C273.996 394.91 272.944 388.769 272.944 388.769C272.944 388.769 271.716 385.787 271.891 383.682C272.066 381.576 270.487 373.155 270.487 373.155C270.487 373.155 268.908 370.699 268.908 369.12C268.908 367.541 269.084 361.576 269.084 361.576C269.084 361.576 266.277 356.488 267.505 354.032C268.733 351.576 267.154 344.207 266.101 342.804C265.049 341.4 264.172 329.119 263.119 328.067C262.066 327.014 263.119 322.804 263.119 322.804L261.54 307.891C261.54 307.891 260.487 302.628 261.365 301.049C262.242 299.47 261.014 295.61 260.663 293.856C260.312 292.101 261.54 286.663 261.189 284.733C261.042 283.919 261.512 281.687 262.108 279.364C262.936 276.164 263.996 272.803 263.996 272.803C263.996 272.803 354.173 264.382 367.155 273.154C369.962 275.035 371.696 277.891 372.769 281.231C376.608 293.47 370.868 312.109 370.868 312.109L321.042 318.6L318.235 360.706C318.235 360.706 317.506 373.506 317.33 376.839Z" fill="#5F5D7E"/>
<path opacity="0.1" d="M302.944 439.296C302.944 439.296 318.558 434.559 322.242 437.717C325.927 440.875 302.944 439.296 302.944 439.296Z" fill="black"/>
<path opacity="0.1" d="M308.558 459.296C308.558 459.296 313.295 454.209 320.313 455.788C324.429 456.747 328.748 456.315 332.593 454.56L308.558 459.296Z" fill="black"/>
<path opacity="0.1" d="M325.049 465.086C325.049 465.086 337.857 463.332 338.383 464.911C338.909 466.49 325.049 465.086 325.049 465.086Z" fill="black"/>
<path opacity="0.1" d="M321.365 475.437C321.365 475.437 335.576 471.226 336.278 472.981C336.979 474.735 320.663 475.262 320.663 475.262L321.365 475.437Z" fill="black"/>
<path opacity="0.1" d="M337.33 380.875C337.33 380.875 323.997 392.629 325.927 393.857C327.857 395.085 337.33 380.875 337.33 380.875Z" fill="black"/>
<path opacity="0.1" d="M326.453 409.998C326.453 409.998 335.751 409.998 333.997 412.103C332.243 414.208 326.453 409.998 326.453 409.998Z" fill="black"/>
<path opacity="0.1" d="M332.067 418.244C332.067 418.244 328.383 421.402 329.26 422.103C330.137 422.805 332.067 418.244 332.067 418.244Z" fill="black"/>
<path opacity="0.1" d="M291.54 493.508C291.54 493.508 303.119 497.368 303.295 499.824C303.47 502.28 291.54 493.508 291.54 493.508Z" fill="black"/>
<path d="M347.681 126.661L343.997 148.591C343.997 148.591 312.067 165.434 311.541 165.434C311.014 165.434 288.207 161.574 287.33 161.574C286.453 161.574 271.54 116.486 282.067 113.679C284.916 112.921 289.049 111.096 293.561 108.829C305.73 102.745 320.663 93.503 320.663 93.503C320.663 93.503 342.944 91.0468 337.506 106.486C335.4 112.542 336.481 116.949 338.608 120.072C341.948 124.914 347.681 126.661 347.681 126.661Z" fill="#FDC2CC"/>
<path opacity="0.1" d="M347.681 126.661L343.997 148.591C343.997 148.591 312.067 165.433 311.541 165.433C311.014 165.433 288.207 161.574 287.33 161.574C286.453 161.574 271.54 116.485 282.067 113.678C284.916 112.92 289.049 111.096 293.561 108.829C296.432 109.019 298.382 109.292 298.382 109.292C298.382 109.292 305.4 136.135 305.926 144.38C306.453 152.626 324.699 153.503 325.927 153.152C327.155 152.802 332.243 132.626 332.243 132.626C332.243 132.626 331.716 125.608 333.295 125.608C334.614 125.608 337.66 121.398 338.608 120.071C341.948 124.913 347.681 126.661 347.681 126.661Z" fill="black"/>
<path opacity="0.1" d="M372.741 281.231C370.299 282.424 364.46 285.147 362.917 284.74C360.987 284.214 356.25 284.214 356.25 284.214C356.25 284.214 353.443 287.372 350.46 286.67C347.478 285.968 335.723 286.495 335.723 286.495C335.723 286.495 314.67 287.372 310.635 285.968C306.6 284.565 292.214 283.337 292.214 283.337C292.214 283.337 272.565 281.056 269.231 279.653C268.291 279.242 267.259 279.091 266.241 279.215C265.223 279.338 264.256 279.731 263.442 280.354C263.442 280.354 262.831 279.954 262.08 279.372C262.908 276.172 263.968 272.81 263.968 272.81C263.968 272.81 354.145 264.389 367.127 273.161C369.934 275.035 371.696 277.891 372.741 281.231Z" fill="black"/>
<path d="M298.382 110.696C298.382 110.696 280.663 108.24 273.645 112.977C271.152 114.624 268.332 115.713 265.379 116.17C261.419 116.783 257.852 118.909 255.428 122.1C254.978 122.703 254.543 123.11 254.171 123.152C252.592 123.328 243.82 150.521 243.82 150.521L265.049 180.17C265.049 180.17 264.522 196.662 267.505 199.82C270.487 202.978 263.294 239.118 263.294 239.118C263.294 239.118 259.786 251.575 261.365 253.505C262.943 255.434 261.365 257.891 261.365 257.891C261.365 257.891 261.014 261.049 261.891 261.049C262.768 261.049 263.821 265.084 262.943 265.259C262.066 265.435 258.031 268.768 259.435 269.47C260.838 270.171 259.435 271.75 259.435 273.329C259.435 274.908 263.47 277.54 263.47 277.54C264.284 276.917 265.251 276.524 266.269 276.4C267.287 276.277 268.319 276.428 269.259 276.838C272.593 278.242 292.242 280.522 292.242 280.522C292.242 280.522 306.628 281.751 310.663 283.154C314.698 284.558 335.751 283.68 335.751 283.68C335.751 283.68 347.506 283.154 350.488 283.856C353.471 284.558 356.278 281.4 356.278 281.4C356.278 281.4 361.015 281.4 362.945 281.926C364.875 282.452 373.822 277.891 373.822 277.891C373.822 277.891 371.541 271.224 372.594 268.768C373.647 266.312 372.945 261.575 372.945 261.575C372.945 261.575 368.734 259.119 368.559 258.066C368.383 257.013 366.629 255.61 367.155 254.206C367.682 252.803 370.664 253.505 370.313 250.347C369.962 247.189 366.278 243.855 366.629 241.926C366.98 239.996 368.383 236.487 366.629 234.382C364.875 232.276 364.173 228.943 363.997 226.311C363.822 223.68 366.629 199.82 366.629 199.82L360.138 151.749L379.962 141.924C379.962 141.924 379.085 135.082 377.857 131.398C376.629 127.714 374.875 121.222 374.875 121.222C374.875 121.222 370.839 113.328 369.962 112.977C369.085 112.626 359.787 106.485 357.681 107.363C355.576 108.24 338.909 121.047 338.909 121.047C338.909 121.047 334.874 127.012 333.295 127.012C331.716 127.012 332.243 134.03 332.243 134.03C332.243 134.03 327.155 154.205 325.927 154.556C324.699 154.907 306.453 154.03 305.926 145.784C305.4 137.538 298.382 110.696 298.382 110.696Z" fill="#D39999"/>
<path d="M270.873 214.423C268.44 214.959 265.961 215.264 263.47 215.336C259.87 215.434 256.705 214.978 255.926 213.679C253.821 210.171 253.821 203.504 253.821 203.504C253.821 203.504 263.336 205.7 269.905 208.1L270.993 208.507C273.54 209.497 275.477 210.508 275.905 211.392C276.516 212.578 274.165 213.687 270.873 214.423Z" fill="#FDC2CC"/>
<path opacity="0.1" d="M339.786 116.836C357.518 116.836 371.892 102.462 371.892 84.7306C371.892 66.9992 357.518 52.625 339.786 52.625C322.055 52.625 307.681 66.9992 307.681 84.7306C307.681 102.462 322.055 116.836 339.786 116.836Z" fill="black"/>
<path d="M339.786 115.433C357.518 115.433 371.892 101.059 371.892 83.3273C371.892 65.5959 357.518 51.2217 339.786 51.2217C322.055 51.2217 307.681 65.5959 307.681 83.3273C307.681 101.059 322.055 115.433 339.786 115.433Z" fill="#FDC2CC"/>
<path opacity="0.1" d="M268.733 256.663C268.733 256.663 277.856 256.663 281.365 257.54C284.874 258.417 292.242 258.592 292.242 258.592C292.242 258.592 271.891 257.891 268.733 256.663Z" fill="black"/>
<path opacity="0.1" d="M269.084 262.277C269.084 262.277 280.838 263.154 281.014 264.908C281.189 266.663 269.084 262.277 269.084 262.277Z" fill="black"/>
<path opacity="0.1" d="M358.559 240.698C358.559 240.698 365.752 243.329 365.576 244.207C365.401 245.084 359.26 242.803 358.559 240.698Z" fill="black"/>
<path d="M248.382 147.363L243.82 150.521C243.82 150.521 241.891 161.749 241.891 164.381C241.891 167.013 238.733 185.96 238.733 185.96C238.733 185.96 237.68 189.469 238.031 190.873C238.382 192.276 236.627 199.469 236.627 199.469C236.627 199.469 230.312 214.031 230.662 214.908C231.013 215.785 260.663 218.592 260.663 218.592L264.873 179.293L248.382 147.363Z" fill="#D39999"/>
<path d="M235.048 210.171L230.662 214.908C230.662 214.908 230.487 230.347 234.873 231.926C239.259 233.505 242.066 232.803 243.47 234.031C244.873 235.259 252.417 237.54 252.417 237.54C252.417 237.54 260.663 238.768 263.119 238.417C265.575 238.066 248.733 224.557 259.786 213.153L235.048 210.171Z" fill="#D39999"/>
<path d="M373.822 135.082L379.962 141.924C379.962 141.924 382.594 158.24 381.892 160.521C381.19 162.802 385.576 202.451 385.576 202.451C385.576 202.451 389.787 219.644 380.313 221.925C379.472 222.665 378.708 223.488 378.033 224.381C377.682 225.083 370.138 224.03 370.138 224.03L358.559 148.065L373.822 135.082Z" fill="#D39999"/>
<path opacity="0.1" d="M290.312 197.89C290.312 197.89 313.295 184.206 317.505 183.504C321.716 182.802 347.857 170.346 347.857 170.346C347.857 170.346 360.839 177.012 362.067 182.1C363.296 187.188 356.629 207.539 356.629 207.539C356.629 207.539 335.225 222.452 333.997 225.61C332.769 228.767 314.348 238.066 314.348 239.645C314.348 241.224 285.224 258.417 272.417 243.329C259.61 228.241 259.786 223.855 259.786 223.855L292.242 216.311L295.4 202.276L290.312 197.89Z" fill="black"/>
<path d="M290.312 196.487C290.312 196.487 313.295 182.802 317.505 182.1C321.716 181.399 347.857 168.942 347.857 168.942C347.857 168.942 360.839 175.609 362.067 180.697C363.296 185.785 356.629 206.136 356.629 206.136C356.629 206.136 335.225 221.048 333.997 224.206C332.769 227.364 314.348 236.662 314.348 238.241C314.348 239.82 285.224 257.014 272.417 241.926C259.61 226.838 259.786 222.452 259.786 222.452L292.242 214.908L295.4 200.873L290.312 196.487Z" fill="#C4C8E2"/>
<path d="M254.873 202.627L253.821 211.399L245.477 210.788L237.329 210.185C237.329 210.185 232.592 210.185 229.61 203.167C226.627 196.15 236.276 195.097 236.803 196.15C237.203 196.943 247.329 200.248 252.242 201.813L254.873 202.627Z" fill="#FDC2CC"/>
<path opacity="0.1" d="M254.873 202.627L253.821 211.399L245.477 210.789C246.838 208.767 249.687 205.069 252.249 201.813L254.873 202.627Z" fill="black"/>
<path opacity="0.1" d="M253.821 203.504C253.821 203.504 263.336 205.7 269.905 208.1C269.47 208.802 266.565 213.35 263.47 215.336C259.87 215.434 256.705 214.978 255.926 213.679C253.821 210.171 253.821 203.504 253.821 203.504Z" fill="black"/>
<path opacity="0.1" d="M270.873 214.423L270.719 213.209C270.719 213.209 270.649 212.95 270.586 212.557C270.459 211.757 270.368 210.409 270.958 209.588C271.301 209.104 271.224 208.76 271 208.515C273.547 209.504 275.484 210.515 275.912 211.399C276.516 212.578 274.165 213.687 270.873 214.423Z" fill="black"/>
<path d="M300.663 208.683C300.663 208.683 291.133 218.22 290.544 220.262C289.954 222.305 271.947 222.368 271.947 222.368L270.719 212.543C270.719 212.543 270.649 212.283 270.586 211.89C270.459 211.09 270.368 209.743 270.958 208.922C271.835 207.694 269.961 207.343 269.961 207.343C269.961 207.343 265.105 215.35 261.014 215.589C261.014 215.589 255.343 219.68 255.4 220.501C255.4 220.501 252.649 223.013 252.592 226.052C252.536 229.091 249.028 230.326 246.452 229.449C243.877 228.571 237.505 226.698 235.455 226.992C233.406 227.287 226.922 229.21 227.154 223.189C227.154 223.189 235.575 216.873 237.68 217.048C239.785 217.224 244.698 214.768 245.399 212.838C246.101 210.908 258.031 196.171 258.031 196.171C258.031 196.171 265.575 189.034 268.614 188.332C268.614 188.332 274.698 183.595 283.877 190.788C283.877 190.788 296.572 198.62 296.979 199.673C297.302 200.501 300.986 204.038 301.295 206.69C301.366 207.049 301.345 207.42 301.235 207.768C301.125 208.116 300.928 208.431 300.663 208.683Z" fill="#FDC2CC"/>
<path opacity="0.1" d="M270.894 194.732C270.894 194.732 271.828 200.114 271.365 202.044C270.901 203.974 269.961 207.308 269.961 207.308C269.961 207.308 275.631 198.416 270.894 194.732Z" fill="black"/>
<path opacity="0.1" d="M271.301 207.834C271.301 207.834 274.228 204.613 274.873 205.434C275.519 206.255 271.301 207.834 271.301 207.834Z" fill="black"/>
<path d="M391.106 174.999C391.107 179.463 389.652 183.806 386.962 187.369C384.272 190.933 380.495 193.522 376.201 194.746C374.405 195.262 372.547 195.527 370.678 195.532H370.573C367.877 195.531 365.208 194.999 362.718 193.967C360.228 192.935 357.966 191.422 356.06 189.515C354.155 187.608 352.644 185.345 351.613 182.854C350.582 180.363 350.052 177.694 350.053 174.999C350.05 173.793 350.158 172.591 350.376 171.405C351.176 166.917 353.451 162.823 356.84 159.773C360.228 156.722 364.537 154.889 369.085 154.563C369.576 154.521 370.075 154.5 370.573 154.5C376.013 154.498 381.232 156.656 385.082 160.5C388.932 164.343 391.099 169.558 391.106 174.999Z" fill="#F8BDC5"/>
<path d="M401.935 172.479C402.937 173.679 403.523 175.171 403.605 176.732C401.556 176.922 399.394 177.167 397.766 178.451C396.363 179.546 395.661 181.258 394.959 182.851C394.318 184.353 393.682 185.855 393.05 187.357C392.054 189.708 391.029 192.108 389.296 193.981C388.561 194.657 387.906 195.415 387.345 196.241C386.861 197.118 386.643 198.227 385.857 198.817C385.462 199.058 385.012 199.198 384.549 199.224C384.087 199.25 383.624 199.16 383.205 198.964C382.341 198.641 381.569 198.101 380.706 197.757C380.152 197.543 379.575 197.393 378.987 197.308C376.419 196.929 373.59 197.483 371.408 196.101C371.155 195.933 370.92 195.74 370.706 195.525C369.854 194.69 369.236 193.644 368.917 192.494C368.756 192.027 368.699 191.532 368.748 191.041C368.849 190.592 369.047 190.171 369.328 189.807C369.609 189.443 369.967 189.146 370.376 188.936C370.496 188.866 370.615 188.795 370.741 188.732C372.847 187.63 375.773 187.371 376.875 185.223C377.927 183.188 376.622 180.711 375.022 179.069C374.264 178.297 373.366 177.42 373.471 176.339C373.569 175.385 374.418 174.718 375.127 174.079C377.133 172.265 378.485 169.841 378.973 167.181C379.159 166.359 379.145 165.505 378.931 164.69C378.712 164.105 378.412 163.555 378.04 163.055L375.766 159.686C375.064 158.497 374.105 157.481 372.959 156.711C372.011 156.142 370.924 155.946 369.969 155.384C369.606 155.186 369.301 154.895 369.085 154.542C368.965 154.345 368.925 154.109 368.973 153.883C369.092 153.321 369.675 153.048 370.257 152.886C371.764 152.449 373.34 152.299 374.903 152.444C375.398 152.549 375.909 152.549 376.404 152.444C376.65 152.378 376.863 152.227 377.006 152.017C377.149 151.807 377.212 151.553 377.183 151.3C378.91 150.851 380.545 152.198 381.808 153.462C383.071 154.725 384.615 156.107 386.398 155.749C387.036 155.623 387.626 155.258 388.271 155.188C388.917 155.118 389.717 155.539 389.675 156.192C389.633 156.844 388.819 157.265 388.889 157.897C388.931 158.115 389.03 158.319 389.177 158.486C389.986 159.601 390.948 160.598 392.033 161.448C392.033 160.206 392.033 158.956 392.033 157.714C393.436 158.065 393.949 159.862 393.787 161.314C393.626 162.767 393.085 164.234 393.422 165.651C393.464 165.894 393.563 166.124 393.709 166.322C393.855 166.521 394.045 166.683 394.264 166.795C394.625 166.893 395.005 166.893 395.366 166.795C398.587 166.339 402.349 167.195 403.949 170.023L401.142 169.006L404.405 170.788C404.851 170.994 405.249 171.293 405.57 171.665C405.725 171.855 405.817 172.088 405.832 172.332C405.847 172.577 405.785 172.82 405.654 173.027C405.114 172.664 404.5 172.426 403.856 172.331C403.213 172.237 402.556 172.287 401.935 172.479Z" fill="#585268"/>
<g opacity="0.1">
<path opacity="0.1" d="M395.752 166.634C396.113 166.732 396.493 166.732 396.854 166.634C397.17 166.592 397.485 166.564 397.808 166.543C397.106 166.498 396.401 166.519 395.703 166.606L395.752 166.634Z" fill="black"/>
<path opacity="0.1" d="M402.601 168.865L403.808 169.532L403.584 169.216L402.601 168.865Z" fill="black"/>
<path opacity="0.1" d="M393.549 161.286C393.549 160.472 393.549 159.651 393.549 158.83C393.427 158.524 393.238 158.25 392.995 158.029C392.751 157.808 392.461 157.645 392.145 157.553V160.023C392.586 160.473 393.055 160.895 393.549 161.286Z" fill="black"/>
<path opacity="0.1" d="M404.005 172.234C404.624 172.34 405.213 172.58 405.731 172.936C405.855 172.773 405.917 172.572 405.907 172.367C405.29 172.186 404.641 172.141 404.005 172.234Z" fill="black"/>
<path opacity="0.1" d="M384.755 198.859C383.892 198.536 383.12 197.996 382.257 197.652C381.703 197.438 381.126 197.288 380.538 197.203C377.969 196.824 375.141 197.378 372.959 195.996C372.706 195.828 372.471 195.635 372.257 195.42C371.405 194.584 370.787 193.539 370.468 192.388C370.307 191.922 370.25 191.427 370.299 190.936C370.4 190.487 370.598 190.066 370.879 189.702C371.16 189.338 371.518 189.041 371.927 188.831C372.047 188.76 372.166 188.69 372.292 188.627C374.433 187.525 377.324 187.266 378.426 185.118C379.478 183.083 378.173 180.606 376.573 178.964C375.815 178.192 374.917 177.315 375.022 176.234C375.12 175.279 375.969 174.613 376.678 173.974C378.684 172.16 380.035 169.736 380.524 167.076C380.71 166.254 380.696 165.4 380.482 164.585C380.263 164 379.963 163.45 379.591 162.95L377.317 159.581C376.615 158.392 375.656 157.375 374.51 156.606C373.562 156.037 372.475 155.841 371.52 155.279C371.157 155.081 370.852 154.79 370.636 154.437C370.516 154.24 370.476 154.004 370.524 153.777C370.643 153.216 371.261 152.942 371.808 152.781C372.724 152.524 373.665 152.369 374.615 152.318C373.195 152.234 371.772 152.391 370.404 152.781C369.857 152.942 369.24 153.216 369.12 153.777C369.072 154.004 369.112 154.24 369.233 154.437C369.449 154.79 369.754 155.081 370.117 155.279C371.071 155.841 372.159 156.037 373.106 156.606C374.252 157.375 375.212 158.392 375.913 159.581L378.187 162.95C378.56 163.45 378.86 164 379.078 164.585C379.292 165.4 379.307 166.254 379.12 167.076C378.632 169.736 377.28 172.16 375.275 173.974C374.573 174.613 373.717 175.279 373.619 176.234C373.513 177.315 374.412 178.192 375.169 178.964C376.769 180.606 378.075 183.083 377.022 185.118C375.92 187.259 373.029 187.518 370.889 188.627C370.762 188.69 370.643 188.76 370.524 188.831C370.115 189.041 369.757 189.338 369.475 189.702C369.194 190.066 368.996 190.487 368.896 190.936C368.846 191.427 368.904 191.922 369.064 192.388C369.384 193.539 370.001 194.584 370.854 195.42C371.068 195.635 371.303 195.828 371.555 195.996C373.738 197.399 376.566 196.824 379.134 197.203C379.722 197.288 380.299 197.438 380.854 197.652C381.717 197.996 382.489 198.536 383.352 198.859C383.979 199.116 384.67 199.175 385.331 199.027C385.135 198.985 384.943 198.929 384.755 198.859Z" fill="black"/>
<path opacity="0.1" d="M387.914 155.588C388.345 155.478 388.77 155.339 389.184 155.174C388.936 155.053 388.659 155.002 388.384 155.027C387.788 155.168 387.202 155.346 386.629 155.56C387.05 155.664 387.489 155.674 387.914 155.588Z" fill="black"/>
<path opacity="0.1" d="M376.419 152.318C376.916 152.412 377.428 152.4 377.92 152.283C378.164 152.217 378.377 152.067 378.52 151.858C378.663 151.65 378.726 151.397 378.699 151.146C378.239 151.027 377.756 151.027 377.296 151.146C377.325 151.398 377.262 151.652 377.119 151.862C376.976 152.072 376.762 152.224 376.517 152.29C376.468 152.305 376.419 152.316 376.369 152.325L376.419 152.318Z" fill="black"/>
</g>
<path d="M352.067 163.771C349.45 165.728 345.274 166.578 341.436 166.858C338.434 167.096 335.419 167.096 332.418 166.858L325.66 164.318C325.66 164.318 326.207 163.23 327.134 161.792C328.979 158.928 332.334 154.669 335.835 154.844C341.099 155.104 346.629 155.363 347.155 155.363C347.681 155.363 357.941 159.385 352.067 163.771Z" fill="#FDC2CC"/>
<path d="M334.972 23.2986C329.976 23.2074 324.818 23.1513 320.235 25.0741C311.021 28.8847 306.677 39.0673 301.105 47.2779C296.484 54.082 290.585 59.9236 283.737 64.4781C280.509 66.5834 276.761 68.8992 275.982 72.6887C275.154 76.6958 278.017 80.4081 279.491 84.2046C282.614 92.2819 279.491 101.229 277.645 109.693C276.782 113.757 276.226 117.881 275.982 122.03C275.782 123.95 275.907 125.891 276.354 127.77C277.758 132.725 283.063 136.304 283.105 141.454C283.105 144.963 280.635 148.276 281.358 151.686C282.291 156.044 287.582 157.616 291.968 158.367C293.018 158.655 294.131 158.621 295.161 158.269C295.863 157.932 296.439 157.286 297.154 156.928C299.59 155.721 302.291 158.269 305.014 158.22C308.432 158.156 310.355 154.121 310.439 150.704C310.523 147.286 309.611 143.686 310.839 140.528C312.474 136.318 317.155 134.318 321.106 132.107C325.478 129.658 329.639 126.121 330.93 121.286C331.737 118.296 331.372 115.131 331.049 112.058C330.558 107.342 330.172 102.605 329.906 97.875C329.204 85.8047 339.232 75.7484 351.281 76.6888H351.506C355.015 76.9765 359.155 77.3133 361.632 74.7589C362.615 73.7414 363.239 72.3378 364.439 71.6361C366.783 70.3027 370.004 72.2045 372.362 70.8922C374.208 69.8606 374.601 67.3834 374.313 65.2781C374.025 63.1728 373.289 61.0675 373.682 59.0043C374.243 56.078 376.903 53.9867 377.892 51.1727C379.029 47.9656 377.801 44.3796 376.033 41.4743C370.369 32.1338 358.839 24.8215 348.032 23.839C343.688 23.4179 339.33 23.3688 334.972 23.2986Z" fill="#865A61"/>
<path opacity="0.1" d="M327.134 161.771C331.302 162.627 336.376 164.528 341.436 166.851C338.434 167.089 335.419 167.089 332.418 166.851L325.66 164.311C325.66 164.311 326.207 163.209 327.134 161.771Z" fill="black"/>
<path opacity="0.1" d="M378.994 197.308C376.426 196.929 373.597 197.483 371.415 196.101C371.162 195.933 370.927 195.74 370.713 195.525H370.608C367.91 195.529 365.238 195.001 362.744 193.971C360.25 192.941 357.984 191.43 356.075 189.523C354.166 187.617 352.652 185.353 351.618 182.86C350.585 180.368 350.053 177.697 350.053 174.999C350.05 173.794 350.158 172.591 350.376 171.406C357.569 175.427 363.401 179.56 364.524 181.581C366.183 184.241 368.137 186.706 370.348 188.929C372.306 191.034 374.404 193.055 376.201 194.746C377.268 195.736 378.229 196.613 378.994 197.308Z" fill="black"/>
<path d="M380.138 199.645C380.138 199.645 367.331 188.592 363.822 182.276C360.313 175.96 311.014 149.118 317.33 169.469C323.646 189.82 345.401 191.75 345.401 191.75C345.401 191.75 352.418 199.645 353.12 203.504C353.822 207.364 356.278 212.978 356.278 212.978L368.032 218.241L373.471 217.013C373.471 217.013 386.278 209.996 380.138 199.645Z" fill="#FDC2CC"/>
<path opacity="0.1" d="M355.576 212.276C355.576 212.276 376.278 224.031 378.383 196.486L383.647 198.241L378.383 216.837L369.436 223.329C369.436 223.329 356.98 217.539 355.576 212.276Z" fill="black"/>
<path d="M356.278 212.978C356.278 212.978 376.98 224.733 379.085 197.188L384.348 198.943L379.085 217.54L370.138 224.031C370.138 224.031 357.681 218.241 356.278 212.978Z" fill="#D39999"/>
<path d="M374.559 73.3972C374.797 70.9341 375.801 68.6112 376.327 66.1901C376.846 63.848 376.917 61.4289 376.538 59.0602C376.325 57.3493 375.688 55.7186 374.685 54.3163C373.983 53.4391 371.878 51.5093 370.65 52.3794C369.948 52.8777 369.759 55.7619 369.478 56.59C368.493 59.3713 367.174 62.0224 365.548 64.4849C369.019 69.2737 371.098 74.9283 371.558 80.8246C372.018 86.7208 370.84 92.6295 368.154 97.8985C365.468 103.167 361.378 107.592 356.337 110.684C351.295 113.775 345.497 115.414 339.583 115.419C338.818 115.419 338.06 115.384 337.309 115.328C336.608 116.549 335.969 117.784 335.323 119.019C334.561 120.273 334.046 121.662 333.807 123.11C333.749 124.495 333.961 125.877 334.432 127.18C335.739 131.467 337.543 135.587 339.808 139.454C340.597 140.655 341.245 141.943 341.737 143.293C342.137 144.591 342.208 145.981 342.727 147.23C343.892 150.037 346.937 151.44 349.744 152.612C351.422 153.314 353.176 154.016 354.987 153.868C355.156 153.881 355.327 153.858 355.487 153.801C355.647 153.744 355.794 153.655 355.918 153.538C356.041 153.421 356.139 153.279 356.205 153.122C356.27 152.965 356.302 152.796 356.299 152.626C356.396 151.891 356.32 151.143 356.076 150.442C355.833 149.741 355.428 149.107 354.895 148.591C357.276 149.337 359.775 149.635 362.264 149.468C362.487 149.515 362.718 149.496 362.931 149.415C363.143 149.333 363.328 149.193 363.462 149.009C363.597 148.826 363.676 148.607 363.69 148.38C363.704 148.153 363.652 147.927 363.541 147.728C362.895 145.081 361.909 142.529 360.608 140.135C359.331 137.777 357.702 135.033 358.867 132.626C359.534 131.222 360.938 130.437 362.215 129.601C366.531 126.794 370.355 122.219 370.018 117.075C369.836 114.268 368.418 111.594 368.334 108.766C368.117 101.868 375.541 96.9344 376.664 90.1203C377.555 84.5483 374.018 79.0324 374.559 73.3972Z" fill="#865A61"/>
<g opacity="0.1">
<path opacity="0.1" d="M282.726 138.647C282.684 133.496 277.386 129.917 275.975 124.963C275.758 124.181 275.624 123.379 275.575 122.57C275.419 124.313 275.554 126.071 275.975 127.77C277.266 132.296 281.786 135.679 282.593 140.163C282.683 139.663 282.728 139.155 282.726 138.647Z" fill="black"/>
<path opacity="0.1" d="M304.635 155.412C301.912 155.461 299.211 152.914 296.775 154.121C296.074 154.479 295.512 155.125 294.782 155.461C293.752 155.814 292.64 155.848 291.589 155.56C287.217 154.809 281.94 153.244 280.993 148.921C280.814 149.834 280.814 150.773 280.993 151.686C281.926 156.044 287.217 157.616 291.603 158.367C292.654 158.655 293.766 158.621 294.796 158.268C295.498 157.932 296.074 157.286 296.79 156.928C299.225 155.721 301.926 158.268 304.649 158.219C308.067 158.156 309.99 154.121 310.074 150.703C310.074 150.002 310.074 149.3 310.025 148.598C309.667 151.84 307.814 155.349 304.635 155.412Z" fill="black"/>
<path opacity="0.1" d="M330.565 118.472C329.26 123.307 325.099 126.844 320.741 129.293C316.79 131.51 312.109 133.503 310.474 137.714C309.872 139.532 309.666 141.459 309.87 143.363C309.931 142.391 310.135 141.434 310.474 140.521C312.109 136.31 316.79 134.31 320.741 132.1C325.113 129.651 329.274 126.114 330.565 121.279C331.011 119.443 331.16 117.548 331.007 115.665C330.953 116.612 330.805 117.553 330.565 118.472Z" fill="black"/>
<path opacity="0.1" d="M368.987 68.5412C367.296 68.4148 365.534 68.0219 364.074 68.8359C362.846 69.5377 362.222 70.9412 361.267 71.9587C358.79 74.5132 354.685 74.1763 351.141 73.8886H350.916C338.867 72.9482 328.853 83.0115 329.541 95.0748C329.541 95.166 329.541 95.2643 329.541 95.3555C329.708 92.7241 330.395 90.1519 331.561 87.7871C332.727 85.4224 334.35 83.3118 336.336 81.5772C338.322 79.8426 340.631 78.5182 343.131 77.6804C345.631 76.8426 348.272 76.5079 350.902 76.6956H351.127C354.636 76.9834 358.776 77.3202 361.253 74.7658C362.236 73.7482 362.86 72.3447 364.06 71.643C365.464 70.8289 367.253 71.2219 368.973 71.3482C370.323 74.7029 371.094 78.2621 371.253 81.8747C371.253 81.4185 371.289 80.9624 371.289 80.4711C371.289 76.3841 370.508 72.3347 368.987 68.5412Z" fill="black"/>
<path opacity="0.1" d="M280.424 90.394C280.635 87.3427 280.197 84.2815 279.14 81.4114C278.031 78.5412 276.13 75.7271 275.631 72.8008C274.866 76.7657 277.695 80.436 279.14 84.2185C279.89 86.1967 280.324 88.2808 280.424 90.394Z" fill="black"/>
<path opacity="0.1" d="M376.369 60.6953C376.305 61.5997 376.174 62.4982 375.976 63.3831C375.45 65.8041 374.447 68.127 374.208 70.5902C374.124 71.4677 374.124 72.3513 374.208 73.2288C374.475 70.8288 375.436 68.5551 375.955 66.2112C376.362 64.4026 376.501 62.5443 376.369 60.6953Z" fill="black"/>
<path opacity="0.1" d="M376.285 87.3273C375.162 94.1415 367.738 99.0748 367.955 105.973C367.966 106.347 367.999 106.719 368.054 107.089C368.938 101.047 375.261 96.3801 376.285 90.1344C376.459 89.0033 376.483 87.8541 376.355 86.7168C376.334 86.9203 376.334 87.1238 376.285 87.3273Z" fill="black"/>
<path opacity="0.1" d="M377.562 48.3515C376.9 49.8551 376.051 51.2697 375.036 52.5621C375.327 53.1272 375.562 53.7195 375.738 54.3305C376.478 53.3458 377.084 52.2674 377.541 51.1234C377.981 49.8137 378.092 48.4159 377.864 47.0532C377.803 47.4942 377.702 47.9287 377.562 48.3515Z" fill="black"/>
<path opacity="0.1" d="M369.555 116.324C368.931 120.619 365.569 124.359 361.836 126.809C360.559 127.644 359.155 128.458 358.489 129.833C358.027 130.868 357.96 132.036 358.299 133.117C358.349 132.953 358.412 132.794 358.489 132.64C359.155 131.237 360.559 130.451 361.836 129.616C366.152 126.809 369.976 122.233 369.64 117.089C369.626 116.829 369.59 116.577 369.555 116.324Z" fill="black"/>
<path opacity="0.1" d="M355.52 150.767C355.26 150.966 354.942 151.074 354.615 151.076C352.804 151.23 351.05 150.521 349.373 149.819C346.566 148.654 343.506 147.237 342.355 144.437C341.836 143.188 341.765 141.798 341.365 140.5C340.873 139.15 340.225 137.862 339.436 136.661C337.171 132.794 335.367 128.675 334.06 124.387C333.856 123.74 333.688 123.081 333.555 122.416C333.506 122.647 333.464 122.886 333.436 123.117C333.377 124.502 333.589 125.884 334.06 127.188C335.367 131.475 337.171 135.594 339.436 139.461C340.225 140.662 340.873 141.95 341.365 143.3C341.765 144.598 341.836 145.988 342.355 147.237C343.52 150.044 346.566 151.447 349.373 152.619C351.05 153.321 352.804 154.023 354.615 153.876C354.784 153.888 354.955 153.865 355.115 153.808C355.275 153.752 355.422 153.662 355.546 153.545C355.669 153.428 355.767 153.286 355.833 153.129C355.898 152.972 355.93 152.804 355.927 152.633C356.019 151.925 355.947 151.204 355.717 150.528C355.666 150.619 355.6 150.7 355.52 150.767Z" fill="black"/>
<path opacity="0.1" d="M362.804 146.458C362.517 146.595 362.203 146.669 361.885 146.676C359.396 146.842 356.897 146.545 354.516 145.798C355.386 146.64 355.901 147.782 355.955 148.991C357.896 149.449 359.895 149.614 361.885 149.483C362.108 149.529 362.339 149.511 362.552 149.429C362.764 149.348 362.949 149.207 363.084 149.023C363.218 148.84 363.297 148.621 363.311 148.394C363.325 148.167 363.273 147.941 363.162 147.742C363.057 147.307 362.931 146.879 362.804 146.458Z" fill="black"/>
</g>
<path opacity="0.1" d="M264.873 161.925C264.873 161.925 264.172 176.311 266.277 177.364C268.382 178.416 264.873 161.925 264.873 161.925Z" fill="black"/>
<path opacity="0.1" d="M304.698 199.82C305.4 199.82 308.207 201.223 308.558 202.802C308.909 204.381 304.698 199.82 304.698 199.82Z" fill="black"/>
<path opacity="0.1" d="M302.944 202.101C303.646 202.101 306.453 203.504 306.804 205.083C307.155 206.662 302.944 202.101 302.944 202.101Z" fill="black"/>
<path opacity="0.1" d="M309.435 208.417C310.137 208.417 312.944 209.82 313.295 211.399C313.646 212.978 309.435 208.417 309.435 208.417Z" fill="black"/>
<path opacity="0.1" d="M300.663 208.683C300.663 208.683 291.133 218.22 290.544 220.262C289.954 222.304 271.947 222.367 271.947 222.367L270.719 212.543C270.719 212.543 270.649 212.283 270.586 211.89C275.561 210.613 291.695 204.655 301.295 206.767C301.353 207.114 301.325 207.469 301.215 207.803C301.105 208.137 300.916 208.439 300.663 208.683Z" fill="black"/>
<path d="M257.266 220.754C257.266 220.754 266.452 212.627 269.259 212.803C272.066 212.978 306.277 198.417 308.558 214.733C310.839 231.049 264.873 231.926 264.873 231.926L257.856 234.557C257.856 234.557 252.003 221.806 257.266 220.754Z" fill="#FDC2CC"/>
<path d="M254.578 221.926C254.578 221.926 258.789 216.08 260.073 223.21C261.357 230.34 263.294 239.119 263.294 239.119L253.877 234.438L254.578 221.926Z" fill="#D39999"/>
<path opacity="0.1" d="M644.485 471.135C661.844 471.135 675.917 468.977 675.917 466.314C675.917 463.652 661.844 461.493 644.485 461.493C627.125 461.493 613.053 463.652 613.053 466.314C613.053 468.977 627.125 471.135 644.485 471.135Z" fill="#E0B581"/>
<path opacity="0.1" d="M555.761 560.898C582.891 560.898 604.884 557.524 604.884 553.361C604.884 549.199 582.891 545.824 555.761 545.824C528.631 545.824 506.638 549.199 506.638 553.361C506.638 557.524 528.631 560.898 555.761 560.898Z" fill="#E0B581"/>
<path opacity="0.1" d="M689.096 590C724.981 590 754.072 585.535 754.072 580.028C754.072 574.52 724.981 570.056 689.096 570.056C653.211 570.056 624.12 574.52 624.12 580.028C624.12 585.535 653.211 590 689.096 590Z" fill="#E0B581"/>
<path opacity="0.1" d="M49.1234 483.711C76.2535 483.711 98.2468 480.337 98.2468 476.174C98.2468 472.012 76.2535 468.637 49.1234 468.637C21.9933 468.637 0 472.012 0 476.174C0 480.337 21.9933 483.711 49.1234 483.711Z" fill="#E0B581"/>
<path d="M619.699 420.061C619.699 420.061 615.256 440.763 635.032 443.219L636.26 440.917C636.26 440.917 620.927 426.503 619.699 420.061Z" fill="#E0B581"/>
<path d="M642.548 440.756L637.951 441.731L637.488 441.837C637.488 441.837 625.221 431.872 625.376 409.633C627.02 412.91 628.982 416.018 631.236 418.91C636.099 425.338 641.601 433.949 642.548 440.756Z" fill="#E0B581"/>
<path d="M644.106 442.89C643.744 443.126 643.333 443.278 642.904 443.334C642.475 443.39 642.039 443.348 641.629 443.212C629.818 440.454 633.811 401.97 633.811 401.97C634.464 402.279 635.215 407.17 637.895 413.493C642.66 424.595 647.916 440.104 644.106 442.89Z" fill="#E0B581"/>
<path d="M670.296 420.061C670.296 420.061 671.068 440.763 651.285 443.219L650.057 440.917C650.057 440.917 669.075 426.503 670.296 420.061Z" fill="#E0B581"/>
<path d="M664.625 409.633C664.773 431.872 648.836 441.837 648.836 441.837L648.373 441.731L643.776 440.756C644.681 433.928 650.225 425.317 655.081 418.91C657.833 415.404 661.043 412.284 664.625 409.633Z" fill="#E0B581"/>
<path d="M648.302 440.875C647.591 441.74 646.691 442.429 645.671 442.89C645.363 443.032 645.041 443.14 644.709 443.212C641.797 443.914 640.787 441.809 640.955 438.237C641.229 431.921 645.215 420.903 648.794 412.679C651.369 406.756 655.58 402.264 656.204 401.97C656.19 401.97 656.015 431.935 648.302 440.875Z" fill="#E0B581"/>
<path d="M644.997 388.475C644.997 388.475 631.811 435.24 643.159 442.293C654.506 449.346 647.917 392.615 644.997 388.475Z" fill="#E0B581"/>
<path opacity="0.1" d="M619.699 420.061C619.699 420.061 615.256 440.763 635.032 443.219L636.26 440.917C636.26 440.917 620.927 426.503 619.699 420.061Z" fill="black"/>
<path opacity="0.1" d="M642.548 440.756L637.951 441.731L637.488 441.837C637.488 441.837 625.221 431.872 625.376 409.633C627.02 412.91 628.982 416.018 631.236 418.91C636.099 425.338 641.601 433.949 642.548 440.756Z" fill="black"/>
<path opacity="0.1" d="M644.106 442.89C643.744 443.126 643.333 443.278 642.904 443.334C642.475 443.39 642.039 443.348 641.629 443.212C629.818 440.454 633.811 401.97 633.811 401.97C634.464 402.279 635.215 407.17 637.895 413.493C642.66 424.595 647.916 440.104 644.106 442.89Z" fill="black"/>
<path opacity="0.1" d="M670.296 420.061C670.296 420.061 671.068 440.763 651.285 443.219L650.057 440.917C650.057 440.917 669.075 426.503 670.296 420.061Z" fill="black"/>
<path opacity="0.1" d="M664.625 409.633C664.773 431.872 648.836 441.837 648.836 441.837L648.373 441.731L643.776 440.756C644.681 433.928 650.225 425.317 655.081 418.91C657.833 415.404 661.043 412.284 664.625 409.633Z" fill="black"/>
<path opacity="0.1" d="M648.302 440.875C647.591 441.74 646.691 442.429 645.671 442.89C645.363 443.032 645.041 443.14 644.709 443.212C641.797 443.914 640.787 441.809 640.955 438.237C641.229 431.921 645.215 420.903 648.794 412.679C651.369 406.756 655.58 402.264 656.204 401.97C656.19 401.97 656.015 431.935 648.302 440.875Z" fill="black"/>
<path opacity="0.1" d="M644.997 388.475C644.997 388.475 631.811 435.24 643.159 442.293C654.506 449.346 647.917 392.615 644.997 388.475Z" fill="black"/>
<path d="M619.699 420.061C619.699 420.061 617.095 440.763 636.871 443.219L638.099 440.917C638.099 440.917 620.927 426.503 619.699 420.061Z" fill="#E0B581"/>
<path d="M644.408 440.756L639.811 441.731L639.348 441.837C639.348 441.837 625.243 431.872 625.397 409.633C625.397 409.633 629.011 413.507 633.116 418.91C637.944 425.338 643.467 433.949 644.408 440.756Z" fill="#E0B581"/>
<path opacity="0.1" d="M644.408 440.756L639.811 441.731C635.453 437.907 633.72 427.914 633.095 418.91C637.944 425.338 643.467 433.949 644.408 440.756Z" fill="black"/>
<path d="M645.944 442.89C645.582 443.126 645.172 443.278 644.743 443.334C644.314 443.39 643.878 443.348 643.467 443.212C631.657 440.454 633.811 401.97 633.811 401.97C634.464 402.279 637.018 407.17 639.734 413.493C644.499 424.595 649.734 440.104 645.944 442.89Z" fill="#E0B581"/>
<path d="M670.296 420.061C670.296 420.061 672.906 440.763 653.124 443.219L651.903 440.917C651.903 440.917 669.075 426.503 670.296 420.061Z" fill="#E0B581"/>
<path d="M664.626 409.633C664.773 431.872 650.674 441.837 650.674 441.837L650.211 441.731L645.615 440.756C646.527 433.928 652.064 425.317 656.92 418.91C661.011 413.507 664.626 409.633 664.626 409.633Z" fill="#E0B581"/>
<path opacity="0.1" d="M656.92 418.91C656.331 427.331 654.815 436.552 651.06 440.875C650.802 441.185 650.518 441.471 650.211 441.731L645.615 440.756C646.513 433.949 652.064 425.338 656.92 418.91Z" fill="black"/>
<path d="M650.141 440.875C649.431 441.741 648.531 442.431 647.509 442.89C647.199 443.03 646.874 443.139 646.541 443.212C643.636 443.914 642.618 441.809 642.787 438.237C643.06 431.921 647.046 420.903 650.625 412.679C653.201 406.756 655.538 402.264 656.197 401.97C656.19 401.97 657.86 431.935 650.141 440.875Z" fill="#E0B581"/>
<path opacity="0.1" d="M645.945 442.889C645.276 442.888 644.623 442.68 644.078 442.293C638.52 438.833 638.408 425.843 639.734 413.521C644.499 424.594 649.734 440.103 645.945 442.889Z" fill="black"/>
<path opacity="0.1" d="M650.141 440.875C649.502 442.279 648.639 442.981 647.509 442.89C646.942 442.817 646.399 442.612 645.923 442.293C644.482 441.3 643.385 439.882 642.787 438.237C643.06 431.921 647.046 420.903 650.625 412.679C651.895 424.124 652.317 436.195 650.141 440.875Z" fill="black"/>
<path d="M644.997 388.475C644.997 388.475 633.657 435.24 644.997 442.293C656.338 449.346 647.917 392.615 644.997 388.475Z" fill="#E0B581"/>
<path d="M666.773 439.998H619.551V447.816H626.751L626.934 448.735L629.818 463.914H657.271L660.155 448.735L660.331 447.816H666.773V439.998Z" fill="#4B4770"/>
<path opacity="0.1" d="M666.773 439.998H619.551V447.816H626.751L626.934 448.735L629.818 463.914H657.271L660.155 448.735L660.331 447.816H666.773V439.998Z" fill="black"/>
<path d="M662.787 444.595L662.001 448.735L659.11 463.914H631.657L628.772 448.735L627.979 444.595H662.787Z" fill="#4B4770"/>
<path opacity="0.1" d="M662.787 444.595L662.001 448.735H628.772L627.979 444.595H662.787Z" fill="black"/>
<path d="M668.612 439.998H621.39V447.816H668.612V439.998Z" fill="#4B4770"/>
<path d="M76.5974 393.801C75.9241 394.724 75.3854 395.738 74.9974 396.812C74.8991 397.072 74.8009 397.373 74.7026 397.661C74.5256 397.577 74.3396 397.514 74.1482 397.472C73.3305 397.263 72.4843 397.19 71.643 397.254C71.643 396.931 71.6851 396.552 71.6921 396.222C71.7973 392.524 71.3622 387.373 67.8324 389.556C64.4499 391.661 66.8639 395.17 69.0464 397.415C69.2359 397.612 69.4254 397.794 69.6078 397.97C67.6148 399.373 67.2359 402.693 66.9061 406.138C66.5762 409.584 63.6499 413.352 61.706 415.5C61.5095 415.717 61.3341 415.914 61.1586 416.096C60.3781 415.472 59.4745 415.02 58.5069 414.77C57.5394 414.519 56.5298 414.476 55.5445 414.644C55.4673 414.342 55.3831 414.026 55.2849 413.689C53.6778 407.984 50.4216 398.159 46.2532 396.054C46.4286 395.836 46.6111 395.612 46.8005 395.352C48.569 393.036 50.562 389.598 47.6216 388.721C44.6812 387.843 44.4146 391.703 44.576 394.594C44.576 394.952 44.6321 395.296 44.6602 395.619C44.0747 395.645 43.5008 395.791 42.9735 396.047C42.4462 396.302 41.9766 396.663 41.5935 397.107L41.1373 396.566C38.7513 393.759 34.3794 389.296 33.053 392.671C31.8249 395.808 35.6706 399.893 38.3794 402.258L38.5478 402.405C36.7303 409.787 44.6672 415.802 48.9409 418.426L49.4953 418.77C43.6005 425.71 39.9584 438.735 39.9584 438.735L56.4708 441.683C56.4708 441.683 67.4113 432.237 66.0078 423.374H66.1201C77.0606 421.177 79.5448 409.514 77.8465 402.594L78.036 402.51C80.0277 401.696 81.7736 400.378 83.1027 398.686C86.1554 394.426 79.7413 389.626 76.5974 393.801Z" fill="#E0B581"/>
<path opacity="0.1" d="M76.5974 393.801C75.9241 394.724 75.3854 395.738 74.9974 396.812C74.8991 397.072 74.8009 397.373 74.7026 397.661C74.5256 397.577 74.3396 397.514 74.1482 397.472C73.3305 397.263 72.4843 397.19 71.643 397.254C71.643 396.931 71.6851 396.552 71.6921 396.222C71.7973 392.524 71.3622 387.373 67.8324 389.556C64.4499 391.661 66.8639 395.17 69.0464 397.415C69.2359 397.612 69.4254 397.794 69.6078 397.97C67.6148 399.373 67.2359 402.693 66.9061 406.138C66.5762 409.584 63.6499 413.352 61.706 415.5C61.5095 415.717 61.3341 415.914 61.1586 416.096C60.3781 415.472 59.4745 415.02 58.5069 414.77C57.5394 414.519 56.5298 414.476 55.5445 414.644C55.4673 414.342 55.3831 414.026 55.2849 413.689C53.6778 407.984 50.4216 398.159 46.2532 396.054C46.4286 395.836 46.6111 395.612 46.8005 395.352C48.569 393.036 50.562 389.598 47.6216 388.721C44.6812 387.843 44.4146 391.703 44.576 394.594C44.576 394.952 44.6321 395.296 44.6602 395.619C44.0747 395.645 43.5008 395.791 42.9735 396.047C42.4462 396.302 41.9766 396.663 41.5935 397.107L41.1373 396.566C38.7513 393.759 34.3794 389.296 33.053 392.671C31.8249 395.808 35.6706 399.893 38.3794 402.258L38.5478 402.405C36.7303 409.787 44.6672 415.802 48.9409 418.426L49.4953 418.77C43.6005 425.71 39.9584 438.735 39.9584 438.735L56.4708 441.683C56.4708 441.683 67.4113 432.237 66.0078 423.374H66.1201C77.0606 421.177 79.5448 409.514 77.8465 402.594L78.036 402.51C80.0277 401.696 81.7736 400.378 83.1027 398.686C86.1554 394.426 79.7413 389.626 76.5974 393.801Z" fill="black"/>
<path d="M43.7409 398.559L41.811 404.173C41.811 404.173 40.7373 403.415 39.3829 402.222C36.6741 399.858 32.8285 395.773 34.0566 392.636C35.3829 389.261 39.7549 393.717 42.1409 396.531C43.1023 397.689 43.7409 398.559 43.7409 398.559Z" fill="#E0B581"/>
<path d="M47.8111 395.352C47.2239 396.122 46.5961 396.86 45.9304 397.563C45.7659 396.58 45.6511 395.589 45.5865 394.594C45.4251 391.703 45.7339 387.864 48.6322 388.72C51.5304 389.577 49.5796 393.022 47.8111 395.352Z" fill="#E0B581"/>
<path d="M72.7026 396.222C72.6465 398.082 72.464 399.57 72.464 399.57C71.6131 398.908 70.8088 398.188 70.0569 397.415C67.8745 395.156 65.4604 391.661 68.8429 389.556C72.3728 387.373 72.8079 392.545 72.7026 396.222Z" fill="#E0B581"/>
<path d="M84.1063 398.665C82.7771 400.357 81.0312 401.675 79.0395 402.489C78.4878 402.732 77.9204 402.939 77.3413 403.107L75.0676 399.914C75.3083 398.859 75.6225 397.823 76.0079 396.812C76.396 395.738 76.9347 394.724 77.608 393.801C80.7518 389.626 87.1659 394.426 84.1063 398.665Z" fill="#E0B581"/>
<path opacity="0.1" d="M42.1409 396.566C43.1023 397.689 43.7409 398.559 43.7409 398.559L41.811 404.173C41.811 404.173 40.7373 403.415 39.3829 402.222C39.6839 400.413 40.4316 398.708 41.5584 397.261C41.7479 397.036 41.9514 396.79 42.1409 396.566Z" fill="black"/>
<path opacity="0.1" d="M47.8111 395.352C47.2239 396.122 46.5961 396.86 45.9304 397.563C45.7659 396.58 45.6512 395.589 45.5865 394.594C46.3892 394.608 47.1673 394.873 47.8111 395.352Z" fill="black"/>
<path d="M57.3059 417.759L52.4988 419.865C52.4988 419.865 51.4532 419.359 49.9444 418.419C44.8987 415.317 34.7583 407.506 41.5233 398.299C48.2883 389.092 53.9936 405.605 56.2603 413.682C56.941 416.103 57.3059 417.759 57.3059 417.759Z" fill="#E0B581"/>
<path opacity="0.1" d="M70.057 397.415C70.756 396.697 71.7015 396.271 72.7027 396.222C72.6465 398.082 72.4641 399.57 72.4641 399.57C71.6131 398.908 70.8089 398.188 70.057 397.415Z" fill="black"/>
<path opacity="0.1" d="M79.0395 402.489C78.4878 402.732 77.9204 402.938 77.3413 403.106L75.0676 399.913C75.3083 398.859 75.6225 397.822 76.0079 396.812C77.4746 397.668 78.5553 399.801 79.0395 402.489Z" fill="black"/>
<path d="M67.1236 423.353L66.3166 423.493C50.2252 425.935 61.0113 417.254 61.0113 417.254C61.0113 417.254 61.713 416.553 62.7165 415.5C64.6604 413.353 67.5798 409.605 67.9166 406.138C68.4219 400.924 69.0043 396.033 75.1588 397.472C81.201 398.861 82.3589 420.3 67.1236 423.353Z" fill="#E0B581"/>
<path d="M66.8219 463.416H36.0776V471.5H66.8219V463.416Z" fill="#D4DFEC"/>
<path d="M71.3623 437.135H31.1934V465.346H71.3623V437.135Z" fill="#D4DFEC"/>
<path opacity="0.1" d="M66.8219 463.416H36.0776V471.5H66.8219V463.416Z" fill="black"/>
<path opacity="0.1" d="M71.3623 437.135H31.1934V465.346H71.3623V437.135Z" fill="black"/>
<path d="M68.8429 463.416H38.0987V471.5H68.8429V463.416Z" fill="#D4DFEC"/>
<path opacity="0.1" d="M56.2603 413.689C56.9621 416.103 57.306 417.759 57.306 417.759L52.4989 419.865C52.4989 419.865 51.4532 419.359 49.9445 418.419C51.8252 416.047 53.9445 414.243 56.2603 413.689Z" fill="black"/>
<path opacity="0.1" d="M67.1236 423.352L66.3166 423.493C50.2252 425.935 61.0113 417.254 61.0113 417.254C61.0113 417.254 61.713 416.552 62.7165 415.5C65.7201 417.9 66.9622 420.615 67.1236 423.352Z" fill="black"/>
<path d="M40.9619 438.735C40.9619 438.735 49.9725 406.454 62.6113 416.419C75.25 426.384 57.4744 441.682 57.4744 441.682L40.9619 438.735Z" fill="#E0B581"/>
<path opacity="0.1" d="M45.5093 404.377C46.0674 404.377 46.5199 403.924 46.5199 403.366C46.5199 402.808 46.0674 402.355 45.5093 402.355C44.9512 402.355 44.4988 402.808 44.4988 403.366C44.4988 403.924 44.9512 404.377 45.5093 404.377Z" fill="black"/>
<path opacity="0.1" d="M45.4251 409.093C45.9832 409.093 46.4356 408.64 46.4356 408.082C46.4356 407.524 45.9832 407.072 45.4251 407.072C44.867 407.072 44.4146 407.524 44.4146 408.082C44.4146 408.64 44.867 409.093 45.4251 409.093Z" fill="black"/>
<path opacity="0.1" d="M74.7377 405.303C75.2958 405.303 75.7483 404.851 75.7483 404.293C75.7483 403.735 75.2958 403.282 74.7377 403.282C74.1796 403.282 73.7272 403.735 73.7272 404.293C73.7272 404.851 74.1796 405.303 74.7377 405.303Z" fill="black"/>
<path opacity="0.1" d="M51.1515 429.472C51.7096 429.472 52.162 429.019 52.162 428.461C52.162 427.903 51.7096 427.451 51.1515 427.451C50.5934 427.451 50.1409 427.903 50.1409 428.461C50.1409 429.019 50.5934 429.472 51.1515 429.472Z" fill="black"/>
<path opacity="0.1" d="M72.6324 413.135C73.1905 413.135 73.643 412.682 73.643 412.124C73.643 411.566 73.1905 411.114 72.6324 411.114C72.0743 411.114 71.6219 411.566 71.6219 412.124C71.6219 412.682 72.0743 413.135 72.6324 413.135Z" fill="black"/>
<path opacity="0.1" d="M62.1902 423.577C62.7483 423.577 63.2008 423.125 63.2008 422.567C63.2008 422.009 62.7483 421.556 62.1902 421.556C61.6321 421.556 61.1797 422.009 61.1797 422.567C61.1797 423.125 61.6321 423.577 62.1902 423.577Z" fill="black"/>
<path opacity="0.1" d="M48.962 406.398C49.5201 406.398 49.9726 405.946 49.9726 405.388C49.9726 404.829 49.5201 404.377 48.962 404.377C48.4039 404.377 47.9515 404.829 47.9515 405.388C47.9515 405.946 48.4039 406.398 48.962 406.398Z" fill="black"/>
<path opacity="0.1" d="M71.9588 408.335C72.5169 408.335 72.9693 407.882 72.9693 407.324C72.9693 406.766 72.5169 406.313 71.9588 406.313C71.4007 406.313 70.9482 406.766 70.9482 407.324C70.9482 407.882 71.4007 408.335 71.9588 408.335Z" fill="black"/>
<path opacity="0.1" d="M68.5061 416.167C69.0642 416.167 69.5166 415.714 69.5166 415.156C69.5166 414.598 69.0642 414.146 68.5061 414.146C67.948 414.146 67.4955 414.598 67.4955 415.156C67.4955 415.714 67.948 416.167 68.5061 416.167Z" fill="black"/>
<path opacity="0.1" d="M57.8954 428.714C58.4535 428.714 58.906 428.261 58.906 427.703C58.906 427.145 58.4535 426.693 57.8954 426.693C57.3373 426.693 56.8849 427.145 56.8849 427.703C56.8849 428.261 57.3373 428.714 57.8954 428.714Z" fill="black"/>
<path opacity="0.1" d="M55.706 423.746C56.2641 423.746 56.7165 423.293 56.7165 422.735C56.7165 422.177 56.2641 421.725 55.706 421.725C55.1479 421.725 54.6954 422.177 54.6954 422.735C54.6954 423.293 55.1479 423.746 55.706 423.746Z" fill="black"/>
<path opacity="0.1" d="M50.4778 412.545C51.0359 412.545 51.4884 412.093 51.4884 411.534C51.4884 410.976 51.0359 410.524 50.4778 410.524C49.9197 410.524 49.4673 410.976 49.4673 411.534C49.4673 412.093 49.9197 412.545 50.4778 412.545Z" fill="black"/>
<path opacity="0.1" d="M68.8429 463.416H38.0987V466.37H68.8429V463.416Z" fill="black"/>
<path d="M73.3833 437.135H33.2144V465.346H73.3833V437.135Z" fill="#D4DFEC"/>
<path opacity="0.1" d="M59.2428 433.261C59.8009 433.261 60.2534 432.809 60.2534 432.251C60.2534 431.693 59.8009 431.24 59.2428 431.24C58.6847 431.24 58.2323 431.693 58.2323 432.251C58.2323 432.809 58.6847 433.261 59.2428 433.261Z" fill="black"/>
<path opacity="0.1" d="M53.1796 434.525C53.7377 434.525 54.1901 434.072 54.1901 433.514C54.1901 432.956 53.7377 432.503 53.1796 432.503C52.6215 432.503 52.1691 432.956 52.1691 433.514C52.1691 434.072 52.6215 434.525 53.1796 434.525Z" fill="black"/>
</g>
<defs>
<linearGradient id="paint0_linear" x1="316.453" y1="570.877" x2="316.453" y2="18.5899" gradientUnits="userSpaceOnUse">
<stop stop-color="#808080" stop-opacity="0.25"/>
<stop offset="0.54" stop-color="#808080" stop-opacity="0.12"/>
<stop offset="1" stop-color="#808080" stop-opacity="0.1"/>
</linearGradient>
<clipPath id="clip0">
<rect width="754.072" height="590" fill="white"/>
</clipPath>
</defs>
</svg>
