<svg width="615" height="591" viewBox="0 0 615 591" fill="none" xmlns="http://www.w3.org/2000/svg">
<path opacity="0.65" d="M186.981 289.458C-114.219 404.616 -54.1604 564.023 392.6 589.384C510.15 596.057 608.97 463.664 613.071 301.286C617.173 138.908 525.114 4.62668 407.452 1.36035C289.791 -1.90593 300.857 245.92 186.981 289.458Z" fill="white"/>
<path d="M503.453 223.651L490.269 216.309L491.255 215.759L504.44 223.102L503.453 223.651Z" fill="#CBCBCB"/>
<path d="M491.953 223.651L490.967 223.102L504.151 215.759L505.138 216.309L491.953 223.651Z" fill="#CBCBCB"/>
<path d="M393.823 166.74L393.186 168.042L396.911 170.042L397.547 168.741L393.823 166.74Z" fill="#CBCBCB"/>
<path d="M471.044 209.868L463.631 205.886L464.267 204.584L471.68 208.566L471.044 209.868ZM456.217 201.903L448.804 197.92L449.44 196.618L456.854 200.601L456.217 201.903ZM441.391 193.937L433.977 189.955L434.613 188.653L442.027 192.636L441.391 193.937ZM426.564 185.972L419.15 181.99L419.787 180.688L427.2 184.67L426.564 185.972ZM411.737 178.007L404.324 174.024L404.96 172.723L412.373 176.705L411.737 178.007Z" fill="#CBCBCB"/>
<path d="M479.094 212.548L478.457 213.85L482.182 215.851L482.818 214.549L479.094 212.548Z" fill="#CBCBCB"/>
<path d="M197.87 264.648C197.87 265.105 197.856 265.558 197.828 266.007C197.67 268.598 197.045 271.134 195.988 273.481C195.98 273.501 195.97 273.52 195.962 273.539C195.913 273.647 195.862 273.756 195.811 273.864C195.496 274.528 195.147 275.173 194.766 275.797C193.022 278.662 190.633 281.032 187.808 282.698C184.983 284.365 181.811 285.276 178.57 285.352L178.766 297.129L181.313 295.723L181.768 296.63L178.785 298.277L179.15 320.15L179.154 320.442L177.184 320.902L177.188 320.609L177.808 285.353C175.2 285.314 172.625 284.732 170.233 283.641C167.842 282.55 165.68 280.972 163.875 278.998C163.751 278.863 163.628 278.724 163.508 278.587L163.494 278.571C161.99 276.851 160.774 274.878 159.896 272.734C159.915 272.757 159.936 272.778 159.955 272.801C157.972 267.939 157.837 262.466 159.579 257.504C161.321 252.541 164.807 248.465 169.323 246.11C169.391 246.074 169.461 246.04 169.529 246.004C173.996 243.748 179.109 243.334 183.853 244.844C188.598 246.354 192.628 249.678 195.145 254.157C195.266 254.369 195.382 254.585 195.494 254.803C197.057 257.825 197.874 261.21 197.87 264.648Z" fill="#E5E5E5"/>
<path d="M195.212 273.552C209.511 273.552 221.103 261.399 221.103 246.408C221.103 231.417 209.511 219.265 195.212 219.265C180.912 219.265 169.32 231.417 169.32 246.408C169.32 261.399 180.912 273.552 195.212 273.552Z" fill="#E5E5E5"/>
<path opacity="0.2" d="M176.095 228.277C173.68 234.199 173.352 240.829 175.17 246.982C176.989 253.134 180.835 258.409 186.021 261.862C191.207 265.315 197.395 266.723 203.48 265.833C209.565 264.943 215.15 261.814 219.237 257.005C217.761 260.623 215.553 263.862 212.765 266.497C209.978 269.132 206.677 271.1 203.091 272.265C199.506 273.43 195.722 273.763 192.002 273.243C188.281 272.722 184.713 271.36 181.545 269.25C178.376 267.14 175.683 264.333 173.652 261.024C171.621 257.715 170.301 253.982 169.782 250.085C169.264 246.187 169.56 242.218 170.65 238.453C171.74 234.687 173.598 231.215 176.095 228.277Z" fill="black"/>
<path d="M196.612 322.024L193.968 321.246L193.974 320.948L194.766 275.797L194.806 273.546L194.806 273.481L194.945 265.592L195.146 254.158V254.157L195.282 246.407H195.355L195.494 254.803L195.676 265.731L195.806 273.486V273.543L195.811 273.863V273.864L196.062 288.98L196.088 290.482L196.607 321.723L196.612 322.024Z" fill="#3F3D56"/>
<path d="M199.4 287.139L195.121 289.501L195.717 290.689L199.997 288.326L199.4 287.139Z" fill="#3F3D56"/>
<path d="M530.835 158.561C498.156 156.535 465.378 157.063 432.774 160.141C417.06 161.63 401.095 163.239 385.671 166.832C373.248 169.727 358.829 174.619 351.088 186.014C349.467 188.31 348.374 190.968 347.896 193.781C347.417 196.593 347.566 199.483 348.33 202.225C350.176 208.721 354.767 214.128 359.657 218.363C370.911 228.11 384.875 233.782 397.348 241.526C420.121 255.665 440.964 274.722 454.342 298.931C460.228 309.584 465.828 323.749 459.273 335.487C452.851 346.986 438.516 350.948 426.825 352.817C412.171 355.158 397.077 354.523 382.363 353.212C366.231 351.635 350.189 349.171 334.303 345.832C303.182 339.567 272.344 331.598 240.79 327.974C224.969 326.023 209.014 325.539 193.112 326.528C178.75 327.544 164.265 329.925 150.774 335.354C140.377 339.538 129.295 345.868 123.679 356.424C118.266 366.599 120.377 378.334 126.272 387.722C133.364 399.018 144.423 406.759 155.921 412.416C169.013 418.858 183.016 423.033 197.037 426.584C204.147 428.385 211.297 430.013 218.447 431.633C219.938 431.971 220.576 429.569 219.079 429.23C204.66 425.964 190.2 422.687 176.139 417.958C163.128 413.583 149.812 407.977 139.157 398.789C130.537 391.356 122.341 380.499 122.85 368.155C123.363 355.711 133.321 347.023 143.083 341.675C155.281 334.991 169.14 331.736 182.721 330.034C198.271 328.218 213.953 327.994 229.544 329.366C261.024 331.878 291.799 339.395 322.664 345.953C352.648 352.323 383.568 358.222 414.296 356.588C426.475 355.94 439.525 354.111 450.279 347.666C455.202 344.715 459.642 340.553 462.144 335.138C464.399 329.985 465.112 324.237 464.189 318.652C462.446 306.382 455.494 295.004 448.558 285.231C440.955 274.631 432.135 265.053 422.298 256.713C411.503 247.605 399.862 239.655 387.552 232.983C381.024 229.38 374.404 225.915 368.182 221.741C362.218 217.74 356.333 212.925 352.691 206.429C349.54 200.81 348.963 194.398 352.244 188.699C355.563 182.936 361.281 178.916 366.92 175.979C380.507 168.901 396.302 167.007 411.167 165.066C443.085 160.912 475.251 159.231 507.404 160.035C515.22 160.228 523.03 160.567 530.835 161.053C532.363 161.147 532.358 158.655 530.835 158.561V158.561Z" fill="black"/>
<path d="M510.104 78.6726L515.04 74.5336C511.205 74.09 509.629 76.2826 508.985 78.018C505.989 76.7138 502.727 78.423 502.727 78.423L512.604 82.182C512.106 80.7868 511.238 79.5694 510.104 78.6726Z" fill="#3F3D56"/>
<path d="M486.148 91.7766L491.084 87.6376C487.249 87.194 485.674 89.3866 485.029 91.122C482.033 89.8178 478.772 91.527 478.772 91.527L488.648 95.286C488.15 93.8908 487.283 92.6734 486.148 91.7766Z" fill="#3F3D56"/>
<path d="M510.104 112.525L515.04 108.386C511.205 107.942 509.629 110.135 508.985 111.87C505.989 110.566 502.727 112.275 502.727 112.275L512.604 116.034C512.106 114.639 511.238 113.421 510.104 112.525Z" fill="#3F3D56"/>
<path d="M436.103 118.652C444.316 118.652 450.975 111.672 450.975 103.06C450.975 94.4494 444.316 87.4688 436.103 87.4688C427.889 87.4688 421.23 94.4494 421.23 103.06C421.23 111.672 427.889 118.652 436.103 118.652Z" fill="#FF6583"/>
<path d="M482.739 151.108H409.78C409.689 151.109 409.598 151.102 409.508 151.085L444.014 88.4276C444.225 88.0372 444.53 87.7125 444.9 87.4866C445.269 87.2607 445.689 87.1416 446.117 87.1416C446.545 87.1416 446.965 87.2607 447.334 87.4866C447.703 87.7125 448.009 88.0372 448.22 88.4276L471.377 130.474L472.486 132.486L482.739 151.108Z" fill="#E0B581"/>
<path d="M523.358 151.107H460.257L472.484 132.487L473.364 131.145L489.297 106.879C489.579 106.508 489.932 106.203 490.334 105.984C490.735 105.765 491.176 105.638 491.628 105.61C492.08 105.581 492.532 105.653 492.956 105.82C493.379 105.987 493.764 106.246 494.086 106.579C494.169 106.674 494.245 106.774 494.316 106.879L523.358 151.107Z" fill="#E0B581"/>
<path d="M419.269 294.817C426.184 298.441 430.395 303.226 430.395 308.476C430.395 319.784 410.877 328.951 386.801 328.951C376.333 328.951 366.73 327.216 359.215 324.328C367.197 328.511 378.783 331.144 391.683 331.144C415.759 331.144 435.277 321.978 435.277 310.669C435.277 304.278 429.039 298.572 419.269 294.817Z" fill="#F1F1F1"/>
<path d="M434.651 302.583C442.454 306.672 447.205 312.073 447.205 317.996C447.205 330.756 425.182 341.099 398.015 341.099C386.204 341.099 375.367 339.143 366.888 335.884C375.894 340.603 388.968 343.575 403.524 343.575C430.691 343.575 452.715 333.231 452.715 320.471C452.715 313.259 445.675 306.82 434.651 302.583Z" fill="#F1F1F1"/>
<path d="M413.382 298.238C418.254 300.791 421.22 304.163 421.22 307.861C421.22 315.828 407.47 322.286 390.508 322.286C383.899 322.376 377.325 321.275 371.073 319.03C376.696 321.977 384.859 323.832 393.947 323.832C410.91 323.832 424.66 317.374 424.66 309.407C424.66 304.904 420.265 300.884 413.382 298.238Z" fill="#F1F1F1"/>
<path d="M344.927 296.776C344.927 296.776 345.997 313.182 376.687 313.182C407.377 313.182 416.54 296.776 416.54 296.776H344.927Z" fill="#3F3D56"/>
<path d="M388.488 253.73C384.057 250.201 378.496 248.607 372.969 249.28C377.908 250.528 382.27 253.561 385.29 257.844C388.309 262.128 389.792 267.39 389.48 272.707C389.168 278.023 387.079 283.054 383.581 286.917C380.084 290.78 375.4 293.228 370.352 293.832C375.18 295.054 380.263 294.496 384.745 292.251C389.227 290.007 392.835 286.213 394.963 281.507C397.091 276.802 397.609 271.472 396.43 266.413C395.251 261.355 392.446 256.876 388.488 253.73Z" fill="#3F3D56"/>
<path d="M378.431 246.319H376.339V298.538H378.431V246.319Z" fill="#3F3D56"/>
<path d="M515.949 207.522L515.938 207.502L515.909 206.226L522.465 196.248L515.917 205.272L515.894 205.541L515.67 195.342L521.332 184.997L515.654 193.551L515.713 172.421L515.712 172.351L515.711 172.42L515.335 189.073L510.174 182.308L515.318 190.507L515.205 199.63L510.457 190.727L515.188 200.971L515.125 206.044L514.952 220.098L514.939 221.148C515.376 221.152 515.809 221.144 516.238 221.125L515.941 207.626L515.949 207.522Z" fill="#CBCBCB"/>
<path d="M484.561 211.908L484.55 211.888L484.522 210.613L491.077 200.634L484.53 209.658L484.506 209.928L484.282 199.729L489.944 189.383L484.266 197.937L484.325 176.807L484.325 176.737L484.323 176.806L483.947 193.459L478.787 186.695L483.931 194.894L483.818 204.017L479.069 195.113L483.801 205.358L483.738 210.43L483.564 224.484L483.552 225.534C483.989 225.538 484.422 225.53 484.85 225.512L484.553 212.013L484.561 211.908Z" fill="#CBCBCB"/>
<path d="M499.906 198.014L499.895 197.994L499.867 196.719L506.422 186.74L499.874 195.764L499.851 196.034L499.627 185.835L505.289 175.489L499.611 184.043L499.67 162.913L499.67 162.843L499.668 162.912L499.292 179.565L494.132 172.801L499.275 181L499.163 190.122L494.414 181.219L499.145 191.464L499.082 196.536L498.909 210.59L498.896 211.64C499.334 211.644 499.767 211.636 500.195 211.617L499.898 198.118L499.906 198.014Z" fill="#CBCBCB"/>
<path d="M240.675 440.833C245.297 440.833 249.045 436.904 249.045 432.058C249.045 427.212 245.297 423.283 240.675 423.283C236.052 423.283 232.305 427.212 232.305 432.058C232.305 436.904 236.052 440.833 240.675 440.833Z" fill="#E0B581"/>
<path d="M540.13 162.534C542.537 162.534 544.488 160.488 544.488 157.965C544.488 155.441 542.537 153.396 540.13 153.396C537.723 153.396 535.772 155.441 535.772 157.965C535.772 160.488 537.723 162.534 540.13 162.534Z" fill="#E0B581"/>
<path d="M166.615 514.561C166.615 514.561 160.745 498.895 178.354 487.146L166.615 514.561Z" fill="#FAFAFA"/>
<path d="M159.337 514.563C159.337 514.563 157.433 503.67 142.696 503.764L159.337 514.563Z" fill="#FAFAFA"/>
<path d="M334.956 524.531C334.956 524.531 326.885 503.644 351.097 487.979L334.956 524.531Z" fill="#F2F2F3"/>
<path d="M324.948 523.701C324.948 523.701 322.5 509.457 303.553 509.579L324.948 523.701Z" fill="#F2F2F3"/>
<path d="M250.387 370.41C250.26 370.651 250.151 370.903 250.062 371.162L227.2 377.109L223.223 372.796L216.229 378.238L222.562 386.591C223.074 387.266 223.78 387.749 224.576 387.967C225.371 388.185 226.213 388.126 226.974 387.8L251.781 377.173C252.597 377.802 253.576 378.156 254.588 378.188C255.6 378.22 256.597 377.928 257.447 377.351C258.297 376.774 258.959 375.94 259.345 374.959C259.732 373.977 259.824 372.896 259.61 371.859C259.396 370.821 258.886 369.877 258.148 369.151C257.409 368.425 256.477 367.951 255.476 367.794C254.475 367.637 253.451 367.803 252.542 368.27C251.633 368.737 250.881 369.484 250.387 370.41L250.387 370.41Z" fill="#A0616A"/>
<path d="M172.351 423.337C173.064 423.106 173.72 422.714 174.273 422.189C174.825 421.664 175.261 421.018 175.55 420.297C175.839 419.576 175.974 418.797 175.944 418.016C175.915 417.234 175.723 416.469 175.381 415.774L191.114 369.929L180.188 367.899L168.158 413.602C167.083 414.281 166.282 415.351 165.908 416.608C165.535 417.865 165.614 419.222 166.13 420.422C166.647 421.622 167.566 422.581 168.713 423.119C169.859 423.656 171.154 423.734 172.351 423.337Z" fill="#A0616A"/>
<path d="M189.116 378.065L178.328 373.724C178.021 373.601 177.743 373.409 177.513 373.163C177.283 372.917 177.107 372.621 176.995 372.297C176.884 371.973 176.841 371.627 176.868 371.284C176.896 370.94 176.994 370.607 177.155 370.307L182.814 359.787C183.426 358.145 184.634 356.823 186.173 356.113C187.713 355.403 189.458 355.361 191.027 355.998C192.595 356.635 193.859 357.898 194.541 359.509C195.223 361.121 195.267 362.951 194.665 364.597L192.168 376.348C192.097 376.684 191.957 377 191.758 377.275C191.56 377.55 191.307 377.776 191.017 377.939C190.727 378.102 190.408 378.198 190.079 378.219C189.751 378.241 189.423 378.188 189.116 378.065V378.065Z" fill="#E0B581"/>
<path d="M213.465 509.406L219.288 509.405L222.058 485.858L213.464 485.859L213.465 509.406Z" fill="#A0616A"/>
<path d="M211.979 507.413L223.447 507.413H223.447C224.407 507.413 225.357 507.611 226.244 507.996C227.131 508.381 227.936 508.945 228.615 509.657C229.294 510.368 229.832 511.213 230.199 512.142C230.567 513.072 230.756 514.068 230.756 515.074V515.323L211.98 515.324L211.979 507.413Z" fill="#2F2E41"/>
<path d="M180.692 509.406L186.515 509.405L189.285 485.858L180.691 485.859L180.692 509.406Z" fill="#A0616A"/>
<path d="M179.207 507.413L190.674 507.413H190.675C191.634 507.413 192.585 507.611 193.471 507.996C194.358 508.381 195.164 508.945 195.842 509.657C196.521 510.368 197.059 511.213 197.426 512.142C197.794 513.072 197.983 514.068 197.983 515.074V515.323L179.207 515.324L179.207 507.413Z" fill="#2F2E41"/>
<path d="M186.796 499.93H179.428C179.138 499.93 178.852 499.868 178.586 499.749C178.32 499.629 178.08 499.455 177.881 499.235C177.681 499.016 177.526 498.756 177.425 498.472C177.324 498.188 177.279 497.885 177.293 497.582L180.793 418.741L181.013 418.735L216.597 417.762L223.561 496.649C223.587 496.944 223.558 497.243 223.474 497.526C223.389 497.81 223.252 498.073 223.07 498.301C222.888 498.528 222.665 498.716 222.413 498.852C222.161 498.988 221.886 499.07 221.603 499.094L213.327 499.788C212.807 499.831 212.289 499.674 211.872 499.346C211.455 499.017 211.167 498.54 211.062 498.004L200.475 441.848C200.446 441.677 200.36 441.523 200.232 441.413C200.104 441.304 199.943 441.246 199.777 441.25H199.775C199.609 441.247 199.447 441.305 199.319 441.416C199.191 441.527 199.106 441.682 199.078 441.853L188.894 498.122C188.797 498.631 188.536 499.089 188.153 499.418C187.771 499.748 187.291 499.929 186.796 499.93Z" fill="#2F2E41"/>
<path d="M200.295 348.424C206.737 348.424 211.96 342.949 211.96 336.194C211.96 329.439 206.737 323.964 200.295 323.964C193.852 323.964 188.629 329.439 188.629 336.194C188.629 342.949 193.852 348.424 200.295 348.424Z" fill="#A0616A"/>
<path d="M196.384 427.983C190.823 427.983 185.112 426.451 180.378 421.921C180.126 421.681 179.932 421.383 179.81 421.05C179.689 420.717 179.645 420.358 179.68 420.004C180.187 415.231 182.645 390.585 181.261 374.121C180.991 371.046 181.406 367.947 182.474 365.069C183.542 362.191 185.233 359.613 187.414 357.537C189.557 355.466 192.13 353.946 194.929 353.096C197.729 352.247 200.678 352.09 203.545 352.64H203.545C203.69 352.668 203.836 352.696 203.981 352.725C213.321 354.62 219.81 363.682 219.075 373.804C218.004 388.573 217.043 408.551 218.552 419.848C218.614 420.311 218.537 420.782 218.331 421.196C218.126 421.61 217.802 421.946 217.405 422.157C213.973 423.975 205.376 427.983 196.384 427.983Z" fill="#E0B581"/>
<path d="M211.606 378.946C211.332 378.755 211.101 378.505 210.928 378.212C210.755 377.919 210.644 377.59 210.604 377.248L209.182 365.302C208.731 363.603 208.941 361.786 209.766 360.249C210.59 358.712 211.963 357.581 213.582 357.103C215.201 356.625 216.935 356.84 218.403 357.701C219.872 358.561 220.955 359.997 221.415 361.693L226.096 372.728C226.23 373.043 226.297 373.384 226.293 373.729C226.29 374.074 226.215 374.413 226.075 374.725C225.935 375.037 225.732 375.313 225.481 375.536C225.23 375.758 224.936 375.921 224.619 376.013L213.487 379.261C213.17 379.353 212.838 379.373 212.514 379.319C212.189 379.265 211.879 379.138 211.606 378.946Z" fill="#E0B581"/>
<path d="M196.223 348.253C195.119 348.274 194.021 348.066 192.994 347.641C192.542 347.458 192.073 347.308 191.622 347.125C187.639 345.512 185.015 341.064 184.921 336.588C184.827 332.113 187.038 327.768 190.321 324.905C193.604 322.042 197.856 320.572 202.114 320.233C206.701 319.866 211.865 321.086 214.428 325.09C215.111 326.156 215.588 327.45 215.183 328.737C215.062 329.125 214.846 329.473 214.556 329.746C213.412 330.814 212.271 330.011 211.104 329.94C209.5 329.843 208.06 331.204 207.542 332.798C207.024 334.392 207.252 336.148 207.67 337.774C207.989 338.752 208.189 339.769 208.268 340.799C208.302 341.316 208.209 341.833 207.999 342.302C207.788 342.771 207.467 343.175 207.066 343.478C206.064 344.113 204.748 343.745 203.745 343.111C202.742 342.477 201.876 341.595 200.793 341.129C199.709 340.662 198.254 340.766 197.624 341.8C197.423 342.177 197.288 342.587 197.223 343.013C196.658 345.712 196.788 345.553 196.223 348.253V348.253Z" fill="#2F2E41"/>
<path d="M243.645 516.224H152.684C152.557 516.224 152.435 516.181 152.346 516.103C152.256 516.025 152.205 515.919 152.205 515.809C152.205 515.699 152.256 515.593 152.346 515.515C152.435 515.437 152.557 515.394 152.684 515.394H243.645C243.772 515.394 243.894 515.437 243.983 515.515C244.073 515.593 244.124 515.699 244.124 515.809C244.124 515.919 244.073 516.025 243.983 516.103C243.894 516.181 243.772 516.224 243.645 516.224Z" fill="#CCCCCC"/>
<path d="M349.117 437.755C349.384 437.113 349.519 436.416 349.512 435.712C349.505 435.008 349.355 434.314 349.075 433.679C348.794 433.045 348.389 432.485 347.888 432.039C347.387 431.593 346.802 431.272 346.175 431.098L344.84 414.043L338.418 419.552L340.671 434.903C340.473 436.069 340.674 437.273 341.238 438.288C341.802 439.303 342.688 440.057 343.729 440.409C344.77 440.76 345.894 440.684 346.887 440.195C347.88 439.706 348.673 438.838 349.117 437.755Z" fill="#FFB8B8"/>
<path d="M345.324 429.132L339.821 429.814C339.542 429.848 339.258 429.823 338.989 429.738C338.719 429.654 338.47 429.513 338.255 429.323C338.041 429.134 337.866 428.901 337.742 428.638C337.619 428.375 337.548 428.089 337.536 427.797L336.734 408.522L326.304 378.935C325.886 378.017 325.695 377.005 325.749 375.991C325.803 374.977 326.101 373.993 326.614 373.129C326.869 372.711 327.162 372.319 327.488 371.957C328.13 371.24 328.929 370.694 329.818 370.366C330.707 370.038 331.659 369.938 332.593 370.075C333.556 370.208 334.473 370.578 335.271 371.153C336.068 371.728 336.722 372.492 337.177 373.383L343.979 388.183C346.824 394.374 348.168 401.193 347.892 408.046L347.125 427.114C347.105 427.612 346.916 428.088 346.591 428.457C346.267 428.825 345.828 429.063 345.351 429.129L345.324 429.132Z" fill="#E0B581"/>
<path d="M364.568 512.27L359.566 514.562L348.72 495.514L356.101 492.132L364.568 512.27Z" fill="#FFB8B8"/>
<path d="M367.737 517.159L351.758 524.531L351.67 524.319C351.311 523.46 351.117 522.536 351.098 521.599C351.08 520.661 351.237 519.729 351.561 518.856C351.885 517.982 352.369 517.184 352.987 516.508C353.604 515.831 354.342 515.289 355.159 514.912L355.159 514.912L364.918 510.409L367.737 517.159Z" fill="#2F2E41"/>
<path d="M296.421 518.718H291.052L288.498 497.119L296.422 497.12L296.421 518.718Z" fill="#FFB8B8"/>
<path d="M298.006 524.531L279.781 524.53V524.295C279.781 523.344 279.965 522.402 280.321 521.524C280.678 520.645 281.2 519.847 281.859 519.175C282.518 518.503 283.3 517.969 284.16 517.605C285.021 517.241 285.943 517.054 286.875 517.054H286.875L298.006 517.055L298.006 524.531Z" fill="#2F2E41"/>
<path d="M350.492 511.611L319.651 439.454C319.595 439.319 319.501 439.205 319.381 439.128C319.261 439.052 319.121 439.016 318.981 439.027C318.841 439.037 318.707 439.093 318.599 439.187C318.49 439.28 318.412 439.407 318.375 439.549L299.584 509.244C299.46 509.732 299.174 510.157 298.777 510.443C298.381 510.73 297.9 510.858 297.421 510.805L287.158 509.729C286.629 509.671 286.143 509.399 285.803 508.971C285.462 508.543 285.294 507.993 285.334 507.437C288.598 464.871 293.744 424.697 309.159 398.398L309.241 398.258L332.559 403.052L363.688 506.981C363.842 507.517 363.79 508.094 363.543 508.589C363.296 509.085 362.874 509.459 362.367 509.632L352.98 512.796C352.499 512.96 351.977 512.929 351.516 512.71C351.056 512.491 350.69 512.099 350.492 511.611Z" fill="#2F2E41"/>
<path d="M320.193 361.706C326.32 361.706 331.287 356.499 331.287 350.076C331.287 343.652 326.32 338.445 320.193 338.445C314.067 338.445 309.1 343.652 309.1 350.076C309.1 356.499 314.067 361.706 320.193 361.706Z" fill="#FFB8B8"/>
<path d="M307.267 400.773L307.124 400.742L307.091 400.593C305.58 393.89 305.544 386.574 306.984 378.85C307.714 374.903 309.745 371.353 312.72 368.825C315.696 366.298 319.424 364.955 323.249 365.034C327.399 365.122 331.359 366.874 334.321 369.932C337.282 372.99 339.02 377.121 339.179 381.482C339.66 394.766 334.496 406.284 334.444 406.399L334.367 406.567L307.267 400.773Z" fill="#E0B581"/>
<path d="M277.843 422.296C278.491 422.196 279.11 421.949 279.657 421.573C280.204 421.196 280.665 420.699 281.007 420.117C281.35 419.535 281.566 418.881 281.64 418.203C281.714 417.524 281.645 416.837 281.437 416.189L294.044 406.044L286.217 403.244L275.444 413.307C274.424 413.743 273.593 414.555 273.108 415.588C272.623 416.621 272.519 417.804 272.814 418.912C273.11 420.02 273.785 420.976 274.712 421.6C275.639 422.224 276.753 422.471 277.843 422.296V422.296Z" fill="#FFB8B8"/>
<path d="M284.76 414.582C284.344 414.839 283.855 414.931 283.379 414.844C282.904 414.756 282.474 414.494 282.168 414.105L278.662 409.679C278.484 409.454 278.352 409.193 278.275 408.913C278.198 408.632 278.177 408.338 278.214 408.049C278.251 407.759 278.344 407.481 278.489 407.231C278.634 406.982 278.826 406.766 279.054 406.597L294.114 395.477L312.284 370.393C312.797 369.532 313.508 368.819 314.352 368.318C315.196 367.817 316.147 367.544 317.117 367.524C317.59 367.521 318.063 367.564 318.528 367.652C319.45 367.824 320.319 368.225 321.06 368.822C321.802 369.42 322.394 370.196 322.786 371.084C323.196 371.994 323.393 372.993 323.359 373.999C323.326 375.005 323.063 375.987 322.592 376.866L309.138 399.616L309.108 399.666L284.76 414.582Z" fill="#E0B581"/>
<path d="M322.075 349.183C321.253 347.765 319.439 347.364 317.864 347.526C316.289 347.688 314.758 348.268 313.175 348.255C308.782 348.22 305.39 342.603 307.237 338.421C308.752 334.992 312.536 333.486 315.958 332.304C323.135 329.826 331.378 327.445 337.89 331.463C339.965 332.781 341.667 334.657 342.82 336.896C343.973 339.135 344.536 341.656 344.449 344.199C344.302 347.361 343.148 350.609 344.124 353.605C345.251 357.061 348.822 358.915 352.198 359.812C358.115 361.384 364.353 361.131 370.307 362.541C376.261 363.951 382.362 367.696 383.967 373.873C385.021 377.93 383.921 382.298 382.099 386.044C380.241 389.866 377.658 393.25 374.509 395.988C371.36 398.727 367.711 400.762 363.786 401.97C359.861 403.177 355.742 403.532 351.682 403.011C347.622 402.491 343.706 401.106 340.174 398.943C332.976 394.534 327.779 387.084 324.681 378.967C322.925 374.233 321.688 369.304 320.995 364.276C320.301 359.569 320.89 354.813 322.147 350.236C322.206 350.065 322.231 349.883 322.218 349.701C322.206 349.52 322.157 349.343 322.075 349.183Z" fill="#2F2E41"/>
<path d="M362.504 525.364H271.544C271.417 525.364 271.295 525.32 271.205 525.242C271.115 525.164 271.065 525.059 271.065 524.949C271.065 524.838 271.115 524.733 271.205 524.655C271.295 524.577 271.417 524.533 271.544 524.533H362.504C362.631 524.533 362.753 524.577 362.843 524.655C362.933 524.733 362.983 524.838 362.983 524.949C362.983 525.059 362.933 525.164 362.843 525.242C362.753 525.32 362.631 525.364 362.504 525.364Z" fill="#CCCCCC"/>
</svg>
