<svg width="765" height="560" viewBox="0 0 765 560" fill="none" xmlns="http://www.w3.org/2000/svg">
<g clip-path="url(#clip0)">
<path opacity="0.2" d="M235.378 61.7312C225.994 62.955 215.797 65.0153 209.595 73.2179C202.263 82.9153 203.246 97.655 206.568 109.932C209.889 122.208 215.139 134.175 215.084 147.033C214.937 167.473 200.985 184.823 185.105 193.971C169.225 203.118 151.301 206.069 134.158 211.406C118.17 216.407 102.881 223.416 88.6548 232.265C76.584 239.755 64.4435 249.545 59.6121 264.324C51.6914 288.559 66.2631 314.282 80.6566 334.181C124.79 395.192 181.048 453.733 249.818 459.658C301.19 464.05 352.617 438.056 403.432 447.591C426.776 451.959 448.525 463.593 470.437 473.84C492.348 484.088 515.398 493.204 539.021 492.042C562.644 490.881 587.142 477.481 597.377 452.935C603.424 438.428 604.036 421.604 609.626 406.857C626.753 361.615 680.131 354.273 711.101 320.223C727.361 302.339 736.652 277.778 744.395 253.441C756.899 213.846 766.276 172.113 764.185 130.016C763.271 111.69 759.849 92.6592 749.683 78.5158C742.289 68.222 731.968 61.3904 721.887 54.7835C698.938 39.7416 674.301 24.2118 647.937 26.0011C632.746 27.0312 618.375 33.7931 603.881 39.091C576.271 49.1602 547.468 54.1483 518.813 59.0668C471.467 67.1996 423.439 75.3324 375.45 71.2737C354.258 69.469 334.244 62.2657 313.393 59.3146C288.036 55.7284 260.634 58.4394 235.378 61.7312Z" fill="#1B3B49"/>
<path opacity="0.5" d="M639.22 168.064C656.179 168.064 669.928 154.315 669.928 137.355C669.928 120.396 656.179 106.647 639.22 106.647C622.26 106.647 608.511 120.396 608.511 137.355C608.511 154.315 622.26 168.064 639.22 168.064Z" fill="#1B3B49"/>
<path d="M542.512 245.764H261.506L277.564 196.348H286.17L287.891 209.164H510.398L511.545 196.348H521.865L542.512 245.764Z" fill="#1B3B49"/>
<path opacity="0.2" d="M542.512 245.764H261.506L277.564 196.348H286.17L287.891 209.164H510.398L511.545 196.348H521.865L542.512 245.764Z" fill="black"/>
<path d="M562.012 256.746H236.277L228.244 236.616H568.897L562.012 256.746Z" fill="#1B3B49"/>
<path d="M551.693 269.563H244.301L236.277 256.747H562.012L551.693 269.563Z" fill="#1B3B49"/>
<path d="M551.685 265.902H244.302V280.545H551.685V265.902Z" fill="#1B3B49"/>
<path d="M575.774 304.336H225.949V359.248H575.774V304.336Z" fill="#1B3B49"/>
<path opacity="0.2" d="M575.774 304.336H225.949V359.248H575.774V304.336Z" fill="black"/>
<path d="M795.994 489.193L0 483.706L22.9424 353.753H778.789L795.994 489.193Z" fill="#1B3B49"/>
<g opacity="0.2">
<path opacity="0.2" d="M225.464 448.933H235.63C238.845 448.933 241.928 450.21 244.202 452.483C246.475 454.756 247.752 457.839 247.752 461.054V485.54H213.343V461.054C213.343 457.839 214.62 454.756 216.893 452.483C219.166 450.21 222.249 448.933 225.464 448.933Z" fill="black"/>
<path opacity="0.2" d="M300.013 448.933H310.179C313.394 448.933 316.477 450.21 318.75 452.483C321.024 454.756 322.301 457.839 322.301 461.054V485.54H287.891V461.054C287.891 457.839 289.168 454.756 291.441 452.483C293.715 450.21 296.798 448.933 300.013 448.933Z" fill="black"/>
<path opacity="0.2" d="M392.914 448.933H403.08C406.295 448.933 409.378 450.21 411.651 452.483C413.925 454.756 415.202 457.839 415.202 461.054V485.54H380.792V461.054C380.792 457.839 382.069 454.756 384.343 452.483C386.616 450.21 389.699 448.933 392.914 448.933Z" fill="black"/>
<path opacity="0.2" d="M489.257 448.933H499.415C502.63 448.933 505.714 450.21 507.987 452.483C510.26 454.756 511.537 457.839 511.537 461.054V485.54H477.136V461.054C477.136 457.839 478.413 454.756 480.686 452.483C482.959 450.21 486.043 448.933 489.257 448.933Z" fill="black"/>
<path opacity="0.2" d="M566.109 448.933H576.275C579.49 448.933 582.573 450.21 584.847 452.483C587.12 454.756 588.397 457.839 588.397 461.054V485.54H553.988V461.054C553.988 457.839 555.265 454.756 557.538 452.483C559.811 450.21 562.894 448.933 566.109 448.933Z" fill="black"/>
</g>
<path opacity="0.2" d="M416.349 359.248H379.645V432.463H416.349V359.248Z" fill="black"/>
<path d="M231.687 304.336H225.949V359.248H231.687V304.336Z" fill="#1B3B49"/>
<path d="M264.949 304.336H259.211V359.248H264.949V304.336Z" fill="#1B3B49"/>
<path d="M301.653 304.336H295.916V359.248H301.653V304.336Z" fill="#1B3B49"/>
<path d="M337.211 304.336H331.473V359.248H337.211V304.336Z" fill="#1B3B49"/>
<path d="M376.21 304.336H370.473V359.248H376.21V304.336Z" fill="#1B3B49"/>
<path d="M428.964 304.336H423.226V359.248H428.964V304.336Z" fill="#1B3B49"/>
<path d="M464.521 304.336H458.783V359.248H464.521V304.336Z" fill="#1B3B49"/>
<path d="M504.668 304.336H498.931V359.248H504.668V304.336Z" fill="#1B3B49"/>
<path d="M539.078 304.336H533.34V359.248H539.078V304.336Z" fill="#1B3B49"/>
<path d="M575.782 304.336H570.045V359.248H575.782V304.336Z" fill="#1B3B49"/>
<path d="M575.774 307.997H225.949L205.31 289.693H595.274L575.774 307.997Z" fill="#1B3B49"/>
<path d="M239.711 307.997H225.949V315.319H239.711V307.997Z" fill="#1B3B49"/>
<path d="M269.539 307.997H255.777V315.319H269.539V307.997Z" fill="#1B3B49"/>
<path d="M305.088 307.997H291.326V315.319H305.088V307.997Z" fill="#1B3B49"/>
<path d="M341.792 307.997H328.03V315.319H341.792V307.997Z" fill="#1B3B49"/>
<path d="M380.792 307.997H367.03V315.319H380.792V307.997Z" fill="#1B3B49"/>
<path d="M432.407 307.997H418.644V315.319H432.407V307.997Z" fill="#1B3B49"/>
<path d="M469.111 307.997H455.349V315.319H469.111V307.997Z" fill="#1B3B49"/>
<path d="M509.25 307.997H495.488V315.319H509.25V307.997Z" fill="#1B3B49"/>
<path d="M543.66 307.997H529.898V315.319H543.66V307.997Z" fill="#1B3B49"/>
<path d="M575.774 307.997H562.012V315.319H575.774V307.997Z" fill="#1B3B49"/>
<path d="M597.569 289.693H204.162L199.572 276.885H601.012L597.569 289.693Z" fill="#1B3B49"/>
<path opacity="0.2" d="M597.569 289.693H204.162L199.572 276.885H601.012L597.569 289.693Z" fill="black"/>
<path d="M397.997 286.033C403.063 286.033 407.169 279.477 407.169 271.39C407.169 263.302 403.063 256.747 397.997 256.747C392.931 256.747 388.825 263.302 388.825 271.39C388.825 279.477 392.931 286.033 397.997 286.033Z" fill="#1B3B49"/>
<path opacity="0.2" d="M397.997 286.033C403.063 286.033 407.169 279.477 407.169 271.39C407.169 263.302 403.063 256.747 397.997 256.747C392.931 256.747 388.825 263.302 388.825 271.39C388.825 279.477 392.931 286.033 397.997 286.033Z" fill="black"/>
<path d="M397.997 280.537C401.166 280.537 403.735 276.442 403.735 271.39C403.735 266.337 401.166 262.242 397.997 262.242C394.828 262.242 392.26 266.337 392.26 271.39C392.26 276.442 394.828 280.537 397.997 280.537Z" fill="#1B3B49"/>
<path d="M532.282 482.55L492.943 452.359C492.943 452.359 489.767 439.777 488.498 430.968C487.229 422.16 485.322 384.421 485.322 384.421C486.225 381.154 486.823 377.81 487.108 374.432C487.496 374.351 487.916 374.254 488.28 374.149C491.22 373.4 493.946 371.979 496.245 369.997C498.543 368.016 500.35 365.529 501.525 362.731C505.565 352.678 500.345 340.798 493.734 332.83C487.124 324.862 478.809 318.462 474.461 308.587C469.095 296.417 470.929 281.709 468.19 268.391C467.927 266.525 467.232 264.746 466.162 263.195C464.465 261.086 461.806 260.625 459.43 259.785C451.931 257.126 446.306 249.837 441.918 242.233C434.815 229.909 427.461 211.169 412.826 210.102C407.387 209.706 401.706 211.54 396.211 211.524C387.685 211.524 379.241 211.629 370.788 212.801C367.765 213.213 364.63 213.779 362.109 215.775C353.454 222.62 357.373 240.713 349.033 248.099C346.552 250.289 343.376 251.073 340.572 252.576C330.002 258.233 325.307 273.321 325.929 286.897C326.22 293.257 327.545 299.884 331.303 304.53C334.277 308.248 338.52 310.381 341.292 314.3C345.768 320.628 345.162 329.016 344.678 337.55C338.697 340.055 333.897 342.932 332.386 346.027C327.311 356.403 327.941 391.944 327.941 391.944C327.941 391.944 329.849 450.129 315.254 457.402L260.682 495.141C260.682 495.141 221.973 461.491 212.454 481.306C205.94 494.858 229.707 502.527 245.376 506.018C235.493 513.032 230.022 525.994 234.661 534.779C241.934 548.614 262.266 558.052 262.266 558.052C262.266 558.052 339.805 561.794 375.645 553.761H376.234C391.451 556.517 413.287 559.418 430.798 557.673C431.13 558.481 431.364 558.998 431.364 558.998C431.364 558.998 543.692 568.437 563.984 530.059C574.401 510.382 563.531 501.29 550.472 497.104C565.091 495.941 581.738 491.852 583.654 479.423C587.169 456.763 532.282 482.55 532.282 482.55ZM520.968 494.583C500.418 502.074 483.73 502.494 474.849 501.929C470.477 492.417 452.286 451.187 451.809 423.598C451.923 417.44 453.022 412.058 455.478 408.018C460.771 399.314 462.331 392.494 462.153 387.306C462.153 386.918 462.153 386.546 462.153 386.174C462.178 384.589 462.023 383.006 461.693 381.455C462.566 383.588 462.826 385.922 462.444 388.194C460.537 397.948 465.62 461.159 465.62 461.159C465.62 461.159 469.742 475.309 478.308 479.398L520.968 494.583ZM319.707 490.114L339.376 477.532C339.376 477.532 348.581 473.144 349.51 462.42L355.975 411.323C356.419 413.513 357.002 415.672 357.72 417.788C358.868 421.141 359.337 426.055 359.426 431.905C359.207 460.392 349.51 507.715 349.51 507.715H349.631L349.559 508.054L348.872 508.095C332.911 507.61 295.722 506.22 274.897 503.335L319.707 490.114ZM285.241 519.901V520.014H280.392L285.241 519.901Z" fill="url(#paint0_linear)"/>
<path d="M440.439 247.372C444.682 254.791 450.137 261.918 457.369 264.488C459.664 265.296 462.218 265.757 463.834 267.81C464.868 269.325 465.537 271.059 465.79 272.876C468.432 285.863 466.663 300.207 471.851 312.07C476.053 321.679 484.094 327.941 490.486 335.691C496.878 343.441 501.896 355.03 498.017 364.824C496.897 367.538 495.164 369.956 492.953 371.888C490.742 373.82 488.113 375.214 485.273 375.96C479.924 377.406 474.34 376.768 468.909 375.839C461.749 374.57 454.46 372.606 448.496 367.757C438.176 359.377 433.813 344.322 428.414 330.94C425.877 324.669 422.507 318.099 416.931 315.852C410.539 313.282 403.363 317.573 399.217 323.869C395.072 330.164 393.229 338.075 391.225 345.688C388.962 354.278 386.093 363.208 380.146 368.824C377.566 371.341 374.313 373.056 370.779 373.763C367.246 374.47 363.583 374.139 360.234 372.808C353.607 370.044 348.362 363.062 346.843 354.957C344.492 342.463 350.124 327.481 343.215 317.606C340.532 313.783 336.435 311.698 333.517 308.078C329.921 303.544 328.604 297.088 328.321 290.889C327.715 277.652 332.257 262.904 342.471 257.425C345.203 255.963 348.249 255.195 350.649 253.062C358.731 245.885 354.924 228.244 363.288 221.545C365.713 219.597 368.751 219.056 371.677 218.644C379.871 217.504 388.009 217.375 396.251 217.399C401.569 217.399 407.056 215.63 412.317 216.017C426.467 217.084 433.554 235.356 440.439 247.372Z" fill="#965D7B"/>
<path d="M288.732 514.899L291.827 551.563L508.305 550.278L504.183 510.252L430.992 501.735L302.647 509.477L288.732 514.899Z" fill="#575988"/>
<path opacity="0.05" d="M288.732 514.899L291.827 551.563L508.305 550.278L504.183 510.252L430.992 501.735L302.647 509.477L288.732 514.899Z" fill="black"/>
<path d="M431.178 540.533L359.111 547.28C359.111 547.28 408.487 559.855 437.312 553.745L431.178 540.533Z" fill="#F7C4A7"/>
<path opacity="0.1" d="M431.178 540.533L359.111 547.28C359.111 547.28 408.487 559.855 437.312 553.745L431.178 540.533Z" fill="black"/>
<path d="M376.283 282.315C376.283 282.315 390.393 319.424 369.535 335.982C348.678 352.541 365.858 398.854 365.858 398.854L446.209 395.177C446.209 395.177 454.185 343.045 449.886 331.998C449.886 331.998 430.871 337.518 426.58 325.865C422.289 314.212 419.218 282.315 419.218 282.315H376.283Z" fill="#F7C4A7"/>
<path d="M357.882 506.794C357.882 506.794 290.106 505.258 270.177 500.329C250.249 495.399 233.069 519.037 240.124 532.532C247.178 546.028 266.791 555.224 266.791 555.224C266.791 555.224 367.685 560.129 389.463 546.335C389.463 546.335 397.747 522.722 389.463 518.124H284.287L361.866 516.588L357.882 506.794Z" fill="#575988"/>
<path d="M465.531 499.747C465.531 499.747 488.223 504.652 519.505 492.385C519.505 492.385 578.078 490.542 558.457 527.942C538.836 565.342 430.265 556.153 430.265 556.153C430.265 556.153 423.8 542.351 430.265 538.674C436.73 534.997 492.83 511.384 510.269 512.604L461.782 522.107L465.531 499.747Z" fill="#575988"/>
<path opacity="0.1" d="M421.998 300.166C420.826 291.431 420.14 284.311 420.14 284.311H377.204C379.187 289.934 380.563 295.754 381.31 301.669C387.33 305.885 394.562 308.019 401.906 307.748C409.25 307.476 416.305 304.814 421.998 300.166Z" fill="black"/>
<path d="M399.742 305.767C418.371 305.767 433.473 290.665 433.473 272.036C433.473 253.407 418.371 238.305 399.742 238.305C381.113 238.305 366.012 253.407 366.012 272.036C366.012 290.665 381.113 305.767 399.742 305.767Z" fill="#F7C4A7"/>
<path d="M379.968 330.77C379.968 330.77 339.489 338.439 334.584 348.548C329.679 358.658 330.293 393.326 330.293 393.326C330.293 393.326 332.136 450.064 318.026 457.111L265.28 493.912C265.28 493.912 227.864 461.095 218.668 480.417C209.472 499.739 262.832 506.794 262.832 506.794L322.325 489.015L341.34 476.748C341.34 476.748 350.229 472.457 351.151 462.024L359.127 398.846L391.023 389.649H442.524L449.425 369.947C449.425 369.947 462.153 380.146 460.311 389.649C458.468 399.153 463.374 460.763 463.374 460.763C463.374 460.763 467.358 474.566 475.641 478.542L523.489 495.771C523.489 495.771 574.094 500.676 577.463 478.599C580.833 456.521 527.78 481.661 527.78 481.661L489.75 452.222C489.75 452.222 486.688 439.954 485.459 431.364C484.231 422.774 482.397 385.98 482.397 385.98C482.397 385.98 494.05 347.336 460.319 340.597L416.77 327.101L379.968 330.77Z" fill="#F7C4A7"/>
<path opacity="0.1" d="M352.823 338.585L359.11 380.138C359.11 380.138 352.645 399.46 359.11 418.475C365.575 437.49 351.126 508.329 351.126 508.329C351.126 508.329 426.871 532.573 473.152 504.652C473.152 504.652 439.114 432.892 453.523 408.971C467.931 385.051 453.757 375.693 453.757 375.693L456.02 331.724L445.595 328.661L439.461 372.129C439.461 372.129 397.14 401.569 365.858 375.806L359.11 328.58L352.823 338.585Z" fill="black"/>
<path opacity="0.07" d="M396.575 387.977C393.299 382.741 388.19 378.913 382.245 377.241C376.299 375.569 369.944 376.173 364.42 378.934C374.691 386.619 386.013 388.672 396.575 387.977Z" fill="white"/>
<path opacity="0.07" d="M413.957 383.37C417.233 378.134 422.342 374.307 428.287 372.635C434.233 370.963 440.588 371.566 446.112 374.327C435.849 382.012 424.519 384.073 413.957 383.37Z" fill="white"/>
<path opacity="0.1" d="M352.823 338.585L359.11 377.988C359.11 377.988 352.645 397.31 359.11 416.325C365.575 435.34 351.126 506.18 351.126 506.18C351.126 506.18 426.871 530.423 473.152 502.503C473.152 502.503 439.114 430.742 453.523 406.822C467.931 382.902 453.757 373.544 453.757 373.544L455.971 329.542L445.547 326.479L439.413 370.028C439.413 370.028 397.092 399.468 365.81 373.705L359.062 326.479L352.823 338.585Z" fill="black"/>
<path d="M352.516 338.277L359.11 378.602C359.11 378.602 352.645 397.924 359.11 416.939C365.575 435.954 351.126 506.794 351.126 506.794C351.126 506.794 426.871 531.037 473.152 503.117C473.152 503.117 439.114 431.356 453.523 407.436C467.931 383.515 453.757 374.157 453.757 374.157L455.971 330.156L445.547 327.093L439.413 370.642C439.413 370.642 397.092 400.082 365.81 374.319L359.062 327.093L352.516 338.277Z" fill="#E0B581"/>
<path d="M383.645 521.825L399.613 519.675C399.613 519.675 418.014 496.062 431.203 514.156C431.203 514.156 436.722 525.809 443.47 527.958C448.084 529.353 452.802 530.377 457.58 531.021L430.289 538.69C430.289 538.69 418.329 545.745 405.755 543.903C398.353 542.775 390.79 543.406 383.677 545.745L383.645 521.825Z" fill="#F7C4A7"/>
<path opacity="0.1" d="M366.012 421.691C366.012 421.691 394.837 425.982 399.742 418.321L366.012 421.691Z" fill="black"/>
<path opacity="0.1" d="M420.624 416.786C420.624 416.786 426.144 422.305 448.221 418.321L420.624 416.786Z" fill="black"/>
<path opacity="0.1" d="M364.476 331.223C364.476 331.223 385.633 334.285 389.625 332.451L364.476 331.223Z" fill="black"/>
<path opacity="0.1" d="M411.097 331.223C411.097 331.223 432.253 334.285 436.245 332.451L411.097 331.223Z" fill="black"/>
<path opacity="0.1" d="M385.948 519.521C385.948 519.521 391.775 546.997 385.948 547.967C380.122 548.937 371.838 543.442 371.838 542.828C371.838 542.213 375.515 524.734 375.515 524.734L385.948 519.521Z" fill="black"/>
<path d="M385.334 519.521C385.334 519.521 391.16 546.997 385.334 547.967C379.507 548.937 371.224 543.442 371.224 542.828C371.224 542.213 374.901 524.734 374.901 524.734L385.334 519.521Z" fill="#575988"/>
<path opacity="0.1" d="M356.864 327.206C354.294 333.178 353.381 340.225 356.112 346.124C358.197 350.625 362.27 354.27 363.054 359.167C364.04 365.309 359.49 371.555 361.187 377.535C361.834 379.83 363.345 381.77 364.881 383.588C369.551 389.108 375.758 394.449 382.966 394.021C384.106 382.885 374.481 372.081 377.633 361.341C378.764 357.494 381.415 354.294 383.015 350.625C385.673 344.54 385.294 337.59 384.332 331.02C382.934 321.493 379.394 309.799 369.947 305.338C365.6 303.286 359.442 303.14 357.89 308.708C357.082 311.682 359.022 314.478 359.288 317.387C359.628 321.08 358.294 323.885 356.864 327.206Z" fill="black"/>
<path d="M356.864 326.285C354.294 332.257 353.381 339.304 356.112 345.203C358.197 349.704 362.27 353.349 363.054 358.246C364.04 364.388 359.49 370.634 361.187 376.614C361.834 378.909 363.345 380.849 364.881 382.667C369.551 388.187 375.758 393.528 382.966 393.1C384.106 381.964 374.481 371.16 377.633 360.42C378.764 356.573 381.415 353.373 383.015 349.704C385.673 343.619 385.294 336.669 384.332 330.099C382.934 320.572 379.394 308.878 369.947 304.417C365.6 302.365 359.442 302.219 357.89 307.787C357.082 310.761 359.022 313.557 359.288 316.466C359.628 320.168 358.294 322.972 356.864 326.285Z" fill="#965D7B"/>
<path opacity="0.1" d="M359.264 255.478C359.264 255.478 404.042 249.344 405.262 258.541C406.482 267.737 446.048 282.784 446.048 282.784L436.237 258.541L418.143 228.487C418.143 228.487 385.011 226.062 383.491 228.487C381.972 230.911 364.477 238.911 364.477 238.911L359.264 255.478Z" fill="black"/>
<path d="M359.264 254.864C359.264 254.864 404.042 248.73 405.262 257.926C406.482 267.123 446.048 282.17 446.048 282.17L436.237 257.926L418.143 227.881C418.143 227.881 385.011 225.456 383.491 227.881C381.972 230.305 364.477 238.305 364.477 238.305L359.264 254.864Z" fill="#965D7B"/>
<path opacity="0.1" d="M437.183 320.41C439.36 323.017 440.899 326.097 441.676 329.404C442.419 332.564 442.443 335.869 443.155 339.037C444.666 345.785 449.127 351.458 453.789 356.565C455.298 358.415 457.14 359.967 459.22 361.139C461.353 362.19 464.069 362.408 466.049 361.139C464.174 359.604 463.155 357.252 462.485 354.917C461.541 351.661 461.121 348.276 461.24 344.888C461.442 339.231 463.099 333.259 460.747 328.103C459.39 325.129 456.86 322.867 454.282 320.83C452.491 319.374 450.558 318.102 448.512 317.032C444.706 315.133 440.334 314.301 436.132 313.889C430.653 313.323 435.445 318.325 437.183 320.41Z" fill="black"/>
<path d="M437.183 319.481C439.362 322.093 440.901 325.178 441.676 328.491C442.419 331.651 442.443 334.956 443.155 338.124C444.666 344.872 449.127 350.545 453.789 355.652C455.298 357.502 457.14 359.053 459.22 360.226C461.353 361.276 464.069 361.495 466.049 360.226C464.174 358.69 463.155 356.339 462.485 354.003C461.541 350.747 461.121 347.362 461.24 343.975C461.442 338.318 463.099 332.346 460.747 327.19C459.39 324.216 456.86 321.953 454.282 319.917C452.491 318.461 450.558 317.188 448.512 316.119C444.706 314.22 440.334 313.387 436.132 312.975C430.653 312.401 435.445 317.404 437.183 319.481Z" fill="#965D7B"/>
<path opacity="0.1" d="M417.133 133.67H411.573C412.099 133.694 412.624 133.612 413.117 133.427C413.61 133.242 414.061 132.959 414.441 132.596C414.822 132.232 415.125 131.795 415.332 131.311C415.539 130.827 415.646 130.306 415.646 129.779C415.646 129.253 415.539 128.732 415.332 128.248C415.125 127.764 414.822 127.327 414.441 126.963C414.061 126.599 413.61 126.317 413.117 126.132C412.624 125.947 412.099 125.864 411.573 125.888H366.537C365.536 125.934 364.591 126.364 363.898 127.089C363.206 127.813 362.819 128.777 362.819 129.779C362.819 130.782 363.206 131.745 363.898 132.47C364.591 133.195 365.536 133.625 366.537 133.67H372.097C371.571 133.647 371.046 133.729 370.553 133.914C370.06 134.099 369.609 134.382 369.229 134.745C368.848 135.109 368.545 135.546 368.338 136.03C368.131 136.514 368.024 137.035 368.024 137.562C368.024 138.088 368.131 138.609 368.338 139.093C368.545 139.577 368.848 140.014 369.229 140.378C369.609 140.742 370.06 141.024 370.553 141.209C371.046 141.394 371.571 141.477 372.097 141.453H364.315C363.789 141.429 363.263 141.512 362.771 141.696C362.278 141.881 361.827 142.164 361.446 142.527C361.066 142.891 360.763 143.328 360.556 143.812C360.349 144.296 360.242 144.817 360.242 145.344C360.242 145.87 360.349 146.391 360.556 146.875C360.763 147.359 361.066 147.796 361.446 148.16C361.827 148.524 362.278 148.806 362.771 148.991C363.263 149.176 363.789 149.259 364.315 149.235H409.351C409.877 149.259 410.402 149.176 410.895 148.991C411.388 148.806 411.839 148.524 412.219 148.16C412.6 147.796 412.903 147.359 413.11 146.875C413.317 146.391 413.423 145.87 413.423 145.344C413.423 144.817 413.317 144.296 413.11 143.812C412.903 143.328 412.6 142.891 412.219 142.527C411.839 142.164 411.388 141.881 410.895 141.696C410.402 141.512 409.877 141.429 409.351 141.453H417.133C417.659 141.477 418.184 141.394 418.677 141.209C419.17 141.024 419.621 140.742 420.001 140.378C420.382 140.014 420.685 139.577 420.892 139.093C421.099 138.609 421.206 138.088 421.206 137.562C421.206 137.035 421.099 136.514 420.892 136.03C420.685 135.546 420.382 135.109 420.001 134.745C419.621 134.382 419.17 134.099 418.677 133.914C418.184 133.729 417.659 133.647 417.133 133.67Z" fill="#252223"/>
<path opacity="0.1" d="M635.324 133.67H629.765C630.291 133.694 630.816 133.612 631.309 133.427C631.802 133.242 632.252 132.959 632.633 132.596C633.013 132.232 633.316 131.795 633.523 131.311C633.73 130.827 633.837 130.306 633.837 129.779C633.837 129.253 633.73 128.732 633.523 128.248C633.316 127.764 633.013 127.327 632.633 126.963C632.252 126.599 631.802 126.317 631.309 126.132C630.816 125.947 630.291 125.864 629.765 125.888H584.728C583.727 125.934 582.782 126.364 582.089 127.089C581.397 127.813 581.011 128.777 581.011 129.779C581.011 130.782 581.397 131.745 582.089 132.47C582.782 133.195 583.727 133.625 584.728 133.67H590.288C589.762 133.647 589.237 133.729 588.744 133.914C588.251 134.099 587.801 134.382 587.42 134.745C587.039 135.109 586.736 135.546 586.529 136.03C586.322 136.514 586.216 137.035 586.216 137.562C586.216 138.088 586.322 138.609 586.529 139.093C586.736 139.577 587.039 140.014 587.42 140.378C587.801 140.742 588.251 141.024 588.744 141.209C589.237 141.394 589.762 141.477 590.288 141.453H582.506C581.98 141.429 581.455 141.512 580.962 141.696C580.469 141.881 580.019 142.164 579.638 142.527C579.257 142.891 578.954 143.328 578.747 143.812C578.54 144.296 578.434 144.817 578.434 145.344C578.434 145.87 578.54 146.391 578.747 146.875C578.954 147.359 579.257 147.796 579.638 148.16C580.019 148.524 580.469 148.806 580.962 148.991C581.455 149.176 581.98 149.259 582.506 149.235H627.542C628.068 149.259 628.594 149.176 629.086 148.991C629.579 148.806 630.03 148.524 630.411 148.16C630.791 147.796 631.094 147.359 631.301 146.875C631.508 146.391 631.615 145.87 631.615 145.344C631.615 144.817 631.508 144.296 631.301 143.812C631.094 143.328 630.791 142.891 630.411 142.527C630.03 142.164 629.579 141.881 629.086 141.696C628.594 141.512 628.068 141.429 627.542 141.453H635.324C635.85 141.477 636.376 141.394 636.869 141.209C637.362 141.024 637.812 140.742 638.193 140.378C638.573 140.014 638.876 139.577 639.083 139.093C639.29 138.609 639.397 138.088 639.397 137.562C639.397 137.035 639.29 136.514 639.083 136.03C638.876 135.546 638.573 135.109 638.193 134.745C637.812 134.382 637.362 134.099 636.869 133.914C636.376 133.729 635.85 133.647 635.324 133.67Z" fill="#252223"/>
<path opacity="0.1" d="M170.658 233.069H165.098C165.624 233.093 166.149 233.01 166.642 232.825C167.135 232.641 167.586 232.358 167.966 231.994C168.347 231.63 168.65 231.193 168.857 230.709C169.064 230.225 169.17 229.704 169.17 229.178C169.17 228.651 169.064 228.13 168.857 227.646C168.65 227.162 168.347 226.725 167.966 226.362C167.586 225.998 167.135 225.715 166.642 225.53C166.149 225.346 165.624 225.263 165.098 225.287H120.062C119.06 225.332 118.115 225.762 117.423 226.487C116.73 227.212 116.344 228.175 116.344 229.178C116.344 230.18 116.73 231.144 117.423 231.869C118.115 232.593 119.06 233.023 120.062 233.069H125.621C124.62 233.115 123.675 233.544 122.983 234.269C122.29 234.994 121.904 235.958 121.904 236.96C121.904 237.962 122.29 238.926 122.983 239.651C123.675 240.376 124.62 240.805 125.621 240.851H117.839C117.313 240.827 116.788 240.91 116.295 241.095C115.802 241.279 115.352 241.562 114.971 241.926C114.591 242.29 114.288 242.727 114.081 243.211C113.874 243.695 113.767 244.216 113.767 244.742C113.767 245.269 113.874 245.79 114.081 246.274C114.288 246.758 114.591 247.195 114.971 247.558C115.352 247.922 115.802 248.205 116.295 248.39C116.788 248.574 117.313 248.657 117.839 248.633H162.876C163.402 248.657 163.927 248.574 164.42 248.39C164.913 248.205 165.363 247.922 165.744 247.558C166.124 247.195 166.427 246.758 166.634 246.274C166.841 245.79 166.948 245.269 166.948 244.742C166.948 244.216 166.841 243.695 166.634 243.211C166.427 242.727 166.124 242.29 165.744 241.926C165.363 241.562 164.913 241.279 164.42 241.095C163.927 240.91 163.402 240.827 162.876 240.851H170.658C171.659 240.805 172.604 240.376 173.297 239.651C173.989 238.926 174.376 237.962 174.376 236.96C174.376 235.958 173.989 234.994 173.297 234.269C172.604 233.544 171.659 233.115 170.658 233.069Z" fill="#252223"/>
<path d="M637.385 545.575C637.385 545.575 617.449 477.887 641.127 428.067C651.066 407.161 654.364 383.685 649.773 360.994C647.579 350.22 644.4 339.67 640.278 329.477" stroke="#535461" stroke-width="2" stroke-miterlimit="10"/>
<path d="M654.978 298.033C654.978 306.333 639.955 330.358 639.955 330.358C639.955 330.358 624.932 306.3 624.932 298.033C624.886 296.032 625.24 294.041 625.974 292.178C626.708 290.315 627.807 288.618 629.206 287.186C630.605 285.754 632.276 284.616 634.122 283.839C635.967 283.062 637.949 282.662 639.951 282.662C641.953 282.662 643.935 283.062 645.78 283.839C647.626 284.616 649.297 285.754 650.696 287.186C652.096 288.618 653.194 290.315 653.928 292.178C654.662 294.041 655.016 296.032 654.97 298.033H654.978Z" fill="#1B3B49"/>
<path d="M679.836 343.983C675.326 350.949 649.644 362.973 649.644 362.973C649.644 362.973 650.113 334.617 654.622 327.651C656.834 324.415 660.223 322.173 664.065 321.401C667.907 320.629 671.899 321.389 675.188 323.519C678.478 325.649 680.805 328.98 681.673 332.801C682.542 336.623 681.882 340.632 679.836 343.975V343.983Z" fill="#1B3B49"/>
<path d="M678.745 422.507C671.334 426.241 643.099 423.663 643.099 423.663C643.099 423.663 657.814 399.419 665.225 395.686C666.99 394.751 668.925 394.177 670.915 393.999C672.905 393.821 674.911 394.041 676.814 394.647C678.718 395.254 680.482 396.233 682.003 397.53C683.523 398.826 684.77 400.413 685.669 402.197C686.569 403.981 687.104 405.926 687.243 407.919C687.381 409.912 687.121 411.913 686.477 413.805C685.833 415.696 684.818 417.44 683.492 418.934C682.165 420.428 680.554 421.643 678.753 422.507H678.745Z" fill="#1B3B49"/>
<path d="M664.546 481.734C657.879 486.664 629.603 488.894 629.603 488.894C629.603 488.894 640.012 462.517 646.679 457.579C648.263 456.387 650.068 455.521 651.989 455.03C653.911 454.539 655.91 454.434 657.872 454.719C659.835 455.005 661.721 455.676 663.422 456.694C665.124 457.712 666.607 459.057 667.786 460.651C668.966 462.246 669.818 464.057 670.293 465.982C670.769 467.908 670.859 469.908 670.557 471.868C670.256 473.828 669.57 475.708 668.538 477.402C667.506 479.095 666.15 480.568 664.546 481.734Z" fill="#1B3B49"/>
<path d="M618.104 364.582C624.051 370.36 651.778 376.348 651.778 376.348C651.778 376.348 644.99 348.815 639.042 343.029C636.164 340.364 632.358 338.93 628.438 339.034C624.517 339.137 620.792 340.77 618.059 343.583C615.326 346.396 613.801 350.167 613.811 354.089C613.821 358.011 615.364 361.774 618.112 364.574L618.104 364.582Z" fill="#1B3B49"/>
<path d="M602.378 434.055C609.788 437.789 638.024 435.211 638.024 435.211C638.024 435.211 623.308 410.967 615.897 407.234C614.132 406.299 612.197 405.725 610.207 405.547C608.217 405.368 606.211 405.589 604.308 406.195C602.404 406.801 600.64 407.781 599.12 409.078C597.599 410.374 596.353 411.96 595.453 413.744C594.553 415.528 594.018 417.474 593.879 419.467C593.741 421.46 594.001 423.461 594.645 425.352C595.289 427.244 596.304 428.988 597.631 430.482C598.957 431.976 600.568 433.191 602.369 434.055H602.378Z" fill="#1B3B49"/>
<path d="M596.357 503.682C603.024 508.612 631.3 510.842 631.3 510.842C631.3 510.842 620.892 484.457 614.217 479.528C612.632 478.336 610.827 477.469 608.906 476.978C606.985 476.488 604.985 476.382 603.023 476.667C601.061 476.953 599.174 477.624 597.473 478.642C595.771 479.66 594.288 481.005 593.109 482.6C591.93 484.194 591.078 486.006 590.602 487.931C590.126 489.856 590.037 491.856 590.338 493.816C590.639 495.776 591.325 497.657 592.357 499.35C593.389 501.043 594.746 502.516 596.349 503.682H596.357Z" fill="#1B3B49"/>
<path d="M654.978 298.033C654.978 306.333 639.955 330.358 639.955 330.358C639.955 330.358 624.932 306.3 624.932 298.033C624.886 296.032 625.24 294.041 625.974 292.178C626.708 290.315 627.807 288.618 629.206 287.186C630.605 285.754 632.276 284.616 634.122 283.839C635.967 283.062 637.949 282.662 639.951 282.662C641.953 282.662 643.935 283.062 645.78 283.839C647.626 284.616 649.297 285.754 650.696 287.186C652.096 288.618 653.194 290.315 653.928 292.178C654.662 294.041 655.016 296.032 654.97 298.033H654.978Z" fill="#E0B581"/>
<path d="M679.836 343.983C675.326 350.949 649.644 362.973 649.644 362.973C649.644 362.973 650.113 334.617 654.622 327.651C656.834 324.415 660.223 322.173 664.065 321.401C667.907 320.629 671.899 321.389 675.188 323.519C678.478 325.649 680.805 328.98 681.673 332.801C682.542 336.623 681.882 340.632 679.836 343.975V343.983Z" fill="#E0B581"/>
<path d="M678.745 422.507C671.334 426.241 643.099 423.663 643.099 423.663C643.099 423.663 657.814 399.419 665.225 395.686C666.99 394.751 668.925 394.177 670.915 393.999C672.905 393.821 674.911 394.041 676.814 394.647C678.718 395.254 680.482 396.233 682.003 397.53C683.523 398.826 684.77 400.413 685.669 402.197C686.569 403.981 687.104 405.926 687.243 407.919C687.381 409.912 687.121 411.913 686.477 413.805C685.833 415.696 684.818 417.44 683.492 418.934C682.165 420.428 680.554 421.643 678.753 422.507H678.745Z" fill="#E0B581"/>
<path d="M664.546 481.734C657.879 486.664 629.603 488.894 629.603 488.894C629.603 488.894 640.012 462.517 646.679 457.579C648.263 456.387 650.068 455.521 651.989 455.03C653.911 454.539 655.91 454.434 657.872 454.719C659.835 455.005 661.721 455.676 663.422 456.694C665.124 457.712 666.607 459.057 667.786 460.651C668.966 462.246 669.818 464.057 670.293 465.982C670.769 467.908 670.859 469.908 670.557 471.868C670.256 473.828 669.57 475.708 668.538 477.402C667.506 479.095 666.15 480.568 664.546 481.734Z" fill="#E0B581"/>
<path d="M618.104 364.582C624.051 370.36 651.778 376.348 651.778 376.348C651.778 376.348 644.99 348.815 639.042 343.029C636.164 340.364 632.358 338.93 628.438 339.034C624.517 339.137 620.792 340.77 618.059 343.583C615.326 346.396 613.801 350.167 613.811 354.089C613.821 358.011 615.364 361.774 618.112 364.574L618.104 364.582Z" fill="#E0B581"/>
<path d="M602.378 434.055C609.788 437.789 638.024 435.211 638.024 435.211C638.024 435.211 623.308 410.967 615.897 407.234C614.132 406.299 612.197 405.725 610.207 405.547C608.217 405.368 606.211 405.589 604.308 406.195C602.404 406.801 600.64 407.781 599.12 409.078C597.599 410.374 596.353 411.96 595.453 413.744C594.553 415.528 594.018 417.474 593.879 419.467C593.741 421.46 594.001 423.461 594.645 425.352C595.289 427.244 596.304 428.988 597.631 430.482C598.957 431.976 600.568 433.191 602.369 434.055H602.378Z" fill="#E0B581"/>
<path d="M596.357 503.682C603.024 508.612 631.3 510.842 631.3 510.842C631.3 510.842 620.892 484.457 614.217 479.528C612.632 478.336 610.827 477.469 608.906 476.978C606.985 476.488 604.985 476.382 603.023 476.667C601.061 476.953 599.174 477.624 597.473 478.642C595.771 479.66 594.288 481.005 593.109 482.6C591.93 484.194 591.078 486.006 590.602 487.931C590.126 489.856 590.037 491.856 590.338 493.816C590.639 495.776 591.325 497.657 592.357 499.35C593.389 501.043 594.746 502.516 596.349 503.682H596.357Z" fill="#E0B581"/>
<path d="M167.062 543.959C167.062 543.959 147.126 476.271 170.803 426.451C180.743 405.545 184.04 382.069 179.45 359.377C177.255 348.604 174.077 338.054 169.955 327.861" stroke="#535461" stroke-width="2" stroke-miterlimit="10"/>
<path d="M184.655 296.417C184.655 304.716 169.632 328.741 169.632 328.741C169.632 328.741 154.609 304.684 154.609 296.417C154.562 294.415 154.916 292.424 155.65 290.562C156.384 288.699 157.483 287.001 158.882 285.569C160.282 284.137 161.953 282.999 163.798 282.223C165.643 281.446 167.625 281.045 169.628 281.045C171.63 281.045 173.612 281.446 175.457 282.223C177.302 282.999 178.974 284.137 180.373 285.569C181.772 287.001 182.871 288.699 183.605 290.562C184.339 292.424 184.693 294.415 184.646 296.417H184.655Z" fill="#1B3B49"/>
<path d="M209.512 342.366C205.003 349.332 179.321 361.357 179.321 361.357C179.321 361.357 179.79 333 184.299 326.034C186.511 322.799 189.899 320.557 193.741 319.785C197.583 319.013 201.575 319.773 204.865 321.903C208.154 324.032 210.482 327.363 211.35 331.185C212.218 335.007 211.559 339.016 209.512 342.358V342.366Z" fill="#1B3B49"/>
<path d="M208.421 420.891C201.011 424.625 172.775 422.047 172.775 422.047C172.775 422.047 187.491 397.803 194.901 394.07C198.447 392.369 202.518 392.127 206.241 393.394C209.963 394.662 213.04 397.339 214.811 400.85C216.582 404.361 216.906 408.427 215.713 412.174C214.519 415.921 211.904 419.051 208.429 420.891H208.421Z" fill="#1B3B49"/>
<path d="M194.222 480.118C187.556 485.047 159.28 487.278 159.28 487.278C159.28 487.278 169.688 460.901 176.355 455.963C177.94 454.771 179.745 453.905 181.666 453.414C183.587 452.923 185.587 452.817 187.549 453.103C189.511 453.388 191.397 454.06 193.099 455.078C194.8 456.096 196.284 457.441 197.463 459.035C198.642 460.629 199.494 462.441 199.97 464.366C200.445 466.291 200.535 468.291 200.234 470.251C199.932 472.211 199.246 474.092 198.214 475.786C197.183 477.479 195.826 478.951 194.222 480.118Z" fill="#1B3B49"/>
<path d="M147.78 362.965C153.728 368.743 181.454 374.731 181.454 374.731C181.454 374.731 174.666 347.199 168.718 341.413C165.841 338.747 162.035 337.313 158.114 337.417C154.193 337.52 150.468 339.153 147.735 341.966C145.002 344.78 143.478 348.55 143.488 352.472C143.498 356.395 145.041 360.158 147.788 362.957L147.78 362.965Z" fill="#1B3B49"/>
<path d="M132.054 432.439C139.465 436.172 167.7 433.594 167.7 433.594C167.7 433.594 152.984 409.351 145.574 405.618C142.028 403.917 137.957 403.674 134.235 404.942C130.512 406.21 127.435 408.887 125.664 412.398C123.893 415.909 123.569 419.974 124.763 423.722C125.956 427.469 128.571 430.598 132.046 432.439H132.054Z" fill="#1B3B49"/>
<path d="M126.034 502.066C132.701 506.996 160.977 509.226 160.977 509.226C160.977 509.226 150.568 482.841 143.893 477.912C142.308 476.72 140.503 475.853 138.582 475.362C136.661 474.871 134.662 474.766 132.699 475.051C130.737 475.337 128.851 476.008 127.149 477.026C125.448 478.044 123.965 479.389 122.785 480.983C121.606 482.578 120.754 484.389 120.279 486.314C119.803 488.24 119.713 490.24 120.014 492.2C120.316 494.16 121.002 496.04 122.034 497.734C123.065 499.427 124.422 500.9 126.026 502.066H126.034Z" fill="#1B3B49"/>
<path d="M184.655 296.417C184.655 304.716 169.632 328.741 169.632 328.741C169.632 328.741 154.609 304.684 154.609 296.417C154.562 294.415 154.916 292.424 155.65 290.562C156.384 288.699 157.483 287.001 158.882 285.569C160.282 284.137 161.953 282.999 163.798 282.223C165.643 281.446 167.625 281.045 169.628 281.045C171.63 281.045 173.612 281.446 175.457 282.223C177.302 282.999 178.974 284.137 180.373 285.569C181.772 287.001 182.871 288.699 183.605 290.562C184.339 292.424 184.693 294.415 184.646 296.417H184.655Z" fill="#E0B581"/>
<path d="M209.512 342.366C205.003 349.332 179.321 361.357 179.321 361.357C179.321 361.357 179.79 333 184.299 326.034C186.511 322.799 189.899 320.557 193.741 319.785C197.583 319.013 201.575 319.773 204.865 321.903C208.154 324.032 210.482 327.363 211.35 331.185C212.218 335.007 211.559 339.016 209.512 342.358V342.366Z" fill="#E0B581"/>
<path d="M208.421 420.891C201.011 424.625 172.775 422.047 172.775 422.047C172.775 422.047 187.491 397.803 194.901 394.07C198.447 392.369 202.518 392.127 206.241 393.394C209.963 394.662 213.04 397.339 214.811 400.85C216.582 404.361 216.906 408.427 215.713 412.174C214.519 415.921 211.904 419.051 208.429 420.891H208.421Z" fill="#E0B581"/>
<path d="M194.222 480.118C187.556 485.047 159.28 487.278 159.28 487.278C159.28 487.278 169.688 460.901 176.355 455.963C177.94 454.771 179.745 453.905 181.666 453.414C183.587 452.923 185.587 452.817 187.549 453.103C189.511 453.388 191.397 454.06 193.099 455.078C194.8 456.096 196.284 457.441 197.463 459.035C198.642 460.629 199.494 462.441 199.97 464.366C200.445 466.291 200.535 468.291 200.234 470.251C199.932 472.211 199.246 474.092 198.214 475.786C197.183 477.479 195.826 478.951 194.222 480.118Z" fill="#E0B581"/>
<path d="M147.78 362.965C153.728 368.743 181.454 374.731 181.454 374.731C181.454 374.731 174.666 347.199 168.718 341.413C165.841 338.747 162.035 337.313 158.114 337.417C154.193 337.52 150.468 339.153 147.735 341.966C145.002 344.78 143.478 348.55 143.488 352.472C143.498 356.395 145.041 360.158 147.788 362.957L147.78 362.965Z" fill="#E0B581"/>
<path d="M132.054 432.439C139.465 436.172 167.7 433.594 167.7 433.594C167.7 433.594 152.984 409.351 145.574 405.618C142.028 403.917 137.957 403.674 134.235 404.942C130.512 406.21 127.435 408.887 125.664 412.398C123.893 415.909 123.569 419.974 124.763 423.722C125.956 427.469 128.571 430.598 132.046 432.439H132.054Z" fill="#E0B581"/>
<path d="M126.034 502.066C132.701 506.996 160.977 509.226 160.977 509.226C160.977 509.226 150.568 482.841 143.893 477.912C142.308 476.72 140.503 475.853 138.582 475.362C136.661 474.871 134.662 474.766 132.699 475.051C130.737 475.337 128.851 476.008 127.149 477.026C125.448 478.044 123.965 479.389 122.785 480.983C121.606 482.578 120.754 484.389 120.279 486.314C119.803 488.24 119.713 490.24 120.014 492.2C120.316 494.16 121.002 496.04 122.034 497.734C123.065 499.427 124.422 500.9 126.026 502.066H126.034Z" fill="#E0B581"/>
</g>
<defs>
<linearGradient id="paint0_linear" x1="397.601" y1="560.008" x2="397.601" y2="210.094" gradientUnits="userSpaceOnUse">
<stop stop-color="#808080" stop-opacity="0.25"/>
<stop offset="0.54" stop-color="#808080" stop-opacity="0.12"/>
<stop offset="1" stop-color="#808080" stop-opacity="0.1"/>
</linearGradient>
<clipPath id="clip0">
<rect width="795.994" height="560" fill="white"/>
</clipPath>
</defs>
</svg>
