<svg width="624" height="538" viewBox="0 0 624 538" fill="none" xmlns="http://www.w3.org/2000/svg">
<path d="M121 486C167.392 486 205 475.255 205 462C205 448.745 167.392 438 121 438C74.6081 438 37 448.745 37 462C37 475.255 74.6081 486 121 486Z" fill="#C9D7DE" fill-opacity="0.45"/>
<path opacity="0.1" d="M692.075 391.265C674.638 427.29 639.211 451.379 602.51 467.265C573.126 479.9 542.065 488.198 510.3 491.9C504.216 492.623 498.112 493.184 491.989 493.582C476.342 494.603 460.645 494.586 445.001 493.53C435.59 492.903 426.213 491.902 416.868 490.526C384.398 485.784 352.743 476.555 322.806 463.104C314.166 459.209 305.701 454.957 297.411 450.347C283.565 442.664 270.298 433.978 257.717 424.358C254.933 422.229 252.185 420.053 249.471 417.832L248.355 416.918C246.221 415.156 244.107 413.356 241.96 411.607C238.392 408.615 234.604 405.895 230.628 403.47C230.359 403.312 230.09 403.155 229.814 403.003C229.079 402.576 228.33 402.175 227.569 401.794C226 401.002 224.391 400.291 222.75 399.665C215.167 396.773 207.045 395.721 198.812 395.898C197.447 395.898 196.081 395.99 194.709 396.082C192.792 396.214 190.868 396.411 188.951 396.661L188.242 396.759C182.133 397.625 176.093 398.923 170.168 400.644C161.016 403.273 152.028 406.559 142.981 409.524C139.14 410.792 135.293 412.002 131.412 413.086L130.559 413.323C125.04 414.877 119.423 416.054 113.745 416.846C100.842 418.497 87.7377 417.44 75.2654 413.743L74.8321 413.618L74.0311 413.382L72.9347 413.04C71.0964 412.462 69.2734 411.828 67.4657 411.141L66.3693 410.72C64.6186 410.045 62.905 409.32 61.2286 408.544L60.1322 408.045C58.3815 407.23 56.6679 406.369 54.9915 405.462C54.3875 405.146 53.7901 404.804 53.1992 404.482C51.4134 403.483 49.6626 402.436 47.9469 401.341C46.1261 400.179 44.3447 398.968 42.6027 397.706C41.7973 397.127 41.0007 396.534 40.2129 395.925C35.6713 392.447 31.4183 388.607 27.4958 384.442C27.2791 384.225 27.0756 384.002 26.8721 383.785C25.8282 382.654 24.804 381.504 23.8126 380.328C23.4449 379.894 23.0773 379.46 22.7162 379.013C21.5388 377.576 20.403 376.106 19.3087 374.603C19.1446 374.386 18.987 374.162 18.8295 373.945C14.3436 367.735 10.6247 361.004 7.7537 353.899C7.66179 353.682 7.57644 353.458 7.49765 353.241C6.62227 350.985 5.82348 348.691 5.10129 346.36C4.80585 345.387 4.52354 344.388 4.27405 343.415C4.1887 343.126 4.10992 342.83 4.0377 342.541C0.413617 328.258 0 313.411 0 298.648C0 296.926 0 295.206 0 293.489C0.105046 269.61 0.472705 245.324 3.99174 221.774C3.99174 221.609 4.0377 221.445 4.06396 221.287C5.24176 213.359 6.84383 205.5 8.86325 197.744C10.9768 189.605 13.6779 181.631 16.9452 173.885C25.0403 154.824 36.812 137.478 49.8837 121.401C65.6406 102.058 83.6953 84.2064 103.805 69.4769C106.694 67.3605 109.622 65.3054 112.59 63.3117L113.962 62.4112C114.441 62.0892 114.92 61.754 115.399 61.4713C116.384 60.8141 117.369 60.1962 118.367 59.5718L119.483 58.8751L121.61 57.5606L122.267 57.1859L123.403 56.5286L124.525 55.8714C125.838 55.0958 127.167 54.3377 128.511 53.5972C134.249 50.3941 140.122 47.467 146.132 44.816C147.905 44.0317 149.688 43.2758 151.483 42.5485C159.63 39.2265 167.999 36.479 176.53 34.326C179.681 33.5285 182.852 32.8274 186.043 32.2227C189.807 31.4953 193.591 30.8928 197.394 30.4152C203.447 29.6528 209.534 29.1987 215.633 29.0546C258.518 28.0096 301.836 41.9832 335.444 68.7671C348.838 79.4412 360.872 92.0805 375.913 100.264C389.044 107.388 404.414 110.34 418.477 104.733C430.097 100.099 437.661 97.7988 450.713 98.5021C477.72 100.025 504.346 105.6 529.7 115.039C530.725 115.414 531.749 115.802 532.766 116.189C598.886 141.527 655.736 191.841 685.267 256.497C686.046 258.206 686.805 259.928 687.545 261.664C705.16 302.842 711.515 351.118 692.075 391.265Z" fill="#1B3B49"/>
<path d="M210.481 59.3896V66.195V182.249H352.335V66.195V59.3896H210.481Z" fill="url(#paint0_linear)"/>
<path d="M351.427 59.3896H211.388V63.3583H351.427V59.3896Z" fill="#535461"/>
<path d="M351.427 63.2466H211.388V180.705H351.427V63.2466Z" fill="#EDEDF4"/>
<path d="M345.239 81.5244H217.933V161.023H345.239V81.5244Z" fill="white"/>
<path d="M213.994 61.9956C214.368 61.9956 214.671 61.6922 214.671 61.3179C214.671 60.9436 214.368 60.6401 213.994 60.6401C213.62 60.6401 213.316 60.9436 213.316 61.3179C213.316 61.6922 213.62 61.9956 213.994 61.9956Z" fill="#FA595F"/>
<path d="M216.033 61.9956C216.407 61.9956 216.711 61.6922 216.711 61.3179C216.711 60.9436 216.407 60.6401 216.033 60.6401C215.659 60.6401 215.356 60.9436 215.356 61.3179C215.356 61.6922 215.659 61.9956 216.033 61.9956Z" fill="#FFC74C"/>
<path d="M218.072 61.9956C218.447 61.9956 218.75 61.6922 218.75 61.3179C218.75 60.9436 218.447 60.6401 218.072 60.6401C217.698 60.6401 217.395 60.9436 217.395 61.3179C217.395 61.6922 217.698 61.9956 218.072 61.9956Z" fill="#85D459"/>
<path d="M231.014 88.3369V150.64H334.009" stroke="#535461" stroke-width="2" stroke-miterlimit="10"/>
<path opacity="0.5" d="M250.765 131.796H240.128V148.208H250.765V131.796Z" fill="#66A6BD"/>
<path opacity="0.7" d="M268.994 117.207H258.357V148.208H268.994V117.207Z" fill="#66A6BD"/>
<path opacity="0.5" d="M287.222 126.025H276.585V148.216H287.222V126.025Z" fill="#66A6BD"/>
<path opacity="0.8" d="M305.458 112.344H294.821V148.209H305.458V112.344Z" fill="#66A6BD"/>
<path d="M323.686 99.5791H313.05V148.209H323.686V99.5791Z" fill="#66A6BD"/>
<path d="M245.297 121.769L263.826 105.05L282.061 120.854L299.982 101.71L318.211 94.1079" stroke="#535461" stroke-width="2" stroke-miterlimit="10"/>
<path d="M245.296 123.901C246.473 123.901 247.427 122.947 247.427 121.77C247.427 120.593 246.473 119.639 245.296 119.639C244.12 119.639 243.166 120.593 243.166 121.77C243.166 122.947 244.12 123.901 245.296 123.901Z" fill="#66A6BD"/>
<path d="M281.754 122.685C282.93 122.685 283.884 121.731 283.884 120.554C283.884 119.377 282.93 118.423 281.754 118.423C280.577 118.423 279.624 119.377 279.624 120.554C279.624 121.731 280.577 122.685 281.754 122.685Z" fill="#66A6BD"/>
<path d="M300.29 103.841C301.466 103.841 302.42 102.887 302.42 101.71C302.42 100.533 301.466 99.5791 300.29 99.5791C299.113 99.5791 298.159 100.533 298.159 101.71C298.159 102.887 299.113 103.841 300.29 103.841Z" fill="#66A6BD"/>
<path d="M263.825 106.88C265.002 106.88 265.956 105.926 265.956 104.749C265.956 103.572 265.002 102.618 263.825 102.618C262.649 102.618 261.695 103.572 261.695 104.749C261.695 105.926 262.649 106.88 263.825 106.88Z" fill="#66A6BD"/>
<path d="M318.211 96.2391C319.387 96.2391 320.341 95.285 320.341 94.1081C320.341 92.9311 319.387 91.9771 318.211 91.9771C317.034 91.9771 316.081 92.9311 316.081 94.1081C316.081 95.285 317.034 96.2391 318.211 96.2391Z" fill="#66A6BD"/>
<path d="M409.563 275.009C409.563 275.009 418.251 232.325 451.468 236.28C451.468 236.28 474.383 237.859 479.125 252.881V286.076L409.563 275.009Z" fill="#535461"/>
<path d="M487.339 204.705C483.441 204.265 479.747 202.609 476.115 200.988C470.011 198.228 463.76 195.315 459.039 190.193C451.943 182.508 449.366 171.161 444.372 161.637C442.524 157.907 440.051 154.52 437.06 151.625C434.585 149.373 431.719 147.594 428.602 146.378C422.478 143.943 415.702 143.696 409.417 145.679L412.909 145.099L397.97 149.871C396.112 150.472 394.073 151.234 393.13 153.113C392.187 154.993 392.787 157.683 394.128 159.402C395.469 161.12 397.355 162.12 399.185 163.084L400.756 163.908C399.481 166.898 398.994 170.166 399.343 173.398C399.691 176.63 400.863 179.719 402.747 182.368V197.69C399.056 199.022 395.116 199.523 391.209 199.158C390.135 199.515 389.146 200.091 388.304 200.849C386.481 202.246 384.169 205.041 383.226 210.204C381.641 218.91 363.671 248.563 361.799 251.609L332.466 259.295L332.64 259.463L332.074 259.609C332.074 259.609 332.305 259.826 332.668 260.21C329.358 260.434 323.533 260.42 318.902 258.24C314.153 256.004 306.526 258.296 302.28 259.917C301.961 260.039 301.683 260.249 301.479 260.523C301.274 260.797 301.152 261.123 301.125 261.463C301.098 261.804 301.167 262.145 301.326 262.448C301.485 262.75 301.726 263.002 302.022 263.173C307.739 266.419 314.15 268.247 320.718 268.504C327.884 268.881 333.751 268.93 337.766 268.888C337.861 269.494 337.829 270.114 337.674 270.707C337.519 271.301 337.244 271.857 336.866 272.34L371.919 267.323C372.946 266.736 373.916 266.055 374.817 265.29C376.973 263.577 378.831 261.518 380.314 259.197L387.864 249.324C388.339 251.029 393.262 269.126 391.607 275.127L389.84 281.779L400.163 282.848V282.625L431.403 286.817V286.118H431.459L431.591 280.256L467.804 279.089C467.804 279.089 474.09 273.982 471.345 265.814C468.6 257.646 469.613 233.967 469.613 233.967C468.667 227.401 467.231 220.915 465.318 214.564C473.319 213.421 481.133 211.217 488.554 208.01C492.158 206.459 495.796 204.58 498.332 201.303C495.426 204.237 491.236 205.146 487.339 204.705Z" fill="url(#paint1_linear)"/>
<path d="M431.982 164.544H402.649V209.96H431.982V164.544Z" fill="#FE5858"/>
<path opacity="0.1" d="M431.982 164.544H402.649V209.96H431.982V164.544Z" fill="black"/>
<path d="M408.718 181.236C410.544 183.618 411.673 186.461 411.979 189.448C412.285 192.435 411.756 195.448 410.45 198.151C405.966 207.794 408.711 221.677 412.322 223.794C415.933 225.911 430.271 228.797 434.748 222.634C439.225 216.471 438.973 198.669 437.5 196.083C436.026 193.498 425.103 191.311 425.571 176.715L408.718 181.236Z" fill="#F2B08D"/>
<path opacity="0.1" d="M406.839 199.172C406.839 199.172 412.594 237.768 432.08 211.204L430.466 283.868L395.231 279.166L406.839 199.172Z" fill="black"/>
<path d="M406.791 199.863C406.791 199.863 412.546 238.46 432.031 211.895L430.418 284.56L395.183 279.858L406.791 199.863Z" fill="#F1C413"/>
<path d="M428.301 267.952C428.301 267.952 417.707 269.293 410.373 266.093C410.373 266.093 396.405 269.873 397.802 273.157C399.199 276.441 431.249 276.651 431.249 276.651L428.301 267.952Z" fill="#F2B08D"/>
<path d="M337.277 258.54C337.277 258.54 328.065 260.022 321.416 256.891C316.821 254.725 309.432 256.947 305.311 258.519C305.003 258.638 304.735 258.842 304.537 259.107C304.34 259.371 304.221 259.687 304.195 260.016C304.169 260.345 304.236 260.675 304.389 260.968C304.542 261.261 304.774 261.504 305.06 261.671C310.597 264.814 316.807 266.585 323.169 266.834C336.691 267.533 345.449 267.058 345.449 267.058L337.277 258.54Z" fill="#F2B08D"/>
<path opacity="0.1" d="M425.899 217.185L420.535 268.888L425.508 268.008C425.508 268.008 433.19 274.387 426.542 278.223L465.003 277.035C465.003 277.035 471.093 272.088 468.432 264.144C465.771 256.2 466.756 233.29 466.756 233.29C466.756 233.29 462.796 204.293 454.932 202.777C454.932 202.777 439.029 199.661 429.74 189.32L425.899 217.185Z" fill="black"/>
<path d="M426.59 217.254L421.227 268.958L426.199 268.078C426.199 268.078 433.882 274.457 427.233 278.293L465.695 277.056C465.695 277.056 471.785 272.109 469.124 264.165C466.463 256.221 467.448 233.311 467.448 233.311C467.448 233.311 463.487 204.314 455.623 202.798C455.623 202.798 439.721 199.682 430.432 189.341L426.59 217.254Z" fill="#39447A"/>
<path opacity="0.1" d="M411.449 193.547C411.449 193.547 402.467 201.156 391.09 199.975C391.09 199.975 385.356 201.47 383.743 210.372C382.13 219.273 362.84 250.729 362.84 250.729L334.205 258.212C334.205 258.212 342.453 266.037 338.849 270.551L372.806 265.709C375.94 263.841 378.587 261.258 380.53 258.17L388.213 248.157C388.213 248.157 393.556 267.19 391.88 273.311L390.168 279.76L400.17 280.801C400.17 280.801 400.659 255.494 403.012 245.663C404.032 241.408 404.912 237.132 405.554 232.807C407.189 221.767 409.745 204.978 410.702 202.763L411.449 193.547Z" fill="black"/>
<path d="M411.833 193.24C411.833 193.24 402.851 200.877 391.474 199.668C391.474 199.668 385.74 201.163 384.127 210.064C382.514 218.966 363.216 250.428 363.216 250.428L334.582 257.912C334.582 257.912 342.83 265.737 339.226 270.251L373.183 265.409C376.329 263.539 378.986 260.948 380.935 257.849L388.618 247.836C388.618 247.836 393.961 266.869 392.284 272.989L390.573 279.439L400.554 280.445C400.554 280.445 401.043 255.138 403.396 245.307C404.416 241.052 405.296 236.776 405.938 232.451C407.573 221.411 410.129 204.622 411.086 202.407L411.833 193.24Z" fill="#39447A"/>
<path opacity="0.1" d="M428.343 186.379C426.702 183.786 425.298 182.682 425.459 177.743L408.613 182.27C410.607 184.875 411.768 188.021 411.945 191.297C413.138 191.675 414.367 191.93 415.611 192.059C420.214 192.541 424.844 188.852 428.343 186.379Z" fill="black"/>
<path d="M435.865 174.63C436.911 164.536 429.579 155.504 419.489 154.457C409.399 153.411 400.37 160.745 399.324 170.84C398.278 180.934 405.61 189.966 415.7 191.013C425.79 192.06 434.818 184.725 435.865 174.63Z" fill="#F2B08D"/>
<path opacity="0.1" d="M391.398 225.632C391.398 225.632 394.722 230.523 392.683 233.436C390.643 236.35 390.176 240.843 390.923 243.714" fill="black"/>
<path opacity="0.1" d="M445.133 224.933C445.133 224.933 451.272 253.112 449.61 255.732L445.133 224.933Z" fill="black"/>
<path opacity="0.1" d="M431.242 263.697C431.242 263.697 448.646 265.038 447.654 261.098L431.242 263.697Z" fill="black"/>
<path d="M409.109 147.775C415.2 145.864 421.764 146.111 427.694 148.474C430.722 149.658 433.506 151.389 435.907 153.582C438.804 156.386 441.199 159.666 442.989 163.28C447.808 172.509 450.309 183.507 457.181 190.948C461.756 195.902 467.811 198.732 473.727 201.429C477.219 203.015 480.822 204.608 484.601 205.034C488.379 205.46 492.437 204.58 495.252 201.743C492.821 204.915 489.294 206.739 485.802 208.241C472.055 214.176 457.015 216.479 442.123 214.928C437.933 214.48 433.742 213.712 429.859 211.853C427.066 210.512 424.356 208.409 423.252 205.258C420.71 197.991 427.848 190.277 426.507 182.613C425.808 178.679 422.952 175.626 419.767 173.739C416.582 171.853 413.027 170.944 409.626 169.687C406.053 168.239 402.57 166.576 399.199 164.705C397.425 163.769 395.595 162.784 394.31 161.135C393.025 159.486 392.389 156.942 393.346 155.063C394.303 153.183 396.238 152.506 398.033 151.919L412.511 147.23" fill="#FE5858"/>
<path d="M591.283 290.82L295.785 266.317L257.861 274.219L260.228 327.181L262.82 327.495L265.76 407.014L555.734 459.179L586.548 433.097V346.884L590.494 344.571L591.283 290.82Z" fill="#EDEDF4"/>
<path opacity="0.05" d="M591.681 290.82L590.892 344.571L558.891 359.586L558.493 303.467L591.681 290.82Z" fill="black"/>
<path opacity="0.05" d="M586.548 346.94L586.939 431.518L556.125 457.6L558.101 359.586L586.548 346.94Z" fill="black"/>
<path opacity="0.05" d="M263.211 330.653L558.339 366.685L558.493 359.852L262.994 327.97L263.211 330.653Z" fill="black"/>
<path opacity="0.05" d="M586.548 350.042V346.94L557.312 359.852V366.699L586.548 350.042Z" fill="black"/>
<path d="M257.463 274.219L295.387 266.317L590.892 290.82L557.704 303.467L257.463 274.219Z" fill="#F4F4F8"/>
<path d="M621.399 400.006C633.962 400.006 644.146 396.265 644.146 391.65C644.146 387.035 633.962 383.293 621.399 383.293C608.836 383.293 598.651 387.035 598.651 391.65C598.651 396.265 608.836 400.006 621.399 400.006Z" fill="#CD9494"/>
<path opacity="0.05" d="M621.399 394.983C627.809 394.983 633.006 393.074 633.006 390.721C633.006 388.367 627.809 386.458 621.399 386.458C614.988 386.458 609.791 388.367 609.791 390.721C609.791 393.074 614.988 394.983 621.399 394.983Z" fill="black"/>
<path d="M598.659 389.792C598.659 389.792 623.725 403.724 644.153 391.65C644.153 391.65 641.359 439.944 627.44 444.591H608.869C608.869 444.591 593.085 412.08 598.659 389.792Z" fill="#FF7361"/>
<path d="M641.045 301.294C647.422 324.624 620.218 391.084 620.218 391.084C620.218 391.084 562.949 347.765 556.6 324.407C553.669 313.248 555.259 301.382 561.024 291.389C566.789 281.395 576.263 274.082 587.387 271.037C598.512 267.992 610.388 269.462 620.435 275.128C630.482 280.793 637.889 290.197 641.045 301.294Z" fill="#66A6BD"/>
<path opacity="0.1" d="M641.045 301.294C647.422 324.624 620.218 391.084 620.218 391.084C620.218 391.084 562.949 347.765 556.6 324.407C553.669 313.248 555.259 301.382 561.024 291.389C566.789 281.395 576.263 274.082 587.387 271.037C598.512 267.992 610.388 269.462 620.435 275.128C630.482 280.793 637.889 290.197 641.045 301.294Z" fill="black"/>
<path d="M587.505 270.747C587.505 270.747 623.124 324.547 620.449 391.217" stroke="#535461" stroke-miterlimit="10"/>
<path d="M650.138 343.936C650.138 343.936 617.83 326.356 621.951 391.259C621.951 391.259 648.902 390.294 658.464 368.299C660.332 364.022 660.568 359.207 659.127 354.767C657.685 350.327 654.666 346.57 650.641 344.208L650.138 343.936Z" fill="#66A6BD"/>
<path d="M650.669 344.048C650.669 344.048 646.479 377.739 621.922 391.259" stroke="#535461" stroke-miterlimit="10"/>
<path opacity="0.05" d="M641.108 393.229C640.165 404.338 636.317 438.847 624.654 442.732H607.982C608.513 443.92 608.834 444.59 608.834 444.59H627.405C641.332 439.944 644.118 391.65 644.118 391.65C643.142 392.226 642.137 392.753 641.108 393.229Z" fill="black"/>
<path d="M510.693 188.062C525.092 188.062 536.765 176.385 536.765 161.98C536.765 147.575 525.092 135.897 510.693 135.897C496.294 135.897 484.622 147.575 484.622 161.98C484.622 176.385 496.294 188.062 510.693 188.062Z" fill="#535461"/>
<path d="M510.694 184.115C522.913 184.115 532.819 174.205 532.819 161.98C532.819 149.755 522.913 139.845 510.694 139.845C498.474 139.845 488.568 149.755 488.568 161.98C488.568 174.205 498.474 184.115 510.694 184.115Z" fill="#EDEDF4"/>
<path d="M510.693 163.559C511.565 163.559 512.272 162.852 512.272 161.98C512.272 161.108 511.565 160.401 510.693 160.401C509.821 160.401 509.115 161.108 509.115 161.98C509.115 162.852 509.821 163.559 510.693 163.559Z" fill="#535461"/>
<path d="M520.178 145.379L510.693 161.98" stroke="#535461" stroke-miterlimit="10" stroke-linecap="round"/>
<path d="M511.147 162.155L520.569 167.116" stroke="#535461" stroke-width="2" stroke-miterlimit="10" stroke-linecap="round"/>
<path d="M170.021 451.41C167.312 449.733 165.88 445.527 165.133 441.991L166.872 441.397C166.872 441.397 161.193 382.553 159.936 379.423C158.679 376.292 157.415 365.022 157.415 365.022L155.369 303.648C164.79 300.225 168.75 293.601 170.084 290.702C170.565 289.848 170.968 288.952 171.286 288.026C158.016 271.753 147.323 227.937 147.323 227.937L149.118 223.312L149.907 221.279C152.54 232.388 164.35 237.349 164.35 237.349L164.176 235.721C164.644 235.951 164.93 236.077 164.972 236.091C167.451 237.929 170.084 238.886 172.55 237.978C180.288 235.022 180.162 221.474 180.12 219.965C180.12 219.092 180.12 218.568 180.12 218.568L172.543 190.396C172.345 191.82 172.02 193.223 171.572 194.588C171.132 188.754 170.573 177.819 171.914 171.608C173.402 164.705 158.854 169.456 155.075 177.596C153.732 175.786 151.996 174.305 149.997 173.264C147.998 172.224 145.79 171.65 143.538 171.587C130.352 171.021 121.335 162.686 119.792 161.183C119.453 159.757 119.195 158.313 119.016 156.858C121.583 154.562 123.531 151.657 124.682 148.411C125.832 145.164 126.149 141.681 125.602 138.28C125.942 138.127 126.273 137.957 126.594 137.77C131.273 134.975 132.775 128.987 133.068 123.579C133.068 123.3 133.068 122.999 133.068 122.699C133.138 120.903 132.726 118.681 130.973 118.318C128.675 117.836 126.992 121.294 124.687 120.924C123.981 120.757 123.343 120.374 122.865 119.827C121.279 118.255 120.211 116.236 118.639 114.664C116.293 112.316 112.954 111.121 109.63 110.835C106.296 110.655 102.954 110.968 99.7122 111.764C97.9264 112.056 96.2013 112.641 94.6068 113.497C93.8175 113.926 93.1328 114.524 92.6015 115.249C92.0703 115.974 91.7057 116.807 91.5338 117.689C91.4903 118.069 91.4786 118.453 91.4989 118.835C91.4989 119.415 91.4989 120.009 91.5478 120.589C91.54 120.842 91.5119 121.094 91.464 121.343C91.1287 122.985 89.7738 124.243 88.3281 125.102C86.8824 125.962 85.269 126.563 83.9071 127.548C81.7304 129.224 80.2184 131.618 79.6398 134.304C79.2901 135.818 79.1306 137.369 79.1649 138.923C79.1477 140.324 79.2294 141.725 79.4093 143.115C79.9848 147.792 81.2979 152.348 83.2995 156.614C83.959 158.114 84.8087 159.523 85.8278 160.806C87.3236 162.437 89.0424 163.848 90.9332 164.998C91.7014 165.515 92.6163 166.046 93.4963 165.76C93.7529 165.664 93.9897 165.522 94.1948 165.341C95.4938 164.265 95.9338 162.546 95.8919 160.827C95.8919 161.009 95.9478 161.197 95.9687 161.372L96.0944 161.428C96.1847 162.558 96.1847 163.693 96.0944 164.824C94.9281 165.816 87.0151 172.411 78.1592 176.059C75.1615 177.302 72.478 179.197 70.3035 181.607C68.1291 184.017 66.5182 186.881 65.5878 189.991C64.2507 194.553 62.2505 198.894 59.6513 202.875C58.3871 204.754 52.716 230.418 48.9306 235.427C45.7668 239.62 58.4989 262.677 67.5433 271.536L67.9484 271.92C70.0436 274.114 71.9713 275.645 73.5357 276.113C73.3122 274.693 73.1954 273.259 73.1865 271.823C74.2132 273.22 75.2049 274.583 76.0989 275.931C75.7287 277.908 75.2957 279.851 74.7929 281.744C68.5071 305.5 72.2716 306.157 72.2716 306.157C72.2716 306.157 72.4601 306.248 72.7884 306.373C73.1167 307.331 73.5287 307.408 73.5287 307.408C73.5287 307.408 73.7243 307.505 74.0805 307.638C74.2341 335.034 78.5713 365.001 78.5713 365.001C78.5713 365.001 74.7859 402.564 76.6786 409.446C78.5713 416.328 76.6786 445.778 76.6786 445.778L77.9706 446.121C77.2722 449.838 75.8754 454.4 72.8932 457.048C67.2151 462.058 61.544 470.82 69.1078 473.321C76.6716 475.822 86.7636 473.95 88.0208 466.432L88.6494 460.8L97.4773 457.67L95.9687 447.19C98.4551 443.214 95.5846 423.238 95.5846 423.238C95.5846 423.238 97.4773 416.349 99.9986 375.664C100.068 374.518 100.152 373.407 100.236 372.303C100.236 371.981 100.285 371.667 100.313 371.353C100.383 370.519 100.457 369.697 100.536 368.886C100.536 368.607 100.592 368.32 100.62 368.041C100.725 367 100.837 365.945 100.955 364.96C100.955 364.806 100.997 364.652 101.011 364.498C101.118 363.637 101.228 362.789 101.34 361.955L101.458 361.089C101.565 360.329 101.677 359.584 101.793 358.853C101.793 358.636 101.856 358.42 101.891 358.21C102.04 357.278 102.194 356.377 102.352 355.506L102.464 354.912C102.59 354.218 102.72 353.533 102.855 352.858L103.009 352.096C103.153 351.388 103.3 350.69 103.449 350L103.533 349.609C103.714 348.806 103.896 348.023 104.077 347.261L104.224 346.654C104.368 346.071 104.513 345.501 104.657 344.942L104.825 344.306C105.013 343.607 105.202 342.909 105.397 342.21V342.154C105.593 341.455 105.795 340.798 105.998 340.142L106.173 339.576C106.326 339.087 106.48 338.607 106.633 338.136L106.801 337.633C107.004 337.025 107.206 336.432 107.409 335.859L107.5 335.614C107.676 335.12 107.853 334.638 108.03 334.168L108.212 333.686C108.37 333.266 108.529 332.859 108.687 332.463L108.833 332.1C109.034 331.601 109.234 331.119 109.434 330.653L109.567 330.346C109.725 329.978 109.883 329.619 110.042 329.27L110.223 328.872C110.386 328.518 110.547 328.173 110.705 327.838L110.803 327.621C110.992 327.223 111.18 326.845 111.362 326.482L111.515 326.189L111.92 325.399L112.081 325.099L112.556 324.218V324.155L113.038 323.31L113.178 323.072C113.921 321.753 114.764 320.491 115.699 319.299C115.699 319.299 137.86 373.162 137.252 382.539C136.644 391.915 141.037 412.583 141.037 412.583C141.037 412.583 142.93 419.472 143.559 423.853C144.096 427.577 147.365 442.145 148.329 446.442L148.482 447.141V447.218L148.524 447.406V447.511V447.574L147.91 455.169L156.109 460.179C160.523 472.699 169.98 472.056 177.55 468.94C185.121 465.824 175.064 454.505 170.021 451.41ZM160.788 196.782L160.691 196.698V196.58L160.788 196.782ZM78.1871 252.867C77.7332 252.49 77.2652 252.07 76.7903 251.623C76.2595 251.064 75.7427 250.47 75.2608 249.842L75.596 250.205C76.0849 250.666 76.5738 251.099 77.0417 251.483C77.1131 244.307 76.824 237.132 76.1757 229.984C76.483 229.467 76.7624 229.013 77.0138 228.636C77.8766 236.683 78.2684 244.774 78.1871 252.867Z" fill="url(#paint2_linear)"/>
<path d="M95.7244 157.075V157.229L95.5777 157.012L95.7244 157.075ZM76.6507 249.653C74.1155 246.956 71.8387 243.428 72.132 239.62C72.593 233.66 75.3726 228.699 76.8742 226.414C77.7411 234.548 78.1352 242.725 78.0545 250.904C77.6006 250.526 77.1257 250.1 76.6507 249.653ZM160.844 194.029L160.949 194.218L160.851 194.134L160.844 194.029Z" fill="url(#paint3_linear)"/>
<path d="M162.982 432.147C162.982 432.147 163.596 443.808 168.499 446.876C173.402 449.943 183.222 460.989 175.86 464.057C168.499 467.124 159.301 467.739 155.006 455.47L147.03 450.579L148.259 435.207L162.982 432.147Z" fill="#1A2246"/>
<path d="M79.5631 435.815C79.5631 435.815 79.5631 447.476 74.0457 452.381C68.5282 457.286 63.0038 465.88 70.365 468.333C77.7263 470.785 87.539 468.947 88.7682 461.583L89.3828 456.063L97.9663 452.996L95.5149 435.815H79.5631Z" fill="#1A2246"/>
<path d="M153.783 287.942L156.235 362.186C156.235 362.186 157.464 373.232 158.686 376.299C159.908 379.367 165.433 437.038 165.433 437.038L147.644 443.172C147.644 443.172 143.349 424.153 142.755 419.856C142.162 415.559 140.304 408.81 140.304 408.81C140.304 408.81 136.009 388.548 136.623 379.36C137.238 370.172 115.769 317.385 115.769 317.385C115.769 317.385 102.89 332.756 100.404 372.582C97.9174 412.408 96.1085 419.214 96.1085 419.214C96.1085 419.214 99.1745 440.692 96.1085 443.144C93.0425 445.597 77.7053 441.307 77.7053 441.307C77.7053 441.307 79.5421 412.471 77.7053 405.722C75.8685 398.972 79.5421 362.158 79.5421 362.158C79.5421 362.158 67.9136 281.227 82.6361 265.241L146.422 260.965L153.783 287.942Z" fill="#3B477B"/>
<g opacity="0.1">
<path opacity="0.1" d="M161.753 437.038C161.753 437.038 156.235 379.36 155.006 376.293C153.777 373.226 152.555 362.179 152.555 362.179L150.103 287.942L142.84 261.189L146.45 260.944L153.812 287.942L156.263 362.186C156.263 362.186 157.492 373.233 158.715 376.3C159.937 379.367 165.433 437.038 165.433 437.038L147.645 443.173L147.379 441.992L161.753 437.038Z" fill="black"/>
<path opacity="0.1" d="M92.4491 443.18C95.5151 440.727 92.4491 419.249 92.4491 419.249C92.4491 419.249 94.2859 412.5 96.7443 372.618C99.2027 332.736 112.109 317.42 112.109 317.42C112.109 317.42 112.626 318.685 113.506 320.858C109.686 327.328 102.269 343.377 100.474 372.646C98.0224 412.528 96.1786 419.277 96.1786 419.277C96.1786 419.277 99.2447 440.755 96.1786 443.208C95.2218 443.976 93.0637 444.081 90.5564 443.871C91.236 443.806 91.8876 443.568 92.4491 443.18Z" fill="black"/>
</g>
<path d="M119.436 143.136C119.436 143.136 114.547 165.222 128.019 176.883C141.491 188.544 96.1225 197.746 88.1536 187.929C80.1847 178.113 93.6711 173.201 93.6711 173.201C93.6711 173.201 100.418 167.681 93.6711 151.115L119.436 143.136Z" fill="#A0616A"/>
<path d="M123.116 167.682L107.172 184.863L94.8097 168.401L84.4731 218.009L88.1538 275.638C88.1538 275.638 117.592 283.617 134.151 268.274L129.262 214.893L123.116 167.682Z" fill="#F0F1F5"/>
<path opacity="0.1" d="M124.338 273.22L126.776 281.227C126.776 281.227 97.9523 286.118 88.1326 283.68L90.584 275.093C90.584 275.093 117.592 281.807 124.338 273.22Z" fill="black"/>
<path d="M124.338 271.99L126.776 279.969C126.776 279.969 97.9523 284.86 88.1326 282.422L90.584 273.835C90.584 273.835 117.592 280.577 124.338 271.99Z" fill="#1A2246"/>
<path opacity="0.1" d="M118.821 163.384C118.821 163.384 128.019 173.201 142.127 173.816C156.235 174.431 158.072 191.612 158.072 191.612L162.96 237.027C162.96 237.027 151.304 232.136 148.853 221.076L145.787 229.055C145.787 229.055 156.214 272.004 169.093 287.963C169.093 287.963 163.575 306.373 136.588 303.914C136.588 303.914 121.866 297.165 122.48 279.984L117.696 253.084C115.999 243.634 115.297 234.033 115.601 224.437L118.821 163.384Z" fill="black"/>
<path d="M119.435 162.155C119.435 162.155 128.633 171.972 142.741 172.586C156.849 173.201 158.686 190.396 158.686 190.396L163.575 235.812C163.575 235.812 151.919 230.921 149.467 219.861L146.401 227.84C146.401 227.84 156.849 270.747 169.728 286.719C169.728 286.719 164.211 305.13 137.224 302.671C137.224 302.671 122.501 295.921 123.116 278.74L118.297 251.882C116.599 242.433 115.897 232.831 116.202 223.235L119.435 162.155Z" fill="#293158"/>
<path opacity="0.1" d="M96.5695 166.368C96.5695 166.368 89.7041 174.333 80.3663 178.211C77.4477 179.44 74.8389 181.304 72.7287 183.666C70.6185 186.029 69.0596 188.831 68.165 191.87C66.8687 196.339 64.9226 200.593 62.3891 204.496C61.1599 206.333 55.6425 231.494 51.9618 236.406C48.2812 241.317 66.6844 272.605 74.6533 275.065C74.6533 275.065 71.5872 257.884 83.8514 256.046C83.8514 256.046 72.8095 249.297 73.4241 241.317C74.0387 233.338 78.9415 227.204 78.9415 227.204C78.9415 227.204 83.2368 258.498 77.1047 281.814C70.9726 305.13 74.6533 305.745 74.6533 305.745C74.6533 305.745 99.7961 318.014 96.1225 260.329C92.4488 202.644 95.5079 181.173 95.5079 181.173L96.5695 166.368Z" fill="black"/>
<path d="M73.4311 273.828C73.4311 273.828 71.0076 260.252 79.0882 255.948C78.8228 264.074 77.9428 272.773 75.8895 280.577C69.7574 303.893 73.4381 304.508 73.4381 304.508C74.0796 304.805 74.7486 305.039 75.4355 305.207C81.3162 306.681 97.9454 306.758 94.9003 259.092C91.2196 201.415 94.2857 179.937 94.2857 179.937L96.7371 165.823C96.7371 165.823 88.4749 173.089 79.1371 176.967C76.2188 178.197 73.6102 180.061 71.5 182.423C69.3899 184.786 67.8309 187.588 66.9358 190.627C65.6361 195.094 63.6902 199.348 61.16 203.252C59.9308 205.09 54.4133 230.25 50.7327 235.162C47.6527 239.27 60.0425 261.866 68.8355 270.551C70.5536 272.263 72.132 273.43 73.4311 273.828ZM73.0889 244.755C72.4139 243.294 72.1115 241.688 72.2088 240.081C72.6628 234.198 75.4565 229.314 76.8812 227.162C77.3911 226.393 77.7263 225.974 77.7263 225.974C78.7901 234.694 79.2731 243.475 79.172 252.259C77.0279 250.484 74.4368 247.815 73.0889 244.762V244.755Z" fill="#293158"/>
<path opacity="0.1" d="M105.328 164.614C102.267 164.618 99.2459 163.926 96.4929 162.588C96.0242 159.064 95.0846 155.619 93.6992 152.345L119.457 144.366C118.514 149.314 118.335 154.378 118.926 159.381C115.204 162.76 110.354 164.626 105.328 164.614Z" fill="black"/>
<path d="M105.328 163.384C116.506 163.384 125.568 154.319 125.568 143.136C125.568 131.953 116.506 122.888 105.328 122.888C94.1494 122.888 85.0876 131.953 85.0876 143.136C85.0876 154.319 94.1494 163.384 105.328 163.384Z" fill="#A0616A"/>
<g opacity="0.1">
<path opacity="0.1" d="M167.284 286.719C154.405 270.768 143.978 227.812 143.978 227.812L147.03 219.833C147.295 221.015 147.674 222.168 148.161 223.277L146.415 227.812C146.415 227.812 156.85 270.747 169.728 286.719C169.728 286.719 164.693 303.488 140.8 302.866C162.584 302.293 167.284 286.719 167.284 286.719Z" fill="black"/>
</g>
<path d="M170.343 198.976C170.343 198.976 168.506 181.18 170.343 172.593C172.18 164.006 148.874 173.823 153.784 185.477C158.694 197.132 163.596 203.888 163.596 203.888L170.343 198.976Z" fill="#A0616A"/>
<path opacity="0.1" d="M170.95 190.997L178.312 218.61C178.312 218.61 178.926 233.338 170.95 236.406C162.975 239.473 153.162 221.677 153.162 221.677L158.051 195.909C158.051 195.909 168.499 207.563 170.95 190.997Z" fill="black"/>
<path d="M170.95 192.227L178.312 219.839C178.312 219.839 178.926 234.568 170.95 237.635C162.975 240.702 153.162 222.907 153.162 222.907L158.051 197.138C158.051 197.138 168.499 208.793 170.95 192.227Z" fill="#293158"/>
<path opacity="0.02" d="M170.95 192.227L178.312 219.839C178.312 219.839 178.926 234.568 170.95 237.635C162.975 240.702 153.162 222.907 153.162 222.907L158.051 197.138C158.051 197.138 168.499 208.793 170.95 192.227Z" fill="black"/>
<path opacity="0.1" d="M75.8896 280.578C69.7576 303.893 73.4382 304.508 73.4382 304.508C74.0798 304.805 74.7488 305.039 75.4357 305.207C81.6166 292.763 82.6643 272.438 82.1265 254.9C82.1265 254.761 82.1265 254.621 82.1265 254.474C81.7581 243.397 80.8092 232.347 79.2839 221.37C78.5855 221.977 77.7614 224.074 76.9023 227.162C77.4122 226.393 77.7474 225.974 77.7474 225.974C78.8112 234.694 79.2942 243.475 79.1931 252.259C79.2901 253.491 79.2621 254.729 79.1093 255.955C78.823 264.074 77.943 272.773 75.8896 280.578Z" fill="black"/>
<path d="M73.0959 269.23L73.7944 270.111C76.1457 273.081 78.1952 276.278 79.9125 279.655C83.5861 287.641 96.3671 265.807 85.4579 259.393C83.6699 258.351 81.9658 257.408 80.3594 256.598L79.1233 255.962C74.0807 258.631 73.1029 264.877 73.0959 269.23Z" fill="#A0616A"/>
<path opacity="0.1" d="M73.0959 269.23L73.7944 270.111C73.7944 270.111 74.0807 258.68 80.3664 256.591L79.1302 255.955C74.0807 258.631 73.1029 264.877 73.0959 269.23Z" fill="black"/>
<path opacity="0.1" d="M105.572 137.56C106.711 137.169 107.905 136.547 109.064 136.932C109.593 137.144 110.069 137.468 110.461 137.882C112.061 139.391 113.639 141.145 115.783 141.613C117.109 141.815 118.461 141.755 119.764 141.438C122.027 141.04 124.353 140.614 126.322 139.44C130.876 136.722 132.328 130.825 132.608 125.529C132.706 123.747 132.335 121.441 130.589 121.071C128.354 120.596 126.72 123.992 124.464 123.621C123.776 123.456 123.156 123.08 122.69 122.545C121.154 121.008 120.113 119.052 118.577 117.48C116.184 115.245 113.086 113.918 109.819 113.728C106.574 113.55 103.321 113.856 100.167 114.636C98.4285 114.922 96.7503 115.496 95.2008 116.334C94.4289 116.759 93.7606 117.35 93.2438 118.063C92.727 118.777 92.3745 119.597 92.2116 120.463C92.058 121.651 92.3793 122.874 92.1418 124.04C91.8135 125.654 90.5005 126.877 89.0897 127.73C87.6789 128.582 86.1145 129.127 84.7875 130.126C82.6687 131.774 81.1995 134.117 80.6389 136.743C80.0927 139.354 80.017 142.042 80.4154 144.68C80.9659 149.261 82.2339 153.727 84.1729 157.914C84.814 159.38 85.6402 160.758 86.6313 162.015C88.0836 163.617 89.7554 165.005 91.597 166.137C92.3443 166.64 93.2383 167.164 94.0904 166.885C94.347 166.793 94.584 166.653 94.7888 166.473C96.5278 165.019 96.6954 162.385 96.1856 160.184C95.6758 157.983 94.712 155.852 94.6072 153.589C94.5406 152.953 94.6672 152.313 94.9704 151.751C95.3345 151.296 95.7466 150.881 96.1996 150.514C96.8021 149.838 97.2756 149.056 97.5964 148.209C98.5253 146.112 99.4681 143.912 99.6916 141.599C99.8893 139.705 99.4757 137.798 98.5113 136.156C99.453 137.004 100.606 137.582 101.849 137.829C103.092 138.077 104.378 137.984 105.572 137.56Z" fill="black"/>
<path d="M105.572 136.862C106.711 136.47 107.905 135.849 109.064 136.233C109.593 136.445 110.069 136.769 110.461 137.183C112.061 138.692 113.639 140.446 115.783 140.914C117.109 141.116 118.461 141.057 119.764 140.739C122.027 140.341 124.353 139.915 126.322 138.741C130.876 136.023 132.328 130.126 132.608 124.83C132.706 123.048 132.335 120.743 130.589 120.372C128.354 119.897 126.72 123.293 124.464 122.923C123.776 122.757 123.156 122.381 122.69 121.847C121.154 120.309 120.113 118.353 118.577 116.781C116.184 114.546 113.086 113.219 109.819 113.029C106.574 112.851 103.321 113.157 100.167 113.937C98.4285 114.223 96.7503 114.797 95.2008 115.635C94.4289 116.06 93.7606 116.651 93.2438 117.365C92.727 118.079 92.3745 118.898 92.2116 119.764C92.058 120.952 92.3793 122.175 92.1418 123.342C91.8135 124.956 90.5005 126.178 89.0897 127.031C87.6789 127.883 86.1145 128.428 84.7875 129.427C82.6687 131.075 81.1995 133.419 80.6389 136.044C80.0927 138.655 80.017 141.343 80.4154 143.981C80.9659 148.562 82.2339 153.028 84.1729 157.215C84.814 158.681 85.6402 160.06 86.6313 161.316C88.0836 162.918 89.7554 164.306 91.597 165.439C92.3443 165.942 93.2383 166.466 94.0904 166.186C94.347 166.094 94.584 165.954 94.7888 165.774C96.5278 164.321 96.6954 161.686 96.1856 159.486C95.6758 157.285 94.712 155.154 94.6072 152.89C94.5406 152.255 94.6672 151.614 94.9704 151.052C95.3345 150.597 95.7466 150.182 96.1996 149.816C96.8021 149.139 97.2756 148.357 97.5964 147.51C98.5253 145.414 99.4681 143.213 99.6916 140.9C99.8893 139.006 99.4757 137.099 98.5113 135.457C99.453 136.305 100.606 136.883 101.849 137.131C103.092 137.378 104.378 137.285 105.572 136.862Z" fill="#463E3B"/>
<defs>
<linearGradient id="paint0_linear" x1="281.405" y1="182.249" x2="281.405" y2="59.3896" gradientUnits="userSpaceOnUse">
<stop stop-color="#808080" stop-opacity="0.25"/>
<stop offset="0.54" stop-color="#808080" stop-opacity="0.12"/>
<stop offset="1" stop-color="#808080" stop-opacity="0.1"/>
</linearGradient>
<linearGradient id="paint1_linear" x1="134368" y1="61831.1" x2="134368" y2="32772.8" gradientUnits="userSpaceOnUse">
<stop stop-color="#808080" stop-opacity="0.25"/>
<stop offset="0.54" stop-color="#808080" stop-opacity="0.12"/>
<stop offset="1" stop-color="#808080" stop-opacity="0.1"/>
</linearGradient>
<linearGradient id="paint2_linear" x1="35811.8" y1="255133" x2="35811.8" y2="65918.8" gradientUnits="userSpaceOnUse">
<stop stop-color="#808080" stop-opacity="0.25"/>
<stop offset="0.54" stop-color="#808080" stop-opacity="0.12"/>
<stop offset="1" stop-color="#808080" stop-opacity="0.1"/>
</linearGradient>
<linearGradient id="paint3_linear" x1="-33320.1" y1="35986" x2="-33320.1" y2="23368.9" gradientUnits="userSpaceOnUse">
<stop stop-color="#808080" stop-opacity="0.25"/>
<stop offset="0.54" stop-color="#808080" stop-opacity="0.12"/>
<stop offset="1" stop-color="#808080" stop-opacity="0.1"/>
</linearGradient>
</defs>
</svg>
