<svg width="608" height="460" viewBox="0 0 608 460" fill="none" xmlns="http://www.w3.org/2000/svg">
<path d="M559.623 116.395C490.679 20.4555 345.037 -18.4616 201.803 23.453C126.079 45.612 53.0677 90.0109 16.885 175.981C-47.7956 329.663 88.0094 378.745 176.811 394.388C219.751 401.953 260.193 414.659 297.149 431.958C363.636 463.081 481.324 490.66 570.068 361.017C634.389 267.052 605.547 180.3 559.623 116.395Z" fill="white"/>
<path d="M107.596 0H162.266C162.87 0.00070913 163.449 0.240927 163.876 0.667959C164.303 1.09499 164.543 1.67397 164.544 2.27788V59.2138C164.543 59.8177 164.303 60.3967 163.876 60.8237C163.449 61.2508 162.87 61.491 162.266 61.4917H107.596C106.992 61.491 106.413 61.2508 105.986 60.8237C105.559 60.3967 105.319 59.8177 105.318 59.2138V2.27788C105.319 1.67397 105.559 1.09499 105.986 0.667959C106.413 0.240927 106.992 0.00070913 107.596 0ZM162.266 60.5805C162.628 60.5801 162.975 60.436 163.232 60.1798C163.488 59.9236 163.632 59.5762 163.632 59.2138V2.27788C163.632 1.91553 163.488 1.56812 163.232 1.31189C162.975 1.05567 162.628 0.911548 162.266 0.911152H107.596C107.234 0.911548 106.886 1.05567 106.63 1.31189C106.374 1.56812 106.23 1.91553 106.23 2.27788V59.2138C106.23 59.5762 106.374 59.9236 106.63 60.1798C106.886 60.436 107.234 60.5801 107.596 60.5805H162.266Z" fill="#3F3D56"/>
<path d="M150.619 49.7502C151.029 49.7502 151.423 49.5873 151.713 49.2972C152.003 49.0072 152.166 48.6139 152.166 48.2037C152.166 47.7936 152.003 47.4002 151.713 47.1102C151.423 46.8202 151.029 46.6572 150.619 46.6572H119.248C118.838 46.6572 118.444 46.8202 118.154 47.1102C117.864 47.4002 117.701 47.7936 117.701 48.2037C117.701 48.6139 117.864 49.0072 118.154 49.2972C118.444 49.5873 118.838 49.7502 119.248 49.7502H150.619Z" fill="#E6E6E6"/>
<path d="M150.619 40.6389C151.029 40.6389 151.423 40.4759 151.713 40.1859C152.003 39.8959 152.166 39.5025 152.166 39.0924C152.166 38.6822 152.003 38.2889 151.713 37.9989C151.423 37.7088 151.029 37.5459 150.619 37.5459H119.248C118.838 37.5459 118.444 37.7088 118.154 37.9989C117.864 38.2889 117.701 38.6822 117.701 39.0924C117.701 39.5025 117.864 39.8959 118.154 40.1859C118.444 40.4759 118.838 40.6389 119.248 40.6389H150.619Z" fill="#E6E6E6"/>
<path d="M134.932 11.7412C136.857 11.7412 138.739 12.3121 140.34 13.3818C141.941 14.4514 143.188 15.9717 143.925 17.7504C144.662 19.5291 144.855 21.4864 144.479 23.3747C144.103 25.263 143.176 26.9975 141.815 28.3589C140.454 29.7202 138.719 30.6473 136.831 31.023C134.942 31.3986 132.985 31.2058 131.206 30.469C129.428 29.7322 127.907 28.4845 126.838 26.8837C125.768 25.2829 125.197 23.4009 125.197 21.4756C125.2 18.8948 126.227 16.4205 128.052 14.5956C129.877 12.7707 132.351 11.7441 134.932 11.7412Z" fill="#E0B581"/>
<path d="M485.643 96.1426H377.092C376.488 96.1419 375.909 95.9017 375.482 95.4746C375.055 95.0476 374.815 94.4686 374.814 93.8647V37.3844C374.815 36.7804 375.055 36.2015 375.482 35.7744C375.909 35.3474 376.488 35.1072 377.092 35.1064H485.643C486.246 35.1072 486.825 35.3474 487.252 35.7744C487.68 36.2014 487.92 36.7804 487.92 37.3843V93.8647C487.92 94.4686 487.68 95.0476 487.253 95.4746C486.825 95.9017 486.246 96.1419 485.643 96.1426ZM377.092 36.0176C376.73 36.018 376.383 36.1621 376.126 36.4184C375.87 36.6746 375.726 37.022 375.726 37.3843V93.8647C375.726 94.227 375.87 94.5745 376.126 94.8307C376.383 95.0869 376.73 95.231 377.092 95.2314H485.643C486.005 95.231 486.352 95.0869 486.609 94.8307C486.865 94.5745 487.009 94.227 487.009 93.8647V37.3843C487.009 37.022 486.865 36.6746 486.609 36.4184C486.352 36.1621 486.005 36.018 485.643 36.0176H377.092Z" fill="#3F3D56"/>
<path d="M395.294 64.3937C400.419 64.3937 404.573 60.2394 404.573 55.1148C404.573 49.9902 400.419 45.8359 395.294 45.8359C390.17 45.8359 386.016 49.9902 386.016 55.1148C386.016 60.2394 390.17 64.3937 395.294 64.3937Z" fill="#E0B581"/>
<path d="M416.723 48.9282C416.52 48.9279 416.318 48.9676 416.13 49.0451C415.943 49.1227 415.772 49.2365 415.628 49.3802C415.484 49.5238 415.37 49.6944 415.292 49.8822C415.214 50.07 415.174 50.2714 415.174 50.4747C415.174 50.678 415.214 50.8794 415.292 51.0672C415.37 51.255 415.484 51.4256 415.628 51.5692C415.772 51.7129 415.943 51.8267 416.13 51.9043C416.318 51.9818 416.52 52.0216 416.723 52.0212H475.173C475.583 52.0212 475.977 51.8583 476.267 51.5682C476.557 51.2782 476.72 50.8849 476.72 50.4747C476.72 50.0645 476.557 49.6712 476.267 49.3812C475.977 49.0912 475.583 48.9282 475.173 48.9282H416.723Z" fill="#E6E6E6"/>
<path d="M416.723 58.208C416.52 58.2076 416.318 58.2474 416.13 58.3249C415.943 58.4025 415.772 58.5163 415.628 58.66C415.484 58.8036 415.37 58.9742 415.292 59.162C415.214 59.3498 415.174 59.5512 415.174 59.7545C415.174 59.9578 415.214 60.1591 415.292 60.347C415.37 60.5348 415.484 60.7054 415.628 60.849C415.772 60.9927 415.943 61.1065 416.13 61.1841C416.318 61.2616 416.52 61.3013 416.723 61.301H448.095C448.505 61.301 448.898 61.138 449.188 60.848C449.478 60.558 449.641 60.1646 449.641 59.7545C449.641 59.3443 449.478 58.951 449.188 58.661C448.898 58.3709 448.505 58.208 448.095 58.208H416.723Z" fill="#E6E6E6"/>
<path d="M388.177 73.0415C387 73.0415 386.043 73.7353 386.043 74.588C386.043 75.4406 387 76.1345 388.177 76.1345H474.308C475.485 76.1345 476.442 75.4406 476.442 74.588C476.442 73.7353 475.485 73.0415 474.308 73.0415H388.177Z" fill="#E6E6E6"/>
<path d="M388.177 82.3208C387 82.3208 386.043 83.0147 386.043 83.8673C386.043 84.7199 387 85.4138 388.177 85.4138H474.308C475.485 85.4138 476.442 84.7199 476.442 83.8673C476.442 83.0147 475.485 82.3208 474.308 82.3208H388.177Z" fill="#E6E6E6"/>
<path d="M261.859 294.759H210.574L222.643 273.855C222.86 273.48 223.171 273.169 223.545 272.953C223.92 272.736 224.345 272.623 224.778 272.623C225.21 272.623 225.635 272.736 226.01 272.953C226.385 273.169 226.696 273.48 226.912 273.855L232.068 282.785L240.834 267.601C241.105 267.132 241.495 266.742 241.964 266.472C242.433 266.201 242.965 266.058 243.507 266.058C244.048 266.058 244.58 266.201 245.049 266.472C245.518 266.742 245.908 267.132 246.179 267.601L261.859 294.759Z" fill="#E0B581"/>
<path d="M261.908 294.754H207.239C206.635 294.753 206.056 294.513 205.629 294.086C205.202 293.659 204.962 293.08 204.961 292.476V261.963C204.962 261.36 205.202 260.781 205.629 260.354C206.056 259.926 206.635 259.686 207.239 259.686H261.908C262.512 259.686 263.091 259.926 263.518 260.354C263.945 260.781 264.185 261.36 264.186 261.963V292.476C264.185 293.08 263.945 293.659 263.518 294.086C263.091 294.513 262.512 294.753 261.908 294.754ZM207.239 260.597C206.876 260.597 206.529 260.741 206.273 260.997C206.017 261.254 205.872 261.601 205.872 261.963V292.476C205.872 292.838 206.017 293.186 206.273 293.442C206.529 293.698 206.876 293.842 207.239 293.843H261.908C262.271 293.842 262.618 293.698 262.874 293.442C263.13 293.186 263.275 292.838 263.275 292.476V261.963C263.275 261.601 263.13 261.254 262.874 260.997C262.618 260.741 262.271 260.597 261.908 260.597H207.239Z" fill="#3F3D56"/>
<path d="M455.484 284.962L449.557 295.227C447.442 298.891 444.213 300.604 440.865 298.017C440.068 297.402 439.413 296.622 438.946 295.73C438.479 294.838 438.21 293.856 438.157 292.851C438.105 291.845 438.27 290.84 438.642 289.905C439.014 288.969 439.584 288.125 440.312 287.43L447.706 280.377L475.963 244.938L487.713 215.232L504.024 222.771L487.662 252.82L455.484 284.962Z" fill="#FFB8B8"/>
<path d="M482.266 435.531L474.18 434.184L475.078 418.91H483.614L482.266 435.531Z" fill="#FFB8B8"/>
<path d="M560.745 420.613L552.919 423.054L546.838 409.015L554.457 405.168L560.745 420.613Z" fill="#FFB8B8"/>
<path d="M556.386 407.23L546.503 411.273L499.334 349.279L484.509 422.054L474.626 420.257C468.287 357.516 463.117 293.52 469.46 263.252L506.072 261.68L522.694 314.689L530.78 350.627L556.386 407.23Z" fill="#2F2E41"/>
<path d="M481.82 447.884C480.342 448.2 478.801 448.037 477.422 447.416L472.618 445.255C468.591 445.048 465.848 445.85 463.606 442.924C462.973 442.087 462.576 441.096 462.455 440.055C462.334 439.013 462.495 437.958 462.919 436.999C463.34 436.036 464.01 435.203 464.859 434.585C465.709 433.967 466.707 433.587 467.752 433.482L474.35 429.325L474.696 432.441C477.712 434.15 481.292 433.412 485.085 431.749L487.156 438.996C487.423 439.931 487.495 440.91 487.368 441.874C487.241 442.838 486.917 443.765 486.417 444.598C485.917 445.431 485.25 446.153 484.46 446.718C483.669 447.283 482.771 447.68 481.82 447.884Z" fill="#2F2E41"/>
<path d="M563.949 433.017C562.653 433.797 561.143 434.142 559.637 434.003L554.392 433.518C550.515 434.631 548.182 436.28 545.11 434.24C544.24 433.655 543.543 432.847 543.091 431.901C542.638 430.954 542.447 429.904 542.537 428.859C542.623 427.813 542.986 426.807 543.589 425.947C544.191 425.087 545.012 424.402 545.966 423.964L550.857 417.89L552.196 420.725C555.603 421.361 558.749 419.501 561.797 416.696L566.109 422.879C566.665 423.676 567.052 424.579 567.244 425.531C567.437 426.484 567.432 427.466 567.229 428.417C567.027 429.367 566.631 430.266 566.067 431.057C565.502 431.849 564.781 432.516 563.949 433.017Z" fill="#2F2E41"/>
<path d="M492.6 197.89C501.532 197.89 508.772 190.65 508.772 181.718C508.772 172.786 501.532 165.546 492.6 165.546C483.668 165.546 476.428 172.786 476.428 181.718C476.428 190.65 483.668 197.89 492.6 197.89Z" fill="#FFB8B8"/>
<path d="M512.364 215.859L491.25 211.367L488.555 193.847L503.379 190.703L512.364 215.859Z" fill="#FFB8B8"/>
<path d="M506.524 263.927H468.789L477.295 242.572C476.677 235.224 479.791 229.82 484.248 225.115L489.903 210.918C499.039 204.904 505.928 205.354 513.263 213.164C521.959 225.477 515.939 243.987 506.524 263.927Z" fill="#E0B581"/>
<path d="M489.453 309.298L488.38 321.103C487.997 325.316 485.784 328.226 481.66 327.283C480.678 327.059 479.757 326.625 478.959 326.011C478.16 325.398 477.504 324.619 477.035 323.729C476.565 322.838 476.294 321.857 476.239 320.851C476.184 319.846 476.347 318.841 476.717 317.904L480.468 308.4L491.25 264.376L489.453 232.48H507.422L505.176 266.622L489.453 309.298Z" fill="#FFB8B8"/>
<path d="M508.772 233.379H488.107L489.556 219.899C489.651 217.568 490.615 215.356 492.257 213.699C493.899 212.041 496.102 211.057 498.433 210.941C499.668 210.879 500.903 211.063 502.066 211.482C503.229 211.9 504.298 212.546 505.211 213.38C506.123 214.215 506.861 215.222 507.382 216.343C507.902 217.465 508.195 218.679 508.244 219.914L508.772 233.379Z" fill="#E0B581"/>
<path d="M512.614 165.089C515.971 165.089 518.693 162.367 518.693 159.01C518.693 155.653 515.971 152.932 512.614 152.932C509.257 152.932 506.535 155.653 506.535 159.01C506.535 162.367 509.257 165.089 512.614 165.089Z" fill="#2F2E41"/>
<path d="M506.351 157.522C506.451 155.98 507.135 154.534 508.264 153.478C509.393 152.423 510.882 151.837 512.427 151.841C512.301 151.825 512.177 151.806 512.049 151.797C510.441 151.695 508.858 152.235 507.648 153.3C506.438 154.364 505.7 155.866 505.597 157.474C505.493 159.082 506.033 160.666 507.096 161.876C508.16 163.087 509.661 163.825 511.269 163.93C511.397 163.938 511.523 163.935 511.649 163.935C510.116 163.741 508.715 162.969 507.73 161.778C506.746 160.587 506.253 159.065 506.351 157.522Z" fill="#2F2E41"/>
<path d="M506.315 160.118C500.893 155.621 485.344 161.337 484.34 164.361C477.009 165.36 471.459 169.637 471.459 177.242V177.242C475.817 179.028 480.774 178.807 486.133 177.242C494.675 184.203 495.26 192.954 490.066 203.005L496.457 203.133L504.378 191.555L504.757 203.299L519.407 203.005V186.175C519.454 180.579 518.166 175.053 515.65 170.055C513.367 165.619 509.824 163.03 506.315 160.118Z" fill="#2F2E41"/>
<path d="M492.674 189.853C494.28 189.853 495.581 188.031 495.581 185.783C495.581 183.535 494.28 181.713 492.674 181.713C491.069 181.713 489.768 183.535 489.768 185.783C489.768 188.031 491.069 189.853 492.674 189.853Z" fill="#FFB8B8"/>
<path d="M159.113 222.637C159.113 222.637 160.727 194.711 169.102 201.057C177.478 207.402 165.445 225.226 165.445 225.226L159.113 222.637Z" fill="#A0616A"/>
<path d="M127.953 305.47C127.953 305.47 146.558 326.357 136.149 327.792C125.739 329.228 121.645 308.115 121.645 308.115L127.953 305.47Z" fill="#A0616A"/>
<path d="M103.674 206.601C106.01 207.215 108.111 208.506 109.715 210.311C111.319 212.116 112.354 214.355 112.69 216.746L118.608 258.869L126.905 292.47C126.905 292.47 131.053 296.204 129.394 298.278C127.735 300.352 131.468 309.063 131.468 309.063L121.097 312.382C121.097 312.382 119.853 303.671 117.779 303.256C115.956 302.891 95.5507 248.382 90.6322 235.176C89.9541 233.356 89.5703 232.32 89.5703 232.32C89.5703 232.32 90.4 204.527 103.674 206.601Z" fill="#575A89"/>
<path d="M105.567 426.271L111.937 437.559C116.87 448.091 112.487 450.004 100.392 444.783L97.6348 431.454L105.567 426.271Z" fill="#A0616A"/>
<path d="M108.783 441.273C108.783 441.273 111.807 436.349 112.9 437.174C113.994 437.998 118.505 441.568 118.505 441.568L124.381 447.197C124.381 447.197 144.234 449.295 131.619 456.251C119.004 463.207 112.033 457.44 112.033 457.44C112.033 457.44 94.3649 458.358 94.6499 453.429C94.9349 448.5 100.633 440.701 100.633 440.701C100.633 440.701 107.815 445.516 108.783 441.273Z" fill="#2F2E41"/>
<path d="M77.3008 298.671L83.2727 370.931C83.2727 370.931 83.4717 414.127 89.8417 422.488C96.2117 430.848 96.4107 435.029 96.4107 435.029L109.549 428.26C109.549 428.26 102.781 416.983 104.174 415.256C105.033 414.161 105.644 412.893 105.966 411.539L102.383 366.95L109.151 289.315L77.3008 298.671Z" fill="#2F2E41"/>
<path d="M93.6243 426.27L88.0506 441L75.4102 435.716L82.0789 424.677L93.6243 426.27Z" fill="#A0616A"/>
<path d="M84.325 436.039C84.325 436.039 89.0658 433.076 89.6585 434.261C90.2511 435.446 92.6215 440.483 92.6215 440.483L95.2882 447.891C95.2882 447.891 111.585 458.261 97.6586 458.854C83.7324 459.446 80.1768 451.446 80.1768 451.446C80.1768 451.446 64.4729 444.631 66.8433 440.483C69.2137 436.335 77.5101 432.033 77.5101 432.033C77.5101 432.033 81.6583 439.298 84.325 436.039Z" fill="#2F2E41"/>
<path d="M127.862 298.871L131.047 365.357C131.047 365.357 101.984 425.474 98.7994 427.066C97.8504 427.556 97.0091 428.231 96.3253 429.052C95.6415 429.873 95.1291 430.822 94.8182 431.844L77.3008 427.464L85.2633 414.724L102.781 372.125C102.781 372.125 105.568 370.931 106.364 366.95C107.16 362.968 108.753 362.968 104.771 362.172C100.79 361.376 100.79 357.395 100.79 357.395L87.652 296.88L127.862 298.871Z" fill="#2F2E41"/>
<path d="M129.249 181.188C130.658 172.507 124.762 164.327 116.081 162.918C107.399 161.509 99.2195 167.405 97.8107 176.086C96.4018 184.768 102.298 192.948 110.979 194.357C119.661 195.765 127.84 189.87 129.249 181.188Z" fill="#A0616A"/>
<path d="M99.3967 179.632C99.3967 179.632 98.2023 199.937 96.6099 201.927C95.0174 203.918 113.331 203.52 113.331 203.52C113.331 203.52 112.137 186.4 113.331 184.808C114.525 183.215 99.3967 179.632 99.3967 179.632Z" fill="#A0616A"/>
<path d="M129.056 303.25C129.056 303.25 84.0675 299.269 75.709 303.25C75.709 303.25 78.786 291.835 77.9909 290.642C77.4127 289.77 79.008 257.255 78.5072 238.499C78.2232 227.915 75.7813 217.579 82.88 209.722C85.2962 207.053 87.9911 204.812 90.8358 203.717C90.8358 203.717 90.0407 196.154 94.0212 195.757C94.0212 195.757 109.153 194.161 114.724 198.942C116.505 200.46 117.625 205.086 117.744 209.071C114.987 222.629 115.963 237.673 118.493 253.28C118.647 254.271 118.818 255.267 118.988 256.264C121.673 271.742 125.731 287.7 129.056 303.25Z" fill="#575A89"/>
<path d="M105.21 183.33C106.557 183.249 107.872 183.704 109.209 183.882C113.994 184.517 118.972 181.045 120.028 176.335C120.113 175.708 120.3 175.099 120.582 174.532C121.318 173.33 122.995 173.101 124.378 173.377C125.761 173.653 127.071 174.301 128.479 174.374C130.653 174.488 132.74 173.15 133.899 171.307C134.994 169.406 135.459 167.207 135.229 165.025L134.187 166.118C133.763 165.223 133.6 164.226 133.715 163.241C133.163 163.094 132.582 163.092 132.028 163.233C131.475 163.375 130.966 163.656 130.553 164.051C129.634 164.148 130.327 162.346 129.645 161.723C129.313 161.519 128.917 161.445 128.533 161.515C126.578 161.534 124.997 160.039 123.456 158.835C120.787 156.754 117.666 155.33 114.344 154.679C112.137 154.248 109.789 154.179 107.696 155.001C106.005 155.76 104.48 156.842 103.206 158.186C99.9278 161.338 97.0254 165.041 95.6618 169.379C94.5532 172.932 94.5218 176.734 95.5715 180.305C96.121 182.159 97.7769 188.51 100.201 188.658C103.247 188.844 101.418 183.556 105.21 183.33Z" fill="#2F2E41"/>
<path d="M111.803 208.556L117.508 209.167C117.508 209.167 123.109 220.033 122.702 222.299C122.295 224.565 121.409 223.189 123.93 226.816C126.451 230.442 133.604 239.814 134.49 241.19C135.375 242.566 159.523 224.142 158.022 218.622C158.022 218.622 165.648 224.093 168.916 224.821C168.916 224.821 144.03 257.459 140.562 261.636C137.094 265.813 134.303 264.955 129.537 262.479C124.771 260.002 100.66 235.3 100.66 235.3L111.803 208.556Z" fill="#575A89"/>
<path opacity="0.1" d="M118.988 256.264L99.1582 236.434L104.176 234.797L118.493 253.28C118.648 254.271 118.818 255.268 118.988 256.264Z" fill="black"/>
<path d="M165.723 133.198L168.305 136.296L170.112 137.07L172.693 137.586H178.372L180.437 139.393L180.953 141.975L181.212 163.916V166.756L182.76 167.272L184.051 166.756L190.504 159.786L209.865 138.361L212.188 137.586H253.748H319.057L347.968 137.844L351.84 136.554L354.421 133.714L355.196 130.617V89.0566V81.0543L354.421 78.7311L352.356 75.6335L348.226 74.3428H340.224H181.212H171.402L167.53 76.1497L165.207 80.0218V96.2844V112.031V129.326L165.723 133.198Z" fill="white"/>
<path d="M182.843 167.854C182.553 167.854 182.265 167.799 181.994 167.694C181.557 167.526 181.181 167.228 180.916 166.841C180.651 166.454 180.511 165.996 180.513 165.527V141.245C180.512 140.423 180.185 139.635 179.604 139.054C179.023 138.473 178.235 138.146 177.413 138.145H172.44C170.386 138.143 168.416 137.326 166.964 135.873C165.511 134.42 164.694 132.451 164.691 130.396V81.576C164.694 79.5216 165.511 77.552 166.964 76.0993C168.416 74.6466 170.386 73.8295 172.44 73.8271H347.832C349.886 73.8295 351.856 74.6466 353.308 76.0993C354.761 77.552 355.578 79.5216 355.58 81.576V130.396C355.578 132.451 354.761 134.42 353.308 135.873C351.856 137.326 349.886 138.143 347.832 138.145H212.454C212.025 138.146 211.6 138.235 211.206 138.408C210.813 138.581 210.46 138.834 210.169 139.15L184.551 167.098C184.334 167.336 184.071 167.526 183.777 167.656C183.483 167.786 183.165 167.854 182.843 167.854ZM172.44 74.8597C170.66 74.8617 168.952 75.57 167.693 76.8291C166.434 78.0882 165.726 79.7954 165.724 81.576V130.396C165.726 132.177 166.434 133.884 167.693 135.143C168.952 136.402 170.66 137.111 172.44 137.113H177.413C178.508 137.114 179.559 137.55 180.334 138.324C181.108 139.099 181.544 140.15 181.545 141.245V165.527C181.545 165.788 181.624 166.042 181.771 166.257C181.918 166.471 182.126 166.637 182.369 166.731C182.612 166.826 182.877 166.844 183.13 166.785C183.384 166.726 183.614 166.592 183.79 166.4L209.408 138.453C209.796 138.031 210.266 137.694 210.791 137.463C211.315 137.233 211.882 137.113 212.454 137.113H347.832C349.612 137.111 351.319 136.402 352.579 135.143C353.838 133.884 354.546 132.177 354.548 130.396V81.576C354.546 79.7954 353.838 78.0882 352.579 76.8291C351.319 75.57 349.612 74.8617 347.832 74.8597H172.44Z" fill="#3F3D56"/>
<path d="M183.699 95.8146C187.443 95.8146 190.479 92.7788 190.479 89.034C190.479 85.2892 187.443 82.2534 183.699 82.2534C179.954 82.2534 176.918 85.2892 176.918 89.034C176.918 92.7788 179.954 95.8146 183.699 95.8146Z" fill="#E0B581"/>
<path d="M339.921 126.553H180.351C179.876 126.554 179.405 126.461 178.966 126.279C178.527 126.098 178.127 125.832 177.791 125.496C177.455 125.16 177.188 124.761 177.006 124.322C176.824 123.883 176.73 123.412 176.73 122.937C176.73 122.462 176.824 121.991 177.006 121.552C177.188 121.113 177.455 120.714 177.791 120.378C178.127 120.043 178.527 119.776 178.966 119.595C179.405 119.413 179.876 119.32 180.351 119.321H339.921C340.396 119.32 340.867 119.413 341.306 119.595C341.745 119.776 342.145 120.043 342.481 120.378C342.817 120.714 343.084 121.113 343.266 121.552C343.448 121.991 343.542 122.462 343.542 122.937C343.542 123.412 343.448 123.883 343.266 124.322C343.084 124.761 342.817 125.16 342.481 125.496C342.145 125.832 341.745 126.098 341.306 126.279C340.867 126.461 340.396 126.554 339.921 126.553Z" fill="#3F3D56"/>
<path d="M287.936 111.184H180.351C179.876 111.185 179.405 111.092 178.966 110.91C178.527 110.729 178.127 110.462 177.791 110.127C177.455 109.791 177.188 109.392 177.006 108.953C176.824 108.514 176.73 108.043 176.73 107.568C176.73 107.093 176.824 106.622 177.006 106.183C177.188 105.744 177.455 105.345 177.791 105.009C178.127 104.673 178.527 104.407 178.966 104.226C179.405 104.044 179.876 103.951 180.351 103.952H287.936C288.412 103.951 288.882 104.044 289.322 104.226C289.761 104.407 290.16 104.673 290.496 105.009C290.833 105.345 291.099 105.744 291.281 106.183C291.463 106.622 291.557 107.093 291.557 107.568C291.557 108.043 291.463 108.514 291.281 108.953C291.099 109.392 290.833 109.791 290.496 110.127C290.16 110.462 289.761 110.729 289.322 110.91C288.882 111.092 288.412 111.185 287.936 111.184Z" fill="#3F3D56"/>
<path d="M450.056 219.298L447.475 222.395L445.668 223.17L443.086 223.686H437.407L435.342 225.493L434.826 228.074L434.568 250.016V252.855L433.019 253.372L431.728 252.855L425.275 245.886L405.915 224.46L403.591 223.686H362.031H296.723L267.811 223.944L263.939 222.653L261.358 219.814L260.584 216.716V175.156V167.154L261.358 164.831L263.423 161.733L267.553 160.442H275.555H434.568H444.377L448.249 162.249L450.572 166.121V182.384V198.13V215.426L450.056 219.298Z" fill="white"/>
<path d="M432.94 254.072C432.618 254.071 432.301 254.004 432.007 253.874C431.713 253.744 431.449 253.554 431.233 253.316L405.614 225.368C405.324 225.052 404.97 224.799 404.577 224.626C404.184 224.453 403.759 224.363 403.329 224.363H267.952C265.898 224.361 263.928 223.543 262.475 222.091C261.023 220.638 260.205 218.668 260.203 216.614V167.794C260.205 165.739 261.023 163.77 262.475 162.317C263.928 160.864 265.898 160.047 267.952 160.045H443.343C445.398 160.047 447.367 160.864 448.82 162.317C450.273 163.77 451.09 165.739 451.092 167.794V216.614C451.09 218.668 450.273 220.638 448.82 222.091C447.367 223.543 445.398 224.361 443.343 224.363H438.371C437.549 224.364 436.761 224.691 436.18 225.272C435.599 225.853 435.272 226.641 435.271 227.463V251.745C435.273 252.214 435.132 252.672 434.867 253.059C434.603 253.446 434.227 253.743 433.789 253.911C433.518 254.017 433.23 254.071 432.94 254.072ZM267.952 161.077C266.171 161.079 264.464 161.788 263.205 163.047C261.946 164.306 261.238 166.013 261.236 167.794V216.614C261.238 218.395 261.946 220.102 263.205 221.361C264.464 222.62 266.171 223.328 267.952 223.33H403.329C403.902 223.331 404.468 223.45 404.993 223.681C405.517 223.912 405.988 224.249 406.375 224.67L431.994 252.618C432.17 252.81 432.4 252.944 432.653 253.003C432.907 253.062 433.172 253.043 433.415 252.949C433.657 252.855 433.866 252.689 434.013 252.474C434.16 252.26 434.238 252.005 434.238 251.745V227.463C434.239 226.367 434.675 225.317 435.45 224.542C436.225 223.767 437.275 223.332 438.371 223.33H443.343C445.124 223.328 446.831 222.62 448.09 221.361C449.349 220.102 450.058 218.395 450.06 216.614V167.794C450.058 166.013 449.349 164.306 448.09 163.047C446.831 161.788 445.124 161.079 443.343 161.077L267.952 161.077Z" fill="#3F3D56"/>
<path d="M279.208 181.582C282.953 181.582 285.989 178.546 285.989 174.801C285.989 171.056 282.953 168.021 279.208 168.021C275.464 168.021 272.428 171.056 272.428 174.801C272.428 178.546 275.464 181.582 279.208 181.582Z" fill="#3F3D56"/>
<path d="M435.43 212.32H275.86C274.901 212.32 273.982 211.939 273.303 211.26C272.625 210.582 272.244 209.662 272.244 208.703C272.244 207.744 272.625 206.824 273.303 206.146C273.982 205.468 274.901 205.087 275.86 205.087H435.43C436.389 205.087 437.309 205.468 437.987 206.146C438.666 206.824 439.047 207.744 439.047 208.703C439.047 209.662 438.666 210.582 437.987 211.26C437.309 211.939 436.389 212.32 435.43 212.32Z" fill="#E0B581"/>
<path d="M383.448 196.95H275.863C275.388 196.951 274.917 196.858 274.478 196.676C274.038 196.495 273.639 196.229 273.303 195.893C272.967 195.557 272.7 195.158 272.518 194.719C272.336 194.28 272.242 193.809 272.242 193.334C272.242 192.859 272.336 192.388 272.518 191.949C272.7 191.51 272.967 191.111 273.303 190.775C273.639 190.44 274.038 190.173 274.478 189.992C274.917 189.81 275.388 189.717 275.863 189.718H383.448C383.923 189.717 384.394 189.81 384.833 189.992C385.273 190.173 385.672 190.44 386.008 190.775C386.344 191.111 386.611 191.51 386.793 191.949C386.975 192.388 387.069 192.859 387.069 193.334C387.069 193.809 386.975 194.28 386.793 194.719C386.611 195.158 386.344 195.557 386.008 195.893C385.672 196.229 385.273 196.495 384.833 196.676C384.394 196.858 383.923 196.951 383.448 196.95Z" fill="#E0B581"/>
<path d="M209.092 459.484C209.092 459.621 209.037 459.752 208.941 459.849C208.844 459.945 208.713 460 208.576 460H11.8756C11.7387 460 11.6074 459.946 11.5106 459.849C11.4138 459.752 11.3594 459.621 11.3594 459.484C11.3594 459.347 11.4138 459.216 11.5106 459.119C11.6074 459.022 11.7387 458.968 11.8756 458.968H208.576C208.713 458.968 208.844 459.023 208.941 459.119C209.037 459.216 209.092 459.347 209.092 459.484Z" fill="#3F3D56"/>
<path d="M596.813 446.061C596.813 446.198 596.758 446.329 596.661 446.425C596.565 446.522 596.433 446.577 596.297 446.577H399.596C399.459 446.577 399.328 446.523 399.231 446.426C399.134 446.329 399.08 446.198 399.08 446.061C399.08 445.924 399.134 445.792 399.231 445.696C399.328 445.599 399.459 445.544 399.596 445.544H596.297C596.433 445.545 596.565 445.599 596.661 445.696C596.758 445.793 596.813 445.924 596.813 446.061Z" fill="#3F3D56"/>
</svg>
