<svg width="1360" height="160" viewBox="0 0 1360 160" fill="none" xmlns="http://www.w3.org/2000/svg">
<g clip-path="url(#clip0)">
<rect width="1360" height="160" fill="#18313E"/>
<path d="M572.792 96.672C570.056 96.672 567.672 96.024 565.64 94.728C563.624 93.416 562.056 91.544 560.936 89.112C559.816 86.68 559.256 83.76 559.256 80.352C559.256 76.832 559.832 73.88 560.984 71.496C562.152 69.096 563.752 67.288 565.784 66.072C567.832 64.84 570.168 64.224 572.792 64.224C576.424 64.224 579.256 65.104 581.288 66.864C583.336 68.624 584.648 70.912 585.224 73.728L579.176 74.832C578.68 73.2 577.888 71.88 576.8 70.872C575.712 69.864 574.376 69.36 572.792 69.36C571.4 69.36 570.144 69.768 569.024 70.584C567.904 71.384 567.008 72.6 566.336 74.232C565.68 75.864 565.352 77.904 565.352 80.352C565.352 82.656 565.64 84.64 566.216 86.304C566.808 87.968 567.656 89.248 568.76 90.144C569.864 91.04 571.208 91.488 572.792 91.488C574.824 91.488 576.392 90.952 577.496 89.88C578.616 88.792 579.176 87.408 579.176 85.728H585.224C585.224 88.048 584.72 90.024 583.712 91.656C582.72 93.272 581.296 94.512 579.44 95.376C577.584 96.24 575.368 96.672 572.792 96.672ZM601.054 96.672C598.926 96.672 596.998 96.216 595.27 95.304C593.558 94.392 592.198 93.032 591.19 91.224C590.182 89.4 589.678 87.12 589.678 84.384C589.678 81.6 590.182 79.296 591.19 77.472C592.198 75.648 593.558 74.288 595.27 73.392C596.998 72.496 598.926 72.048 601.054 72.048C603.15 72.048 605.046 72.496 606.742 73.392C608.454 74.288 609.814 75.648 610.822 77.472C611.83 79.296 612.334 81.6 612.334 84.384C612.334 87.12 611.83 89.4 610.822 91.224C609.814 93.032 608.454 94.392 606.742 95.304C605.046 96.216 603.15 96.672 601.054 96.672ZM600.862 91.728C601.982 91.728 602.974 91.456 603.838 90.912C604.718 90.352 605.406 89.528 605.902 88.44C606.414 87.352 606.67 86 606.67 84.384C606.67 81.92 606.182 80.064 605.206 78.816C604.246 77.568 602.926 76.944 601.246 76.944C600.11 76.944 599.102 77.224 598.222 77.784C597.342 78.328 596.646 79.152 596.134 80.256C595.638 81.36 595.39 82.736 595.39 84.384C595.39 86.816 595.878 88.648 596.854 89.88C597.846 91.112 599.182 91.728 600.862 91.728ZM635.057 96V82.368C635.057 80.64 634.641 79.336 633.809 78.456C632.977 77.576 631.889 77.136 630.545 77.136C629.409 77.136 628.401 77.448 627.521 78.072C626.657 78.696 625.977 79.64 625.481 80.904C624.985 82.152 624.737 83.712 624.737 85.584H622.865C622.865 82.56 623.241 80.048 623.993 78.048C624.745 76.032 625.809 74.528 627.185 73.536C628.561 72.544 630.177 72.048 632.033 72.048C633.953 72.048 635.553 72.48 636.833 73.344C638.129 74.192 639.097 75.392 639.737 76.944C640.393 78.496 640.721 80.304 640.721 82.368V96H635.057ZM619.073 96V72.72H624.017L624.737 77.328V96H619.073ZM656.852 96.672C655.476 96.672 654.212 96.416 653.06 95.904C651.924 95.392 651.012 94.608 650.324 93.552C649.652 92.496 649.316 91.152 649.316 89.52V66.528H654.98V89.328C654.98 91.248 655.892 92.208 657.716 92.208C658.276 92.208 658.836 92.144 659.396 92.016C659.956 91.888 660.596 91.696 661.316 91.44L662.132 95.424C661.236 95.776 660.364 96.072 659.516 96.312C658.668 96.552 657.78 96.672 656.852 96.672ZM646.052 76.464V72.72H661.316V76.464H646.052ZM682.749 96L682.029 90.336V80.976C682.029 79.344 681.693 78.136 681.021 77.352C680.365 76.568 679.245 76.176 677.661 76.176C676.749 76.176 675.957 76.312 675.285 76.584C674.613 76.856 674.093 77.248 673.725 77.76C673.373 78.256 673.197 78.864 673.197 79.584H667.005C667.005 77.824 667.429 76.392 668.277 75.288C669.125 74.168 670.341 73.352 671.925 72.84C673.525 72.312 675.437 72.048 677.661 72.048C679.677 72.048 681.437 72.376 682.941 73.032C684.445 73.672 685.613 74.664 686.445 76.008C687.277 77.352 687.693 79.072 687.693 81.168V96H682.749ZM675.117 96.672C673.117 96.672 671.445 96.328 670.101 95.64C668.773 94.936 667.773 94.016 667.101 92.88C666.429 91.744 666.093 90.512 666.093 89.184C666.093 87.712 666.477 86.48 667.245 85.488C668.029 84.48 669.133 83.728 670.557 83.232C671.981 82.72 673.661 82.464 675.597 82.464C676.861 82.464 678.053 82.56 679.173 82.752C680.309 82.944 681.437 83.2 682.557 83.52V86.832C681.677 86.544 680.717 86.32 679.677 86.16C678.637 86 677.661 85.92 676.749 85.92C675.405 85.92 674.301 86.168 673.437 86.664C672.573 87.16 672.141 88 672.141 89.184C672.141 90.048 672.493 90.792 673.197 91.416C673.901 92.04 675.021 92.352 676.557 92.352C677.725 92.352 678.717 92.096 679.533 91.584C680.349 91.072 680.965 90.432 681.381 89.664C681.813 88.896 682.029 88.128 682.029 87.36H683.373C683.373 89.04 683.061 90.592 682.437 92.016C681.813 93.424 680.885 94.552 679.653 95.4C678.437 96.248 676.925 96.672 675.117 96.672ZM704.827 96.672C702.875 96.672 701.059 96.168 699.379 95.16C697.715 94.136 696.363 92.704 695.323 90.864C694.299 89.008 693.787 86.832 693.787 84.336C693.787 81.696 694.299 79.464 695.323 77.64C696.363 75.8 697.715 74.408 699.379 73.464C701.059 72.52 702.875 72.048 704.827 72.048C706.347 72.048 707.683 72.296 708.835 72.792C710.003 73.272 710.995 73.928 711.811 74.76C712.627 75.576 713.267 76.488 713.731 77.496C714.195 78.504 714.491 79.52 714.619 80.544L708.907 80.688C708.651 79.664 708.171 78.816 707.467 78.144C706.779 77.472 705.883 77.136 704.779 77.136C703.867 77.136 703.011 77.392 702.211 77.904C701.411 78.4 700.755 79.176 700.243 80.232C699.747 81.288 699.499 82.656 699.499 84.336C699.499 85.936 699.731 87.272 700.195 88.344C700.675 89.4 701.315 90.2 702.115 90.744C702.915 91.272 703.803 91.536 704.779 91.536C706.219 91.536 707.267 91.192 707.923 90.504C708.579 89.8 708.907 88.864 708.907 87.696H714.619C714.619 89.344 714.243 90.848 713.491 92.208C712.739 93.568 711.635 94.656 710.179 95.472C708.723 96.272 706.939 96.672 704.827 96.672ZM729.273 96.672C727.898 96.672 726.634 96.416 725.482 95.904C724.346 95.392 723.434 94.608 722.746 93.552C722.074 92.496 721.738 91.152 721.738 89.52V66.528H727.402V89.328C727.402 91.248 728.314 92.208 730.138 92.208C730.698 92.208 731.258 92.144 731.818 92.016C732.378 91.888 733.018 91.696 733.738 91.44L734.554 95.424C733.658 95.776 732.786 96.072 731.938 96.312C731.09 96.552 730.202 96.672 729.273 96.672ZM718.474 76.464V72.72H733.738V76.464H718.474ZM767.984 72.624H773.648V96H767.984V72.624ZM752 72.624H757.664V86.928C757.664 88.448 758.04 89.592 758.792 90.36C759.544 91.112 760.576 91.488 761.888 91.488C763.008 91.488 764.024 91.2 764.936 90.624C765.864 90.032 766.6 89.168 767.144 88.032C767.704 86.88 767.984 85.456 767.984 83.76H769.52C769.52 86.608 769.152 88.968 768.416 90.84C767.68 92.712 766.664 94.112 765.368 95.04C764.072 95.968 762.576 96.432 760.88 96.432C759.216 96.432 757.712 96.136 756.368 95.544C755.024 94.952 753.96 94 753.176 92.688C752.392 91.376 752 89.648 752 87.504V72.624ZM791.261 96.672C789.021 96.672 787.093 96.368 785.477 95.76C783.877 95.136 782.645 94.248 781.781 93.096C780.917 91.928 780.477 90.528 780.461 88.896H785.693C785.741 90.048 786.197 90.888 787.061 91.416C787.925 91.944 789.101 92.208 790.589 92.208C791.405 92.208 792.125 92.088 792.749 91.848C793.389 91.608 793.885 91.28 794.237 90.864C794.589 90.448 794.765 89.984 794.765 89.472C794.765 88.816 794.525 88.304 794.045 87.936C793.581 87.552 792.829 87.2 791.789 86.88L786.701 85.056C784.877 84.4 783.477 83.536 782.501 82.464C781.525 81.392 781.037 80.112 781.037 78.624C781.037 76.656 781.925 75.072 783.701 73.872C785.493 72.656 787.885 72.048 790.877 72.048C793.853 72.048 796.149 72.704 797.765 74.016C799.397 75.312 800.237 76.96 800.285 78.96H794.957C794.877 78.192 794.509 77.584 793.853 77.136C793.197 76.688 792.205 76.464 790.877 76.464C789.677 76.464 788.733 76.712 788.045 77.208C787.373 77.688 787.037 78.256 787.037 78.912C787.037 80.016 787.981 80.848 789.869 81.408L795.389 83.472C797.181 84.08 798.573 84.864 799.565 85.824C800.557 86.784 801.053 88 801.053 89.472C801.053 90.704 800.637 91.872 799.805 92.976C798.989 94.064 797.845 94.952 796.373 95.64C794.901 96.328 793.197 96.672 791.261 96.672Z" fill="white"/>
<path opacity="0.25" d="M1320.93 189.459C1305.41 189.459 1291.95 184.208 1280.56 173.708C1269.18 163.207 1264 149.556 1264 132.754C1264 114.903 1269.18 101.252 1279.53 90.7512C1289.88 80.2504 1303.34 75 1318.86 75C1334.39 75 1347.85 80.2504 1359.23 89.7011C1370.62 100.202 1375.8 113.853 1375.8 130.654C1375.8 147.456 1370.62 161.107 1360.27 171.607C1349.92 183.158 1336.46 189.459 1320.93 189.459Z" fill="#DEB580"/>
<path opacity="0.25" d="M1202.93 75.4589C1187.41 75.4589 1173.95 70.2085 1162.56 59.7077C1151.18 49.2068 1146 35.5558 1146 18.7545C1146 0.903099 1151.18 -12.748 1161.53 -23.2488C1171.88 -33.7496 1185.34 -39 1200.86 -39C1216.39 -39 1229.85 -33.7496 1241.23 -24.2989C1252.62 -13.798 1257.8 -0.146992 1257.8 16.6543C1257.8 33.4556 1252.62 47.1067 1242.27 57.6075C1231.92 69.1584 1218.46 75.4589 1202.93 75.4589Z" fill="#D4E6ED"/>
<path opacity="0.25" d="M21.25 180C10 180 0.25 176.147 -8 168.44C-16.25 160.734 -20 150.716 -20 138.385C-20 125.284 -16.25 115.266 -8.75 107.56C-1.25 99.8532 8.49999 96 19.75 96C31 96 40.75 99.8532 49 106.789C57.25 114.495 61 124.514 61 136.844C61 149.174 57.25 159.193 49.75 166.899C42.25 175.376 33.25 180 21.25 180Z" fill="white"/>
</g>
<defs>
<clipPath id="clip0">
<rect width="1360" height="160" fill="white"/>
</clipPath>
</defs>
</svg>
