<svg width="301" height="226" viewBox="0 0 301 226" fill="none" xmlns="http://www.w3.org/2000/svg">
<path opacity="0.1" d="M219.754 0.950934C205.664 0.344994 191.33 0.446429 177.723 3.43342C164.117 6.42041 151.177 12.5679 143.433 21.996C139 27.3934 136.354 33.7144 131.19 38.6794C122.234 47.288 107.594 50.2456 94.083 53.2139C62.3552 60.1542 30.4501 70.1829 7.43596 88.9697C4.13191 91.663 0.911969 94.7354 0.164053 98.4592C-0.983351 104.185 4.06883 109.542 9.6737 113.207C15.2786 116.872 21.9107 119.779 26.0588 124.533C31.3482 130.595 31.6456 138.606 30.1438 145.888C28.6419 153.17 25.5511 160.254 24.7371 167.616C24.5359 169.432 24.4878 171.324 25.3739 173.003C26.5484 175.229 29.1586 176.74 31.7177 178.011C40.7908 182.537 50.5811 185.819 60.7572 187.746C78.2897 191.085 96.5731 190.458 114.523 191.83C132.473 193.202 151.168 197.04 163.783 207.328C171.521 213.636 178.501 222.837 189.534 222.525C195.715 222.351 201.176 218.993 207.343 218.619C214.284 218.198 220.559 221.556 227.104 223.47C236.4 226.192 247.165 225.928 255.882 222.175C264.599 218.422 270.928 211.071 271.438 203.169C271.937 195.428 267.215 188.186 264.488 180.747C255.543 156.373 268.125 130.617 280.635 107.265C293.146 83.9139 306.056 58.3497 297.732 33.8345C288.07 5.40072 250.641 2.28026 219.754 0.950934Z" fill="#E0B581"/>
</svg>
