<svg width="1360" height="160" viewBox="0 0 1360 160" fill="none" xmlns="http://www.w3.org/2000/svg">
<g clip-path="url(#clip0)">
<rect width="1360" height="160" fill="#18313E"/>
<path d="M599.368 96.672C596.6 96.672 594.152 96.064 592.024 94.848C589.912 93.632 588.256 91.816 587.056 89.4C585.856 86.984 585.256 83.984 585.256 80.4C585.256 76.752 585.856 73.736 587.056 71.352C588.256 68.952 589.912 67.168 592.024 66C594.152 64.816 596.6 64.224 599.368 64.224C602.152 64.224 604.608 64.832 606.736 66.048C608.864 67.248 610.528 69.048 611.728 71.448C612.928 73.848 613.528 76.832 613.528 80.4C613.528 84.032 612.928 87.056 611.728 89.472C610.528 91.888 608.864 93.696 606.736 94.896C604.608 96.08 602.152 96.672 599.368 96.672ZM599.368 91.536C601.912 91.536 603.928 90.576 605.416 88.656C606.92 86.736 607.672 83.968 607.672 80.352C607.672 76.864 606.92 74.152 605.416 72.216C603.928 70.28 601.912 69.312 599.368 69.312C596.872 69.312 594.872 70.288 593.368 72.24C591.864 74.176 591.112 76.896 591.112 80.4C591.112 84 591.864 86.76 593.368 88.68C594.872 90.584 596.872 91.536 599.368 91.536ZM635.734 72.624H641.398V96H635.734V72.624ZM619.75 72.624H625.414V86.928C625.414 88.448 625.79 89.592 626.542 90.36C627.294 91.112 628.326 91.488 629.638 91.488C630.758 91.488 631.774 91.2 632.686 90.624C633.614 90.032 634.35 89.168 634.894 88.032C635.454 86.88 635.734 85.456 635.734 83.76H637.27C637.27 86.608 636.902 88.968 636.166 90.84C635.43 92.712 634.414 94.112 633.118 95.04C631.822 95.968 630.326 96.432 628.63 96.432C626.966 96.432 625.462 96.136 624.118 95.544C622.774 94.952 621.71 94 620.926 92.688C620.142 91.376 619.75 89.648 619.75 87.504V72.624ZM650.323 96V72.624H655.987V96H650.323ZM654.595 85.776C654.595 82.72 654.939 80.192 655.627 78.192C656.315 76.192 657.235 74.712 658.387 73.752C659.555 72.776 660.851 72.288 662.275 72.288C662.659 72.288 663.019 72.312 663.355 72.36C663.707 72.408 664.051 72.48 664.387 72.576L664.291 78.24C663.875 78.144 663.427 78.064 662.947 78C662.467 77.936 662.035 77.904 661.651 77.904C660.403 77.904 659.355 78.208 658.507 78.816C657.675 79.408 657.043 80.288 656.611 81.456C656.195 82.624 655.987 84.064 655.987 85.776H654.595ZM693.212 96.672C691.756 96.672 690.42 96.264 689.204 95.448C688.004 94.632 687.044 93.416 686.324 91.8C685.604 90.168 685.244 88.128 685.244 85.68H686.972C686.972 86.848 687.236 87.872 687.764 88.752C688.292 89.632 688.972 90.32 689.804 90.816C690.636 91.296 691.5 91.536 692.396 91.536C693.5 91.536 694.484 91.232 695.348 90.624C696.212 90.016 696.892 89.168 697.388 88.08C697.9 86.992 698.156 85.712 698.156 84.24C698.156 82.816 697.908 81.576 697.412 80.52C696.916 79.448 696.228 78.616 695.348 78.024C694.484 77.432 693.484 77.136 692.348 77.136C691.404 77.136 690.524 77.368 689.708 77.832C688.892 78.28 688.228 78.936 687.716 79.8C687.22 80.648 686.972 81.68 686.972 82.896H685.244C685.244 80.544 685.58 78.56 686.252 76.944C686.94 75.328 687.908 74.112 689.156 73.296C690.42 72.464 691.916 72.048 693.644 72.048C695.532 72.048 697.244 72.552 698.78 73.56C700.332 74.552 701.564 75.968 702.476 77.808C703.404 79.632 703.868 81.776 703.868 84.24C703.868 86.736 703.388 88.92 702.428 90.792C701.484 92.648 700.204 94.096 698.588 95.136C696.972 96.16 695.18 96.672 693.212 96.672ZM681.308 96V63.072H686.972V90.24L685.004 96H681.308ZM710.792 96V63.072H716.456V96H710.792ZM734.585 96.672C732.457 96.672 730.529 96.216 728.801 95.304C727.089 94.392 725.729 93.032 724.721 91.224C723.713 89.4 723.209 87.12 723.209 84.384C723.209 81.6 723.713 79.296 724.721 77.472C725.729 75.648 727.089 74.288 728.801 73.392C730.529 72.496 732.457 72.048 734.585 72.048C736.681 72.048 738.577 72.496 740.273 73.392C741.985 74.288 743.345 75.648 744.353 77.472C745.361 79.296 745.865 81.6 745.865 84.384C745.865 87.12 745.361 89.4 744.353 91.224C743.345 93.032 741.985 94.392 740.273 95.304C738.577 96.216 736.681 96.672 734.585 96.672ZM734.393 91.728C735.513 91.728 736.505 91.456 737.369 90.912C738.249 90.352 738.937 89.528 739.433 88.44C739.945 87.352 740.201 86 740.201 84.384C740.201 81.92 739.713 80.064 738.737 78.816C737.777 77.568 736.457 76.944 734.777 76.944C733.641 76.944 732.633 77.224 731.753 77.784C730.873 78.328 730.177 79.152 729.665 80.256C729.169 81.36 728.921 82.736 728.921 84.384C728.921 86.816 729.409 88.648 730.385 89.88C731.377 91.112 732.713 91.728 734.393 91.728ZM761.581 108.048C758.909 108.048 756.621 107.68 754.717 106.944C752.829 106.208 751.381 105.24 750.373 104.04C749.365 102.856 748.861 101.568 748.861 100.176C748.861 98.528 749.461 97.248 750.661 96.336C751.861 95.44 753.373 94.992 755.197 94.992L759.325 96.528C757.757 96.528 756.549 96.824 755.701 97.416C754.853 98.008 754.429 98.832 754.429 99.888C754.429 100.992 755.061 101.872 756.325 102.528C757.605 103.2 759.357 103.536 761.581 103.536C763.197 103.536 764.597 103.296 765.781 102.816C766.965 102.336 767.877 101.712 768.517 100.944C769.173 100.176 769.501 99.36 769.501 98.496C769.501 97.92 769.309 97.448 768.925 97.08C768.541 96.712 767.949 96.528 767.149 96.528H759.325C757.757 96.528 756.325 96.28 755.029 95.784C753.749 95.272 752.725 94.592 751.957 93.744C751.205 92.88 750.829 91.92 750.829 90.864C750.829 89.888 751.101 89.048 751.645 88.344C752.189 87.624 752.925 87.072 753.853 86.688C754.797 86.304 755.853 86.112 757.021 86.112L758.461 87.984C757.997 87.984 757.549 88.08 757.117 88.272C756.701 88.448 756.357 88.712 756.085 89.064C755.813 89.416 755.677 89.856 755.677 90.384C755.677 91.024 755.949 91.544 756.493 91.944C757.037 92.344 757.981 92.544 759.325 92.544H767.149C769.629 92.544 771.573 93 772.981 93.912C774.405 94.824 775.117 96.224 775.117 98.112C775.117 99.792 774.565 101.384 773.461 102.888C772.357 104.408 770.789 105.648 768.757 106.608C766.741 107.568 764.349 108.048 761.581 108.048ZM761.869 88.8C760.029 88.8 758.341 88.456 756.805 87.768C755.285 87.064 754.069 86.088 753.157 84.84C752.245 83.592 751.789 82.128 751.789 80.448C751.789 78.736 752.245 77.248 753.157 75.984C754.069 74.72 755.285 73.752 756.805 73.08C758.341 72.392 760.029 72.048 761.869 72.048C763.661 72.048 765.317 72.392 766.837 73.08C768.357 73.752 769.581 74.72 770.509 75.984C771.437 77.248 771.901 78.736 771.901 80.448C771.901 82.128 771.437 83.592 770.509 84.84C769.581 86.088 768.357 87.064 766.837 87.768C765.317 88.456 763.661 88.8 761.869 88.8ZM761.917 84.864C763.389 84.864 764.493 84.44 765.229 83.592C765.965 82.744 766.333 81.696 766.333 80.448C766.333 79.104 765.957 78.024 765.205 77.208C764.469 76.392 763.357 75.984 761.869 75.984C760.429 75.984 759.325 76.392 758.557 77.208C757.789 78.024 757.405 79.104 757.405 80.448C757.405 81.696 757.789 82.744 758.557 83.592C759.341 84.44 760.461 84.864 761.917 84.864ZM770.125 75.792L767.533 74.304C767.533 72.912 767.853 71.696 768.493 70.656C769.149 69.6 770.013 68.784 771.085 68.208C772.173 67.632 773.373 67.344 774.685 67.344L774.397 72.768C773.005 72.768 771.941 73.016 771.205 73.512C770.485 73.992 770.125 74.752 770.125 75.792Z" fill="white"/>
<path opacity="0.25" d="M1320.93 189.459C1305.41 189.459 1291.95 184.208 1280.56 173.708C1269.18 163.207 1264 149.556 1264 132.754C1264 114.903 1269.18 101.252 1279.53 90.7512C1289.88 80.2504 1303.34 75 1318.86 75C1334.39 75 1347.85 80.2504 1359.23 89.7011C1370.62 100.202 1375.8 113.853 1375.8 130.654C1375.8 147.456 1370.62 161.107 1360.27 171.607C1349.92 183.158 1336.46 189.459 1320.93 189.459Z" fill="#DEB580"/>
<path opacity="0.25" d="M1202.93 75.4589C1187.41 75.4589 1173.95 70.2085 1162.56 59.7077C1151.18 49.2068 1146 35.5558 1146 18.7545C1146 0.903099 1151.18 -12.748 1161.53 -23.2488C1171.88 -33.7496 1185.34 -39 1200.86 -39C1216.39 -39 1229.85 -33.7496 1241.23 -24.2989C1252.62 -13.798 1257.8 -0.146992 1257.8 16.6543C1257.8 33.4556 1252.62 47.1067 1242.27 57.6075C1231.92 69.1584 1218.46 75.4589 1202.93 75.4589Z" fill="#D4E6ED"/>
<path opacity="0.25" d="M21.25 180C10 180 0.25 176.147 -8 168.44C-16.25 160.734 -20 150.716 -20 138.385C-20 125.284 -16.25 115.266 -8.75 107.56C-1.25 99.8532 8.49999 96 19.75 96C31 96 40.75 99.8532 49 106.789C57.25 114.495 61 124.514 61 136.844C61 149.174 57.25 159.193 49.75 166.899C42.25 175.376 33.25 180 21.25 180Z" fill="white"/>
</g>
<defs>
<clipPath id="clip0">
<rect width="1360" height="160" fill="white"/>
</clipPath>
</defs>
</svg>
