<svg width="112" height="68" viewBox="0 0 112 68" fill="none" xmlns="http://www.w3.org/2000/svg">
<g clip-path="url(#clip0)">
<path d="M16.1999 56.2L15.3999 53.1C15.3999 52.9 15.1999 52.8 15.0999 52.7C14.8999 52.6 14.6999 52.6 14.5999 52.7C14.1999 52.9 13.7999 53 13.2999 53.1C12.8999 53.2 12.4999 53.3 12.0999 53.3C10.8999 53.3 10.1999 53 9.6999 52.4C9.2999 51.7 8.9999 50.6 8.9999 49.3V36.5H14.7999C15.1999 36.5 15.4999 36.2 15.4999 35.8V32.5C15.4999 32.1 15.1999 31.8 14.7999 31.8H8.9999V25.7C8.9999 25.3 8.6999 25 8.2999 25H4.8999C4.5999 25 4.2999 25.3 4.1999 25.6L3.6999 31.8L0.499902 32C0.199902 32 -0.100098 32.3 -0.100098 32.7V35.8C-0.100098 36.2 0.199902 36.5 0.599902 36.5H3.4999V49.2C3.4999 50.4 3.5999 51.6 3.8999 52.6C4.1999 53.7 4.5999 54.6 5.1999 55.4C5.7999 56.2 6.5999 56.8 7.5999 57.2C8.5999 57.6 9.6999 57.9 11.0999 57.9C11.8999 57.9 12.6999 57.8 13.5999 57.6C14.3999 57.4 15.1999 57.2 15.7999 57C16.0999 56.9 16.2999 56.5 16.1999 56.2Z" fill="white"/>
<path d="M35.3997 31.8C34.5997 31.4 33.5997 31.2 32.5997 31.2C31.0997 31.2 29.5997 31.7 28.3997 32.7C27.5997 33.3 26.7997 34.1 26.1997 35L25.9997 32.4C25.9997 32.1 25.6997 31.8 25.2997 31.8H21.8997C21.4997 31.8 21.1997 32.1 21.1997 32.5V56.6C21.1997 57 21.4997 57.3 21.8997 57.3H25.9997C26.3997 57.3 26.6997 57 26.6997 56.6V41.3C27.4997 39.4 28.3997 38.1 29.2997 37.4C30.2997 36.7 31.1997 36.3 32.0997 36.3C32.4997 36.3 32.8997 36.3 33.1997 36.4C33.4997 36.5 33.7997 36.6 34.1997 36.7C34.3997 36.8 34.5997 36.7 34.6997 36.6C34.8997 36.5 34.9997 36.4 34.9997 36.2L35.7997 32.6C35.7997 32.3 35.6997 32 35.3997 31.8Z" fill="white"/>
<path d="M44.6999 31.9H40.5999C40.1999 31.9 39.8999 32.2 39.8999 32.6V56.7C39.8999 57.1 40.1999 57.4 40.5999 57.4H44.6999C45.0999 57.4 45.3999 57.1 45.3999 56.7V32.5C45.2999 32.2 44.9999 31.9 44.6999 31.9Z" fill="white"/>
<path d="M57.0998 31.9H52.9998C52.5998 31.9 52.2998 32.2 52.2998 32.6V56.7C52.2998 57.1 52.5998 57.4 52.9998 57.4H57.0998C57.4998 57.4 57.7998 57.1 57.7998 56.7V32.5C57.7998 32.2 57.4998 31.9 57.0998 31.9Z" fill="white"/>
<path d="M85.7998 32.2C85.6998 32 85.4998 31.9 85.2998 31.9H81.2998C80.9998 31.9 80.7998 32.1 80.6998 32.4L76.3998 45.8C76.0998 46.9 75.6998 48 75.3998 49.2C75.1998 49.8 75.0998 50.4 74.8998 51C74.6998 50.4 74.4998 49.8 74.2998 49.2C73.8998 48 73.4998 46.9 73.0998 45.8L68.1998 32.4C68.0998 32.1 67.8998 32 67.5998 32H63.3998C63.1998 32 62.9998 32.1 62.8998 32.3C62.7998 32.5 62.7998 32.7 62.7998 32.9L72.3998 56.9L71.8998 58.4C71.3998 59.8 70.7998 61 69.9998 61.9C69.0998 62.6 68.1998 63 66.9998 63C66.7998 63 66.4998 63 66.1998 62.9L65.2998 62.7C65.0998 62.7 64.8998 62.7 64.7998 62.8C64.6998 62.9 64.4998 63 64.4998 63.2L63.6998 66.4C63.5998 66.7 63.7998 67 64.0998 67.2C64.4998 67.4 64.9998 67.5 65.4998 67.6C65.9998 67.7 66.5998 67.7 67.1998 67.7C68.4998 67.7 69.6998 67.5 70.6998 67C71.6998 66.5 72.5998 65.9 73.3998 65.1C74.1998 64.3 74.7998 63.4 75.3998 62.3C75.8998 61.3 76.3998 60.1 76.8998 58.9L85.9998 32.8C85.9998 32.6 85.8998 32.3 85.7998 32.2Z" fill="white"/>
<path d="M110.1 39C109.5 37.4 108.6 35.9 107.5 34.8C106.4 33.6 105.1 32.8 103.7 32.2C102.3 31.6 100.8 31.3 99.1998 31.3C97.5998 31.3 96.0998 31.6 94.6998 32.2C93.2998 32.8 91.9998 33.7 90.8998 34.8C89.7998 35.9 88.8998 37.4 88.2998 39C87.6998 40.6 87.2998 42.5 87.2998 44.6C87.2998 46.7 87.5998 48.5 88.2998 50.2C88.8998 51.8 89.7998 53.3 90.8998 54.4C91.9998 55.5 93.2998 56.4 94.6998 57C96.0998 57.6 97.5998 57.9 99.1998 57.9C100.8 57.9 102.3 57.6 103.7 57C105.1 56.4 106.4 55.5 107.5 54.4C108.6 53.3 109.5 51.9 110.1 50.2C110.7 48.6 111.1 46.7 111.1 44.6C111.1 42.6 110.7 40.7 110.1 39ZM99.1998 53.2C98.2998 53.2 97.3998 53 96.6998 52.6C95.8998 52.2 95.2998 51.6 94.6998 50.9C94.0998 50.2 93.6998 49.3 93.3998 48.2C93.0998 47.1 92.8998 45.9 92.8998 44.6C92.8998 43.3 93.0998 42.1 93.3998 41C93.6998 39.9 94.0998 39 94.6998 38.3C95.1998 37.6 95.8998 37 96.6998 36.6C97.4998 36.2 98.2998 36 99.1998 36C100.1 36 101 36.2 101.7 36.6C102.5 37 103.1 37.6 103.7 38.3C104.3 39.1 104.7 40 105 41C105.3 42.1 105.5 43.3 105.5 44.6C105.5 45.9 105.3 47.1 105 48.2C104.7 49.2 104.3 50.1 103.7 50.9C103.2 51.6 102.5 52.2 101.7 52.6C101 53 100.1 53.2 99.1998 53.2Z" fill="white"/>
<path d="M39.1997 10.9C37.6997 10.9 36.3997 10.4 35.2997 9.4C34.1997 8.4 33.6997 7.1 33.6997 5.5C33.6997 3.9 34.1997 2.5 35.1997 1.5C36.1997 0.5 37.4997 0 38.9997 0C40.4997 0 41.7997 0.5 42.8997 1.4C43.9997 2.4 44.4997 3.7 44.4997 5.4C44.4997 7 43.9997 8.3 42.9997 9.3C41.9997 10.4 40.6997 10.9 39.1997 10.9Z" fill="white"/>
<path d="M30.6001 24.5C29.1001 24.5 27.8001 24 26.7001 23C25.6001 22 25.1001 20.7 25.1001 19.1C25.1001 17.4 25.6001 16.1 26.6001 15.1C27.6001 14.1 28.9001 13.6 30.4001 13.6C31.9001 13.6 33.2001 14.1 34.3001 15C35.4001 16 35.9001 17.3 35.9001 18.9C35.9001 20.5 35.4001 21.8 34.4001 22.8C33.4001 23.9 32.2001 24.5 30.6001 24.5Z" fill="white"/>
<path d="M48.5 24.5C47 24.5 45.7 24 44.6 23C43.5 22 43 20.7 43 19.1C43 17.4 43.5 16.1 44.5 15.1C45.5 14.1 46.8 13.6 48.3 13.6C49.8 13.6 51.1 14.1 52.2 15C53.3 16 53.8 17.3 53.8 18.9C53.8 20.5 53.3 21.8 52.3 22.8C51.3 23.9 50 24.5 48.5 24.5Z" fill="white"/>
</g>
<defs>
<clipPath id="clip0">
<rect width="111.1" height="67.7" fill="white"/>
</clipPath>
</defs>
</svg>
