<svg width="1360" height="160" viewBox="0 0 1360 160" fill="none" xmlns="http://www.w3.org/2000/svg">
<g clip-path="url(#clip0)">
<rect width="1360" height="160" fill="#18313E"/>
<path d="M564.48 64.848H570.816L578.352 91.008H576.912L584.352 66.912H588.192L595.92 90.624H594.624L602.544 64.848H608.928L598.224 96H592.272L586.176 77.616H586.704L580.608 96H574.656L564.48 64.848ZM629.87 96V82.368C629.87 80.64 629.454 79.336 628.622 78.456C627.79 77.576 626.702 77.136 625.358 77.136C624.222 77.136 623.214 77.448 622.334 78.072C621.47 78.696 620.79 79.64 620.294 80.904C619.798 82.152 619.55 83.712 619.55 85.584H617.678C617.678 82.56 618.054 80.048 618.806 78.048C619.558 76.032 620.622 74.528 621.998 73.536C623.374 72.544 624.99 72.048 626.846 72.048C628.766 72.048 630.366 72.48 631.646 73.344C632.942 74.192 633.91 75.392 634.55 76.944C635.206 78.496 635.534 80.304 635.534 82.368V96H629.87ZM613.886 96V63.072H619.55V96H613.886ZM640.24 72.72H646.672L652.864 91.056H651.856L657.184 72.72H662.944L654.016 100.224C653.104 102.976 651.976 104.968 650.632 106.2C649.304 107.432 647.68 108.048 645.76 108.048C644.656 108.048 643.576 107.92 642.52 107.664C641.48 107.424 640.416 107.04 639.328 106.512V101.52C640.208 102.064 641.056 102.464 641.872 102.72C642.704 102.976 643.536 103.104 644.368 103.104C645.12 103.104 645.776 102.896 646.336 102.48C646.912 102.08 647.408 101.512 647.824 100.776C648.24 100.056 648.592 99.216 648.88 98.256L649.6 96L640.24 72.72ZM687.992 96.672C686.616 96.672 685.352 96.416 684.2 95.904C683.064 95.392 682.152 94.608 681.464 93.552C680.792 92.496 680.456 91.152 680.456 89.52V66.528H686.12V89.328C686.12 91.248 687.032 92.208 688.856 92.208C689.416 92.208 689.976 92.144 690.536 92.016C691.096 91.888 691.736 91.696 692.456 91.44L693.272 95.424C692.376 95.776 691.504 96.072 690.656 96.312C689.808 96.552 688.92 96.672 687.992 96.672ZM677.192 76.464V72.72H692.456V76.464H677.192ZM699.058 96V72.624H704.722V96H699.058ZM703.33 85.776C703.33 82.72 703.674 80.192 704.362 78.192C705.05 76.192 705.97 74.712 707.122 73.752C708.29 72.776 709.586 72.288 711.01 72.288C711.394 72.288 711.754 72.312 712.09 72.36C712.442 72.408 712.786 72.48 713.122 72.576L713.026 78.24C712.61 78.144 712.162 78.064 711.682 78C711.202 77.936 710.77 77.904 710.386 77.904C709.138 77.904 708.09 78.208 707.242 78.816C706.41 79.408 705.778 80.288 705.346 81.456C704.93 82.624 704.722 84.064 704.722 85.776H703.33ZM721.214 68.448C720.11 68.448 719.246 68.16 718.622 67.584C718.014 66.992 717.71 66.176 717.71 65.136C717.71 64.128 718.014 63.328 718.622 62.736C719.246 62.128 720.11 61.824 721.214 61.824C722.302 61.824 723.158 62.128 723.782 62.736C724.406 63.328 724.718 64.128 724.718 65.136C724.718 66.176 724.406 66.992 723.782 67.584C723.158 68.16 722.302 68.448 721.214 68.448ZM718.382 96V72.624H724.046V96H718.382ZM736.964 68.448C735.86 68.448 734.996 68.16 734.372 67.584C733.764 66.992 733.46 66.176 733.46 65.136C733.46 64.128 733.764 63.328 734.372 62.736C734.996 62.128 735.86 61.824 736.964 61.824C738.052 61.824 738.908 62.128 739.532 62.736C740.156 63.328 740.468 64.128 740.468 65.136C740.468 66.176 740.156 66.992 739.532 67.584C738.908 68.16 738.052 68.448 736.964 68.448ZM734.132 96V72.624H739.796V96H734.132ZM745.85 72.72H752.282L758.474 91.056H757.466L762.794 72.72H768.554L759.626 100.224C758.714 102.976 757.586 104.968 756.242 106.2C754.914 107.432 753.29 108.048 751.37 108.048C750.266 108.048 749.186 107.92 748.13 107.664C747.09 107.424 746.026 107.04 744.938 106.512V101.52C745.818 102.064 746.666 102.464 747.482 102.72C748.314 102.976 749.146 103.104 749.978 103.104C750.73 103.104 751.386 102.896 751.946 102.48C752.522 102.08 753.018 101.512 753.434 100.776C753.85 100.056 754.202 99.216 754.49 98.256L755.21 96L745.85 72.72ZM782.757 96.672C780.629 96.672 778.701 96.216 776.973 95.304C775.261 94.392 773.901 93.032 772.893 91.224C771.885 89.4 771.381 87.12 771.381 84.384C771.381 81.6 771.885 79.296 772.893 77.472C773.901 75.648 775.261 74.288 776.973 73.392C778.701 72.496 780.629 72.048 782.757 72.048C784.853 72.048 786.749 72.496 788.445 73.392C790.157 74.288 791.517 75.648 792.525 77.472C793.533 79.296 794.037 81.6 794.037 84.384C794.037 87.12 793.533 89.4 792.525 91.224C791.517 93.032 790.157 94.392 788.445 95.304C786.749 96.216 784.853 96.672 782.757 96.672ZM782.565 91.728C783.685 91.728 784.677 91.456 785.541 90.912C786.421 90.352 787.109 89.528 787.605 88.44C788.117 87.352 788.373 86 788.373 84.384C788.373 81.92 787.885 80.064 786.909 78.816C785.949 77.568 784.629 76.944 782.949 76.944C781.813 76.944 780.805 77.224 779.925 77.784C779.045 78.328 778.349 79.152 777.837 80.256C777.341 81.36 777.093 82.736 777.093 84.384C777.093 86.816 777.581 88.648 778.557 89.88C779.549 91.112 780.885 91.728 782.565 91.728Z" fill="white"/>
<path opacity="0.25" d="M1320.93 189.459C1305.41 189.459 1291.95 184.208 1280.56 173.708C1269.18 163.207 1264 149.556 1264 132.754C1264 114.903 1269.18 101.252 1279.53 90.7512C1289.88 80.2504 1303.34 75 1318.86 75C1334.39 75 1347.85 80.2504 1359.23 89.7011C1370.62 100.202 1375.8 113.853 1375.8 130.654C1375.8 147.456 1370.62 161.107 1360.27 171.607C1349.92 183.158 1336.46 189.459 1320.93 189.459Z" fill="#DEB580"/>
<path opacity="0.25" d="M1202.93 75.4589C1187.41 75.4589 1173.95 70.2085 1162.56 59.7077C1151.18 49.2068 1146 35.5558 1146 18.7545C1146 0.903099 1151.18 -12.748 1161.53 -23.2488C1171.88 -33.7496 1185.34 -39 1200.86 -39C1216.39 -39 1229.85 -33.7496 1241.23 -24.2989C1252.62 -13.798 1257.8 -0.146992 1257.8 16.6543C1257.8 33.4556 1252.62 47.1067 1242.27 57.6075C1231.92 69.1584 1218.46 75.4589 1202.93 75.4589Z" fill="#D4E6ED"/>
<path opacity="0.25" d="M21.25 180C10 180 0.25 176.147 -8 168.44C-16.25 160.734 -20 150.716 -20 138.385C-20 125.284 -16.25 115.266 -8.75 107.56C-1.25 99.8532 8.49999 96 19.75 96C31 96 40.75 99.8532 49 106.789C57.25 114.495 61 124.514 61 136.844C61 149.174 57.25 159.193 49.75 166.899C42.25 175.376 33.25 180 21.25 180Z" fill="white"/>
</g>
<defs>
<clipPath id="clip0">
<rect width="1360" height="160" fill="white"/>
</clipPath>
</defs>
</svg>
