<svg width="637" height="407" viewBox="0 0 637 407" fill="none" xmlns="http://www.w3.org/2000/svg">
<mask id="path-1-inside-1" fill="white">
<rect x="66.7949" width="569.696" height="359.808" rx="8"/>
</mask>
<rect x="66.7949" width="569.696" height="359.808" rx="8" fill="#FAFAFA" stroke="#BCC0C3" stroke-width="22" mask="url(#path-1-inside-1)"/>
<rect x="289.041" y="359.245" width="127.867" height="24.3556" fill="#BCC0C3"/>
<rect x="268.742" y="383.601" width="168.46" height="16.2371" rx="4" fill="#BCC0C3"/>
<rect x="101" y="54" width="125" height="69" rx="4" fill="#E4E6E7"/>
<rect x="101" y="141" width="494" height="10" rx="4" fill="#E4E6E7"/>
<rect x="101" y="179" width="494" height="10" rx="4" fill="#E4E6E7"/>
<rect x="101" y="160" width="473" height="10" rx="4" fill="#E4E6E7"/>
<rect x="101" y="198" width="473" height="10" rx="4" fill="#E4E6E7"/>
<g filter="url(#filter0_d)">
<rect x="446.426" y="179.696" width="160.571" height="48.5876" rx="4" fill="#EDD4B5"/>
</g>
<ellipse cx="459.021" cy="193.099" rx="6.29688" ry="6.70178" fill="#C57B20"/>
<rect x="452.725" y="208.179" width="147.977" height="5.02637" rx="2" fill="white"/>
<rect x="452.725" y="216.555" width="138.531" height="5.02612" rx="2" fill="white"/>
<g filter="url(#filter1_d)">
<rect x="24" y="268.579" width="277.188" height="103.609" rx="4" fill="white"/>
<circle cx="162.593" cy="263.196" r="49.7862" fill="#E0B581"/>
<path fill-rule="evenodd" clip-rule="evenodd" d="M176.051 286.502C178.615 285.022 179.502 281.714 178.022 279.15L168.699 284.532C170.179 287.096 173.488 287.983 176.051 286.502ZM181.962 264.445L175.234 252.792C171.103 245.637 163.846 241.841 156.242 244.118L155.327 242.533C154.21 240.599 151.747 239.939 149.813 241.056C147.878 242.173 147.218 244.636 148.335 246.57L149.25 248.155C143.5 253.588 143.122 261.761 147.267 268.939L153.994 280.592L152.024 287.945L153.37 290.275L190.66 268.746L189.314 266.415L181.962 264.445ZM178.646 269.467L160.001 280.232L151.928 266.248C148.591 260.468 149.392 253.729 155.195 250.378C160.998 247.028 167.236 249.704 170.573 255.484L178.646 269.467Z" fill="white"/>
<path d="M76.7632 335.331H79.1932C79.9772 335.331 80.6612 335.489 81.2452 335.805C81.8292 336.121 82.2832 336.569 82.6072 337.149C82.9352 337.725 83.0992 338.407 83.0992 339.195C83.0992 339.971 82.9352 340.649 82.6072 341.229C82.2832 341.805 81.8292 342.253 81.2452 342.573C80.6612 342.889 79.9772 343.047 79.1932 343.047H76.7632V335.331ZM78.0412 336.483V341.907H79.1932C79.7132 341.907 80.1612 341.789 80.5372 341.553C80.9172 341.317 81.2092 340.995 81.4132 340.587C81.6212 340.175 81.7252 339.711 81.7252 339.195C81.7252 338.667 81.6212 338.201 81.4132 337.797C81.2092 337.389 80.9172 337.069 80.5372 336.837C80.1612 336.601 79.7132 336.483 79.1932 336.483H78.0412ZM87.1338 343.209C86.6058 343.209 86.1318 343.095 85.7118 342.867C85.2918 342.639 84.9578 342.299 84.7098 341.847C84.4618 341.395 84.3378 340.831 84.3378 340.155C84.3378 339.467 84.4618 338.897 84.7098 338.445C84.9578 337.993 85.2918 337.655 85.7118 337.431C86.1318 337.203 86.6058 337.089 87.1338 337.089C87.6538 337.089 88.1238 337.203 88.5438 337.431C88.9638 337.655 89.2958 337.993 89.5398 338.445C89.7878 338.897 89.9118 339.467 89.9118 340.155C89.9118 340.831 89.7878 341.395 89.5398 341.847C89.2958 342.299 88.9638 342.639 88.5438 342.867C88.1238 343.095 87.6538 343.209 87.1338 343.209ZM87.0918 342.093C87.3998 342.093 87.6678 342.019 87.8958 341.871C88.1278 341.719 88.3078 341.499 88.4358 341.211C88.5638 340.923 88.6278 340.571 88.6278 340.155C88.6278 339.519 88.4998 339.033 88.2438 338.697C87.9918 338.361 87.6358 338.193 87.1758 338.193C86.8678 338.193 86.5978 338.269 86.3658 338.421C86.1338 338.569 85.9538 338.789 85.8258 339.081C85.6978 339.369 85.6338 339.727 85.6338 340.155C85.6338 340.779 85.7618 341.259 86.0178 341.595C86.2778 341.927 86.6358 342.093 87.0918 342.093ZM95.6543 343.047V339.651C95.6543 339.183 95.5423 338.831 95.3183 338.595C95.0943 338.355 94.7963 338.235 94.4243 338.235C94.1243 338.235 93.8603 338.319 93.6323 338.487C93.4043 338.651 93.2263 338.895 93.0983 339.219C92.9743 339.543 92.9123 339.941 92.9123 340.413H92.4743C92.4743 339.681 92.5663 339.069 92.7503 338.577C92.9343 338.085 93.1963 337.715 93.5363 337.467C93.8803 337.215 94.2883 337.089 94.7603 337.089C95.2323 337.089 95.6283 337.195 95.9483 337.407C96.2723 337.619 96.5163 337.917 96.6803 338.301C96.8443 338.685 96.9263 339.135 96.9263 339.651V343.047H95.6543ZM91.6343 343.047V337.251H92.7443L92.9123 338.451V343.047H91.6343ZM99.0886 338.361L98.1946 337.863C98.4466 337.739 98.6686 337.595 98.8606 337.431C99.0526 337.267 99.1806 337.077 99.2446 336.861C99.0246 336.829 98.8426 336.749 98.6986 336.621C98.5546 336.489 98.4826 336.317 98.4826 336.105C98.4826 335.877 98.5686 335.689 98.7406 335.541C98.9126 335.389 99.1266 335.313 99.3826 335.313C99.5986 335.313 99.7826 335.369 99.9346 335.481C100.091 335.589 100.209 335.733 100.289 335.913C100.369 336.093 100.409 336.291 100.409 336.507C100.409 336.875 100.289 337.223 100.049 337.551C99.8086 337.879 99.4886 338.149 99.0886 338.361ZM103.995 343.209C103.659 343.209 103.353 343.147 103.077 343.023C102.805 342.895 102.587 342.703 102.423 342.447C102.259 342.187 102.177 341.861 102.177 341.469V335.691H103.455V341.427C103.455 341.939 103.697 342.195 104.181 342.195C104.325 342.195 104.469 342.179 104.613 342.147C104.757 342.115 104.921 342.065 105.105 341.997L105.291 342.897C105.071 342.985 104.857 343.059 104.649 343.119C104.441 343.179 104.223 343.209 103.995 343.209ZM101.331 338.103V337.251H105.105V338.103H101.331ZM110.052 343.047V336.489C110.052 336.081 110.132 335.749 110.292 335.493C110.452 335.233 110.664 335.043 110.928 334.923C111.192 334.799 111.48 334.737 111.792 334.737C111.976 334.737 112.166 334.751 112.362 334.779C112.558 334.803 112.752 334.837 112.944 334.881L112.692 335.871C112.588 335.831 112.48 335.801 112.368 335.781C112.26 335.757 112.154 335.745 112.05 335.745C111.934 335.745 111.82 335.767 111.708 335.811C111.6 335.855 111.512 335.933 111.444 336.045C111.376 336.157 111.342 336.313 111.342 336.513V343.047H110.052ZM109.17 338.103V337.251H112.446V338.103H109.17ZM116.278 343.209C115.75 343.209 115.276 343.095 114.856 342.867C114.436 342.639 114.102 342.299 113.854 341.847C113.606 341.395 113.482 340.831 113.482 340.155C113.482 339.467 113.606 338.897 113.854 338.445C114.102 337.993 114.436 337.655 114.856 337.431C115.276 337.203 115.75 337.089 116.278 337.089C116.798 337.089 117.268 337.203 117.688 337.431C118.108 337.655 118.44 337.993 118.684 338.445C118.932 338.897 119.056 339.467 119.056 340.155C119.056 340.831 118.932 341.395 118.684 341.847C118.44 342.299 118.108 342.639 117.688 342.867C117.268 343.095 116.798 343.209 116.278 343.209ZM116.236 342.093C116.544 342.093 116.812 342.019 117.04 341.871C117.272 341.719 117.452 341.499 117.58 341.211C117.708 340.923 117.772 340.571 117.772 340.155C117.772 339.519 117.644 339.033 117.388 338.697C117.136 338.361 116.78 338.193 116.32 338.193C116.012 338.193 115.742 338.269 115.51 338.421C115.278 338.569 115.098 338.789 114.97 339.081C114.842 339.369 114.778 339.727 114.778 340.155C114.778 340.779 114.906 341.259 115.162 341.595C115.422 341.927 115.78 342.093 116.236 342.093ZM120.779 343.047V337.233H122.057V343.047H120.779ZM121.727 340.479C121.727 339.727 121.807 339.105 121.967 338.613C122.131 338.117 122.355 337.749 122.639 337.509C122.923 337.265 123.247 337.143 123.611 337.143C123.719 337.143 123.819 337.151 123.911 337.167C124.003 337.179 124.093 337.199 124.181 337.227L124.151 338.499C124.043 338.471 123.927 338.449 123.803 338.433C123.679 338.413 123.569 338.403 123.473 338.403C123.153 338.403 122.887 338.485 122.675 338.649C122.467 338.809 122.311 339.045 122.207 339.357C122.107 339.665 122.057 340.039 122.057 340.479H121.727ZM127.433 346.041C126.789 346.041 126.235 345.951 125.771 345.771C125.311 345.595 124.957 345.359 124.709 345.063C124.461 344.771 124.337 344.453 124.337 344.109C124.337 343.689 124.491 343.365 124.799 343.137C125.107 342.909 125.497 342.795 125.969 342.795L126.857 343.161C126.453 343.161 126.141 343.239 125.921 343.395C125.701 343.555 125.591 343.773 125.591 344.049C125.591 344.337 125.753 344.571 126.077 344.751C126.401 344.931 126.853 345.021 127.433 345.021C127.861 345.021 128.231 344.957 128.543 344.829C128.859 344.705 129.103 344.543 129.275 344.343C129.451 344.143 129.539 343.929 129.539 343.701C129.539 343.549 129.485 343.421 129.377 343.317C129.273 343.213 129.111 343.161 128.891 343.161H126.857C126.465 343.161 126.113 343.099 125.801 342.975C125.493 342.851 125.249 342.685 125.069 342.477C124.889 342.269 124.799 342.039 124.799 341.787C124.799 341.543 124.867 341.335 125.003 341.163C125.139 340.987 125.321 340.853 125.549 340.761C125.781 340.665 126.037 340.617 126.317 340.617L126.623 341.049C126.507 341.049 126.393 341.073 126.281 341.121C126.169 341.169 126.077 341.241 126.005 341.337C125.937 341.429 125.903 341.545 125.903 341.685C125.903 341.853 125.973 341.991 126.113 342.099C126.253 342.203 126.501 342.255 126.857 342.255H128.891C129.487 342.255 129.955 342.369 130.295 342.597C130.635 342.825 130.805 343.167 130.805 343.623C130.805 344.027 130.669 344.413 130.397 344.781C130.125 345.153 129.737 345.455 129.233 345.687C128.729 345.923 128.129 346.041 127.433 346.041ZM127.535 341.283C127.079 341.283 126.665 341.197 126.293 341.025C125.921 340.849 125.623 340.605 125.399 340.293C125.179 339.977 125.069 339.609 125.069 339.189C125.069 338.765 125.179 338.395 125.399 338.079C125.623 337.763 125.921 337.519 126.293 337.347C126.665 337.175 127.079 337.089 127.535 337.089C127.979 337.089 128.385 337.175 128.753 337.347C129.125 337.519 129.423 337.763 129.647 338.079C129.875 338.395 129.989 338.765 129.989 339.189C129.989 339.609 129.875 339.977 129.647 340.293C129.423 340.605 129.125 340.849 128.753 341.025C128.385 341.197 127.979 341.283 127.535 341.283ZM127.541 340.389C127.929 340.389 128.223 340.275 128.423 340.047C128.627 339.815 128.729 339.529 128.729 339.189C128.729 338.829 128.627 338.539 128.423 338.319C128.223 338.099 127.927 337.989 127.535 337.989C127.155 337.989 126.859 338.099 126.647 338.319C126.439 338.539 126.335 338.829 126.335 339.189C126.335 339.529 126.439 339.815 126.647 340.047C126.859 340.275 127.157 340.389 127.541 340.389ZM129.545 338.019L128.957 337.701C128.957 337.357 129.033 337.055 129.185 336.795C129.337 336.535 129.545 336.333 129.809 336.189C130.073 336.045 130.369 335.973 130.697 335.973L130.625 337.209C130.277 337.209 130.009 337.275 129.821 337.407C129.637 337.539 129.545 337.743 129.545 338.019ZM134.299 343.209C133.803 343.209 133.351 343.081 132.943 342.825C132.539 342.569 132.215 342.211 131.971 341.751C131.731 341.291 131.611 340.757 131.611 340.149C131.611 339.513 131.731 338.967 131.971 338.511C132.211 338.051 132.533 337.699 132.937 337.455C133.345 337.211 133.799 337.089 134.299 337.089C134.755 337.089 135.147 337.181 135.475 337.365C135.807 337.549 136.073 337.797 136.273 338.109C136.473 338.421 136.609 338.775 136.681 339.171C136.757 339.563 136.767 339.969 136.711 340.389H132.637V339.675H135.817L135.541 339.855C135.553 339.651 135.543 339.447 135.511 339.243C135.479 339.039 135.417 338.851 135.325 338.679C135.237 338.507 135.111 338.369 134.947 338.265C134.783 338.161 134.573 338.109 134.317 338.109C134.009 338.109 133.747 338.189 133.531 338.349C133.319 338.505 133.157 338.715 133.045 338.979C132.937 339.243 132.883 339.537 132.883 339.861V340.377C132.883 340.725 132.935 341.035 133.039 341.307C133.143 341.575 133.299 341.787 133.507 341.943C133.719 342.099 133.983 342.177 134.299 342.177C134.603 342.177 134.855 342.105 135.055 341.961C135.259 341.817 135.387 341.603 135.439 341.319H136.741C136.681 341.695 136.541 342.025 136.321 342.309C136.101 342.593 135.819 342.815 135.475 342.975C135.131 343.131 134.739 343.209 134.299 343.209ZM140.394 343.209C140.058 343.209 139.752 343.147 139.476 343.023C139.204 342.895 138.986 342.703 138.822 342.447C138.658 342.187 138.576 341.861 138.576 341.469V335.691H139.854V341.427C139.854 341.939 140.096 342.195 140.58 342.195C140.724 342.195 140.868 342.179 141.012 342.147C141.156 342.115 141.32 342.065 141.504 341.997L141.69 342.897C141.47 342.985 141.256 343.059 141.048 343.119C140.84 343.179 140.622 343.209 140.394 343.209ZM137.73 338.103V337.251H141.504V338.103H137.73ZM148.035 343.209C147.699 343.209 147.393 343.147 147.117 343.023C146.845 342.895 146.627 342.703 146.463 342.447C146.299 342.187 146.217 341.861 146.217 341.469V335.691H147.495V341.427C147.495 341.939 147.737 342.195 148.221 342.195C148.365 342.195 148.509 342.179 148.653 342.147C148.797 342.115 148.961 342.065 149.145 341.997L149.331 342.897C149.111 342.985 148.897 343.059 148.689 343.119C148.481 343.179 148.263 343.209 148.035 343.209ZM145.371 338.103V337.251H149.145V338.103H145.371ZM153.017 343.209C152.489 343.209 152.015 343.095 151.595 342.867C151.175 342.639 150.841 342.299 150.593 341.847C150.345 341.395 150.221 340.831 150.221 340.155C150.221 339.467 150.345 338.897 150.593 338.445C150.841 337.993 151.175 337.655 151.595 337.431C152.015 337.203 152.489 337.089 153.017 337.089C153.537 337.089 154.007 337.203 154.427 337.431C154.847 337.655 155.179 337.993 155.423 338.445C155.671 338.897 155.795 339.467 155.795 340.155C155.795 340.831 155.671 341.395 155.423 341.847C155.179 342.299 154.847 342.639 154.427 342.867C154.007 343.095 153.537 343.209 153.017 343.209ZM152.975 342.093C153.283 342.093 153.551 342.019 153.779 341.871C154.011 341.719 154.191 341.499 154.319 341.211C154.447 340.923 154.511 340.571 154.511 340.155C154.511 339.519 154.383 339.033 154.127 338.697C153.875 338.361 153.519 338.193 153.059 338.193C152.751 338.193 152.481 338.269 152.249 338.421C152.017 338.569 151.837 338.789 151.709 339.081C151.581 339.369 151.517 339.727 151.517 340.155C151.517 340.779 151.645 341.259 151.901 341.595C152.161 341.927 152.519 342.093 152.975 342.093ZM168.444 343.047V339.651C168.444 339.183 168.332 338.831 168.108 338.595C167.888 338.355 167.594 338.235 167.226 338.235C166.77 338.235 166.416 338.415 166.164 338.775C165.912 339.135 165.786 339.665 165.786 340.365H165.24C165.24 339.781 165.296 339.283 165.408 338.871C165.52 338.455 165.678 338.117 165.882 337.857C166.09 337.593 166.336 337.399 166.62 337.275C166.904 337.151 167.218 337.089 167.562 337.089C168.034 337.089 168.43 337.195 168.75 337.407C169.074 337.619 169.318 337.917 169.482 338.301C169.65 338.685 169.734 339.135 169.734 339.651V343.047H168.444ZM160.494 343.047V337.251H161.604L161.748 338.289C161.936 337.897 162.188 337.599 162.504 337.395C162.824 337.191 163.196 337.089 163.62 337.089C164.092 337.089 164.488 337.195 164.808 337.407C165.132 337.619 165.376 337.917 165.54 338.301C165.704 338.685 165.786 339.135 165.786 339.651V343.047H164.514V339.651C164.514 339.183 164.402 338.831 164.178 338.595C163.954 338.355 163.656 338.235 163.284 338.235C162.984 338.235 162.72 338.319 162.492 338.487C162.264 338.651 162.086 338.895 161.958 339.219C161.834 339.543 161.772 339.941 161.772 340.413V343.047H160.494ZM173.955 343.209C173.459 343.209 173.007 343.081 172.599 342.825C172.195 342.569 171.871 342.211 171.627 341.751C171.387 341.291 171.267 340.757 171.267 340.149C171.267 339.513 171.387 338.967 171.627 338.511C171.867 338.051 172.189 337.699 172.593 337.455C173.001 337.211 173.455 337.089 173.955 337.089C174.411 337.089 174.803 337.181 175.131 337.365C175.463 337.549 175.729 337.797 175.929 338.109C176.129 338.421 176.265 338.775 176.337 339.171C176.413 339.563 176.423 339.969 176.367 340.389H172.293V339.675H175.473L175.197 339.855C175.209 339.651 175.199 339.447 175.167 339.243C175.135 339.039 175.073 338.851 174.981 338.679C174.893 338.507 174.767 338.369 174.603 338.265C174.439 338.161 174.229 338.109 173.973 338.109C173.665 338.109 173.403 338.189 173.187 338.349C172.975 338.505 172.813 338.715 172.701 338.979C172.593 339.243 172.539 339.537 172.539 339.861V340.377C172.539 340.725 172.591 341.035 172.695 341.307C172.799 341.575 172.955 341.787 173.163 341.943C173.375 342.099 173.639 342.177 173.955 342.177C174.259 342.177 174.511 342.105 174.711 341.961C174.915 341.817 175.043 341.603 175.095 341.319H176.397C176.337 341.695 176.197 342.025 175.977 342.309C175.757 342.593 175.475 342.815 175.131 342.975C174.787 343.131 174.395 343.209 173.955 343.209ZM180.278 343.209C179.722 343.209 179.246 343.131 178.85 342.975C178.458 342.819 178.158 342.599 177.95 342.315C177.742 342.027 177.634 341.685 177.626 341.289H178.814C178.83 341.601 178.954 341.831 179.186 341.979C179.418 342.123 179.734 342.195 180.134 342.195C180.354 342.195 180.55 342.163 180.722 342.099C180.894 342.031 181.028 341.941 181.124 341.829C181.224 341.713 181.274 341.585 181.274 341.445C181.274 341.261 181.208 341.117 181.076 341.013C180.944 340.909 180.734 340.815 180.446 340.731L179.222 340.305C178.758 340.145 178.402 339.931 178.154 339.663C177.906 339.395 177.782 339.075 177.782 338.703C177.782 338.219 177.998 337.829 178.43 337.533C178.866 337.237 179.446 337.089 180.17 337.089C180.906 337.089 181.474 337.247 181.874 337.563C182.274 337.879 182.48 338.277 182.492 338.757H181.274C181.254 338.549 181.152 338.387 180.968 338.271C180.788 338.151 180.522 338.091 180.17 338.091C179.846 338.091 179.592 338.159 179.408 338.295C179.224 338.431 179.132 338.589 179.132 338.769C179.132 339.081 179.398 339.313 179.93 339.465L181.238 339.945C181.702 340.097 182.058 340.293 182.306 340.533C182.558 340.773 182.684 341.077 182.684 341.445C182.684 341.745 182.584 342.031 182.384 342.303C182.184 342.571 181.902 342.789 181.538 342.957C181.178 343.125 180.758 343.209 180.278 343.209ZM186.606 343.209C186.05 343.209 185.574 343.131 185.178 342.975C184.786 342.819 184.486 342.599 184.278 342.315C184.07 342.027 183.962 341.685 183.954 341.289H185.142C185.158 341.601 185.282 341.831 185.514 341.979C185.746 342.123 186.062 342.195 186.462 342.195C186.682 342.195 186.878 342.163 187.05 342.099C187.222 342.031 187.356 341.941 187.452 341.829C187.552 341.713 187.602 341.585 187.602 341.445C187.602 341.261 187.536 341.117 187.404 341.013C187.272 340.909 187.062 340.815 186.774 340.731L185.55 340.305C185.086 340.145 184.73 339.931 184.482 339.663C184.234 339.395 184.11 339.075 184.11 338.703C184.11 338.219 184.326 337.829 184.758 337.533C185.194 337.237 185.774 337.089 186.498 337.089C187.234 337.089 187.802 337.247 188.202 337.563C188.602 337.879 188.808 338.277 188.82 338.757H187.602C187.582 338.549 187.48 338.387 187.296 338.271C187.116 338.151 186.85 338.091 186.498 338.091C186.174 338.091 185.92 338.159 185.736 338.295C185.552 338.431 185.46 338.589 185.46 338.769C185.46 339.081 185.726 339.313 186.258 339.465L187.566 339.945C188.03 340.097 188.386 340.293 188.634 340.533C188.886 340.773 189.012 341.077 189.012 341.445C189.012 341.745 188.912 342.031 188.712 342.303C188.512 342.571 188.23 342.789 187.866 342.957C187.506 343.125 187.086 343.209 186.606 343.209ZM194.458 343.047L194.296 341.679V339.303C194.296 338.863 194.204 338.541 194.02 338.337C193.84 338.133 193.546 338.031 193.138 338.031C192.906 338.031 192.7 338.065 192.52 338.133C192.344 338.201 192.206 338.303 192.106 338.439C192.01 338.571 191.962 338.735 191.962 338.931H190.558C190.558 338.495 190.662 338.143 190.87 337.875C191.082 337.603 191.38 337.405 191.764 337.281C192.152 337.153 192.61 337.089 193.138 337.089C193.626 337.089 194.052 337.169 194.416 337.329C194.78 337.485 195.064 337.729 195.268 338.061C195.472 338.393 195.574 338.821 195.574 339.345V343.047H194.458ZM192.538 343.209C192.046 343.209 191.636 343.123 191.308 342.951C190.984 342.779 190.74 342.553 190.576 342.273C190.412 341.993 190.33 341.693 190.33 341.373C190.33 340.997 190.426 340.685 190.618 340.437C190.814 340.189 191.086 340.005 191.434 339.885C191.786 339.761 192.194 339.699 192.658 339.699C192.974 339.699 193.274 339.725 193.558 339.777C193.846 339.829 194.132 339.897 194.416 339.981V340.743C194.188 340.663 193.938 340.601 193.666 340.557C193.394 340.513 193.142 340.491 192.91 340.491C192.558 340.491 192.266 340.559 192.034 340.695C191.806 340.827 191.692 341.053 191.692 341.373C191.692 341.605 191.784 341.805 191.968 341.973C192.152 342.141 192.444 342.225 192.844 342.225C193.144 342.225 193.402 342.159 193.618 342.027C193.834 341.895 194 341.729 194.116 341.529C194.236 341.329 194.296 341.129 194.296 340.929H194.602C194.602 341.337 194.522 341.715 194.362 342.063C194.206 342.407 193.974 342.685 193.666 342.897C193.358 343.105 192.982 343.209 192.538 343.209ZM199.879 346.041C199.235 346.041 198.681 345.951 198.217 345.771C197.757 345.595 197.403 345.359 197.155 345.063C196.907 344.771 196.783 344.453 196.783 344.109C196.783 343.689 196.937 343.365 197.245 343.137C197.553 342.909 197.943 342.795 198.415 342.795L199.303 343.161C198.899 343.161 198.587 343.239 198.367 343.395C198.147 343.555 198.037 343.773 198.037 344.049C198.037 344.337 198.199 344.571 198.523 344.751C198.847 344.931 199.299 345.021 199.879 345.021C200.307 345.021 200.677 344.957 200.989 344.829C201.305 344.705 201.549 344.543 201.721 344.343C201.897 344.143 201.985 343.929 201.985 343.701C201.985 343.549 201.931 343.421 201.823 343.317C201.719 343.213 201.557 343.161 201.337 343.161H199.303C198.911 343.161 198.559 343.099 198.247 342.975C197.939 342.851 197.695 342.685 197.515 342.477C197.335 342.269 197.245 342.039 197.245 341.787C197.245 341.543 197.313 341.335 197.449 341.163C197.585 340.987 197.767 340.853 197.995 340.761C198.227 340.665 198.483 340.617 198.763 340.617L199.069 341.049C198.953 341.049 198.839 341.073 198.727 341.121C198.615 341.169 198.523 341.241 198.451 341.337C198.383 341.429 198.349 341.545 198.349 341.685C198.349 341.853 198.419 341.991 198.559 342.099C198.699 342.203 198.947 342.255 199.303 342.255H201.337C201.933 342.255 202.401 342.369 202.741 342.597C203.081 342.825 203.251 343.167 203.251 343.623C203.251 344.027 203.115 344.413 202.843 344.781C202.571 345.153 202.183 345.455 201.679 345.687C201.175 345.923 200.575 346.041 199.879 346.041ZM199.981 341.283C199.525 341.283 199.111 341.197 198.739 341.025C198.367 340.849 198.069 340.605 197.845 340.293C197.625 339.977 197.515 339.609 197.515 339.189C197.515 338.765 197.625 338.395 197.845 338.079C198.069 337.763 198.367 337.519 198.739 337.347C199.111 337.175 199.525 337.089 199.981 337.089C200.425 337.089 200.831 337.175 201.199 337.347C201.571 337.519 201.869 337.763 202.093 338.079C202.321 338.395 202.435 338.765 202.435 339.189C202.435 339.609 202.321 339.977 202.093 340.293C201.869 340.605 201.571 340.849 201.199 341.025C200.831 341.197 200.425 341.283 199.981 341.283ZM199.987 340.389C200.375 340.389 200.669 340.275 200.869 340.047C201.073 339.815 201.175 339.529 201.175 339.189C201.175 338.829 201.073 338.539 200.869 338.319C200.669 338.099 200.373 337.989 199.981 337.989C199.601 337.989 199.305 338.099 199.093 338.319C198.885 338.539 198.781 338.829 198.781 339.189C198.781 339.529 198.885 339.815 199.093 340.047C199.305 340.275 199.603 340.389 199.987 340.389ZM201.991 338.019L201.403 337.701C201.403 337.357 201.479 337.055 201.631 336.795C201.783 336.535 201.991 336.333 202.255 336.189C202.519 336.045 202.815 335.973 203.143 335.973L203.071 337.209C202.723 337.209 202.455 337.275 202.267 337.407C202.083 337.539 201.991 337.743 201.991 338.019ZM206.745 343.209C206.249 343.209 205.797 343.081 205.389 342.825C204.985 342.569 204.661 342.211 204.417 341.751C204.177 341.291 204.057 340.757 204.057 340.149C204.057 339.513 204.177 338.967 204.417 338.511C204.657 338.051 204.979 337.699 205.383 337.455C205.791 337.211 206.245 337.089 206.745 337.089C207.201 337.089 207.593 337.181 207.921 337.365C208.253 337.549 208.519 337.797 208.719 338.109C208.919 338.421 209.055 338.775 209.127 339.171C209.203 339.563 209.213 339.969 209.157 340.389H205.083V339.675H208.263L207.987 339.855C207.999 339.651 207.989 339.447 207.957 339.243C207.925 339.039 207.863 338.851 207.771 338.679C207.683 338.507 207.557 338.369 207.393 338.265C207.229 338.161 207.019 338.109 206.763 338.109C206.455 338.109 206.193 338.189 205.977 338.349C205.765 338.505 205.603 338.715 205.491 338.979C205.383 339.243 205.329 339.537 205.329 339.861V340.377C205.329 340.725 205.381 341.035 205.485 341.307C205.589 341.575 205.745 341.787 205.953 341.943C206.165 342.099 206.429 342.177 206.745 342.177C207.049 342.177 207.301 342.105 207.501 341.961C207.705 341.817 207.833 341.603 207.885 341.319H209.187C209.127 341.695 208.987 342.025 208.767 342.309C208.547 342.593 208.265 342.815 207.921 342.975C207.577 343.131 207.185 343.209 206.745 343.209ZM216.53 343.209C216.002 343.209 215.516 343.117 215.072 342.933C214.628 342.745 214.268 342.463 213.992 342.087C213.72 341.711 213.574 341.235 213.554 340.659H214.808C214.808 340.975 214.886 341.235 215.042 341.439C215.198 341.643 215.406 341.795 215.666 341.895C215.926 341.991 216.21 342.039 216.518 342.039C216.83 342.039 217.104 341.995 217.34 341.907C217.58 341.819 217.766 341.697 217.898 341.541C218.034 341.385 218.102 341.205 218.102 341.001C218.102 340.721 218.016 340.501 217.844 340.341C217.676 340.177 217.414 340.033 217.058 339.909L215.582 339.339C214.974 339.107 214.51 338.839 214.19 338.535C213.87 338.231 213.71 337.807 213.71 337.263C213.71 336.647 213.952 336.147 214.436 335.763C214.924 335.375 215.606 335.181 216.482 335.181C217.322 335.181 217.974 335.377 218.438 335.769C218.902 336.161 219.166 336.701 219.23 337.389H217.976C217.92 337.069 217.772 336.815 217.532 336.627C217.296 336.435 216.946 336.339 216.482 336.339C216.054 336.339 215.718 336.431 215.474 336.615C215.23 336.795 215.108 337.023 215.108 337.299C215.108 337.535 215.184 337.721 215.336 337.857C215.492 337.993 215.732 338.121 216.056 338.241L217.718 338.865C218.286 339.077 218.724 339.351 219.032 339.687C219.344 340.023 219.5 340.447 219.5 340.959C219.5 341.407 219.384 341.801 219.152 342.141C218.924 342.477 218.588 342.739 218.144 342.927C217.704 343.115 217.166 343.209 216.53 343.209ZM225.103 343.047L224.941 341.679V339.303C224.941 338.863 224.849 338.541 224.665 338.337C224.485 338.133 224.191 338.031 223.783 338.031C223.551 338.031 223.345 338.065 223.165 338.133C222.989 338.201 222.851 338.303 222.751 338.439C222.655 338.571 222.607 338.735 222.607 338.931H221.203C221.203 338.495 221.307 338.143 221.515 337.875C221.727 337.603 222.025 337.405 222.409 337.281C222.797 337.153 223.255 337.089 223.783 337.089C224.271 337.089 224.697 337.169 225.061 337.329C225.425 337.485 225.709 337.729 225.913 338.061C226.117 338.393 226.219 338.821 226.219 339.345V343.047H225.103ZM223.183 343.209C222.691 343.209 222.281 343.123 221.953 342.951C221.629 342.779 221.385 342.553 221.221 342.273C221.057 341.993 220.975 341.693 220.975 341.373C220.975 340.997 221.071 340.685 221.263 340.437C221.459 340.189 221.731 340.005 222.079 339.885C222.431 339.761 222.839 339.699 223.303 339.699C223.619 339.699 223.919 339.725 224.203 339.777C224.491 339.829 224.777 339.897 225.061 339.981V340.743C224.833 340.663 224.583 340.601 224.311 340.557C224.039 340.513 223.787 340.491 223.555 340.491C223.203 340.491 222.911 340.559 222.679 340.695C222.451 340.827 222.337 341.053 222.337 341.373C222.337 341.605 222.429 341.805 222.613 341.973C222.797 342.141 223.089 342.225 223.489 342.225C223.789 342.225 224.047 342.159 224.263 342.027C224.479 341.895 224.645 341.729 224.761 341.529C224.881 341.329 224.941 341.129 224.941 340.929H225.247C225.247 341.337 225.167 341.715 225.007 342.063C224.851 342.407 224.619 342.685 224.311 342.897C224.003 343.105 223.627 343.209 223.183 343.209ZM228.345 343.047V337.233H229.623V343.047H228.345ZM229.293 340.479C229.293 339.727 229.373 339.105 229.533 338.613C229.697 338.117 229.921 337.749 230.205 337.509C230.489 337.265 230.813 337.143 231.177 337.143C231.285 337.143 231.385 337.151 231.477 337.167C231.569 337.179 231.659 337.199 231.747 337.227L231.717 338.499C231.609 338.471 231.493 338.449 231.369 338.433C231.245 338.413 231.135 338.403 231.039 338.403C230.719 338.403 230.453 338.485 230.241 338.649C230.033 338.809 229.877 339.045 229.773 339.357C229.673 339.665 229.623 340.039 229.623 340.479H229.293ZM236.611 343.047L236.449 341.679V339.303C236.449 338.863 236.357 338.541 236.173 338.337C235.993 338.133 235.699 338.031 235.291 338.031C235.059 338.031 234.853 338.065 234.673 338.133C234.497 338.201 234.359 338.303 234.259 338.439C234.163 338.571 234.115 338.735 234.115 338.931H232.711C232.711 338.495 232.815 338.143 233.023 337.875C233.235 337.603 233.533 337.405 233.917 337.281C234.305 337.153 234.763 337.089 235.291 337.089C235.779 337.089 236.205 337.169 236.569 337.329C236.933 337.485 237.217 337.729 237.421 338.061C237.625 338.393 237.727 338.821 237.727 339.345V343.047H236.611ZM234.691 343.209C234.199 343.209 233.789 343.123 233.461 342.951C233.137 342.779 232.893 342.553 232.729 342.273C232.565 341.993 232.483 341.693 232.483 341.373C232.483 340.997 232.579 340.685 232.771 340.437C232.967 340.189 233.239 340.005 233.587 339.885C233.939 339.761 234.347 339.699 234.811 339.699C235.127 339.699 235.427 339.725 235.711 339.777C235.999 339.829 236.285 339.897 236.569 339.981V340.743C236.341 340.663 236.091 340.601 235.819 340.557C235.547 340.513 235.295 340.491 235.063 340.491C234.711 340.491 234.419 340.559 234.187 340.695C233.959 340.827 233.845 341.053 233.845 341.373C233.845 341.605 233.937 341.805 234.121 341.973C234.305 342.141 234.597 342.225 234.997 342.225C235.297 342.225 235.555 342.159 235.771 342.027C235.987 341.895 236.153 341.729 236.269 341.529C236.389 341.329 236.449 341.129 236.449 340.929H236.755C236.755 341.337 236.675 341.715 236.515 342.063C236.359 342.407 236.127 342.685 235.819 342.897C235.511 343.105 235.135 343.209 234.691 343.209ZM243.873 343.047V339.651C243.873 339.183 243.761 338.831 243.537 338.595C243.313 338.355 243.015 338.235 242.643 338.235C242.343 338.235 242.079 338.319 241.851 338.487C241.623 338.651 241.445 338.895 241.317 339.219C241.193 339.543 241.131 339.941 241.131 340.413H240.693C240.693 339.681 240.785 339.069 240.969 338.577C241.153 338.085 241.415 337.715 241.755 337.467C242.099 337.215 242.507 337.089 242.979 337.089C243.451 337.089 243.847 337.195 244.167 337.407C244.491 337.619 244.735 337.917 244.899 338.301C245.063 338.685 245.145 339.135 245.145 339.651V343.047H243.873ZM239.853 343.047V334.827H241.131V343.047H239.853ZM247.337 340.569L247.193 335.217H248.573L248.417 340.569H247.337ZM247.883 343.155C247.619 343.155 247.401 343.073 247.229 342.909C247.061 342.745 246.977 342.537 246.977 342.285C246.977 342.041 247.061 341.835 247.229 341.667C247.401 341.499 247.619 341.415 247.883 341.415C248.143 341.415 248.361 341.499 248.537 341.667C248.713 341.835 248.801 342.041 248.801 342.285C248.801 342.537 248.713 342.745 248.537 342.909C248.361 343.073 248.143 343.155 247.883 343.155Z" fill="black"/>
</g>
<g filter="url(#filter2_d)">
<path d="M436.102 35.8418C436.931 35.8418 437.602 35.1702 437.602 34.3418C437.602 33.5134 436.931 32.8418 436.102 32.8418V35.8418ZM161.533 200.979C162.119 201.565 163.069 201.565 163.654 200.979L173.2 191.433C173.786 190.848 173.786 189.898 173.2 189.312C172.615 188.726 171.665 188.726 171.079 189.312L162.594 197.797L154.108 189.312C153.523 188.726 152.573 188.726 151.987 189.312C151.401 189.898 151.401 190.848 151.987 191.433L161.533 200.979ZM436.102 32.8418H169.594V35.8418H436.102V32.8418ZM161.094 41.3418V199.919H164.094V41.3418H161.094ZM169.594 32.8418C164.899 32.8418 161.094 36.6474 161.094 41.3418H164.094C164.094 38.3042 166.556 35.8418 169.594 35.8418V32.8418Z" fill="#767F84"/>
</g>
<defs>
<filter id="filter0_d" x="440.426" y="175.696" width="172.571" height="60.5876" filterUnits="userSpaceOnUse" color-interpolation-filters="sRGB">
<feFlood flood-opacity="0" result="BackgroundImageFix"/>
<feColorMatrix in="SourceAlpha" type="matrix" values="0 0 0 0 0 0 0 0 0 0 0 0 0 0 0 0 0 0 127 0" result="hardAlpha"/>
<feMorphology radius="2" operator="erode" in="SourceAlpha" result="effect1_dropShadow"/>
<feOffset dy="2"/>
<feGaussianBlur stdDeviation="4"/>
<feColorMatrix type="matrix" values="0 0 0 0 0.0588235 0 0 0 0 0.129412 0 0 0 0 0.160784 0 0 0 0.17 0"/>
<feBlend mode="normal" in2="BackgroundImageFix" result="effect1_dropShadow"/>
<feBlend mode="normal" in="SourceGraphic" in2="effect1_dropShadow" result="shape"/>
</filter>
<filter id="filter1_d" x="0" y="199.41" width="325.188" height="206.778" filterUnits="userSpaceOnUse" color-interpolation-filters="sRGB">
<feFlood flood-opacity="0" result="BackgroundImageFix"/>
<feColorMatrix in="SourceAlpha" type="matrix" values="0 0 0 0 0 0 0 0 0 0 0 0 0 0 0 0 0 0 127 0" result="hardAlpha"/>
<feMorphology radius="8" operator="erode" in="SourceAlpha" result="effect1_dropShadow"/>
<feOffset dy="10"/>
<feGaussianBlur stdDeviation="16"/>
<feColorMatrix type="matrix" values="0 0 0 0 0.0588235 0 0 0 0 0.129412 0 0 0 0 0.160784 0 0 0 0.17 0"/>
<feBlend mode="normal" in2="BackgroundImageFix" result="effect1_dropShadow"/>
<feBlend mode="normal" in="SourceGraphic" in2="effect1_dropShadow" result="shape"/>
</filter>
<filter id="filter2_d" x="145.547" y="28.8418" width="298.055" height="180.577" filterUnits="userSpaceOnUse" color-interpolation-filters="sRGB">
<feFlood flood-opacity="0" result="BackgroundImageFix"/>
<feColorMatrix in="SourceAlpha" type="matrix" values="0 0 0 0 0 0 0 0 0 0 0 0 0 0 0 0 0 0 127 0" result="hardAlpha"/>
<feMorphology radius="2" operator="erode" in="SourceAlpha" result="effect1_dropShadow"/>
<feOffset dy="2"/>
<feGaussianBlur stdDeviation="4"/>
<feColorMatrix type="matrix" values="0 0 0 0 0.0588235 0 0 0 0 0.129412 0 0 0 0 0.160784 0 0 0 0.17 0"/>
<feBlend mode="normal" in2="BackgroundImageFix" result="effect1_dropShadow"/>
<feBlend mode="normal" in="SourceGraphic" in2="effect1_dropShadow" result="shape"/>
</filter>
</defs>
</svg>
