<svg width="574" height="406" viewBox="0 0 574 406" fill="none" xmlns="http://www.w3.org/2000/svg">
<g filter="url(#filter0_d)">
<rect x="6.62109" y="4.59668" width="561.378" height="354.555" rx="4" fill="#FAFAFA"/>
</g>
<path d="M6.62109 8.59667C6.62109 6.38753 8.41195 4.59668 10.6211 4.59668H563.999C566.208 4.59668 567.999 6.38754 567.999 8.59668V43.9916H6.62109V8.59667Z" fill="#24485C"/>
<path d="M6.62109 43.9917H114.957V359.151H10.6211C8.41195 359.151 6.62109 357.361 6.62109 355.151V43.9917Z" fill="#F2F2F3"/>
<rect x="16.4707" y="55.0713" width="88.6387" height="12.3109" rx="2" fill="#BCC0C3"/>
<rect x="16.4707" y="124" width="88.6387" height="12.3109" rx="2" fill="#BCC0C3"/>
<rect x="16.4707" y="72.3066" width="88.6387" height="12.3109" rx="2" fill="#BCC0C3"/>
<rect x="16.4707" y="141.235" width="88.6387" height="12.3109" rx="2" fill="#BCC0C3"/>
<rect x="16.4707" y="89.542" width="88.6387" height="12.3109" rx="2" fill="#BCC0C3"/>
<rect x="16.4707" y="158.471" width="88.6387" height="12.3109" rx="2" fill="#BCC0C3"/>
<rect x="16.4707" y="106.777" width="88.6387" height="12.3109" rx="2" fill="#24485C"/>
<rect x="171.586" y="58.7646" width="40.626" height="7.38655" rx="2" fill="#BCC0C3"/>
<rect x="171.586" y="71.0757" width="173.584" height="3.69328" rx="1.84664" fill="#BCC0C3"/>
<rect x="171.586" y="77.231" width="162.504" height="3.69328" rx="1.84664" fill="#BCC0C3"/>
<rect x="171.586" y="83.3867" width="57.8613" height="3.69328" rx="1.84664" fill="#BCC0C3"/>
<circle cx="150.658" cy="71.0755" r="16.0042" fill="#BCC0C3"/>
<rect x="470" y="161.693" width="40.626" height="7.38655" rx="2" fill="#EDD4B5"/>
<rect x="287" y="174" width="224" height="4" rx="2" fill="#EDD4B5"/>
<rect x="301" y="180" width="210" height="4" rx="2" fill="#EDD4B5"/>
<rect x="437" y="186" width="74" height="4" rx="2" fill="#EDD4B5"/>
<circle cx="532.004" cy="174.004" r="16.0042" fill="#EDD4B5"/>
<rect x="171.588" y="210.693" width="40.626" height="7.38655" rx="2" fill="#BCC0C3"/>
<rect x="172" y="223" width="224" height="4" rx="2" fill="#BCC0C3"/>
<rect x="172" y="229" width="210" height="4" rx="2" fill="#BCC0C3"/>
<rect x="172" y="235" width="74" height="4" rx="2" fill="#BCC0C3"/>
<circle cx="150.66" cy="223.004" r="16.0042" fill="#BCC0C3"/>
<rect x="171.586" y="110.471" width="40.626" height="7.38655" rx="2" fill="#BCC0C3"/>
<rect x="171.586" y="122.782" width="173.584" height="3.69328" rx="1.84664" fill="#BCC0C3"/>
<rect x="171.586" y="128.937" width="162.504" height="3.69328" rx="1.84664" fill="#BCC0C3"/>
<rect x="171.586" y="135.092" width="57.8613" height="3.69328" rx="1.84664" fill="#BCC0C3"/>
<circle cx="150.658" cy="122.782" r="16.0042" fill="#BCC0C3"/>
<g filter="url(#filter1_d)">
<rect x="53" y="310" width="462" height="62" rx="4" fill="white"/>
<rect x="53.5" y="310.5" width="461" height="61" rx="3.5" stroke="#F2F2F3"/>
</g>
<circle cx="83.7776" cy="341.223" r="16.0042" fill="#E0B581"/>
<rect x="115.5" y="329.5" width="350" height="24" rx="1.5" stroke="#E4E6E7"/>
<path d="M483.063 350.456L504.597 341.223L483.063 331.99L483.053 339.171L498.441 341.223L483.053 343.275L483.063 350.456Z" fill="#E0B581"/>
<path d="M122.511 338.546V341.316H125.601V338.546H126.391V344.836H125.601V341.996H122.511V344.836H121.721V338.546H122.511ZM130.06 344.306C130.72 344.306 131.097 344.016 131.19 343.436H132C131.927 343.916 131.714 344.289 131.36 344.556C131.014 344.816 130.58 344.946 130.06 344.946C129.42 344.946 128.9 344.719 128.5 344.266C128.1 343.806 127.9 343.196 127.9 342.436C127.9 341.676 128.1 341.069 128.5 340.616C128.907 340.163 129.444 339.936 130.11 339.936C130.784 339.936 131.284 340.196 131.61 340.716C131.944 341.236 132.06 341.869 131.96 342.616H128.69C128.69 343.109 128.81 343.516 129.05 343.836C129.29 344.149 129.627 344.306 130.06 344.306ZM130.64 340.686C130.487 340.606 130.3 340.566 130.08 340.566C129.674 340.566 129.35 340.706 129.11 340.986C128.877 341.259 128.74 341.603 128.7 342.016H131.25C131.25 341.349 131.047 340.906 130.64 340.686ZM132.597 346.226C132.924 346.479 133.267 346.606 133.627 346.606C133.894 346.606 134.124 346.473 134.317 346.206C134.457 346.013 134.584 345.719 134.697 345.326L134.837 344.836L132.877 340.056H133.757L135.207 343.866L136.337 340.056H137.137L135.347 345.786C135.194 346.273 134.99 346.646 134.737 346.906C134.49 347.166 134.174 347.296 133.787 347.296C133.407 347.296 133.01 347.179 132.597 346.946V346.226ZM140.983 344.686C140.583 344.493 140.383 344.196 140.383 343.796C140.383 343.589 140.46 343.409 140.613 343.256C140.773 343.096 140.97 342.989 141.203 342.936C140.843 342.616 140.663 342.196 140.663 341.676C140.663 341.156 140.847 340.736 141.213 340.416C141.587 340.096 142.027 339.936 142.533 339.936C143.04 339.936 143.47 340.056 143.823 340.296C143.87 339.943 144.01 339.659 144.243 339.446C144.483 339.233 144.797 339.126 145.183 339.126L145.113 339.906C144.527 339.906 144.22 340.153 144.193 340.646C144.427 340.933 144.543 341.276 144.543 341.676C144.543 342.189 144.357 342.613 143.983 342.946C143.617 343.273 143.157 343.436 142.603 343.436C142.223 343.436 141.887 343.359 141.593 343.206C141.46 343.233 141.34 343.296 141.233 343.396C141.127 343.489 141.073 343.619 141.073 343.786C141.073 344.139 141.367 344.316 141.953 344.316H143.813C144.26 344.316 144.613 344.413 144.873 344.606C145.133 344.793 145.263 345.056 145.263 345.396C145.263 345.903 145.007 346.346 144.493 346.726C143.987 347.106 143.343 347.296 142.563 347.296C141.783 347.296 141.17 347.149 140.723 346.856C140.277 346.569 140.053 346.206 140.053 345.766C140.053 345.479 140.137 345.246 140.303 345.066C140.477 344.886 140.703 344.759 140.983 344.686ZM140.833 345.736C140.833 345.989 140.97 346.206 141.243 346.386C141.523 346.573 141.943 346.666 142.503 346.666C143.07 346.666 143.54 346.543 143.913 346.296C144.293 346.056 144.483 345.773 144.483 345.446C144.483 345.293 144.427 345.159 144.313 345.046C144.207 344.939 144.04 344.886 143.813 344.886H141.883C141.543 344.899 141.283 344.979 141.103 345.126C140.923 345.279 140.833 345.483 140.833 345.736ZM143.773 341.676C143.773 341.329 143.67 341.049 143.463 340.836C143.257 340.616 142.97 340.506 142.603 340.506C142.243 340.506 141.96 340.616 141.753 340.836C141.547 341.049 141.443 341.329 141.443 341.676C141.443 342.023 141.547 342.309 141.753 342.536C141.967 342.756 142.253 342.866 142.613 342.866C142.973 342.866 143.257 342.753 143.463 342.526C143.67 342.299 143.773 342.016 143.773 341.676ZM149.688 343.886C149.361 344.579 148.831 344.926 148.098 344.926C147.558 344.926 147.121 344.776 146.788 344.476C146.461 344.176 146.298 343.713 146.298 343.086V340.046H147.088V343.026C147.088 343.833 147.461 344.236 148.208 344.236C148.641 344.236 148.991 344.069 149.258 343.736C149.531 343.403 149.674 342.976 149.688 342.456V340.046H150.478V344.836H149.688V343.886ZM151.542 346.226C151.869 346.479 152.212 346.606 152.572 346.606C152.839 346.606 153.069 346.473 153.262 346.206C153.402 346.013 153.529 345.719 153.642 345.326L153.782 344.836L151.822 340.056H152.702L154.152 343.866L155.282 340.056H156.082L154.292 345.786C154.139 346.273 153.936 346.646 153.682 346.906C153.436 347.166 153.119 347.296 152.732 347.296C152.352 347.296 151.956 347.179 151.542 346.946V346.226ZM157.096 341.226C157.096 340.833 157.263 340.519 157.596 340.286C157.936 340.053 158.393 339.936 158.966 339.936C159.539 339.936 159.986 340.056 160.306 340.296C160.633 340.536 160.803 340.839 160.816 341.206H160.046C159.986 340.773 159.619 340.556 158.946 340.556C158.619 340.556 158.366 340.629 158.186 340.776C158.013 340.923 157.926 341.083 157.926 341.256C157.926 341.423 157.993 341.566 158.126 341.686C158.259 341.799 158.473 341.899 158.766 341.986L159.726 342.306C160.133 342.433 160.443 342.596 160.656 342.796C160.876 342.989 160.986 343.259 160.986 343.606C160.986 343.946 160.809 344.256 160.456 344.536C160.103 344.809 159.609 344.946 158.976 344.946C158.343 344.946 157.849 344.806 157.496 344.526C157.143 344.239 156.956 343.873 156.936 343.426H157.696C157.709 343.726 157.829 343.953 158.056 344.106C158.289 344.253 158.579 344.326 158.926 344.326C159.273 344.326 159.559 344.253 159.786 344.106C160.013 343.959 160.126 343.786 160.126 343.586C160.126 343.379 160.059 343.223 159.926 343.116C159.793 343.009 159.576 342.916 159.276 342.836L158.346 342.526C157.513 342.279 157.096 341.846 157.096 341.226ZM162.65 344.886C162.496 344.873 162.37 344.823 162.27 344.736C162.17 344.649 162.12 344.533 162.12 344.386C162.12 344.239 162.17 344.116 162.27 344.016C162.376 343.916 162.523 343.866 162.71 343.866C162.903 343.866 163.063 343.943 163.19 344.096C163.316 344.243 163.38 344.429 163.38 344.656C163.38 344.883 163.306 345.113 163.16 345.346C163.013 345.586 162.79 345.779 162.49 345.926L161.9 345.636C162.313 345.436 162.563 345.186 162.65 344.886ZM167.882 340.936C168.202 340.269 168.732 339.936 169.472 339.936C170.039 339.936 170.479 340.123 170.792 340.496C171.112 340.869 171.272 341.379 171.272 342.026V344.836H170.492V342.026C170.492 341.566 170.382 341.219 170.162 340.986C169.949 340.753 169.639 340.636 169.232 340.636C168.825 340.636 168.499 340.809 168.252 341.156C168.005 341.496 167.882 341.969 167.882 342.576V344.836H167.092V338.026H167.882V340.936ZM174.847 339.936C175.514 339.936 176.051 340.153 176.457 340.586C176.871 341.019 177.077 341.639 177.077 342.446C177.077 343.246 176.871 343.863 176.457 344.296C176.051 344.729 175.514 344.946 174.847 344.946C174.181 344.946 173.641 344.729 173.227 344.296C172.821 343.863 172.617 343.246 172.617 342.446C172.617 341.639 172.821 341.019 173.227 340.586C173.641 340.153 174.181 339.936 174.847 339.936ZM176.277 342.446C176.277 341.873 176.157 341.426 175.917 341.106C175.677 340.779 175.324 340.616 174.857 340.616C174.397 340.616 174.044 340.779 173.797 341.106C173.551 341.426 173.427 341.873 173.427 342.446C173.427 343.013 173.544 343.459 173.777 343.786C174.011 344.106 174.357 344.266 174.817 344.266C175.284 344.266 175.644 344.106 175.897 343.786C176.151 343.459 176.277 343.013 176.277 342.446ZM178.576 340.056L179.736 343.866L180.876 340.286H181.536L182.666 343.906L183.836 340.056H184.616L183.056 344.836H182.286L181.186 341.486L180.106 344.836H179.346L177.756 340.056H178.576ZM185.912 338.066L185.802 340.266H185.202L185.092 338.066H185.912ZM186.94 341.226C186.94 340.833 187.106 340.519 187.44 340.286C187.78 340.053 188.236 339.936 188.81 339.936C189.383 339.936 189.83 340.056 190.15 340.296C190.476 340.536 190.646 340.839 190.66 341.206H189.89C189.83 340.773 189.463 340.556 188.79 340.556C188.463 340.556 188.21 340.629 188.03 340.776C187.856 340.923 187.77 341.083 187.77 341.256C187.77 341.423 187.836 341.566 187.97 341.686C188.103 341.799 188.316 341.899 188.61 341.986L189.57 342.306C189.976 342.433 190.286 342.596 190.5 342.796C190.72 342.989 190.83 343.259 190.83 343.606C190.83 343.946 190.653 344.256 190.3 344.536C189.946 344.809 189.453 344.946 188.82 344.946C188.186 344.946 187.693 344.806 187.34 344.526C186.986 344.239 186.8 343.873 186.78 343.426H187.54C187.553 343.726 187.673 343.953 187.9 344.106C188.133 344.253 188.423 344.326 188.77 344.326C189.116 344.326 189.403 344.253 189.63 344.106C189.856 343.959 189.97 343.786 189.97 343.586C189.97 343.379 189.903 343.223 189.77 343.116C189.636 343.009 189.42 342.916 189.12 342.836L188.19 342.526C187.356 342.279 186.94 341.846 186.94 341.226ZM194.886 340.046H195.676V344.836H194.886V340.046ZM195.276 338.926C195.116 338.926 194.99 338.883 194.896 338.796C194.81 338.703 194.766 338.583 194.766 338.436C194.766 338.283 194.81 338.163 194.896 338.076C194.99 337.983 195.116 337.936 195.276 337.936C195.436 337.936 195.563 337.983 195.656 338.076C195.756 338.163 195.806 338.283 195.806 338.436C195.806 338.583 195.756 338.703 195.656 338.796C195.563 338.883 195.436 338.926 195.276 338.926ZM200.324 344.696C199.751 344.963 199.228 345.019 198.754 344.866C198.414 344.759 198.174 344.536 198.034 344.196C197.961 344.029 197.924 343.829 197.924 343.596V340.656H197.154V340.056H197.924V338.726H198.704V340.056H200.204V340.656H198.704V343.586C198.704 344.073 198.931 344.316 199.384 344.316C199.631 344.316 199.908 344.256 200.214 344.136L200.324 344.696ZM204.167 344.686C203.767 344.493 203.567 344.196 203.567 343.796C203.567 343.589 203.644 343.409 203.797 343.256C203.957 343.096 204.154 342.989 204.387 342.936C204.027 342.616 203.847 342.196 203.847 341.676C203.847 341.156 204.03 340.736 204.397 340.416C204.77 340.096 205.21 339.936 205.717 339.936C206.224 339.936 206.654 340.056 207.007 340.296C207.054 339.943 207.194 339.659 207.427 339.446C207.667 339.233 207.98 339.126 208.367 339.126L208.297 339.906C207.71 339.906 207.404 340.153 207.377 340.646C207.61 340.933 207.727 341.276 207.727 341.676C207.727 342.189 207.54 342.613 207.167 342.946C206.8 343.273 206.34 343.436 205.787 343.436C205.407 343.436 205.07 343.359 204.777 343.206C204.644 343.233 204.524 343.296 204.417 343.396C204.31 343.489 204.257 343.619 204.257 343.786C204.257 344.139 204.55 344.316 205.137 344.316H206.997C207.444 344.316 207.797 344.413 208.057 344.606C208.317 344.793 208.447 345.056 208.447 345.396C208.447 345.903 208.19 346.346 207.677 346.726C207.17 347.106 206.527 347.296 205.747 347.296C204.967 347.296 204.354 347.149 203.907 346.856C203.46 346.569 203.237 346.206 203.237 345.766C203.237 345.479 203.32 345.246 203.487 345.066C203.66 344.886 203.887 344.759 204.167 344.686ZM204.017 345.736C204.017 345.989 204.154 346.206 204.427 346.386C204.707 346.573 205.127 346.666 205.687 346.666C206.254 346.666 206.724 346.543 207.097 346.296C207.477 346.056 207.667 345.773 207.667 345.446C207.667 345.293 207.61 345.159 207.497 345.046C207.39 344.939 207.224 344.886 206.997 344.886H205.067C204.727 344.899 204.467 344.979 204.287 345.126C204.107 345.279 204.017 345.483 204.017 345.736ZM206.957 341.676C206.957 341.329 206.854 341.049 206.647 340.836C206.44 340.616 206.154 340.506 205.787 340.506C205.427 340.506 205.144 340.616 204.937 340.836C204.73 341.049 204.627 341.329 204.627 341.676C204.627 342.023 204.73 342.309 204.937 342.536C205.15 342.756 205.437 342.866 205.797 342.866C206.157 342.866 206.44 342.753 206.647 342.526C206.854 342.299 206.957 342.016 206.957 341.676ZM211.341 339.936C212.008 339.936 212.545 340.153 212.951 340.586C213.365 341.019 213.571 341.639 213.571 342.446C213.571 343.246 213.365 343.863 212.951 344.296C212.545 344.729 212.008 344.946 211.341 344.946C210.675 344.946 210.135 344.729 209.721 344.296C209.315 343.863 209.111 343.246 209.111 342.446C209.111 341.639 209.315 341.019 209.721 340.586C210.135 340.153 210.675 339.936 211.341 339.936ZM212.771 342.446C212.771 341.873 212.651 341.426 212.411 341.106C212.171 340.779 211.818 340.616 211.351 340.616C210.891 340.616 210.538 340.779 210.291 341.106C210.045 341.426 209.921 341.873 209.921 342.446C209.921 343.013 210.038 343.459 210.271 343.786C210.505 344.106 210.851 344.266 211.311 344.266C211.778 344.266 212.138 344.106 212.391 343.786C212.645 343.459 212.771 343.013 212.771 342.446ZM215.13 340.046H215.92V344.836H215.13V340.046ZM215.52 338.926C215.36 338.926 215.234 338.883 215.14 338.796C215.054 338.703 215.01 338.583 215.01 338.436C215.01 338.283 215.054 338.163 215.14 338.076C215.234 337.983 215.36 337.936 215.52 337.936C215.68 337.936 215.807 337.983 215.9 338.076C216 338.163 216.05 338.283 216.05 338.436C216.05 338.583 216 338.703 215.9 338.796C215.807 338.883 215.68 338.926 215.52 338.926ZM218.829 340.976C219.142 340.283 219.679 339.936 220.439 339.936C221.005 339.936 221.445 340.123 221.759 340.496C222.079 340.869 222.239 341.379 222.239 342.026V344.836H221.459V342.026C221.459 341.566 221.349 341.219 221.129 340.986C220.915 340.753 220.609 340.636 220.209 340.636C219.809 340.636 219.485 340.799 219.239 341.126C218.992 341.453 218.862 341.906 218.849 342.486V344.836H218.059V340.056H218.739L218.829 340.976ZM224.294 344.686C223.894 344.493 223.694 344.196 223.694 343.796C223.694 343.589 223.771 343.409 223.924 343.256C224.084 343.096 224.281 342.989 224.514 342.936C224.154 342.616 223.974 342.196 223.974 341.676C223.974 341.156 224.157 340.736 224.524 340.416C224.897 340.096 225.337 339.936 225.844 339.936C226.351 339.936 226.781 340.056 227.134 340.296C227.181 339.943 227.321 339.659 227.554 339.446C227.794 339.233 228.107 339.126 228.494 339.126L228.424 339.906C227.837 339.906 227.531 340.153 227.504 340.646C227.737 340.933 227.854 341.276 227.854 341.676C227.854 342.189 227.667 342.613 227.294 342.946C226.927 343.273 226.467 343.436 225.914 343.436C225.534 343.436 225.197 343.359 224.904 343.206C224.771 343.233 224.651 343.296 224.544 343.396C224.437 343.489 224.384 343.619 224.384 343.786C224.384 344.139 224.677 344.316 225.264 344.316H227.124C227.571 344.316 227.924 344.413 228.184 344.606C228.444 344.793 228.574 345.056 228.574 345.396C228.574 345.903 228.317 346.346 227.804 346.726C227.297 347.106 226.654 347.296 225.874 347.296C225.094 347.296 224.481 347.149 224.034 346.856C223.587 346.569 223.364 346.206 223.364 345.766C223.364 345.479 223.447 345.246 223.614 345.066C223.787 344.886 224.014 344.759 224.294 344.686ZM224.144 345.736C224.144 345.989 224.281 346.206 224.554 346.386C224.834 346.573 225.254 346.666 225.814 346.666C226.381 346.666 226.851 346.543 227.224 346.296C227.604 346.056 227.794 345.773 227.794 345.446C227.794 345.293 227.737 345.159 227.624 345.046C227.517 344.939 227.351 344.886 227.124 344.886H225.194C224.854 344.899 224.594 344.979 224.414 345.126C224.234 345.279 224.144 345.483 224.144 345.736ZM227.084 341.676C227.084 341.329 226.981 341.049 226.774 340.836C226.567 340.616 226.281 340.506 225.914 340.506C225.554 340.506 225.271 340.616 225.064 340.836C224.857 341.049 224.754 341.329 224.754 341.676C224.754 342.023 224.857 342.309 225.064 342.536C225.277 342.756 225.564 342.866 225.924 342.866C226.284 342.866 226.567 342.753 226.774 342.526C226.981 342.299 227.084 342.016 227.084 341.676ZM229.618 344.926C229.452 344.926 229.312 344.873 229.198 344.766C229.092 344.653 229.038 344.519 229.038 344.366C229.038 344.206 229.092 344.073 229.198 343.966C229.312 343.853 229.452 343.796 229.618 343.796C229.792 343.796 229.935 343.853 230.048 343.966C230.162 344.073 230.218 344.206 230.218 344.366C230.218 344.519 230.162 344.653 230.048 344.766C229.935 344.873 229.792 344.926 229.618 344.926ZM231.405 344.926C231.239 344.926 231.099 344.873 230.985 344.766C230.879 344.653 230.825 344.519 230.825 344.366C230.825 344.206 230.879 344.073 230.985 343.966C231.099 343.853 231.239 343.796 231.405 343.796C231.579 343.796 231.722 343.853 231.835 343.966C231.949 344.073 232.005 344.206 232.005 344.366C232.005 344.519 231.949 344.653 231.835 344.766C231.722 344.873 231.579 344.926 231.405 344.926ZM233.193 344.926C233.026 344.926 232.886 344.873 232.773 344.766C232.666 344.653 232.613 344.519 232.613 344.366C232.613 344.206 232.666 344.073 232.773 343.966C232.886 343.853 233.026 343.796 233.193 343.796C233.366 343.796 233.509 343.853 233.623 343.966C233.736 344.073 233.793 344.206 233.793 344.366C233.793 344.519 233.736 344.653 233.623 344.766C233.509 344.873 233.366 344.926 233.193 344.926Z" fill="#40464A"/>
<defs>
<filter id="filter0_d" x="0.621094" y="0.59668" width="573.378" height="366.555" filterUnits="userSpaceOnUse" color-interpolation-filters="sRGB">
<feFlood flood-opacity="0" result="BackgroundImageFix"/>
<feColorMatrix in="SourceAlpha" type="matrix" values="0 0 0 0 0 0 0 0 0 0 0 0 0 0 0 0 0 0 127 0" result="hardAlpha"/>
<feMorphology radius="2" operator="erode" in="SourceAlpha" result="effect1_dropShadow"/>
<feOffset dy="2"/>
<feGaussianBlur stdDeviation="4"/>
<feColorMatrix type="matrix" values="0 0 0 0 0.0588235 0 0 0 0 0.129412 0 0 0 0 0.160784 0 0 0 0.17 0"/>
<feBlend mode="normal" in2="BackgroundImageFix" result="effect1_dropShadow"/>
<feBlend mode="normal" in="SourceGraphic" in2="effect1_dropShadow" result="shape"/>
</filter>
<filter id="filter1_d" x="29" y="296" width="510" height="110" filterUnits="userSpaceOnUse" color-interpolation-filters="sRGB">
<feFlood flood-opacity="0" result="BackgroundImageFix"/>
<feColorMatrix in="SourceAlpha" type="matrix" values="0 0 0 0 0 0 0 0 0 0 0 0 0 0 0 0 0 0 127 0" result="hardAlpha"/>
<feMorphology radius="8" operator="erode" in="SourceAlpha" result="effect1_dropShadow"/>
<feOffset dy="10"/>
<feGaussianBlur stdDeviation="16"/>
<feColorMatrix type="matrix" values="0 0 0 0 0.0588235 0 0 0 0 0.129412 0 0 0 0 0.160784 0 0 0 0.17 0"/>
<feBlend mode="normal" in2="BackgroundImageFix" result="effect1_dropShadow"/>
<feBlend mode="normal" in="SourceGraphic" in2="effect1_dropShadow" result="shape"/>
</filter>
</defs>
</svg>
