<svg width="637" height="403" viewBox="0 0 637 403" fill="none" xmlns="http://www.w3.org/2000/svg">
<g filter="url(#filter0_d)">
<rect x="6" y="39.5967" width="561.378" height="354.555" rx="4" fill="#FAFAFA"/>
</g>
<path d="M6 43.5967C6 41.3875 7.79086 39.5967 10 39.5967H563.378C565.587 39.5967 567.378 41.3875 567.378 43.5967V78.9916H6V43.5967Z" fill="#24485C"/>
<path d="M6 78.9917H114.336V394.151H10C7.79086 394.151 6 392.361 6 390.151V78.9917Z" fill="#F2F2F3"/>
<rect x="15.8496" y="90.0713" width="88.6387" height="12.3109" rx="2" fill="#BCC0C3"/>
<rect x="15.8496" y="107.307" width="88.6387" height="12.3109" rx="2" fill="#BCC0C3"/>
<rect x="15.8496" y="124.542" width="88.6387" height="12.3109" rx="2" fill="#BCC0C3"/>
<rect x="15.8496" y="159" width="88.6387" height="12.3109" rx="2" fill="#BCC0C3"/>
<rect x="15.8496" y="176" width="88.6387" height="12.3109" rx="2" fill="#BCC0C3"/>
<rect x="132.379" y="93" width="136" height="20" rx="2" fill="#BCC0C3"/>
<rect x="15.8496" y="141.777" width="88.6387" height="12.3109" rx="2" fill="#24485C"/>
<rect x="132.379" y="131" width="126" height="128" rx="4" fill="#EDD4B5"/>
<rect x="132.379" y="277" width="126" height="117" rx="4" fill="#E4E6E7"/>
<rect x="278.379" y="131" width="125" height="128" rx="4" fill="#E4E6E7"/>
<rect x="278.379" y="277" width="125" height="117" rx="4" fill="#E4E6E7"/>
<rect x="423.379" y="131" width="126" height="128" rx="4" fill="#E4E6E7"/>
<rect x="423.379" y="277" width="126" height="117" rx="4" fill="#E4E6E7"/>
<g filter="url(#filter1_d)">
<rect x="445" y="14" width="168" height="325" rx="4" fill="white"/>
<rect x="445.5" y="14.5" width="167" height="324" rx="3.5" stroke="#F2F2F3"/>
</g>
<rect x="461" y="160" width="40.626" height="7.38655" rx="2" fill="#BCC0C3"/>
<rect x="461" y="222" width="40.626" height="7.38655" rx="2" fill="#BCC0C3"/>
<rect x="461" y="284" width="40.626" height="7.38655" rx="2" fill="#BCC0C3"/>
<rect x="461" y="172" width="136" height="4" rx="2" fill="#BCC0C3"/>
<rect x="461" y="234" width="136" height="4" rx="2" fill="#BCC0C3"/>
<rect x="461" y="296" width="136" height="4" rx="2" fill="#BCC0C3"/>
<rect x="461" y="184" width="136" height="4" rx="2" fill="#BCC0C3"/>
<rect x="461" y="246" width="136" height="4" rx="2" fill="#BCC0C3"/>
<rect x="461" y="308" width="136" height="4" rx="2" fill="#BCC0C3"/>
<rect x="461" y="196" width="136" height="4" rx="2" fill="#BCC0C3"/>
<rect x="461" y="258" width="136" height="4" rx="2" fill="#BCC0C3"/>
<rect x="461" y="320" width="136" height="4" rx="2" fill="#BCC0C3"/>
<rect x="461" y="178" width="127" height="4" rx="2" fill="#BCC0C3"/>
<rect x="461" y="240" width="127" height="4" rx="2" fill="#BCC0C3"/>
<rect x="461" y="302" width="127" height="4" rx="2" fill="#BCC0C3"/>
<rect x="461" y="190" width="127" height="4" rx="2" fill="#BCC0C3"/>
<rect x="461" y="252" width="127" height="4" rx="2" fill="#BCC0C3"/>
<rect x="461" y="314" width="127" height="4" rx="2" fill="#BCC0C3"/>
<rect x="461" y="202" width="127" height="4" rx="2" fill="#BCC0C3"/>
<rect x="461" y="264" width="127" height="4" rx="2" fill="#BCC0C3"/>
<rect x="461" y="326" width="127" height="4" rx="2" fill="#BCC0C3"/>
<rect x="461" y="84" width="140" height="64" rx="4" fill="#EDD4B5"/>
<path d="M465.02 34.57V40.07H467.725V41H463.955V34.57H465.02ZM470.583 41.135C470.17 41.135 469.793 41.0283 469.453 40.815C469.117 40.6017 468.847 40.3033 468.643 39.92C468.443 39.5367 468.343 39.0917 468.343 38.585C468.343 38.055 468.443 37.6 468.643 37.22C468.843 36.8367 469.112 36.5433 469.448 36.34C469.788 36.1367 470.167 36.035 470.583 36.035C470.963 36.035 471.29 36.1117 471.563 36.265C471.84 36.4183 472.062 36.625 472.228 36.885C472.395 37.145 472.508 37.44 472.568 37.77C472.632 38.0967 472.64 38.435 472.593 38.785H469.198V38.19H471.848L471.618 38.34C471.628 38.17 471.62 38 471.593 37.83C471.567 37.66 471.515 37.5033 471.438 37.36C471.365 37.2167 471.26 37.1017 471.123 37.015C470.987 36.9283 470.812 36.885 470.598 36.885C470.342 36.885 470.123 36.9517 469.943 37.085C469.767 37.215 469.632 37.39 469.538 37.61C469.448 37.83 469.403 38.075 469.403 38.345V38.775C469.403 39.065 469.447 39.3233 469.533 39.55C469.62 39.7733 469.75 39.95 469.923 40.08C470.1 40.21 470.32 40.275 470.583 40.275C470.837 40.275 471.047 40.215 471.213 40.095C471.383 39.975 471.49 39.7967 471.533 39.56H472.618C472.568 39.8733 472.452 40.1483 472.268 40.385C472.085 40.6217 471.85 40.8067 471.563 40.94C471.277 41.07 470.95 41.135 470.583 41.135ZM477.122 41L476.987 39.86V37.88C476.987 37.5133 476.911 37.245 476.757 37.075C476.607 36.905 476.362 36.82 476.022 36.82C475.829 36.82 475.657 36.8483 475.507 36.905C475.361 36.9617 475.246 37.0467 475.162 37.16C475.082 37.27 475.042 37.4067 475.042 37.57H473.872C473.872 37.2067 473.959 36.9133 474.132 36.69C474.309 36.4633 474.557 36.2983 474.877 36.195C475.201 36.0883 475.582 36.035 476.022 36.035C476.429 36.035 476.784 36.1017 477.087 36.235C477.391 36.365 477.627 36.5683 477.797 36.845C477.967 37.1217 478.052 37.4783 478.052 37.915V41H477.122ZM475.522 41.135C475.112 41.135 474.771 41.0633 474.497 40.92C474.227 40.7767 474.024 40.5883 473.887 40.355C473.751 40.1217 473.682 39.8717 473.682 39.605C473.682 39.2917 473.762 39.0317 473.922 38.825C474.086 38.6183 474.312 38.465 474.602 38.365C474.896 38.2617 475.236 38.21 475.622 38.21C475.886 38.21 476.136 38.2317 476.372 38.275C476.612 38.3183 476.851 38.375 477.087 38.445V39.08C476.897 39.0133 476.689 38.9617 476.462 38.925C476.236 38.8883 476.026 38.87 475.832 38.87C475.539 38.87 475.296 38.9267 475.102 39.04C474.912 39.15 474.817 39.3383 474.817 39.605C474.817 39.7983 474.894 39.965 475.047 40.105C475.201 40.245 475.444 40.315 475.777 40.315C476.027 40.315 476.242 40.26 476.422 40.15C476.602 40.04 476.741 39.9017 476.837 39.735C476.937 39.5683 476.987 39.4017 476.987 39.235H477.242C477.242 39.575 477.176 39.89 477.042 40.18C476.912 40.4667 476.719 40.6983 476.462 40.875C476.206 41.0483 475.892 41.135 475.522 41.135ZM479.824 41V36.155H480.889V41H479.824ZM480.614 38.86C480.614 38.2333 480.681 37.715 480.814 37.305C480.951 36.8917 481.137 36.585 481.374 36.385C481.611 36.1817 481.881 36.08 482.184 36.08C482.274 36.08 482.357 36.0867 482.434 36.1C482.511 36.11 482.586 36.1267 482.659 36.15L482.634 37.21C482.544 37.1867 482.447 37.1683 482.344 37.155C482.241 37.1383 482.149 37.13 482.069 37.13C481.802 37.13 481.581 37.1983 481.404 37.335C481.231 37.4683 481.101 37.665 481.014 37.925C480.931 38.1817 480.889 38.4933 480.889 38.86H480.614ZM487.012 41V38.17C487.012 37.78 486.919 37.4867 486.732 37.29C486.545 37.09 486.297 36.99 485.987 36.99C485.737 36.99 485.517 37.06 485.327 37.2C485.137 37.3367 484.989 37.54 484.882 37.81C484.779 38.08 484.727 38.4117 484.727 38.805H484.362C484.362 38.195 484.439 37.685 484.592 37.275C484.745 36.865 484.964 36.5567 485.247 36.35C485.534 36.14 485.874 36.035 486.267 36.035C486.66 36.035 486.99 36.1233 487.257 36.3C487.527 36.4767 487.73 36.725 487.867 37.045C488.004 37.365 488.072 37.74 488.072 38.17V41H487.012ZM483.662 41V36.17H484.587L484.727 37.17V41H483.662ZM495.664 41V38.17C495.664 37.78 495.571 37.4867 495.384 37.29C495.198 37.09 494.949 36.99 494.639 36.99C494.389 36.99 494.169 37.06 493.979 37.2C493.789 37.3367 493.641 37.54 493.534 37.81C493.431 38.08 493.379 38.4117 493.379 38.805H493.014C493.014 38.195 493.091 37.685 493.244 37.275C493.398 36.865 493.616 36.5567 493.899 36.35C494.186 36.14 494.526 36.035 494.919 36.035C495.313 36.035 495.643 36.1233 495.909 36.3C496.179 36.4767 496.383 36.725 496.519 37.045C496.656 37.365 496.724 37.74 496.724 38.17V41H495.664ZM492.314 41V34.15H493.379V41H492.314ZM500.341 41.135C499.901 41.135 499.506 41.04 499.156 40.85C498.806 40.66 498.528 40.3767 498.321 40C498.115 39.6233 498.011 39.1533 498.011 38.59C498.011 38.0167 498.115 37.5417 498.321 37.165C498.528 36.7883 498.806 36.5067 499.156 36.32C499.506 36.13 499.901 36.035 500.341 36.035C500.775 36.035 501.166 36.13 501.516 36.32C501.866 36.5067 502.143 36.7883 502.346 37.165C502.553 37.5417 502.656 38.0167 502.656 38.59C502.656 39.1533 502.553 39.6233 502.346 40C502.143 40.3767 501.866 40.66 501.516 40.85C501.166 41.04 500.775 41.135 500.341 41.135ZM500.306 40.205C500.563 40.205 500.786 40.1433 500.976 40.02C501.17 39.8933 501.32 39.71 501.426 39.47C501.533 39.23 501.586 38.9367 501.586 38.59C501.586 38.06 501.48 37.655 501.266 37.375C501.056 37.095 500.76 36.955 500.376 36.955C500.12 36.955 499.895 37.0183 499.701 37.145C499.508 37.2683 499.358 37.4517 499.251 37.695C499.145 37.935 499.091 38.2333 499.091 38.59C499.091 39.11 499.198 39.51 499.411 39.79C499.628 40.0667 499.926 40.205 500.306 40.205ZM503.272 36.17H504.382L505.482 39.94H505.367L506.417 36.42H507.367L508.412 39.95H508.297L509.397 36.17H510.462L508.872 41H507.827L506.787 37.69H506.952L505.927 41H504.877L503.272 36.17ZM515.643 41.135C515.363 41.135 515.108 41.0833 514.878 40.98C514.651 40.8733 514.469 40.7133 514.333 40.5C514.196 40.2833 514.128 40.0117 514.128 39.685V34.87H515.193V39.65C515.193 40.0767 515.394 40.29 515.798 40.29C515.918 40.29 516.038 40.2767 516.158 40.25C516.278 40.2233 516.414 40.1817 516.568 40.125L516.723 40.875C516.539 40.9483 516.361 41.01 516.188 41.06C516.014 41.11 515.833 41.135 515.643 41.135ZM513.423 36.88V36.17H516.568V36.88H513.423ZM519.794 41.135C519.354 41.135 518.959 41.04 518.609 40.85C518.259 40.66 517.981 40.3767 517.774 40C517.568 39.6233 517.464 39.1533 517.464 38.59C517.464 38.0167 517.568 37.5417 517.774 37.165C517.981 36.7883 518.259 36.5067 518.609 36.32C518.959 36.13 519.354 36.035 519.794 36.035C520.228 36.035 520.619 36.13 520.969 36.32C521.319 36.5067 521.596 36.7883 521.799 37.165C522.006 37.5417 522.109 38.0167 522.109 38.59C522.109 39.1533 522.006 39.6233 521.799 40C521.596 40.3767 521.319 40.66 520.969 40.85C520.619 41.04 520.228 41.135 519.794 41.135ZM519.759 40.205C520.016 40.205 520.239 40.1433 520.429 40.02C520.623 39.8933 520.773 39.71 520.879 39.47C520.986 39.23 521.039 38.9367 521.039 38.59C521.039 38.06 520.933 37.655 520.719 37.375C520.509 37.095 520.213 36.955 519.829 36.955C519.573 36.955 519.348 37.0183 519.154 37.145C518.961 37.2683 518.811 37.4517 518.704 37.695C518.598 37.935 518.544 38.2333 518.544 38.59C518.544 39.11 518.651 39.51 518.864 39.79C519.081 40.0667 519.379 40.205 519.759 40.205ZM527.615 41.135C527.335 41.135 527.08 41.0833 526.85 40.98C526.624 40.8733 526.442 40.7133 526.305 40.5C526.169 40.2833 526.1 40.0117 526.1 39.685V34.87H527.165V39.65C527.165 40.0767 527.367 40.29 527.77 40.29C527.89 40.29 528.01 40.2767 528.13 40.25C528.25 40.2233 528.387 40.1817 528.54 40.125L528.695 40.875C528.512 40.9483 528.334 41.01 528.16 41.06C527.987 41.11 527.805 41.135 527.615 41.135ZM525.395 36.88V36.17H528.54V36.88H525.395ZM531.677 41.135C531.264 41.135 530.887 41.0283 530.547 40.815C530.21 40.6017 529.94 40.3033 529.737 39.92C529.537 39.5367 529.437 39.0917 529.437 38.585C529.437 38.055 529.537 37.6 529.737 37.22C529.937 36.8367 530.205 36.5433 530.542 36.34C530.882 36.1367 531.26 36.035 531.677 36.035C532.057 36.035 532.384 36.1117 532.657 36.265C532.934 36.4183 533.155 36.625 533.322 36.885C533.489 37.145 533.602 37.44 533.662 37.77C533.725 38.0967 533.734 38.435 533.687 38.785H530.292V38.19H532.942L532.712 38.34C532.722 38.17 532.714 38 532.687 37.83C532.66 37.66 532.609 37.5033 532.532 37.36C532.459 37.2167 532.354 37.1017 532.217 37.015C532.08 36.9283 531.905 36.885 531.692 36.885C531.435 36.885 531.217 36.9517 531.037 37.085C530.86 37.215 530.725 37.39 530.632 37.61C530.542 37.83 530.497 38.075 530.497 38.345V38.775C530.497 39.065 530.54 39.3233 530.627 39.55C530.714 39.7733 530.844 39.95 531.017 40.08C531.194 40.21 531.414 40.275 531.677 40.275C531.93 40.275 532.14 40.215 532.307 40.095C532.477 39.975 532.584 39.7967 532.627 39.56H533.712C533.662 39.8733 533.545 40.1483 533.362 40.385C533.179 40.6217 532.944 40.8067 532.657 40.94C532.37 41.07 532.044 41.135 531.677 41.135ZM535.166 41V34.15H536.231V41H535.166ZM538.144 41V34.15H539.209V41H538.144ZM542.848 36.17H544.053L545.418 40.07H545.218L546.358 36.17H547.443L545.598 41.905C545.422 42.4517 545.197 42.8533 544.923 43.11C544.653 43.3667 544.32 43.495 543.923 43.495C543.7 43.495 543.483 43.4667 543.273 43.41C543.063 43.3567 542.85 43.275 542.633 43.165V42.22C542.813 42.34 542.988 42.4267 543.158 42.48C543.328 42.5367 543.5 42.565 543.673 42.565C543.843 42.565 543.99 42.5167 544.113 42.42C544.237 42.3233 544.342 42.1917 544.428 42.025C544.518 41.8617 544.593 41.6783 544.653 41.475L544.798 41L542.848 36.17ZM550.38 41.135C549.94 41.135 549.545 41.04 549.195 40.85C548.845 40.66 548.567 40.3767 548.36 40C548.154 39.6233 548.05 39.1533 548.05 38.59C548.05 38.0167 548.154 37.5417 548.36 37.165C548.567 36.7883 548.845 36.5067 549.195 36.32C549.545 36.13 549.94 36.035 550.38 36.035C550.814 36.035 551.205 36.13 551.555 36.32C551.905 36.5067 552.182 36.7883 552.385 37.165C552.592 37.5417 552.695 38.0167 552.695 38.59C552.695 39.1533 552.592 39.6233 552.385 40C552.182 40.3767 551.905 40.66 551.555 40.85C551.205 41.04 550.814 41.135 550.38 41.135ZM550.345 40.205C550.602 40.205 550.825 40.1433 551.015 40.02C551.209 39.8933 551.359 39.71 551.465 39.47C551.572 39.23 551.625 38.9367 551.625 38.59C551.625 38.06 551.519 37.655 551.305 37.375C551.095 37.095 550.799 36.955 550.415 36.955C550.159 36.955 549.934 37.0183 549.74 37.145C549.547 37.2683 549.397 37.4517 549.29 37.695C549.184 37.935 549.13 38.2333 549.13 38.59C549.13 39.11 549.237 39.51 549.45 39.79C549.667 40.0667 549.965 40.205 550.345 40.205ZM557.366 36.155H558.431V41H557.366V36.155ZM554.016 36.155H555.081V39.135C555.081 39.4717 555.164 39.7267 555.331 39.9C555.501 40.0733 555.736 40.16 556.036 40.16C556.286 40.16 556.511 40.095 556.711 39.965C556.914 39.8317 557.074 39.64 557.191 39.39C557.307 39.1367 557.366 38.8317 557.366 38.475H557.676C557.676 39.0517 557.599 39.535 557.446 39.925C557.292 40.3117 557.079 40.6033 556.806 40.8C556.532 40.9933 556.214 41.09 555.851 41.09C555.504 41.09 555.191 41.0267 554.911 40.9C554.634 40.7733 554.416 40.575 554.256 40.305C554.096 40.0317 554.016 39.675 554.016 39.235V36.155ZM560.342 41V36.155H561.407V41H560.342ZM561.132 38.86C561.132 38.2333 561.198 37.715 561.332 37.305C561.468 36.8917 561.655 36.585 561.892 36.385C562.128 36.1817 562.398 36.08 562.702 36.08C562.792 36.08 562.875 36.0867 562.952 36.1C563.028 36.11 563.103 36.1267 563.177 36.15L563.152 37.21C563.062 37.1867 562.965 37.1683 562.862 37.155C562.758 37.1383 562.667 37.13 562.587 37.13C562.32 37.13 562.098 37.1983 561.922 37.335C561.748 37.4683 561.618 37.665 561.532 37.925C561.448 38.1817 561.407 38.4933 561.407 38.86H561.132ZM470.58 53V50.17C470.58 49.78 470.487 49.4867 470.3 49.29C470.117 49.09 469.872 48.99 469.565 48.99C469.185 48.99 468.89 49.14 468.68 49.44C468.47 49.74 468.365 50.1817 468.365 50.765H467.91C467.91 50.2783 467.957 49.8633 468.05 49.52C468.143 49.1733 468.275 48.8917 468.445 48.675C468.618 48.455 468.823 48.2933 469.06 48.19C469.297 48.0867 469.558 48.035 469.845 48.035C470.238 48.035 470.568 48.1233 470.835 48.3C471.105 48.4767 471.308 48.725 471.445 49.045C471.585 49.365 471.655 49.74 471.655 50.17V53H470.58ZM463.955 53V48.17H464.88L465 49.035C465.157 48.7083 465.367 48.46 465.63 48.29C465.897 48.12 466.207 48.035 466.56 48.035C466.953 48.035 467.283 48.1233 467.55 48.3C467.82 48.4767 468.023 48.725 468.16 49.045C468.297 49.365 468.365 49.74 468.365 50.17V53H467.305V50.17C467.305 49.78 467.212 49.4867 467.025 49.29C466.838 49.09 466.59 48.99 466.28 48.99C466.03 48.99 465.81 49.06 465.62 49.2C465.43 49.3367 465.282 49.54 465.175 49.81C465.072 50.08 465.02 50.4117 465.02 50.805V53H463.955ZM476.458 53L476.323 51.86V49.88C476.323 49.5133 476.246 49.245 476.093 49.075C475.943 48.905 475.698 48.82 475.358 48.82C475.165 48.82 474.993 48.8483 474.843 48.905C474.696 48.9617 474.581 49.0467 474.498 49.16C474.418 49.27 474.378 49.4067 474.378 49.57H473.208C473.208 49.2067 473.295 48.9133 473.468 48.69C473.645 48.4633 473.893 48.2983 474.213 48.195C474.536 48.0883 474.918 48.035 475.358 48.035C475.765 48.035 476.12 48.1017 476.423 48.235C476.726 48.365 476.963 48.5683 477.133 48.845C477.303 49.1217 477.388 49.4783 477.388 49.915V53H476.458ZM474.858 53.135C474.448 53.135 474.106 53.0633 473.833 52.92C473.563 52.7767 473.36 52.5883 473.223 52.355C473.086 52.1217 473.018 51.8717 473.018 51.605C473.018 51.2917 473.098 51.0317 473.258 50.825C473.421 50.6183 473.648 50.465 473.938 50.365C474.231 50.2617 474.571 50.21 474.958 50.21C475.221 50.21 475.471 50.2317 475.708 50.275C475.948 50.3183 476.186 50.375 476.423 50.445V51.08C476.233 51.0133 476.025 50.9617 475.798 50.925C475.571 50.8883 475.361 50.87 475.168 50.87C474.875 50.87 474.631 50.9267 474.438 51.04C474.248 51.15 474.153 51.3383 474.153 51.605C474.153 51.7983 474.23 51.965 474.383 52.105C474.536 52.245 474.78 52.315 475.113 52.315C475.363 52.315 475.578 52.26 475.758 52.15C475.938 52.04 476.076 51.9017 476.173 51.735C476.273 51.5683 476.323 51.4017 476.323 51.235H476.578C476.578 51.575 476.511 51.89 476.378 52.18C476.248 52.4667 476.055 52.6983 475.798 52.875C475.541 53.0483 475.228 53.135 474.858 53.135ZM482.51 53V50.17C482.51 49.78 482.417 49.4867 482.23 49.29C482.043 49.09 481.795 48.99 481.485 48.99C481.235 48.99 481.015 49.06 480.825 49.2C480.635 49.3367 480.487 49.54 480.38 49.81C480.277 50.08 480.225 50.4117 480.225 50.805H479.86C479.86 50.195 479.937 49.685 480.09 49.275C480.243 48.865 480.462 48.5567 480.745 48.35C481.032 48.14 481.372 48.035 481.765 48.035C482.158 48.035 482.488 48.1233 482.755 48.3C483.025 48.4767 483.228 48.725 483.365 49.045C483.502 49.365 483.57 49.74 483.57 50.17V53H482.51ZM479.16 53V48.17H480.085L480.225 49.17V53H479.16ZM488.382 53L488.247 51.86V49.88C488.247 49.5133 488.17 49.245 488.017 49.075C487.867 48.905 487.622 48.82 487.282 48.82C487.089 48.82 486.917 48.8483 486.767 48.905C486.62 48.9617 486.505 49.0467 486.422 49.16C486.342 49.27 486.302 49.4067 486.302 49.57H485.132C485.132 49.2067 485.219 48.9133 485.392 48.69C485.569 48.4633 485.817 48.2983 486.137 48.195C486.46 48.0883 486.842 48.035 487.282 48.035C487.689 48.035 488.044 48.1017 488.347 48.235C488.65 48.365 488.887 48.5683 489.057 48.845C489.227 49.1217 489.312 49.4783 489.312 49.915V53H488.382ZM486.782 53.135C486.372 53.135 486.03 53.0633 485.757 52.92C485.487 52.7767 485.284 52.5883 485.147 52.355C485.01 52.1217 484.942 51.8717 484.942 51.605C484.942 51.2917 485.022 51.0317 485.182 50.825C485.345 50.6183 485.572 50.465 485.862 50.365C486.155 50.2617 486.495 50.21 486.882 50.21C487.145 50.21 487.395 50.2317 487.632 50.275C487.872 50.3183 488.11 50.375 488.347 50.445V51.08C488.157 51.0133 487.949 50.9617 487.722 50.925C487.495 50.8883 487.285 50.87 487.092 50.87C486.799 50.87 486.555 50.9267 486.362 51.04C486.172 51.15 486.077 51.3383 486.077 51.605C486.077 51.7983 486.154 51.965 486.307 52.105C486.46 52.245 486.704 52.315 487.037 52.315C487.287 52.315 487.502 52.26 487.682 52.15C487.862 52.04 488 51.9017 488.097 51.735C488.197 51.5683 488.247 51.4017 488.247 51.235H488.502C488.502 51.575 488.435 51.89 488.302 52.18C488.172 52.4667 487.979 52.6983 487.722 52.875C487.465 53.0483 487.152 53.135 486.782 53.135ZM492.899 55.495C492.362 55.495 491.901 55.42 491.514 55.27C491.131 55.1233 490.836 54.9267 490.629 54.68C490.422 54.4367 490.319 54.1717 490.319 53.885C490.319 53.535 490.447 53.265 490.704 53.075C490.961 52.885 491.286 52.79 491.679 52.79L492.419 53.095C492.082 53.095 491.822 53.16 491.639 53.29C491.456 53.4233 491.364 53.605 491.364 53.835C491.364 54.075 491.499 54.27 491.769 54.42C492.039 54.57 492.416 54.645 492.899 54.645C493.256 54.645 493.564 54.5917 493.824 54.485C494.087 54.3817 494.291 54.2467 494.434 54.08C494.581 53.9133 494.654 53.735 494.654 53.545C494.654 53.4183 494.609 53.3117 494.519 53.225C494.432 53.1383 494.297 53.095 494.114 53.095H492.419C492.092 53.095 491.799 53.0433 491.539 52.94C491.282 52.8367 491.079 52.6983 490.929 52.525C490.779 52.3517 490.704 52.16 490.704 51.95C490.704 51.7467 490.761 51.5733 490.874 51.43C490.987 51.2833 491.139 51.1717 491.329 51.095C491.522 51.015 491.736 50.975 491.969 50.975L492.224 51.335C492.127 51.335 492.032 51.355 491.939 51.395C491.846 51.435 491.769 51.495 491.709 51.575C491.652 51.6517 491.624 51.7483 491.624 51.865C491.624 52.005 491.682 52.12 491.799 52.21C491.916 52.2967 492.122 52.34 492.419 52.34H494.114C494.611 52.34 495.001 52.435 495.284 52.625C495.567 52.815 495.709 53.1 495.709 53.48C495.709 53.8167 495.596 54.1383 495.369 54.445C495.142 54.755 494.819 55.0067 494.399 55.2C493.979 55.3967 493.479 55.495 492.899 55.495ZM492.984 51.53C492.604 51.53 492.259 51.4583 491.949 51.315C491.639 51.1683 491.391 50.965 491.204 50.705C491.021 50.4417 490.929 50.135 490.929 49.785C490.929 49.4317 491.021 49.1233 491.204 48.86C491.391 48.5967 491.639 48.3933 491.949 48.25C492.259 48.1067 492.604 48.035 492.984 48.035C493.354 48.035 493.692 48.1067 493.999 48.25C494.309 48.3933 494.557 48.5967 494.744 48.86C494.934 49.1233 495.029 49.4317 495.029 49.785C495.029 50.135 494.934 50.4417 494.744 50.705C494.557 50.965 494.309 51.1683 493.999 51.315C493.692 51.4583 493.354 51.53 492.984 51.53ZM492.989 50.785C493.312 50.785 493.557 50.69 493.724 50.5C493.894 50.3067 493.979 50.0683 493.979 49.785C493.979 49.485 493.894 49.2433 493.724 49.06C493.557 48.8767 493.311 48.785 492.984 48.785C492.667 48.785 492.421 48.8767 492.244 49.06C492.071 49.2433 491.984 49.485 491.984 49.785C491.984 50.0683 492.071 50.3067 492.244 50.5C492.421 50.69 492.669 50.785 492.989 50.785ZM494.659 48.81L494.169 48.545C494.169 48.2583 494.232 48.0067 494.359 47.79C494.486 47.5733 494.659 47.405 494.879 47.285C495.099 47.165 495.346 47.105 495.619 47.105L495.559 48.135C495.269 48.135 495.046 48.19 494.889 48.3C494.736 48.41 494.659 48.58 494.659 48.81ZM498.62 53.135C498.207 53.135 497.83 53.0283 497.49 52.815C497.154 52.6017 496.884 52.3033 496.68 51.92C496.48 51.5367 496.38 51.0917 496.38 50.585C496.38 50.055 496.48 49.6 496.68 49.22C496.88 48.8367 497.149 48.5433 497.485 48.34C497.825 48.1367 498.204 48.035 498.62 48.035C499 48.035 499.327 48.1117 499.6 48.265C499.877 48.4183 500.099 48.625 500.265 48.885C500.432 49.145 500.545 49.44 500.605 49.77C500.669 50.0967 500.677 50.435 500.63 50.785H497.235V50.19H499.885L499.655 50.34C499.665 50.17 499.657 50 499.63 49.83C499.604 49.66 499.552 49.5033 499.475 49.36C499.402 49.2167 499.297 49.1017 499.16 49.015C499.024 48.9283 498.849 48.885 498.635 48.885C498.379 48.885 498.16 48.9517 497.98 49.085C497.804 49.215 497.669 49.39 497.575 49.61C497.485 49.83 497.44 50.075 497.44 50.345V50.775C497.44 51.065 497.484 51.3233 497.57 51.55C497.657 51.7733 497.787 51.95 497.96 52.08C498.137 52.21 498.357 52.275 498.62 52.275C498.874 52.275 499.084 52.215 499.25 52.095C499.42 51.975 499.527 51.7967 499.57 51.56H500.655C500.605 51.8733 500.489 52.1483 500.305 52.385C500.122 52.6217 499.887 52.8067 499.6 52.94C499.314 53.07 498.987 53.135 498.62 53.135ZM502.109 53V48.155H503.174V53H502.109ZM502.899 50.86C502.899 50.2333 502.966 49.715 503.099 49.305C503.236 48.8917 503.423 48.585 503.659 48.385C503.896 48.1817 504.166 48.08 504.469 48.08C504.559 48.08 504.643 48.0867 504.719 48.1C504.796 48.11 504.871 48.1267 504.944 48.15L504.919 49.21C504.829 49.1867 504.733 49.1683 504.629 49.155C504.526 49.1383 504.434 49.13 504.354 49.13C504.088 49.13 503.866 49.1983 503.689 49.335C503.516 49.4683 503.386 49.665 503.299 49.925C503.216 50.1817 503.174 50.4933 503.174 50.86H502.899ZM511.478 53L511.343 51.86V49.88C511.343 49.5133 511.266 49.245 511.113 49.075C510.963 48.905 510.718 48.82 510.378 48.82C510.184 48.82 510.013 48.8483 509.863 48.905C509.716 48.9617 509.601 49.0467 509.518 49.16C509.438 49.27 509.398 49.4067 509.398 49.57H508.228C508.228 49.2067 508.314 48.9133 508.488 48.69C508.664 48.4633 508.913 48.2983 509.233 48.195C509.556 48.0883 509.938 48.035 510.378 48.035C510.784 48.035 511.139 48.1017 511.443 48.235C511.746 48.365 511.983 48.5683 512.153 48.845C512.323 49.1217 512.408 49.4783 512.408 49.915V53H511.478ZM509.878 53.135C509.468 53.135 509.126 53.0633 508.853 52.92C508.583 52.7767 508.379 52.5883 508.243 52.355C508.106 52.1217 508.038 51.8717 508.038 51.605C508.038 51.2917 508.118 51.0317 508.278 50.825C508.441 50.6183 508.668 50.465 508.958 50.365C509.251 50.2617 509.591 50.21 509.978 50.21C510.241 50.21 510.491 50.2317 510.728 50.275C510.968 50.3183 511.206 50.375 511.443 50.445V51.08C511.253 51.0133 511.044 50.9617 510.818 50.925C510.591 50.8883 510.381 50.87 510.188 50.87C509.894 50.87 509.651 50.9267 509.458 51.04C509.268 51.15 509.173 51.3383 509.173 51.605C509.173 51.7983 509.249 51.965 509.403 52.105C509.556 52.245 509.799 52.315 510.133 52.315C510.383 52.315 510.598 52.26 510.778 52.15C510.958 52.04 511.096 51.9017 511.193 51.735C511.293 51.5683 511.343 51.4017 511.343 51.235H511.598C511.598 51.575 511.531 51.89 511.398 52.18C511.268 52.4667 511.074 52.6983 510.818 52.875C510.561 53.0483 510.248 53.135 509.878 53.135ZM516.575 53.135C516.268 53.135 515.986 53.0517 515.73 52.885C515.476 52.715 515.275 52.4633 515.125 52.13C514.975 51.7933 514.9 51.3767 514.9 50.88H515.245C515.245 51.1433 515.301 51.3717 515.415 51.565C515.531 51.7583 515.68 51.9083 515.86 52.015C516.043 52.1183 516.233 52.17 516.43 52.17C516.666 52.17 516.88 52.105 517.07 51.975C517.26 51.8417 517.41 51.655 517.52 51.415C517.633 51.1717 517.69 50.8867 517.69 50.56C517.69 50.2433 517.635 49.9683 517.525 49.735C517.415 49.4983 517.263 49.315 517.07 49.185C516.88 49.055 516.663 48.99 516.42 48.99C516.216 48.99 516.025 49.04 515.845 49.14C515.665 49.24 515.52 49.385 515.41 49.575C515.3 49.7617 515.245 49.9917 515.245 50.265H514.9C514.9 49.785 514.971 49.38 515.115 49.05C515.258 48.7167 515.46 48.465 515.72 48.295C515.983 48.1217 516.293 48.035 516.65 48.035C517.04 48.035 517.395 48.1383 517.715 48.345C518.035 48.5517 518.29 48.845 518.48 49.225C518.673 49.6017 518.77 50.0467 518.77 50.56C518.77 51.08 518.67 51.5333 518.47 51.92C518.273 52.3033 518.008 52.6017 517.675 52.815C517.345 53.0283 516.978 53.135 516.575 53.135ZM514.18 53V46.15H515.245V51.825L514.885 53H514.18ZM522.119 53.135C521.679 53.135 521.284 53.04 520.934 52.85C520.584 52.66 520.305 52.3767 520.099 52C519.892 51.6233 519.789 51.1533 519.789 50.59C519.789 50.0167 519.892 49.5417 520.099 49.165C520.305 48.7883 520.584 48.5067 520.934 48.32C521.284 48.13 521.679 48.035 522.119 48.035C522.552 48.035 522.944 48.13 523.294 48.32C523.644 48.5067 523.92 48.7883 524.124 49.165C524.33 49.5417 524.434 50.0167 524.434 50.59C524.434 51.1533 524.33 51.6233 524.124 52C523.92 52.3767 523.644 52.66 523.294 52.85C522.944 53.04 522.552 53.135 522.119 53.135ZM522.084 52.205C522.34 52.205 522.564 52.1433 522.754 52.02C522.947 51.8933 523.097 51.71 523.204 51.47C523.31 51.23 523.364 50.9367 523.364 50.59C523.364 50.06 523.257 49.655 523.044 49.375C522.834 49.095 522.537 48.955 522.154 48.955C521.897 48.955 521.672 49.0183 521.479 49.145C521.285 49.2683 521.135 49.4517 521.029 49.695C520.922 49.935 520.869 50.2333 520.869 50.59C520.869 51.11 520.975 51.51 521.189 51.79C521.405 52.0667 521.704 52.205 522.084 52.205ZM529.104 48.155H530.169V53H529.104V48.155ZM525.754 48.155H526.819V51.135C526.819 51.4717 526.902 51.7267 527.069 51.9C527.239 52.0733 527.474 52.16 527.774 52.16C528.024 52.16 528.249 52.095 528.449 51.965C528.652 51.8317 528.812 51.64 528.929 51.39C529.046 51.1367 529.104 50.8317 529.104 50.475H529.414C529.414 51.0517 529.337 51.535 529.184 51.925C529.031 52.3117 528.817 52.6033 528.544 52.8C528.271 52.9933 527.952 53.09 527.589 53.09C527.242 53.09 526.929 53.0267 526.649 52.9C526.372 52.7733 526.154 52.575 525.994 52.305C525.834 52.0317 525.754 51.675 525.754 51.235V48.155ZM533.67 53.135C533.39 53.135 533.135 53.0833 532.905 52.98C532.678 52.8733 532.497 52.7133 532.36 52.5C532.223 52.2833 532.155 52.0117 532.155 51.685V46.87H533.22V51.65C533.22 52.0767 533.422 52.29 533.825 52.29C533.945 52.29 534.065 52.2767 534.185 52.25C534.305 52.2233 534.442 52.1817 534.595 52.125L534.75 52.875C534.567 52.9483 534.388 53.01 534.215 53.06C534.042 53.11 533.86 53.135 533.67 53.135ZM531.45 48.88V48.17H534.595V48.88H531.45ZM537.692 48.17H538.897L540.262 52.07H540.062L541.202 48.17H542.287L540.442 53.905C540.266 54.4517 540.041 54.8533 539.767 55.11C539.497 55.3667 539.164 55.495 538.767 55.495C538.544 55.495 538.327 55.4667 538.117 55.41C537.907 55.3567 537.694 55.275 537.477 55.165V54.22C537.657 54.34 537.832 54.4267 538.002 54.48C538.172 54.5367 538.344 54.565 538.517 54.565C538.687 54.565 538.834 54.5167 538.957 54.42C539.081 54.3233 539.186 54.1917 539.272 54.025C539.362 53.8617 539.437 53.6783 539.497 53.475L539.642 53L537.692 48.17ZM545.224 53.135C544.784 53.135 544.389 53.04 544.039 52.85C543.689 52.66 543.411 52.3767 543.204 52C542.997 51.6233 542.894 51.1533 542.894 50.59C542.894 50.0167 542.997 49.5417 543.204 49.165C543.411 48.7883 543.689 48.5067 544.039 48.32C544.389 48.13 544.784 48.035 545.224 48.035C545.657 48.035 546.049 48.13 546.399 48.32C546.749 48.5067 547.026 48.7883 547.229 49.165C547.436 49.5417 547.539 50.0167 547.539 50.59C547.539 51.1533 547.436 51.6233 547.229 52C547.026 52.3767 546.749 52.66 546.399 52.85C546.049 53.04 545.657 53.135 545.224 53.135ZM545.189 52.205C545.446 52.205 545.669 52.1433 545.859 52.02C546.052 51.8933 546.202 51.71 546.309 51.47C546.416 51.23 546.469 50.9367 546.469 50.59C546.469 50.06 546.362 49.655 546.149 49.375C545.939 49.095 545.642 48.955 545.259 48.955C545.002 48.955 544.777 49.0183 544.584 49.145C544.391 49.2683 544.241 49.4517 544.134 49.695C544.027 49.935 543.974 50.2333 543.974 50.59C543.974 51.11 544.081 51.51 544.294 51.79C544.511 52.0667 544.809 52.205 545.189 52.205ZM552.21 48.155H553.275V53H552.21V48.155ZM548.86 48.155H549.925V51.135C549.925 51.4717 550.008 51.7267 550.175 51.9C550.345 52.0733 550.58 52.16 550.88 52.16C551.13 52.16 551.355 52.095 551.555 51.965C551.758 51.8317 551.918 51.64 552.035 51.39C552.151 51.1367 552.21 50.8317 552.21 50.475H552.52C552.52 51.0517 552.443 51.535 552.29 51.925C552.136 52.3117 551.923 52.6033 551.65 52.8C551.376 52.9933 551.058 53.09 550.695 53.09C550.348 53.09 550.035 53.0267 549.755 52.9C549.478 52.7733 549.26 52.575 549.1 52.305C548.94 52.0317 548.86 51.675 548.86 51.235V48.155ZM555.185 53V48.155H556.25V53H555.185ZM555.975 50.86C555.975 50.2333 556.042 49.715 556.175 49.305C556.312 48.8917 556.499 48.585 556.735 48.385C556.972 48.1817 557.242 48.08 557.545 48.08C557.635 48.08 557.719 48.0867 557.795 48.1C557.872 48.11 557.947 48.1267 558.02 48.15L557.995 49.21C557.905 49.1867 557.809 49.1683 557.705 49.155C557.602 49.1383 557.51 49.13 557.43 49.13C557.164 49.13 556.942 49.1983 556.765 49.335C556.592 49.4683 556.462 49.665 556.375 49.925C556.292 50.1817 556.25 50.4933 556.25 50.86H555.975ZM465.545 65.135C465.265 65.135 465.01 65.0833 464.78 64.98C464.553 64.8733 464.372 64.7133 464.235 64.5C464.098 64.2833 464.03 64.0117 464.03 63.685V58.87H465.095V63.65C465.095 64.0767 465.297 64.29 465.7 64.29C465.82 64.29 465.94 64.2767 466.06 64.25C466.18 64.2233 466.317 64.1817 466.47 64.125L466.625 64.875C466.442 64.9483 466.263 65.01 466.09 65.06C465.917 65.11 465.735 65.135 465.545 65.135ZM463.325 60.88V60.17H466.47V60.88H463.325ZM467.842 65V60.155H468.907V65H467.842ZM468.632 62.86C468.632 62.2333 468.698 61.715 468.832 61.305C468.968 60.8917 469.155 60.585 469.392 60.385C469.628 60.1817 469.898 60.08 470.202 60.08C470.292 60.08 470.375 60.0867 470.452 60.1C470.528 60.11 470.603 60.1267 470.677 60.15L470.652 61.21C470.562 61.1867 470.465 61.1683 470.362 61.155C470.258 61.1383 470.167 61.13 470.087 61.13C469.82 61.13 469.598 61.1983 469.422 61.335C469.248 61.4683 469.118 61.665 469.032 61.925C468.948 62.1817 468.907 62.4933 468.907 62.86H468.632ZM474.73 65L474.595 63.86V61.88C474.595 61.5133 474.518 61.245 474.365 61.075C474.215 60.905 473.97 60.82 473.63 60.82C473.436 60.82 473.265 60.8483 473.115 60.905C472.968 60.9617 472.853 61.0467 472.77 61.16C472.69 61.27 472.65 61.4067 472.65 61.57H471.48C471.48 61.2067 471.566 60.9133 471.74 60.69C471.916 60.4633 472.165 60.2983 472.485 60.195C472.808 60.0883 473.19 60.035 473.63 60.035C474.036 60.035 474.391 60.1017 474.695 60.235C474.998 60.365 475.235 60.5683 475.405 60.845C475.575 61.1217 475.66 61.4783 475.66 61.915V65H474.73ZM473.13 65.135C472.72 65.135 472.378 65.0633 472.105 64.92C471.835 64.7767 471.631 64.5883 471.495 64.355C471.358 64.1217 471.29 63.8717 471.29 63.605C471.29 63.2917 471.37 63.0317 471.53 62.825C471.693 62.6183 471.92 62.465 472.21 62.365C472.503 62.2617 472.843 62.21 473.23 62.21C473.493 62.21 473.743 62.2317 473.98 62.275C474.22 62.3183 474.458 62.375 474.695 62.445V63.08C474.505 63.0133 474.296 62.9617 474.07 62.925C473.843 62.8883 473.633 62.87 473.44 62.87C473.146 62.87 472.903 62.9267 472.71 63.04C472.52 63.15 472.425 63.3383 472.425 63.605C472.425 63.7983 472.501 63.965 472.655 64.105C472.808 64.245 473.051 64.315 473.385 64.315C473.635 64.315 473.85 64.26 474.03 64.15C474.21 64.04 474.348 63.9017 474.445 63.735C474.545 63.5683 474.595 63.4017 474.595 63.235H474.85C474.85 63.575 474.783 63.89 474.65 64.18C474.52 64.4667 474.326 64.6983 474.07 64.875C473.813 65.0483 473.5 65.135 473.13 65.135ZM480.782 65V62.17C480.782 61.78 480.688 61.4867 480.502 61.29C480.315 61.09 480.067 60.99 479.757 60.99C479.507 60.99 479.287 61.06 479.097 61.2C478.907 61.3367 478.758 61.54 478.652 61.81C478.548 62.08 478.497 62.4117 478.497 62.805H478.132C478.132 62.195 478.208 61.685 478.362 61.275C478.515 60.865 478.733 60.5567 479.017 60.35C479.303 60.14 479.643 60.035 480.037 60.035C480.43 60.035 480.76 60.1233 481.027 60.3C481.297 60.4767 481.5 60.725 481.637 61.045C481.773 61.365 481.842 61.74 481.842 62.17V65H480.782ZM477.432 65V60.17H478.357L478.497 61.17V65H477.432ZM485.383 65.135C484.92 65.135 484.523 65.07 484.193 64.94C483.867 64.81 483.617 64.6267 483.443 64.39C483.27 64.15 483.18 63.865 483.173 63.535H484.163C484.177 63.795 484.28 63.9867 484.473 64.11C484.667 64.23 484.93 64.29 485.263 64.29C485.447 64.29 485.61 64.2633 485.753 64.21C485.897 64.1533 486.008 64.0783 486.088 63.985C486.172 63.8883 486.213 63.7817 486.213 63.665C486.213 63.5117 486.158 63.3917 486.048 63.305C485.938 63.2183 485.763 63.14 485.523 63.07L484.503 62.715C484.117 62.5817 483.82 62.4033 483.613 62.18C483.407 61.9567 483.303 61.69 483.303 61.38C483.303 60.9767 483.483 60.6517 483.843 60.405C484.207 60.1583 484.69 60.035 485.293 60.035C485.907 60.035 486.38 60.1667 486.713 60.43C487.047 60.6933 487.218 61.025 487.228 61.425H486.213C486.197 61.2517 486.112 61.1167 485.958 61.02C485.808 60.92 485.587 60.87 485.293 60.87C485.023 60.87 484.812 60.9267 484.658 61.04C484.505 61.1533 484.428 61.285 484.428 61.435C484.428 61.695 484.65 61.8883 485.093 62.015L486.183 62.415C486.57 62.5417 486.867 62.705 487.073 62.905C487.283 63.105 487.388 63.3583 487.388 63.665C487.388 63.915 487.305 64.1533 487.138 64.38C486.972 64.6033 486.737 64.785 486.433 64.925C486.133 65.065 485.783 65.135 485.383 65.135ZM489.492 59.21C489.282 59.21 489.117 59.1533 488.997 59.04C488.88 58.9267 488.822 58.7717 488.822 58.575C488.822 58.385 488.88 58.2333 488.997 58.12C489.117 58.0033 489.282 57.945 489.492 57.945C489.699 57.945 489.862 58.0033 489.982 58.12C490.102 58.2333 490.162 58.385 490.162 58.575C490.162 58.7717 490.102 58.9267 489.982 59.04C489.862 59.1533 489.699 59.21 489.492 59.21ZM488.962 65V60.155H490.027V65H488.962ZM493.66 65.135C493.38 65.135 493.125 65.0833 492.895 64.98C492.669 64.8733 492.487 64.7133 492.35 64.5C492.214 64.2833 492.145 64.0117 492.145 63.685V58.87H493.21V63.65C493.21 64.0767 493.412 64.29 493.815 64.29C493.935 64.29 494.055 64.2767 494.175 64.25C494.295 64.2233 494.432 64.1817 494.585 64.125L494.74 64.875C494.557 64.9483 494.379 65.01 494.205 65.06C494.032 65.11 493.85 65.135 493.66 65.135ZM491.44 60.88V60.17H494.585V60.88H491.44ZM496.572 59.21C496.362 59.21 496.197 59.1533 496.077 59.04C495.96 58.9267 495.902 58.7717 495.902 58.575C495.902 58.385 495.96 58.2333 496.077 58.12C496.197 58.0033 496.362 57.945 496.572 57.945C496.779 57.945 496.942 58.0033 497.062 58.12C497.182 58.2333 497.242 58.385 497.242 58.575C497.242 58.7717 497.182 58.9267 497.062 59.04C496.942 59.1533 496.779 59.21 496.572 59.21ZM496.042 65V60.155H497.107V65H496.042ZM501.005 65.135C500.565 65.135 500.17 65.04 499.82 64.85C499.47 64.66 499.192 64.3767 498.985 64C498.779 63.6233 498.675 63.1533 498.675 62.59C498.675 62.0167 498.779 61.5417 498.985 61.165C499.192 60.7883 499.47 60.5067 499.82 60.32C500.17 60.13 500.565 60.035 501.005 60.035C501.439 60.035 501.83 60.13 502.18 60.32C502.53 60.5067 502.807 60.7883 503.01 61.165C503.217 61.5417 503.32 62.0167 503.32 62.59C503.32 63.1533 503.217 63.6233 503.01 64C502.807 64.3767 502.53 64.66 502.18 64.85C501.83 65.04 501.439 65.135 501.005 65.135ZM500.97 64.205C501.227 64.205 501.45 64.1433 501.64 64.02C501.834 63.8933 501.984 63.71 502.09 63.47C502.197 63.23 502.25 62.9367 502.25 62.59C502.25 62.06 502.144 61.655 501.93 61.375C501.72 61.095 501.424 60.955 501.04 60.955C500.784 60.955 500.559 61.0183 500.365 61.145C500.172 61.2683 500.022 61.4517 499.915 61.695C499.809 61.935 499.755 62.2333 499.755 62.59C499.755 63.11 499.862 63.51 500.075 63.79C500.292 64.0667 500.59 64.205 500.97 64.205ZM508.106 65V62.17C508.106 61.78 508.012 61.4867 507.826 61.29C507.639 61.09 507.391 60.99 507.081 60.99C506.831 60.99 506.611 61.06 506.421 61.2C506.231 61.3367 506.082 61.54 505.976 61.81C505.872 62.08 505.821 62.4117 505.821 62.805H505.456C505.456 62.195 505.532 61.685 505.686 61.275C505.839 60.865 506.057 60.5567 506.341 60.35C506.627 60.14 506.967 60.035 507.361 60.035C507.754 60.035 508.084 60.1233 508.351 60.3C508.621 60.4767 508.824 60.725 508.961 61.045C509.097 61.365 509.166 61.74 509.166 62.17V65H508.106ZM504.756 65V60.17H505.681L505.821 61.17V65H504.756Z" fill="#40464A"/>
<defs>
<filter id="filter0_d" x="0" y="35.5967" width="573.378" height="366.555" filterUnits="userSpaceOnUse" color-interpolation-filters="sRGB">
<feFlood flood-opacity="0" result="BackgroundImageFix"/>
<feColorMatrix in="SourceAlpha" type="matrix" values="0 0 0 0 0 0 0 0 0 0 0 0 0 0 0 0 0 0 127 0" result="hardAlpha"/>
<feMorphology radius="2" operator="erode" in="SourceAlpha" result="effect1_dropShadow"/>
<feOffset dy="2"/>
<feGaussianBlur stdDeviation="4"/>
<feColorMatrix type="matrix" values="0 0 0 0 0.0588235 0 0 0 0 0.129412 0 0 0 0 0.160784 0 0 0 0.17 0"/>
<feBlend mode="normal" in2="BackgroundImageFix" result="effect1_dropShadow"/>
<feBlend mode="normal" in="SourceGraphic" in2="effect1_dropShadow" result="shape"/>
</filter>
<filter id="filter1_d" x="421" y="0" width="216" height="373" filterUnits="userSpaceOnUse" color-interpolation-filters="sRGB">
<feFlood flood-opacity="0" result="BackgroundImageFix"/>
<feColorMatrix in="SourceAlpha" type="matrix" values="0 0 0 0 0 0 0 0 0 0 0 0 0 0 0 0 0 0 127 0" result="hardAlpha"/>
<feMorphology radius="8" operator="erode" in="SourceAlpha" result="effect1_dropShadow"/>
<feOffset dy="10"/>
<feGaussianBlur stdDeviation="16"/>
<feColorMatrix type="matrix" values="0 0 0 0 0.0588235 0 0 0 0 0.129412 0 0 0 0 0.160784 0 0 0 0.17 0"/>
<feBlend mode="normal" in2="BackgroundImageFix" result="effect1_dropShadow"/>
<feBlend mode="normal" in="SourceGraphic" in2="effect1_dropShadow" result="shape"/>
</filter>
</defs>
</svg>
