<svg width="605" height="457" viewBox="0 0 605 457" fill="none" xmlns="http://www.w3.org/2000/svg">
<g filter="url(#filter0_d)">
<rect x="6" y="4" width="561.378" height="354.555" rx="4" fill="#FAFAFA"/>
</g>
<path d="M6 7.99999C6 5.79085 7.79086 4 10 4H563.378C565.587 4 567.378 5.79086 567.378 8V43.395H6V7.99999Z" fill="#24485C"/>
<path d="M6.37891 43.4033H114.715V358.563H10.3789C8.16976 358.563 6.37891 356.772 6.37891 354.563V43.4033Z" fill="#F2F2F3"/>
<path fill-rule="evenodd" clip-rule="evenodd" d="M147.378 67.0701C140.018 67.0701 134.045 73.0434 134.045 80.4034C134.045 87.7634 140.018 93.7367 147.378 93.7367C154.738 93.7367 160.712 87.7634 160.712 80.4034C160.712 73.0434 154.738 67.0701 147.378 67.0701ZM144.712 87.0701L138.045 80.4034L139.925 78.5234L144.712 83.2967L154.832 73.1767L156.712 75.0701L144.712 87.0701Z" fill="#27AE60"/>
<path fill-rule="evenodd" clip-rule="evenodd" d="M147.378 115.07C140.018 115.07 134.045 121.043 134.045 128.403C134.045 135.763 140.018 141.737 147.378 141.737C154.738 141.737 160.712 135.763 160.712 128.403C160.712 121.043 154.738 115.07 147.378 115.07ZM144.712 135.07L138.045 128.403L139.925 126.523L144.712 131.297L154.832 121.177L156.712 123.07L144.712 135.07Z" fill="#27AE60"/>
<path fill-rule="evenodd" clip-rule="evenodd" d="M147.378 163.07C140.018 163.07 134.045 169.043 134.045 176.403C134.045 183.763 140.018 189.737 147.378 189.737C154.738 189.737 160.712 183.763 160.712 176.403C160.712 169.043 154.738 163.07 147.378 163.07ZM144.712 183.07L138.045 176.403L139.925 174.523L144.712 179.297L154.832 169.177L156.712 171.07L144.712 183.07Z" fill="#27AE60"/>
<rect x="179.379" y="67.4033" width="73" height="13" rx="2" fill="#BCC0C3"/>
<rect x="179.379" y="115.403" width="73" height="13" rx="2" fill="#BCC0C3"/>
<rect x="179.379" y="163.403" width="73" height="13" rx="2" fill="#BCC0C3"/>
<rect x="179.379" y="86.4033" width="372" height="7" rx="3.5" fill="#BCC0C3"/>
<rect x="179.379" y="134.403" width="372" height="7" rx="3.5" fill="#BCC0C3"/>
<rect x="179.379" y="182.403" width="372" height="7" rx="3.5" fill="#BCC0C3"/>
<rect x="179.379" y="211.403" width="73" height="13" rx="2" fill="#E4E6E7"/>
<rect x="179.379" y="230.403" width="372" height="7" rx="3.5" fill="#E4E6E7"/>
<path fill-rule="evenodd" clip-rule="evenodd" d="M147.378 211.07C140.018 211.07 134.045 217.043 134.045 224.403C134.045 231.763 140.018 237.737 147.378 237.737C154.738 237.737 160.712 231.763 160.712 224.403C160.712 217.043 154.738 211.07 147.378 211.07ZM147.378 235.07C141.485 235.07 136.712 230.297 136.712 224.403C136.712 218.51 141.485 213.737 147.378 213.737C153.272 213.737 158.045 218.51 158.045 224.403C158.045 230.297 153.272 235.07 147.378 235.07Z" fill="#BCC0C3"/>
<g filter="url(#filter1_d)">
<rect x="355" y="338.384" width="226" height="84.4757" rx="4" fill="white"/>
<circle cx="468" cy="333.996" r="40.5922" fill="#E0B581"/>
<path fill-rule="evenodd" clip-rule="evenodd" d="M485.554 316.442H450.447C448.033 316.442 446.081 318.417 446.081 320.83L446.059 347.161C446.059 349.574 448.033 351.549 450.447 351.549H485.554C487.967 351.549 489.942 349.574 489.942 347.161V320.83C489.942 318.417 487.967 316.442 485.554 316.442ZM485.554 347.161H450.447V325.219L468 336.19L485.554 325.219V347.161ZM468 331.801L450.447 320.83H485.554L468 331.801Z" fill="white"/>
<path d="M370.072 394.52V393.416H376.204V394.52H373.492L373.774 394.226V401.132H372.496V394.226L372.784 394.52H370.072ZM378.573 401.294C378.077 401.294 377.625 401.166 377.217 400.91C376.813 400.654 376.489 400.296 376.245 399.836C376.005 399.376 375.885 398.842 375.885 398.234C375.885 397.598 376.005 397.052 376.245 396.596C376.485 396.136 376.807 395.784 377.211 395.54C377.619 395.296 378.073 395.174 378.573 395.174C379.029 395.174 379.421 395.266 379.749 395.45C380.081 395.634 380.347 395.882 380.547 396.194C380.747 396.506 380.883 396.86 380.955 397.256C381.031 397.648 381.041 398.054 380.985 398.474H376.911V397.76H380.091L379.815 397.94C379.827 397.736 379.817 397.532 379.785 397.328C379.753 397.124 379.691 396.936 379.599 396.764C379.511 396.592 379.385 396.454 379.221 396.35C379.057 396.246 378.847 396.194 378.591 396.194C378.283 396.194 378.021 396.274 377.805 396.434C377.593 396.59 377.431 396.8 377.319 397.064C377.211 397.328 377.157 397.622 377.157 397.946V398.462C377.157 398.81 377.209 399.12 377.313 399.392C377.417 399.66 377.573 399.872 377.781 400.028C377.993 400.184 378.257 400.262 378.573 400.262C378.877 400.262 379.129 400.19 379.329 400.046C379.533 399.902 379.661 399.688 379.713 399.404H381.015C380.955 399.78 380.815 400.11 380.595 400.394C380.375 400.678 380.093 400.9 379.749 401.06C379.405 401.216 379.013 401.294 378.573 401.294ZM382.759 401.132V392.912H384.037V401.132H382.759ZM386.334 401.132V392.912H387.612V401.132H386.334ZM391.978 395.336H393.424L395.062 400.016H394.822L396.19 395.336H397.492L395.278 402.218C395.066 402.874 394.796 403.356 394.468 403.664C394.144 403.972 393.744 404.126 393.268 404.126C393 404.126 392.74 404.092 392.488 404.024C392.236 403.96 391.98 403.862 391.72 403.73V402.596C391.936 402.74 392.146 402.844 392.35 402.908C392.554 402.976 392.76 403.01 392.968 403.01C393.172 403.01 393.348 402.952 393.496 402.836C393.644 402.72 393.77 402.562 393.874 402.362C393.982 402.166 394.072 401.946 394.144 401.702L394.318 401.132L391.978 395.336ZM401.017 401.294C400.489 401.294 400.015 401.18 399.595 400.952C399.175 400.724 398.841 400.384 398.593 399.932C398.345 399.48 398.221 398.916 398.221 398.24C398.221 397.552 398.345 396.982 398.593 396.53C398.841 396.078 399.175 395.74 399.595 395.516C400.015 395.288 400.489 395.174 401.017 395.174C401.537 395.174 402.007 395.288 402.427 395.516C402.847 395.74 403.179 396.078 403.423 396.53C403.671 396.982 403.795 397.552 403.795 398.24C403.795 398.916 403.671 399.48 403.423 399.932C403.179 400.384 402.847 400.724 402.427 400.952C402.007 401.18 401.537 401.294 401.017 401.294ZM400.975 400.178C401.283 400.178 401.551 400.104 401.779 399.956C402.011 399.804 402.191 399.584 402.319 399.296C402.447 399.008 402.511 398.656 402.511 398.24C402.511 397.604 402.383 397.118 402.127 396.782C401.875 396.446 401.519 396.278 401.059 396.278C400.751 396.278 400.481 396.354 400.249 396.506C400.017 396.654 399.837 396.874 399.709 397.166C399.581 397.454 399.517 397.812 399.517 398.24C399.517 398.864 399.645 399.344 399.901 399.68C400.161 400.012 400.519 400.178 400.975 400.178ZM409.399 395.318H410.677V401.132H409.399V395.318ZM405.379 395.318H406.657V398.894C406.657 399.298 406.757 399.604 406.957 399.812C407.161 400.02 407.443 400.124 407.803 400.124C408.103 400.124 408.373 400.046 408.613 399.89C408.857 399.73 409.049 399.5 409.189 399.2C409.329 398.896 409.399 398.53 409.399 398.102H409.771C409.771 398.794 409.679 399.374 409.495 399.842C409.311 400.306 409.055 400.656 408.727 400.892C408.399 401.124 408.017 401.24 407.581 401.24C407.165 401.24 406.789 401.164 406.453 401.012C406.121 400.86 405.859 400.622 405.667 400.298C405.475 399.97 405.379 399.542 405.379 399.014V395.318ZM412.97 401.132V395.318H414.248V401.132H412.97ZM413.918 398.564C413.918 397.812 413.998 397.19 414.158 396.698C414.322 396.202 414.546 395.834 414.83 395.594C415.114 395.35 415.438 395.228 415.802 395.228C415.91 395.228 416.01 395.236 416.102 395.252C416.194 395.264 416.284 395.284 416.372 395.312L416.342 396.584C416.234 396.556 416.118 396.534 415.994 396.518C415.87 396.498 415.76 396.488 415.664 396.488C415.344 396.488 415.078 396.57 414.866 396.734C414.658 396.894 414.502 397.13 414.398 397.442C414.298 397.75 414.248 398.124 414.248 398.564H413.918ZM428.502 401.132V397.736C428.502 397.268 428.39 396.916 428.166 396.68C427.946 396.44 427.652 396.32 427.284 396.32C426.828 396.32 426.474 396.5 426.222 396.86C425.97 397.22 425.844 397.75 425.844 398.45H425.298C425.298 397.866 425.354 397.368 425.466 396.956C425.578 396.54 425.736 396.202 425.94 395.942C426.148 395.678 426.394 395.484 426.678 395.36C426.962 395.236 427.276 395.174 427.62 395.174C428.092 395.174 428.488 395.28 428.808 395.492C429.132 395.704 429.376 396.002 429.54 396.386C429.708 396.77 429.792 397.22 429.792 397.736V401.132H428.502ZM420.552 401.132V395.336H421.662L421.806 396.374C421.994 395.982 422.246 395.684 422.562 395.48C422.882 395.276 423.254 395.174 423.678 395.174C424.15 395.174 424.546 395.28 424.866 395.492C425.19 395.704 425.434 396.002 425.598 396.386C425.762 396.77 425.844 397.22 425.844 397.736V401.132H424.572V397.736C424.572 397.268 424.46 396.916 424.236 396.68C424.012 396.44 423.714 396.32 423.342 396.32C423.042 396.32 422.778 396.404 422.55 396.572C422.322 396.736 422.144 396.98 422.016 397.304C421.892 397.628 421.83 398.026 421.83 398.498V401.132H420.552ZM435.556 401.132L435.394 399.764V397.388C435.394 396.948 435.302 396.626 435.118 396.422C434.938 396.218 434.644 396.116 434.236 396.116C434.004 396.116 433.798 396.15 433.618 396.218C433.442 396.286 433.304 396.388 433.204 396.524C433.108 396.656 433.06 396.82 433.06 397.016H431.656C431.656 396.58 431.76 396.228 431.968 395.96C432.18 395.688 432.478 395.49 432.862 395.366C433.25 395.238 433.708 395.174 434.236 395.174C434.724 395.174 435.15 395.254 435.514 395.414C435.878 395.57 436.162 395.814 436.366 396.146C436.57 396.478 436.672 396.906 436.672 397.43V401.132H435.556ZM433.636 401.294C433.144 401.294 432.734 401.208 432.406 401.036C432.082 400.864 431.838 400.638 431.674 400.358C431.51 400.078 431.428 399.778 431.428 399.458C431.428 399.082 431.524 398.77 431.716 398.522C431.912 398.274 432.184 398.09 432.532 397.97C432.884 397.846 433.292 397.784 433.756 397.784C434.072 397.784 434.372 397.81 434.656 397.862C434.944 397.914 435.23 397.982 435.514 398.066V398.828C435.286 398.748 435.036 398.686 434.764 398.642C434.492 398.598 434.24 398.576 434.008 398.576C433.656 398.576 433.364 398.644 433.132 398.78C432.904 398.912 432.79 399.138 432.79 399.458C432.79 399.69 432.882 399.89 433.066 400.058C433.25 400.226 433.542 400.31 433.942 400.31C434.242 400.31 434.5 400.244 434.716 400.112C434.932 399.98 435.098 399.814 435.214 399.614C435.334 399.414 435.394 399.214 435.394 399.014H435.7C435.7 399.422 435.62 399.8 435.46 400.148C435.304 400.492 435.072 400.77 434.764 400.982C434.456 401.19 434.08 401.294 433.636 401.294ZM442.818 401.132V397.736C442.818 397.268 442.706 396.916 442.482 396.68C442.258 396.44 441.96 396.32 441.588 396.32C441.288 396.32 441.024 396.404 440.796 396.572C440.568 396.736 440.39 396.98 440.262 397.304C440.138 397.628 440.076 398.026 440.076 398.498H439.638C439.638 397.766 439.73 397.154 439.914 396.662C440.098 396.17 440.36 395.8 440.7 395.552C441.044 395.3 441.452 395.174 441.924 395.174C442.396 395.174 442.792 395.28 443.112 395.492C443.436 395.704 443.68 396.002 443.844 396.386C444.008 396.77 444.09 397.22 444.09 397.736V401.132H442.818ZM438.798 401.132V395.336H439.908L440.076 396.536V401.132H438.798ZM449.865 401.132L449.703 399.764V397.388C449.703 396.948 449.611 396.626 449.427 396.422C449.247 396.218 448.953 396.116 448.545 396.116C448.313 396.116 448.107 396.15 447.927 396.218C447.751 396.286 447.613 396.388 447.513 396.524C447.417 396.656 447.369 396.82 447.369 397.016H445.965C445.965 396.58 446.069 396.228 446.277 395.96C446.489 395.688 446.787 395.49 447.171 395.366C447.559 395.238 448.017 395.174 448.545 395.174C449.033 395.174 449.459 395.254 449.823 395.414C450.187 395.57 450.471 395.814 450.675 396.146C450.879 396.478 450.981 396.906 450.981 397.43V401.132H449.865ZM447.945 401.294C447.453 401.294 447.043 401.208 446.715 401.036C446.391 400.864 446.147 400.638 445.983 400.358C445.819 400.078 445.737 399.778 445.737 399.458C445.737 399.082 445.833 398.77 446.025 398.522C446.221 398.274 446.493 398.09 446.841 397.97C447.193 397.846 447.601 397.784 448.065 397.784C448.381 397.784 448.681 397.81 448.965 397.862C449.253 397.914 449.539 397.982 449.823 398.066V398.828C449.595 398.748 449.345 398.686 449.073 398.642C448.801 398.598 448.549 398.576 448.317 398.576C447.965 398.576 447.673 398.644 447.441 398.78C447.213 398.912 447.099 399.138 447.099 399.458C447.099 399.69 447.191 399.89 447.375 400.058C447.559 400.226 447.851 400.31 448.251 400.31C448.551 400.31 448.809 400.244 449.025 400.112C449.241 399.98 449.407 399.814 449.523 399.614C449.643 399.414 449.703 399.214 449.703 399.014H450.009C450.009 399.422 449.929 399.8 449.769 400.148C449.613 400.492 449.381 400.77 449.073 400.982C448.765 401.19 448.389 401.294 447.945 401.294ZM455.285 404.126C454.641 404.126 454.087 404.036 453.623 403.856C453.163 403.68 452.809 403.444 452.561 403.148C452.313 402.856 452.189 402.538 452.189 402.194C452.189 401.774 452.343 401.45 452.651 401.222C452.959 400.994 453.349 400.88 453.821 400.88L454.709 401.246C454.305 401.246 453.993 401.324 453.773 401.48C453.553 401.64 453.443 401.858 453.443 402.134C453.443 402.422 453.605 402.656 453.929 402.836C454.253 403.016 454.705 403.106 455.285 403.106C455.713 403.106 456.083 403.042 456.395 402.914C456.711 402.79 456.955 402.628 457.127 402.428C457.303 402.228 457.391 402.014 457.391 401.786C457.391 401.634 457.337 401.506 457.229 401.402C457.125 401.298 456.963 401.246 456.743 401.246H454.709C454.317 401.246 453.965 401.184 453.653 401.06C453.345 400.936 453.101 400.77 452.921 400.562C452.741 400.354 452.651 400.124 452.651 399.872C452.651 399.628 452.719 399.42 452.855 399.248C452.991 399.072 453.173 398.938 453.401 398.846C453.633 398.75 453.889 398.702 454.169 398.702L454.475 399.134C454.359 399.134 454.245 399.158 454.133 399.206C454.021 399.254 453.929 399.326 453.857 399.422C453.789 399.514 453.755 399.63 453.755 399.77C453.755 399.938 453.825 400.076 453.965 400.184C454.105 400.288 454.353 400.34 454.709 400.34H456.743C457.339 400.34 457.807 400.454 458.147 400.682C458.487 400.91 458.657 401.252 458.657 401.708C458.657 402.112 458.521 402.498 458.249 402.866C457.977 403.238 457.589 403.54 457.085 403.772C456.581 404.008 455.981 404.126 455.285 404.126ZM455.387 399.368C454.931 399.368 454.517 399.282 454.145 399.11C453.773 398.934 453.475 398.69 453.251 398.378C453.031 398.062 452.921 397.694 452.921 397.274C452.921 396.85 453.031 396.48 453.251 396.164C453.475 395.848 453.773 395.604 454.145 395.432C454.517 395.26 454.931 395.174 455.387 395.174C455.831 395.174 456.237 395.26 456.605 395.432C456.977 395.604 457.275 395.848 457.499 396.164C457.727 396.48 457.841 396.85 457.841 397.274C457.841 397.694 457.727 398.062 457.499 398.378C457.275 398.69 456.977 398.934 456.605 399.11C456.237 399.282 455.831 399.368 455.387 399.368ZM455.393 398.474C455.781 398.474 456.075 398.36 456.275 398.132C456.479 397.9 456.581 397.614 456.581 397.274C456.581 396.914 456.479 396.624 456.275 396.404C456.075 396.184 455.779 396.074 455.387 396.074C455.007 396.074 454.711 396.184 454.499 396.404C454.291 396.624 454.187 396.914 454.187 397.274C454.187 397.614 454.291 397.9 454.499 398.132C454.711 398.36 455.009 398.474 455.393 398.474ZM457.397 396.104L456.809 395.786C456.809 395.442 456.885 395.14 457.037 394.88C457.189 394.62 457.397 394.418 457.661 394.274C457.925 394.13 458.221 394.058 458.549 394.058L458.477 395.294C458.129 395.294 457.861 395.36 457.673 395.492C457.489 395.624 457.397 395.828 457.397 396.104ZM462.151 401.294C461.655 401.294 461.203 401.166 460.795 400.91C460.391 400.654 460.067 400.296 459.823 399.836C459.583 399.376 459.463 398.842 459.463 398.234C459.463 397.598 459.583 397.052 459.823 396.596C460.063 396.136 460.385 395.784 460.789 395.54C461.197 395.296 461.651 395.174 462.151 395.174C462.607 395.174 462.999 395.266 463.327 395.45C463.659 395.634 463.925 395.882 464.125 396.194C464.325 396.506 464.461 396.86 464.533 397.256C464.609 397.648 464.619 398.054 464.563 398.474H460.489V397.76H463.669L463.393 397.94C463.405 397.736 463.395 397.532 463.363 397.328C463.331 397.124 463.269 396.936 463.177 396.764C463.089 396.592 462.963 396.454 462.799 396.35C462.635 396.246 462.425 396.194 462.169 396.194C461.861 396.194 461.599 396.274 461.383 396.434C461.171 396.59 461.009 396.8 460.897 397.064C460.789 397.328 460.735 397.622 460.735 397.946V398.462C460.735 398.81 460.787 399.12 460.891 399.392C460.995 399.66 461.151 399.872 461.359 400.028C461.571 400.184 461.835 400.262 462.151 400.262C462.455 400.262 462.707 400.19 462.907 400.046C463.111 399.902 463.239 399.688 463.291 399.404H464.593C464.533 399.78 464.393 400.11 464.173 400.394C463.953 400.678 463.671 400.9 463.327 401.06C462.983 401.216 462.591 401.294 462.151 401.294ZM466.337 401.132V395.318H467.615V401.132H466.337ZM467.285 398.564C467.285 397.812 467.365 397.19 467.525 396.698C467.689 396.202 467.913 395.834 468.197 395.594C468.481 395.35 468.805 395.228 469.169 395.228C469.277 395.228 469.377 395.236 469.469 395.252C469.561 395.264 469.651 395.284 469.739 395.312L469.709 396.584C469.601 396.556 469.485 396.534 469.361 396.518C469.237 396.498 469.127 396.488 469.031 396.488C468.711 396.488 468.445 396.57 468.233 396.734C468.025 396.894 467.869 397.13 467.765 397.442C467.665 397.75 467.615 398.124 467.615 398.564H467.285ZM477.579 401.132L477.417 399.764V397.388C477.417 396.948 477.325 396.626 477.141 396.422C476.961 396.218 476.667 396.116 476.259 396.116C476.027 396.116 475.821 396.15 475.641 396.218C475.465 396.286 475.327 396.388 475.227 396.524C475.131 396.656 475.083 396.82 475.083 397.016H473.679C473.679 396.58 473.783 396.228 473.991 395.96C474.203 395.688 474.501 395.49 474.885 395.366C475.273 395.238 475.731 395.174 476.259 395.174C476.747 395.174 477.173 395.254 477.537 395.414C477.901 395.57 478.185 395.814 478.389 396.146C478.593 396.478 478.695 396.906 478.695 397.43V401.132H477.579ZM475.659 401.294C475.167 401.294 474.757 401.208 474.429 401.036C474.105 400.864 473.861 400.638 473.697 400.358C473.533 400.078 473.451 399.778 473.451 399.458C473.451 399.082 473.547 398.77 473.739 398.522C473.935 398.274 474.207 398.09 474.555 397.97C474.907 397.846 475.315 397.784 475.779 397.784C476.095 397.784 476.395 397.81 476.679 397.862C476.967 397.914 477.253 397.982 477.537 398.066V398.828C477.309 398.748 477.059 398.686 476.787 398.642C476.515 398.598 476.263 398.576 476.031 398.576C475.679 398.576 475.387 398.644 475.155 398.78C474.927 398.912 474.813 399.138 474.813 399.458C474.813 399.69 474.905 399.89 475.089 400.058C475.273 400.226 475.565 400.31 475.965 400.31C476.265 400.31 476.523 400.244 476.739 400.112C476.955 399.98 477.121 399.814 477.237 399.614C477.357 399.414 477.417 399.214 477.417 399.014H477.723C477.723 399.422 477.643 399.8 477.483 400.148C477.327 400.492 477.095 400.77 476.787 400.982C476.479 401.19 476.103 401.294 475.659 401.294ZM483.696 401.294C483.328 401.294 482.99 401.194 482.682 400.994C482.378 400.79 482.136 400.488 481.956 400.088C481.776 399.684 481.686 399.184 481.686 398.588H482.1C482.1 398.904 482.168 399.178 482.304 399.41C482.444 399.642 482.622 399.822 482.838 399.95C483.058 400.074 483.286 400.136 483.522 400.136C483.806 400.136 484.062 400.058 484.29 399.902C484.518 399.742 484.698 399.518 484.83 399.23C484.966 398.938 485.034 398.596 485.034 398.204C485.034 397.824 484.968 397.494 484.836 397.214C484.704 396.93 484.522 396.71 484.29 396.554C484.062 396.398 483.802 396.32 483.51 396.32C483.266 396.32 483.036 396.38 482.82 396.5C482.604 396.62 482.43 396.794 482.298 397.022C482.166 397.246 482.1 397.522 482.1 397.85H481.686C481.686 397.274 481.772 396.788 481.944 396.392C482.116 395.992 482.358 395.69 482.67 395.486C482.986 395.278 483.358 395.174 483.786 395.174C484.254 395.174 484.68 395.298 485.064 395.546C485.448 395.794 485.754 396.146 485.982 396.602C486.214 397.054 486.33 397.588 486.33 398.204C486.33 398.828 486.21 399.372 485.97 399.836C485.734 400.296 485.416 400.654 485.016 400.91C484.62 401.166 484.18 401.294 483.696 401.294ZM480.822 401.132V392.912H482.1V399.722L481.668 401.132H480.822ZM490.349 401.294C489.821 401.294 489.347 401.18 488.927 400.952C488.507 400.724 488.173 400.384 487.925 399.932C487.677 399.48 487.553 398.916 487.553 398.24C487.553 397.552 487.677 396.982 487.925 396.53C488.173 396.078 488.507 395.74 488.927 395.516C489.347 395.288 489.821 395.174 490.349 395.174C490.869 395.174 491.339 395.288 491.759 395.516C492.179 395.74 492.511 396.078 492.755 396.53C493.003 396.982 493.127 397.552 493.127 398.24C493.127 398.916 493.003 399.48 492.755 399.932C492.511 400.384 492.179 400.724 491.759 400.952C491.339 401.18 490.869 401.294 490.349 401.294ZM490.307 400.178C490.615 400.178 490.883 400.104 491.111 399.956C491.343 399.804 491.523 399.584 491.651 399.296C491.779 399.008 491.843 398.656 491.843 398.24C491.843 397.604 491.715 397.118 491.459 396.782C491.207 396.446 490.851 396.278 490.391 396.278C490.083 396.278 489.813 396.354 489.581 396.506C489.349 396.654 489.169 396.874 489.041 397.166C488.913 397.454 488.849 397.812 488.849 398.24C488.849 398.864 488.977 399.344 489.233 399.68C489.493 400.012 489.851 400.178 490.307 400.178ZM498.731 395.318H500.009V401.132H498.731V395.318ZM494.711 395.318H495.989V398.894C495.989 399.298 496.089 399.604 496.289 399.812C496.493 400.02 496.775 400.124 497.135 400.124C497.435 400.124 497.705 400.046 497.945 399.89C498.189 399.73 498.381 399.5 498.521 399.2C498.661 398.896 498.731 398.53 498.731 398.102H499.103C499.103 398.794 499.011 399.374 498.827 399.842C498.643 400.306 498.387 400.656 498.059 400.892C497.731 401.124 497.349 401.24 496.913 401.24C496.497 401.24 496.121 401.164 495.785 401.012C495.453 400.86 495.191 400.622 494.999 400.298C494.807 399.97 494.711 399.542 494.711 399.014V395.318ZM504.21 401.294C503.874 401.294 503.568 401.232 503.292 401.108C503.02 400.98 502.802 400.788 502.638 400.532C502.474 400.272 502.392 399.946 502.392 399.554V393.776H503.67V399.512C503.67 400.024 503.912 400.28 504.396 400.28C504.54 400.28 504.684 400.264 504.828 400.232C504.972 400.2 505.136 400.15 505.32 400.082L505.506 400.982C505.286 401.07 505.072 401.144 504.864 401.204C504.656 401.264 504.438 401.294 504.21 401.294ZM501.546 396.188V395.336H505.32V396.188H501.546ZM509.037 395.336H510.483L512.121 400.016H511.881L513.249 395.336H514.551L512.337 402.218C512.125 402.874 511.855 403.356 511.527 403.664C511.203 403.972 510.803 404.126 510.327 404.126C510.059 404.126 509.799 404.092 509.547 404.024C509.295 403.96 509.039 403.862 508.779 403.73V402.596C508.995 402.74 509.205 402.844 509.409 402.908C509.613 402.976 509.819 403.01 510.027 403.01C510.231 403.01 510.407 402.952 510.555 402.836C510.703 402.72 510.829 402.562 510.933 402.362C511.041 402.166 511.131 401.946 511.203 401.702L511.377 401.132L509.037 395.336ZM518.075 401.294C517.547 401.294 517.073 401.18 516.653 400.952C516.233 400.724 515.899 400.384 515.651 399.932C515.403 399.48 515.279 398.916 515.279 398.24C515.279 397.552 515.403 396.982 515.651 396.53C515.899 396.078 516.233 395.74 516.653 395.516C517.073 395.288 517.547 395.174 518.075 395.174C518.595 395.174 519.065 395.288 519.485 395.516C519.905 395.74 520.237 396.078 520.481 396.53C520.729 396.982 520.853 397.552 520.853 398.24C520.853 398.916 520.729 399.48 520.481 399.932C520.237 400.384 519.905 400.724 519.485 400.952C519.065 401.18 518.595 401.294 518.075 401.294ZM518.033 400.178C518.341 400.178 518.609 400.104 518.837 399.956C519.069 399.804 519.249 399.584 519.377 399.296C519.505 399.008 519.569 398.656 519.569 398.24C519.569 397.604 519.441 397.118 519.185 396.782C518.933 396.446 518.577 396.278 518.117 396.278C517.809 396.278 517.539 396.354 517.307 396.506C517.075 396.654 516.895 396.874 516.767 397.166C516.639 397.454 516.575 397.812 516.575 398.24C516.575 398.864 516.703 399.344 516.959 399.68C517.219 400.012 517.577 400.178 518.033 400.178ZM526.458 395.318H527.736V401.132H526.458V395.318ZM522.438 395.318H523.716V398.894C523.716 399.298 523.816 399.604 524.016 399.812C524.22 400.02 524.502 400.124 524.862 400.124C525.162 400.124 525.432 400.046 525.672 399.89C525.916 399.73 526.108 399.5 526.248 399.2C526.388 398.896 526.458 398.53 526.458 398.102H526.83C526.83 398.794 526.738 399.374 526.554 399.842C526.37 400.306 526.114 400.656 525.786 400.892C525.458 401.124 525.076 401.24 524.64 401.24C524.224 401.24 523.848 401.164 523.512 401.012C523.18 400.86 522.918 400.622 522.726 400.298C522.534 399.97 522.438 399.542 522.438 399.014V395.318ZM530.029 401.132V395.318H531.307V401.132H530.029ZM530.977 398.564C530.977 397.812 531.057 397.19 531.217 396.698C531.381 396.202 531.605 395.834 531.889 395.594C532.173 395.35 532.497 395.228 532.861 395.228C532.969 395.228 533.069 395.236 533.161 395.252C533.253 395.264 533.343 395.284 533.431 395.312L533.401 396.584C533.293 396.556 533.177 396.534 533.053 396.518C532.929 396.498 532.819 396.488 532.723 396.488C532.403 396.488 532.137 396.57 531.925 396.734C531.717 396.894 531.561 397.13 531.457 397.442C531.357 397.75 531.307 398.124 531.307 398.564H530.977ZM537.611 401.132V392.912H538.889V401.132H537.611ZM543.303 401.294C542.807 401.294 542.355 401.166 541.947 400.91C541.543 400.654 541.219 400.296 540.975 399.836C540.735 399.376 540.615 398.842 540.615 398.234C540.615 397.598 540.735 397.052 540.975 396.596C541.215 396.136 541.537 395.784 541.941 395.54C542.349 395.296 542.803 395.174 543.303 395.174C543.759 395.174 544.151 395.266 544.479 395.45C544.811 395.634 545.077 395.882 545.277 396.194C545.477 396.506 545.613 396.86 545.685 397.256C545.761 397.648 545.771 398.054 545.715 398.474H541.641V397.76H544.821L544.545 397.94C544.557 397.736 544.547 397.532 544.515 397.328C544.483 397.124 544.421 396.936 544.329 396.764C544.241 396.592 544.115 396.454 543.951 396.35C543.787 396.246 543.577 396.194 543.321 396.194C543.013 396.194 542.751 396.274 542.535 396.434C542.323 396.59 542.161 396.8 542.049 397.064C541.941 397.328 541.887 397.622 541.887 397.946V398.462C541.887 398.81 541.939 399.12 542.043 399.392C542.147 399.66 542.303 399.872 542.511 400.028C542.723 400.184 542.987 400.262 543.303 400.262C543.607 400.262 543.859 400.19 544.059 400.046C544.263 399.902 544.391 399.688 544.443 399.404H545.745C545.685 399.78 545.545 400.11 545.325 400.394C545.105 400.678 544.823 400.9 544.479 401.06C544.135 401.216 543.743 401.294 543.303 401.294ZM551.15 401.132L550.988 399.764V397.388C550.988 396.948 550.896 396.626 550.712 396.422C550.532 396.218 550.238 396.116 549.83 396.116C549.598 396.116 549.392 396.15 549.212 396.218C549.036 396.286 548.898 396.388 548.798 396.524C548.702 396.656 548.654 396.82 548.654 397.016H547.25C547.25 396.58 547.354 396.228 547.562 395.96C547.774 395.688 548.072 395.49 548.456 395.366C548.844 395.238 549.302 395.174 549.83 395.174C550.318 395.174 550.744 395.254 551.108 395.414C551.472 395.57 551.756 395.814 551.96 396.146C552.164 396.478 552.266 396.906 552.266 397.43V401.132H551.15ZM549.23 401.294C548.738 401.294 548.328 401.208 548 401.036C547.676 400.864 547.432 400.638 547.268 400.358C547.104 400.078 547.022 399.778 547.022 399.458C547.022 399.082 547.118 398.77 547.31 398.522C547.506 398.274 547.778 398.09 548.126 397.97C548.478 397.846 548.886 397.784 549.35 397.784C549.666 397.784 549.966 397.81 550.25 397.862C550.538 397.914 550.824 397.982 551.108 398.066V398.828C550.88 398.748 550.63 398.686 550.358 398.642C550.086 398.598 549.834 398.576 549.602 398.576C549.25 398.576 548.958 398.644 548.726 398.78C548.498 398.912 548.384 399.138 548.384 399.458C548.384 399.69 548.476 399.89 548.66 400.058C548.844 400.226 549.136 400.31 549.536 400.31C549.836 400.31 550.094 400.244 550.31 400.112C550.526 399.98 550.692 399.814 550.808 399.614C550.928 399.414 550.988 399.214 550.988 399.014H551.294C551.294 399.422 551.214 399.8 551.054 400.148C550.898 400.492 550.666 400.77 550.358 400.982C550.05 401.19 549.674 401.294 549.23 401.294ZM553.408 395.336H554.878L556.39 400.04H556.276L557.788 395.336H559.252L557.05 401.132H555.616L553.408 395.336ZM562.686 401.294C562.19 401.294 561.738 401.166 561.33 400.91C560.926 400.654 560.602 400.296 560.358 399.836C560.118 399.376 559.998 398.842 559.998 398.234C559.998 397.598 560.118 397.052 560.358 396.596C560.598 396.136 560.92 395.784 561.324 395.54C561.732 395.296 562.186 395.174 562.686 395.174C563.142 395.174 563.534 395.266 563.862 395.45C564.194 395.634 564.46 395.882 564.66 396.194C564.86 396.506 564.996 396.86 565.068 397.256C565.144 397.648 565.154 398.054 565.098 398.474H561.024V397.76H564.204L563.928 397.94C563.94 397.736 563.93 397.532 563.898 397.328C563.866 397.124 563.804 396.936 563.712 396.764C563.624 396.592 563.498 396.454 563.334 396.35C563.17 396.246 562.96 396.194 562.704 396.194C562.396 396.194 562.134 396.274 561.918 396.434C561.706 396.59 561.544 396.8 561.432 397.064C561.324 397.328 561.27 397.622 561.27 397.946V398.462C561.27 398.81 561.322 399.12 561.426 399.392C561.53 399.66 561.686 399.872 561.894 400.028C562.106 400.184 562.37 400.262 562.686 400.262C562.99 400.262 563.242 400.19 563.442 400.046C563.646 399.902 563.774 399.688 563.826 399.404H565.128C565.068 399.78 564.928 400.11 564.708 400.394C564.488 400.678 564.206 400.9 563.862 401.06C563.518 401.216 563.126 401.294 562.686 401.294Z" fill="black"/>
</g>
<g filter="url(#filter2_d)">
<path d="M149.5 246C149.5 245.172 148.828 244.5 148 244.5C147.172 244.5 146.5 245.172 146.5 246H149.5ZM468.939 285.061C469.525 285.646 470.475 285.646 471.061 285.061L480.607 275.515C481.192 274.929 481.192 273.979 480.607 273.393C480.021 272.808 479.071 272.808 478.485 273.393L470 281.879L461.515 273.393C460.929 272.808 459.979 272.808 459.393 273.393C458.808 273.979 458.808 274.929 459.393 275.515L468.939 285.061ZM146.5 246V258.247H149.5V246H146.5ZM155 266.747H463V263.747H155V266.747ZM468.5 272.247V284H471.5V272.247H468.5ZM463 266.747C466.038 266.747 468.5 269.209 468.5 272.247H471.5C471.5 267.552 467.694 263.747 463 263.747V266.747ZM146.5 258.247C146.5 262.941 150.306 266.747 155 266.747V263.747C151.962 263.747 149.5 261.284 149.5 258.247H146.5Z" fill="#767F84"/>
</g>
<rect x="15" y="54" width="88.6387" height="12.3109" rx="2" fill="#BCC0C3"/>
<rect x="15" y="122.929" width="88.6387" height="12.3109" rx="2" fill="#BCC0C3"/>
<rect x="15" y="71.2354" width="88.6387" height="12.3109" rx="2" fill="#24485C"/>
<rect x="15" y="140.164" width="88.6387" height="12.3109" rx="2" fill="#BCC0C3"/>
<rect x="15" y="88.4707" width="88.6387" height="12.3109" rx="2" fill="#BCC0C3"/>
<rect x="15" y="157.399" width="88.6387" height="12.3109" rx="2" fill="#BCC0C3"/>
<rect x="15" y="105.706" width="88.6387" height="12.3109" rx="2" fill="#BCC0C3"/>
<defs>
<filter id="filter0_d" x="0" y="0" width="573.378" height="366.555" filterUnits="userSpaceOnUse" color-interpolation-filters="sRGB">
<feFlood flood-opacity="0" result="BackgroundImageFix"/>
<feColorMatrix in="SourceAlpha" type="matrix" values="0 0 0 0 0 0 0 0 0 0 0 0 0 0 0 0 0 0 127 0" result="hardAlpha"/>
<feMorphology radius="2" operator="erode" in="SourceAlpha" result="effect1_dropShadow"/>
<feOffset dy="2"/>
<feGaussianBlur stdDeviation="4"/>
<feColorMatrix type="matrix" values="0 0 0 0 0.0588235 0 0 0 0 0.129412 0 0 0 0 0.160784 0 0 0 0.17 0"/>
<feBlend mode="normal" in2="BackgroundImageFix" result="effect1_dropShadow"/>
<feBlend mode="normal" in="SourceGraphic" in2="effect1_dropShadow" result="shape"/>
</filter>
<filter id="filter1_d" x="331" y="279.403" width="274" height="177.456" filterUnits="userSpaceOnUse" color-interpolation-filters="sRGB">
<feFlood flood-opacity="0" result="BackgroundImageFix"/>
<feColorMatrix in="SourceAlpha" type="matrix" values="0 0 0 0 0 0 0 0 0 0 0 0 0 0 0 0 0 0 127 0" result="hardAlpha"/>
<feMorphology radius="8" operator="erode" in="SourceAlpha" result="effect1_dropShadow"/>
<feOffset dy="10"/>
<feGaussianBlur stdDeviation="16"/>
<feColorMatrix type="matrix" values="0 0 0 0 0.0588235 0 0 0 0 0.129412 0 0 0 0 0.160784 0 0 0 0.17 0"/>
<feBlend mode="normal" in2="BackgroundImageFix" result="effect1_dropShadow"/>
<feBlend mode="normal" in="SourceGraphic" in2="effect1_dropShadow" result="shape"/>
</filter>
<filter id="filter2_d" x="140.5" y="240.5" width="346.546" height="53" filterUnits="userSpaceOnUse" color-interpolation-filters="sRGB">
<feFlood flood-opacity="0" result="BackgroundImageFix"/>
<feColorMatrix in="SourceAlpha" type="matrix" values="0 0 0 0 0 0 0 0 0 0 0 0 0 0 0 0 0 0 127 0" result="hardAlpha"/>
<feMorphology radius="2" operator="erode" in="SourceAlpha" result="effect1_dropShadow"/>
<feOffset dy="2"/>
<feGaussianBlur stdDeviation="4"/>
<feColorMatrix type="matrix" values="0 0 0 0 0.0588235 0 0 0 0 0.129412 0 0 0 0 0.160784 0 0 0 0.17 0"/>
<feBlend mode="normal" in2="BackgroundImageFix" result="effect1_dropShadow"/>
<feBlend mode="normal" in="SourceGraphic" in2="effect1_dropShadow" result="shape"/>
</filter>
</defs>
</svg>
