<svg width="48" height="48" viewBox="0 0 48 48" fill="none" xmlns="http://www.w3.org/2000/svg">
<circle cx="24" cy="24" r="24" fill="#24485C"/>
<path d="M18.1744 32V29.336C18.1744 28.464 18.3064 27.724 18.5704 27.116C18.8344 26.508 19.2264 25.996 19.7464 25.58C20.2744 25.156 20.9344 24.792 21.7264 24.488L24.9184 23.264C25.6144 22.984 26.1264 22.64 26.4544 22.232C26.7904 21.824 26.9584 21.32 26.9584 20.72C26.9584 20.12 26.7384 19.616 26.2984 19.208C25.8664 18.792 25.2464 18.584 24.4384 18.584C23.6624 18.584 23.0104 18.78 22.4824 19.172C21.9624 19.556 21.6624 20.12 21.5824 20.864H18.4384C18.4624 19.8 18.7384 18.916 19.2664 18.212C19.7944 17.508 20.5024 16.984 21.3904 16.64C22.2784 16.288 23.2784 16.112 24.3904 16.112C25.4384 16.112 26.3864 16.312 27.2344 16.712C28.0824 17.104 28.7544 17.656 29.2504 18.368C29.7544 19.072 30.0064 19.896 30.0064 20.84C30.0064 21.64 29.8584 22.344 29.5624 22.952C29.2744 23.56 28.8344 24.092 28.2424 24.548C27.6504 25.004 26.9024 25.408 25.9984 25.76L22.7824 27.008C22.1584 27.248 21.7064 27.516 21.4264 27.812C21.1464 28.1 21.0064 28.48 21.0064 28.952V29.408H29.9104V32H18.1744Z" fill="white"/>
</svg>
