<svg width="48" height="48" viewBox="0 0 48 48" fill="none" xmlns="http://www.w3.org/2000/svg">
<circle cx="24" cy="24" r="24" fill="#24485C"/>
<path d="M24.0472 32.336C23.2232 32.336 22.4272 32.224 21.6592 32C20.8912 31.776 20.2032 31.444 19.5952 31.004C18.9872 30.564 18.5032 30.02 18.1432 29.372C17.7912 28.716 17.6152 27.96 17.6152 27.104H20.5912C20.6232 27.648 20.7872 28.12 21.0832 28.52C21.3792 28.912 21.7792 29.216 22.2832 29.432C22.7952 29.64 23.3832 29.744 24.0472 29.744C25.0232 29.744 25.7872 29.52 26.3392 29.072C26.8912 28.624 27.1672 28.056 27.1672 27.368C27.1672 26.92 27.0552 26.536 26.8312 26.216C26.6072 25.888 26.2632 25.64 25.7992 25.472C25.3352 25.296 24.7432 25.208 24.0232 25.208H21.9592V22.976H23.7112C24.6232 22.976 25.3392 22.78 25.8592 22.388C26.3792 21.996 26.6392 21.464 26.6392 20.792C26.6392 20.192 26.4152 19.692 25.9672 19.292C25.5192 18.884 24.8472 18.68 23.9512 18.68C23.2232 18.68 22.5712 18.828 21.9952 19.124C21.4272 19.42 21.0632 19.936 20.9032 20.672H17.9272C18.0392 19.608 18.3592 18.74 18.8872 18.068C19.4232 17.396 20.1152 16.904 20.9632 16.592C21.8112 16.272 22.7672 16.112 23.8312 16.112C24.9592 16.112 25.9632 16.296 26.8432 16.664C27.7232 17.032 28.4152 17.544 28.9192 18.2C29.4312 18.848 29.6872 19.6 29.6872 20.456C29.6872 21.248 29.4712 21.94 29.0392 22.532C28.6072 23.116 27.9672 23.552 27.1192 23.84C28.0632 24.16 28.8192 24.636 29.3872 25.268C29.9552 25.9 30.2392 26.688 30.2392 27.632C30.2392 28.552 29.9792 29.368 29.4592 30.08C28.9472 30.784 28.2272 31.336 27.2992 31.736C26.3712 32.136 25.2872 32.336 24.0472 32.336Z" fill="white"/>
</svg>
