<svg width="667" height="496" viewBox="0 0 667 496" fill="none" xmlns="http://www.w3.org/2000/svg">
<path d="M614.484 120.505C538.781 15.1001 378.861 -27.6567 221.586 18.3934C138.439 42.7387 58.27 91.5181 18.5402 185.971C-52.481 354.815 96.6371 408.74 194.144 425.927C241.293 434.237 285.7 448.197 326.279 467.203C399.284 501.397 528.508 531.696 625.952 389.263C696.58 286.027 664.91 190.715 614.484 120.505Z" fill="#FBF5EF"/>
<g clip-path="url(#clip0)">
<path d="M275.785 65.2114H80.4551V263.479H275.785V65.2114Z" fill="#E0B581"/>
<path d="M268.404 70.2437H94.3996H84.5371V80.7916V255.886H94.3996V80.7916H268.404V70.2437Z" fill="#3F3D56"/>
<path opacity="0.3" d="M268.404 70.2437H94.3996H84.5371V80.7916V255.886H94.3996V80.7916H268.404V70.2437Z" fill="black"/>
<path opacity="0.1" d="M240.224 80.7915H232.475H94.3984V106.106H232.475V255.886H268.403V80.7915H240.224Z" fill="black"/>
<path d="M73.2656 58.9927V267.137H279.675V58.9927H73.2656ZM268.404 255.886H84.5371V70.2437H268.404V255.886Z" fill="#3F3D56"/>
<path d="M218.122 274.811C218.122 274.811 227.456 292.861 232.706 296.937C237.956 301.013 224.247 305.963 224.247 305.963L208.205 280.925L218.122 274.811Z" fill="#FFB8B8"/>
<path d="M161.537 230.848C161.537 230.848 204.996 242.203 208.788 249.772C212.58 257.342 224.247 275.684 224.247 275.684L207.038 289.368L190.121 264.038L143.453 243.076L161.537 230.848Z" fill="#2F2E41"/>
<path d="M222.788 298.685C222.788 298.685 218.705 295.191 217.538 297.52C216.371 299.849 212.871 311.786 212.871 311.786C212.871 311.786 217.83 316.444 228.038 313.533C228.038 313.533 230.663 311.495 234.747 313.533C238.83 315.571 253.997 311.495 253.414 304.799C252.83 298.102 237.372 298.685 237.372 298.685C237.372 298.685 230.861 291.403 230.033 294.171C229.205 296.938 230.372 297.229 230.372 297.229C230.372 297.229 225.121 302.761 222.788 298.685Z" fill="#2F2E41"/>
<path d="M172.911 292.57L169.994 317.026H184.286C184.286 317.026 183.119 298.102 183.411 295.773C183.703 293.444 172.911 292.57 172.911 292.57Z" fill="#FFB8B8"/>
<path d="M181.078 238.709C181.078 238.709 188.953 250.355 184.287 251.228C179.62 252.102 175.828 238.709 175.828 238.709H181.078Z" fill="#FFB8B8"/>
<path d="M121.577 237.544C121.577 237.544 115.744 254.722 138.786 259.38C161.828 264.039 168.828 267.823 168.828 267.823L171.745 297.52L191.87 298.685C191.87 298.685 201.496 253.557 188.954 247.735C176.412 241.912 149.869 235.215 149.869 235.215L121.577 237.544Z" fill="#2F2E41"/>
<path d="M171.746 313.242C171.746 313.242 175.829 311.204 176.412 311.204C176.412 311.204 178.976 305.301 183.674 305.923L193.913 320.812C193.913 320.812 209.372 331.875 198.58 334.786C187.788 337.698 179.329 335.369 179.329 335.369L174.954 332.166C174.954 332.166 175.537 328.964 171.746 329.546C171.746 329.546 163.871 326.343 164.162 324.014C164.454 321.685 170.649 311.547 170.649 311.547L171.746 313.242Z" fill="#2F2E41"/>
<path d="M174.224 180.917C180.667 180.917 185.891 175.703 185.891 169.271C185.891 162.839 180.667 157.625 174.224 157.625C167.78 157.625 162.557 162.839 162.557 169.271C162.557 175.703 167.78 180.917 174.224 180.917Z" fill="#FFB8B8"/>
<path d="M164.745 165.632C164.745 165.632 154.244 173.202 152.203 173.493C150.161 173.784 161.828 188.05 161.828 188.05C161.828 188.05 167.37 179.024 170.87 177.86C174.37 176.695 164.745 165.632 164.745 165.632Z" fill="#FFB8B8"/>
<path d="M156.87 175.24C156.87 175.24 152.495 169.417 149.87 169.417C147.245 169.417 123.62 172.037 121.578 191.544C119.536 211.05 120.703 245.114 120.703 245.114C120.703 245.114 118.953 236.671 138.495 240.165C138.495 240.165 161.829 235.215 165.912 235.215C169.996 235.215 171.746 193.582 171.746 193.582L165.105 183.304C165.105 183.304 162.121 188.924 156.87 175.24Z" fill="#D0CDE1"/>
<path d="M167.371 191.252L171.746 193.582L176.996 225.607L184.288 242.203C184.288 242.203 176.412 239.496 175.829 242.742L164.162 225.899L167.371 191.252Z" fill="#D0CDE1"/>
<path d="M171.601 159.72L177.948 160.512C177.826 161.801 177.86 163.398 179.005 164.008C179.543 164.295 180.225 164.28 180.702 164.66C181.849 165.572 180.727 167.535 181.375 168.849L183.231 169.339C183.454 169.756 183.757 170.124 184.123 170.423C184.49 170.722 184.912 170.946 185.365 171.082C185.818 171.217 186.293 171.262 186.764 171.214C187.235 171.165 187.691 171.024 188.107 170.799C189.354 170.051 189.99 168.623 190.551 167.283C191.222 165.682 191.906 163.962 191.57 162.26C191.21 160.431 189.713 158.911 189.645 157.048C189.614 156.214 189.791 155.175 189.087 154.726C188.763 154.574 188.414 154.482 188.058 154.453C186.436 154.115 185.533 152.44 184.324 151.31C181.79 148.942 177.898 149.004 174.433 149.21C173.441 149.214 172.457 149.385 171.522 149.717C170.466 150.246 169.531 150.989 168.78 151.9C166.921 153.878 165.112 155.95 163.886 158.371C162.66 160.791 162.056 163.619 162.722 166.248C162.657 165.995 164.862 164.34 165.137 164.074C165.999 163.241 166.077 162.843 166.544 161.885C167.631 159.65 169.143 159.414 171.601 159.72Z" fill="#2F2E41"/>
<path opacity="0.1" d="M152.932 197.221L153.807 217.601L166.781 232.788L154.974 215.854L152.932 197.221Z" fill="black"/>
<path opacity="0.1" d="M129.598 202.753L139.806 226.336L152.931 237.108L138.931 227.5L129.598 202.753Z" fill="black"/>
<path d="M185.051 221.867L191.219 226.103C191.526 226.344 191.741 226.684 191.826 227.065C191.912 227.446 191.864 227.845 191.69 228.194L190.865 229.894L191.056 230.025L190.119 231.956L189.928 231.825L183.133 245.821C183.063 246.004 182.952 246.17 182.808 246.306C182.665 246.441 182.493 246.542 182.305 246.602C182.117 246.662 181.918 246.679 181.722 246.652C181.527 246.624 181.34 246.553 181.176 246.444L175.379 242.464C175.026 242.186 174.779 241.796 174.681 241.358C174.582 240.92 174.637 240.461 174.837 240.059L183.416 222.388C183.475 222.235 183.567 222.096 183.687 221.983C183.807 221.87 183.951 221.786 184.108 221.736C184.265 221.686 184.431 221.671 184.594 221.694C184.757 221.717 184.913 221.776 185.051 221.867Z" fill="#3F3D56"/>
<path d="M175.475 239.905L182.114 244.463L190.774 226.623L184.135 222.064L175.475 239.905Z" fill="white"/>
<path d="M172.594 235.978C172.594 235.978 184.164 243.98 180.132 246.483C176.1 248.987 167.701 237.878 167.701 237.878L172.594 235.978Z" fill="#FFB8B8"/>
<path d="M138.204 176.695C138.204 176.695 123.037 181.062 127.412 194.455C128.467 197.686 129.743 201.154 131.072 204.556C135.252 215.259 139.954 225.316 139.954 225.316L153.137 237.215L170.871 242.203L172.913 240.456C172.913 240.456 173.496 234.924 170.871 234.342C168.246 233.759 164.162 231.43 164.162 231.43L153.662 216C153.662 216 153.371 177.569 138.204 176.695Z" fill="#D0CDE1"/>
<path d="M426.485 406.019H617.164V212.472L426.485 212.472V406.019Z" fill="#E0B581"/>
<path d="M433.691 217.385H603.552H613.18V227.682V398.607H603.552V227.682H433.691V217.385Z" fill="#3F3D56"/>
<path opacity="0.3" d="M433.691 217.385H603.552H613.18V227.682V398.607H603.552V227.682H433.691V217.385Z" fill="black"/>
<path opacity="0.1" d="M461.199 227.682H468.764H603.552V252.394H468.764V398.607H433.691V227.682H461.199Z" fill="black"/>
<path d="M422.688 206.401V409.59H624.183V206.401H422.688ZM433.691 217.385H613.18V398.607H433.691V217.385Z" fill="#3F3D56"/>
<path d="M540.428 302.197C536.089 294.878 527.505 294.537 527.505 294.537C527.505 294.537 519.14 293.47 513.774 304.615C508.773 315.004 501.87 325.034 512.663 327.466L514.613 321.409L515.82 327.917C517.357 328.027 518.898 328.054 520.438 327.996C531.996 327.623 543.004 328.105 542.649 323.965C542.178 318.461 544.603 309.238 540.428 302.197Z" fill="#2F2E41"/>
<path d="M509.153 361.26L508.24 377.662L535.016 380.395L535.93 363.386L526.801 357.616L509.153 361.26Z" fill="#A0616A"/>
<path d="M581.114 397.252C580.311 389.503 548.433 385.986 540.772 385.252L537.907 383.584L536.994 373.865C536.994 373.865 508.697 371.435 506.567 371.131C504.437 370.828 502.611 374.776 502.611 375.687C502.611 376.346 502.213 381.048 500.614 383.836C497.162 386.605 486.637 395.317 486.637 398.618C486.637 402.567 495.004 452.225 495.004 452.225L495.917 462.552L504.437 464.071L503.828 431.876C503.828 431.876 506.871 413.349 502.611 408.186V406.06C502.611 406.06 515.105 402.81 519.509 399.272C520.785 398.999 524.371 398.324 526.351 398.911C526.623 399.07 526.936 399.234 527.284 399.401C527.328 399.441 527.37 399.484 527.41 399.529L527.444 399.477C533.14 402.138 547.753 405.495 553.73 404.541C558.339 403.839 563.051 404.694 567.118 406.971C563.771 411.223 566.205 423.372 566.205 423.372L566.509 449.492L570.769 454.655H576.55V440.38C576.55 440.38 582.027 406.06 581.114 397.252Z" fill="#2F2E41"/>
<path d="M524.822 322.232C530.368 322.232 534.863 317.745 534.863 312.209C534.863 306.674 530.368 302.187 524.822 302.187C519.277 302.187 514.781 306.674 514.781 312.209C514.781 317.745 519.277 322.232 524.822 322.232Z" fill="#A0616A"/>
<path d="M518.737 318.587C518.737 318.587 520.259 325.269 518.129 325.877C516.444 326.434 514.814 327.146 513.26 328.003L510.826 335.9V343.796L540.341 347.137L541.254 344.404V340.455L537.907 334.381L536.385 332.862C536.385 332.862 529.691 325.573 531.213 318.587H518.737Z" fill="#A0616A"/>
<path d="M545.058 342.733C545.058 342.733 545.971 353.363 545.058 358.223C544.146 363.083 544.45 370.372 544.45 370.372L537.756 369.157V352.756L539.277 343.948L545.058 342.733Z" fill="#A0616A"/>
<path d="M528.555 300.77C531.982 300.77 534.761 297.996 534.761 294.574C534.761 291.153 531.982 288.379 528.555 288.379C525.127 288.379 522.348 291.153 522.348 294.574C522.348 297.996 525.127 300.77 528.555 300.77Z" fill="#2F2E41"/>
<path d="M521.693 292.944C521.694 291.414 522.261 289.938 523.286 288.8C524.312 287.663 525.722 286.944 527.247 286.783C527.03 286.76 526.812 286.749 526.594 286.749C524.947 286.749 523.369 287.401 522.205 288.563C521.041 289.725 520.387 291.301 520.387 292.944C520.387 294.587 521.041 296.163 522.205 297.325C523.369 298.487 524.947 299.14 526.594 299.14C526.812 299.139 527.03 299.128 527.247 299.105C525.722 298.944 524.312 298.225 523.286 297.088C522.261 295.95 521.694 294.474 521.693 292.944Z" fill="#2F2E41"/>
<path d="M538.508 301.491L530.027 297.057L518.315 298.871L515.893 309.553L521.924 309.322L523.609 305.397V309.257L526.392 309.15L528.008 302.902L529.017 309.553L538.912 309.352L538.508 301.491Z" fill="#2F2E41"/>
<path d="M503.964 452.353C503.964 452.353 508.281 454.381 509.551 455.141C510.821 455.902 515.901 454.381 514.885 458.944C513.869 463.507 509.551 467.817 509.551 467.817C509.551 467.817 507.52 470.099 507.52 471.62C507.52 473.141 502.44 484.803 496.344 484.296C490.249 483.789 491.265 477.705 491.265 477.705L492.535 471.113C492.535 471.113 495.074 459.958 495.582 460.212C496.09 460.465 497.36 462.24 497.36 462.24C497.36 462.24 503.71 459.705 503.964 452.353Z" fill="#D0CDE1"/>
<path d="M567.287 444.76C567.287 444.76 562.969 446.788 561.699 447.548C560.43 448.309 555.35 446.788 556.366 451.351C557.382 455.914 561.699 460.224 561.699 460.224C561.699 460.224 563.731 462.506 563.731 464.027C563.731 465.548 568.811 477.21 574.907 476.703C581.002 476.196 579.986 470.112 579.986 470.112L578.716 463.52C578.716 463.52 576.176 452.365 575.669 452.619C575.161 452.872 573.891 454.647 573.891 454.647C573.891 454.647 567.541 452.112 567.287 444.76Z" fill="#D0CDE1"/>
<path d="M533.81 372.497V370.086H533.274V369.015C533.274 368.769 533.225 368.525 533.131 368.297C533.036 368.07 532.898 367.863 532.724 367.689C532.549 367.515 532.342 367.377 532.114 367.283C531.887 367.189 531.642 367.14 531.396 367.14H524.956C524.458 367.14 523.98 367.338 523.628 367.689C523.276 368.041 523.078 368.518 523.078 369.015V386.959C523.078 387.456 523.276 387.933 523.628 388.285C523.98 388.636 524.458 388.834 524.956 388.834H531.396C531.894 388.834 532.372 388.636 532.724 388.285C533.076 387.933 533.274 387.456 533.274 386.959V375.71H533.81V373.3H533.274V372.497H533.81Z" fill="#D0CDE1"/>
<path d="M528.444 373.568C529.037 373.568 529.518 373.088 529.518 372.496C529.518 371.905 529.037 371.425 528.444 371.425C527.852 371.425 527.371 371.905 527.371 372.496C527.371 373.088 527.852 373.568 528.444 373.568Z" fill="#3F3D56"/>
<path d="M501.546 337.57L496.069 360.045C496.069 360.045 493.939 364.905 498.808 367.942C503.676 370.979 514.63 374.928 514.63 374.928C514.63 374.928 524.367 388.292 525.584 382.825C526.801 377.358 518.281 370.372 518.281 370.372L503.372 360.957L509.153 345.163L501.546 337.57Z" fill="#A0616A"/>
<path d="M541.102 365.816C541.102 365.816 545.666 365.209 545.362 370.372C545.057 375.535 538.972 376.143 538.972 376.143C538.972 376.143 536.233 387.684 532.278 385.558C528.322 383.432 534.408 371.891 534.408 371.891L539.58 367.942L541.102 365.816Z" fill="#A0616A"/>
<path d="M511.739 335.596L516.607 325.573L506.871 328.914C506.871 328.914 501.394 331.647 501.089 338.026C500.785 344.404 508.088 347.745 508.088 347.745C508.088 347.745 509.305 356.856 508.696 358.071C508.088 359.286 508.696 364.146 508.696 364.146C508.696 364.146 520.411 360.957 526.192 364.905C531.973 368.854 536.69 366.576 536.69 366.576C536.69 366.576 536.385 358.983 538.82 357.768C541.254 356.553 543.384 350.782 541.254 347.137C541.254 347.137 546.122 347.745 545.818 343.189C545.514 338.633 543.079 334.685 539.124 332.862C535.168 331.04 534.731 330.749 534.731 330.749L540.341 341.063V343.796C540.341 343.796 530.41 337.469 520.584 336.941C517.379 336.795 514.231 337.829 511.739 339.848L511.739 339.848V335.596Z" fill="#2F2E41"/>
<path d="M296.801 111.728C295.981 111.848 295.414 112.61 295.534 113.43C295.654 114.25 296.416 114.817 297.236 114.697L296.801 111.728ZM462.571 198.711C463.34 199.019 464.213 198.645 464.521 197.875L469.536 185.341C469.843 184.572 469.469 183.699 468.7 183.391C467.931 183.084 467.058 183.458 466.75 184.227L462.293 195.368L451.151 190.911C450.382 190.603 449.509 190.977 449.201 191.746C448.894 192.515 449.268 193.388 450.037 193.696L462.571 198.711ZM297.236 114.697C317.427 111.74 349.957 112.354 381.748 123.828C413.502 135.29 444.46 157.559 461.749 197.909L464.507 196.727C446.823 155.456 415.125 132.686 382.767 121.007C350.446 109.34 317.408 108.711 296.801 111.728L297.236 114.697Z" fill="#28576C"/>
<path d="M411.285 379.053C412.057 378.752 412.439 377.882 412.138 377.11C411.837 376.338 410.968 375.957 410.196 376.257L411.285 379.053ZM230.231 331.461C229.412 331.334 228.645 331.894 228.518 332.712L226.442 346.052C226.314 346.87 226.875 347.637 227.693 347.765C228.512 347.892 229.279 347.332 229.406 346.513L231.252 334.656L243.109 336.501C243.927 336.629 244.694 336.068 244.822 335.25C244.949 334.431 244.389 333.664 243.57 333.537L230.231 331.461ZM410.196 376.257C391.182 383.666 359.343 390.364 325.788 386.311C292.273 382.263 257.109 367.503 231.211 332.058L228.789 333.828C255.278 370.082 291.275 385.164 325.428 389.289C359.543 393.41 391.88 386.614 411.285 379.053L410.196 376.257Z" fill="#28576C"/>
</g>
<defs>
<clipPath id="clip0">
<rect width="550.917" height="425.32" fill="white" transform="translate(73.2656 58.9927)"/>
</clipPath>
</defs>
</svg>
