<svg width="563" height="447" viewBox="0 0 563 447" fill="none" xmlns="http://www.w3.org/2000/svg">
<g clip-path="url(#clip0)">
<path d="M330.18 75.5407C294.556 74.3039 260.622 62.8205 228.224 50.2542C195.826 37.6879 163.736 23.7638 128.966 17.1068C106.602 12.8246 81.0233 12.2199 63.0078 24.1926C45.6638 35.7364 40.0604 55.6083 37.0496 74.0675C34.7818 87.9531 33.4498 102.564 39.6641 115.565C43.974 124.591 51.6304 132.177 56.92 140.851C75.3429 170.931 62.3252 208.026 42.3612 237.397C33.0039 251.178 22.133 264.332 14.9114 278.987C7.68975 293.643 4.34314 310.458 10.6621 325.421C16.9314 340.263 31.8646 351.389 48.0361 359.223C80.8912 375.137 119.592 379.688 157.357 382.266C240.928 387.978 324.94 385.504 408.732 383.031C439.743 382.113 470.886 381.184 501.391 376.396C518.333 373.735 535.82 369.519 548.122 359.327C563.732 346.393 567.602 324.487 557.144 308.27C539.591 281.065 491.092 274.309 478.807 245.109C472.058 229.041 478.994 211.143 488.802 196.234C509.851 164.264 545.128 136.212 546.988 99.6674C548.265 74.5623 531.301 49.4296 505.079 37.5505C477.596 25.0556 439.473 26.6388 419.206 47.2473C398.323 68.4825 361.632 76.6292 330.18 75.5407Z" fill="#FBF5EF"/>
<path d="M239.683 379.573L51.2826 378.655L32.5625 334.805L98.757 330.006L87.22 281.929L218.145 264.981L92.7738 221.455L103.848 218.828L305.443 251.673L294.341 326.702L278.472 367.936L239.683 379.573Z" fill="#E0B581"/>
<path d="M54.1738 360.289C54.1738 360.289 65.7328 358.442 72.6682 366.6C72.6682 366.6 67.5823 370.602 56.6397 365.061L54.1738 360.289Z" fill="#E0B581"/>
<path d="M52.9617 360.108C52.9617 360.108 45.5859 369.173 49.2188 379.265C49.2188 379.265 55.2294 376.863 55.8844 364.626L52.9617 360.108Z" fill="#E0B581"/>
<path d="M46.3359 345.205C46.3359 345.205 50.9595 336.734 69.4539 348.591C69.4539 348.591 66.988 354.286 58.8197 353.824C50.6513 353.363 48.4936 349.669 46.3359 345.205Z" fill="#E0B581"/>
<path d="M45.1394 344.595C45.1394 344.595 35.5455 343.496 34.6152 365.429C34.6152 365.429 40.6975 366.688 45.0183 359.751C49.3392 352.813 47.5668 348.921 45.1394 344.595Z" fill="#E0B581"/>
<path d="M39.5547 327.098C39.5547 327.098 44.9489 312.168 64.5221 322.788C64.5221 322.788 60.0526 336.487 41.5582 332.177L39.5547 327.098Z" fill="#E0B581"/>
<path d="M33.543 304.78C33.543 304.78 43.7149 289.696 61.7469 303.68C61.7469 303.68 55.428 317.841 35.0842 310.145L33.543 304.78Z" fill="#E0B581"/>
<path d="M31.3848 283.539C31.3848 283.539 43.252 269.681 61.1079 283.539C61.1079 283.539 49.8571 295.699 31.3848 287.079V283.539Z" fill="#E0B581"/>
<path d="M29.5352 262.909C29.5352 262.909 41.5565 248.44 58.6638 262.139C58.6638 262.139 45.1013 274.914 29.5352 266.295V262.909Z" fill="#E0B581"/>
<path d="M30.6152 244.592C30.6152 244.592 43.2751 225.968 59.2815 238.589C59.2815 238.589 45.719 254.597 30.6152 248.132V244.592Z" fill="#E0B581"/>
<path d="M33.543 223.197C33.543 223.197 46.9514 204.727 62.5175 218.888C62.5175 218.888 46.6432 234.895 33.543 226.584V223.197Z" fill="#E0B581"/>
<path d="M38.0119 204.073C38.0119 204.073 53.8862 186.714 67.735 193.629C67.735 193.629 51.1947 212.066 37.3184 208.68L38.0119 204.073Z" fill="#E0B581"/>
<path d="M43.5607 185.944C43.5607 185.944 61.879 164.681 72.5353 171.783C72.5353 171.783 59.0388 188.275 42.2617 189.924L43.5607 185.944Z" fill="#E0B581"/>
<path d="M51.5701 164.918C51.5701 164.918 67.6041 147.558 79.3172 151.868C79.3172 151.868 65.6006 169.876 49.418 170.338L51.5701 164.918Z" fill="#E0B581"/>
<path d="M58.8175 145.249C58.8175 145.249 76.5413 128.626 84.2473 131.551C84.2473 131.551 71.4553 150.021 58.0469 148.943L58.8175 145.249Z" fill="#E0B581"/>
<path d="M65.9082 127.087C65.9082 127.087 81.1661 107.226 89.494 108.765C89.494 108.765 80.2414 126.471 65.9082 129.104V127.087Z" fill="#E0B581"/>
<path d="M73.6028 102.598C73.6028 102.598 87.0883 87.3763 94.376 87.4092C94.376 87.4092 83.7307 107.748 73.0469 107.562L73.6028 102.598Z" fill="#E0B581"/>
<path d="M78.1607 86.2931L91.1893 54.5859C91.1893 54.5859 91.8388 83.2477 76.5039 92.1749L78.1607 86.2931Z" fill="#E0B581"/>
<path d="M83.4514 51.3262C83.4514 51.3262 85.609 24.8467 84.2219 22.6919C84.2219 22.6919 93.5352 44.7077 83.3633 63.0239L83.4514 51.3262Z" fill="#E0B581"/>
<path d="M39.0468 326.746C39.0468 326.746 25.5393 318.385 16.793 338.84C16.793 338.84 28.8143 346.811 40.6375 331.963L39.0468 326.746Z" fill="#E0B581"/>
<path d="M33.108 303.928C33.108 303.928 16.5402 296.38 8.50391 317.736C8.50391 317.736 21.3014 326.532 34.6162 309.326L33.108 303.928Z" fill="#E0B581"/>
<path d="M30.6157 284.809C30.6157 284.809 18.7485 270.95 0.892578 284.809C0.892578 284.809 12.1433 296.968 30.6157 288.349V284.809Z" fill="#E0B581"/>
<path d="M29.1287 262.909C29.1287 262.909 17.1073 248.44 0 262.139C0 262.139 13.5625 274.914 29.1287 266.295V262.909Z" fill="#E0B581"/>
<path d="M30.6153 245.12C30.6153 245.12 22.1828 224.259 3.85352 233.23C3.85352 233.23 13.7612 251.727 29.8668 248.583L30.6153 245.12Z" fill="#E0B581"/>
<path d="M34.6057 223.093C34.6057 223.093 26.2227 201.869 7.63477 211.709C7.63477 211.709 19.0176 231.163 33.7801 226.369L34.6057 223.093Z" fill="#E0B581"/>
<path d="M39.8005 204.178C39.8005 204.178 36.4979 180.909 21.0859 178.825C21.0859 178.825 24.3555 203.364 37.7254 208.372L39.8005 204.178Z" fill="#E0B581"/>
<path d="M43.9523 185.988C43.9523 185.988 42.6643 157.953 29.9219 156.975C29.9219 156.975 30.3512 178.254 42.5157 189.957L43.9523 185.988Z" fill="#E0B581"/>
<path d="M52.8902 164.131C52.8902 164.131 49.0922 140.818 36.9277 137.971C36.9277 137.971 38.4359 160.547 51.6847 169.854L52.8902 164.131Z" fill="#E0B581"/>
<path d="M60.26 145.442C60.26 145.442 60.1334 121.155 52.7027 117.588C52.7027 117.588 48.0956 139.576 58.1079 148.542L60.26 145.442Z" fill="#E0B581"/>
<path d="M66.4749 126.812C66.4749 126.812 65.4346 101.806 57.7396 98.2822C57.7396 98.2822 55.1086 118.072 65.3245 128.45L66.4749 126.812Z" fill="#E0B581"/>
<path d="M74.6773 104.593C74.6773 104.593 74.6333 84.2539 69.14 79.4824C69.14 79.4824 63.6797 101.762 71.8096 108.683L74.6773 104.593Z" fill="#E0B581"/>
<path d="M77.5177 85.2924L72.173 51.4414C72.173 51.4414 64.9128 79.1796 77.7708 91.4051L77.5177 85.2924Z" fill="#E0B581"/>
<path d="M78.5574 51.6449C78.5574 51.6449 64.8407 28.8871 65.1214 26.3584C65.1214 26.3584 66.5801 50.2102 83.836 62.0894L78.5574 51.6449Z" fill="#E0B581"/>
<path d="M80.164 44.9218C80.164 44.9218 67.2179 12.599 61.3613 9.98242C61.3613 9.98242 79.8557 19.3714 81.2428 43.9983L80.164 44.9218Z" fill="#E0B581"/>
<path d="M72.9819 107.753L72.0957 107.484C83.0217 71.9015 85.7463 49.2151 79.7742 43.5256L80.4072 42.855C86.7426 48.8578 84.1721 71.2968 72.9819 107.753Z" fill="#444053"/>
<path d="M42.894 191.067L41.584 190.6C42.7454 187.34 43.9949 184.031 45.3049 180.771C56.7097 152.384 66.4193 125.976 72.6446 105.703L73.784 105.153C67.5477 125.465 58.0088 152.884 46.5929 181.31C45.2884 184.509 44.0444 187.802 42.894 191.067Z" fill="#444053"/>
<path d="M70.4609 386.917C70.2847 386.725 52.5775 366.809 40.2314 332.809C32.9973 312.904 28.9713 291.979 28.3036 270.813C27.4559 244.356 33.0152 214.815 42.5377 187.978L43.5725 189.187C22.1938 249.419 30.6869 301.031 41.9542 332.111C54.1682 365.803 71.6773 385.499 71.848 385.697L70.4609 386.917Z" fill="#444053"/>
<path d="M347.172 344.634C347.172 344.634 334.694 359.844 344.602 382.838L244.974 425.99L235.413 427.991L231.01 408.752L233.955 384.471V371.201L347.172 344.634Z" fill="#D5D6DB"/>
<path d="M32.5625 334.805L170.456 309.7L353.17 338.768L239.683 379.573L32.5625 334.805Z" fill="#E0B581"/>
<path d="M32.5625 334.805L170.456 309.7L353.17 338.768L239.683 379.573L32.5625 334.805Z" fill="#E0B581"/>
<path d="M32.5641 334.799C32.5641 334.799 19.6676 359.201 34.5292 381.739L239.013 425.99C239.013 425.99 226.32 406.553 239.668 379.573L32.5641 334.799Z" fill="#E0B581"/>
<path opacity="0.1" d="M32.5641 334.799C32.5641 334.799 19.6676 359.201 34.5292 381.739L239.013 425.99C239.013 425.99 226.32 406.553 239.668 379.573L32.5641 334.799Z" fill="black"/>
<path opacity="0.1" d="M38.6565 343.259C38.6565 343.259 31.2863 361.114 38.6565 372.669V343.259Z" fill="black"/>
<path d="M239.011 425.99L353.17 377.341C353.17 377.341 359.555 378.716 355.427 383.388C351.299 388.061 241.213 430.663 241.213 430.663L34.5273 381.739L239.011 425.99Z" fill="#E0B581"/>
<path opacity="0.1" d="M239.011 425.99L353.17 377.341C353.17 377.341 359.555 378.716 355.427 383.388C351.299 388.061 241.213 430.663 241.213 430.663L34.5273 381.739L239.011 425.99Z" fill="black"/>
<path opacity="0.1" d="M229.654 384.487C229.654 384.487 218.646 397.68 229.654 417.47V384.487Z" fill="black"/>
<path opacity="0.1" d="M282.953 384.264L233.574 400.716L233.748 401.238L283.127 384.785L282.953 384.264Z" fill="black"/>
<path opacity="0.1" d="M292.841 382.627L233.557 405.141L233.752 405.655L293.037 383.141L292.841 382.627Z" fill="black"/>
<path opacity="0.1" d="M301.925 382.548L233.889 410.36L234.097 410.869L302.134 383.057L301.925 382.548Z" fill="black"/>
<path opacity="0.1" d="M311.803 380.167L234.684 414.958L234.91 415.459L312.03 380.668L311.803 380.167Z" fill="black"/>
<path opacity="0.1" d="M320.1 380.178L235.293 417.198L235.513 417.702L320.32 380.682L320.1 380.178Z" fill="black"/>
<path opacity="0.1" d="M338.251 377.099L236.572 420.958L236.791 421.463L338.469 377.604L338.251 377.099Z" fill="black"/>
<path opacity="0.3" d="M83.791 337.487L180.666 317.148L239.683 328.417L160.301 353.978L83.791 337.487Z" fill="white"/>
<path d="M353.172 338.768C353.172 338.768 358.181 340.786 355.241 343.902C352.302 347.019 239.668 379.573 239.668 379.573L353.172 338.768Z" fill="#E0B581"/>
<path d="M401.823 291.763C401.823 291.763 389.35 306.968 399.258 329.967L299.63 373.119L290.069 375.131L285.666 355.892L288.655 331.616V318.33L401.823 291.763Z" fill="#D5D6DB"/>
<path d="M87.2207 281.928L225.108 256.829L407.829 285.897L294.341 326.702L87.2207 281.928Z" fill="#3A3768"/>
<path d="M87.1988 281.928C87.1988 281.928 74.2968 306.33 89.1584 328.868L293.642 373.119C293.642 373.119 280.955 353.665 294.319 326.696L87.1988 281.928Z" fill="#3A3768"/>
<path opacity="0.1" d="M87.1988 281.928C87.1988 281.928 74.2968 306.33 89.1584 328.868L293.642 373.119C293.642 373.119 280.955 353.665 294.319 326.696L229.655 312.717L87.1988 281.928Z" fill="black"/>
<path opacity="0.1" d="M93.3084 290.389C93.3084 290.389 85.9436 308.238 93.3084 319.798V290.389Z" fill="black"/>
<path d="M293.664 373.119L407.828 324.47C407.828 324.47 414.208 325.844 410.079 330.517C405.951 335.19 295.865 377.792 295.865 377.792L89.1797 328.868L293.664 373.119Z" fill="#3A3768"/>
<path opacity="0.1" d="M293.664 373.119L407.828 324.47C407.828 324.47 414.208 325.844 410.079 330.517C405.951 335.19 295.865 377.792 295.865 377.792L89.1797 328.868L293.664 373.119Z" fill="black"/>
<path opacity="0.1" d="M284.307 331.617C284.307 331.617 273.298 344.81 284.307 364.599V331.617Z" fill="black"/>
<path opacity="0.1" d="M337.607 331.399L288.229 347.852L288.403 348.373L337.781 331.921L337.607 331.399Z" fill="black"/>
<path opacity="0.1" d="M347.505 329.759L288.221 352.273L288.416 352.787L347.701 330.273L347.505 329.759Z" fill="black"/>
<path opacity="0.1" d="M356.579 329.673L288.543 357.485L288.751 357.994L356.788 330.182L356.579 329.673Z" fill="black"/>
<path opacity="0.1" d="M366.463 327.292L289.344 362.083L289.57 362.584L366.69 327.793L366.463 327.292Z" fill="black"/>
<path opacity="0.1" d="M374.754 327.297L289.947 364.317L290.168 364.821L374.975 327.8L374.754 327.297Z" fill="black"/>
<path opacity="0.1" d="M392.907 324.219L291.229 368.077L291.447 368.582L393.125 324.723L392.907 324.219Z" fill="black"/>
<path opacity="0.45" d="M138.449 284.617L235.325 264.277L294.342 275.546L214.959 301.108L138.449 284.617Z" fill="white"/>
<path d="M407.829 285.897C407.829 285.897 412.832 287.915 409.899 291.026C406.965 294.138 294.342 326.697 294.342 326.697L407.829 285.897Z" fill="#3A3768"/>
<path d="M406.998 231.278C406.998 231.278 394.52 258.582 404.427 281.577L304.8 312.635L295.261 314.652L290.857 295.413L293.802 271.132V257.846L406.998 231.278Z" fill="#D5D6DB"/>
<path d="M92.4102 221.449L230.303 196.344L413.024 225.413L299.531 266.218L92.4102 221.449Z" fill="#E0B581"/>
<path d="M92.4115 221.444C92.4115 221.444 79.493 245.846 94.3545 268.384L298.839 312.635C298.839 312.635 286.146 293.181 299.51 266.218L92.4115 221.444Z" fill="#E0B581"/>
<path opacity="0.1" d="M92.4115 221.444C92.4115 221.444 79.493 245.846 94.3545 268.384L298.839 312.635C298.839 312.635 286.146 293.181 299.51 266.218L92.4115 221.444Z" fill="black"/>
<path opacity="0.1" d="M98.5042 229.904C98.5042 229.904 91.1339 247.759 98.5042 259.314V229.904Z" fill="black"/>
<path d="M298.861 312.635L413.02 276.08C413.02 276.08 419.405 277.454 415.277 282.126C411.148 286.799 301.063 317.308 301.063 317.308L94.377 268.384L298.861 312.635Z" fill="#E0B581"/>
<path opacity="0.1" d="M298.861 312.635L413.02 276.08C413.02 276.08 419.405 277.454 415.277 282.126C411.148 286.799 301.063 317.308 301.063 317.308L94.377 268.384L298.861 312.635Z" fill="black"/>
<path opacity="0.1" d="M289.504 271.132C289.504 271.132 278.495 284.325 289.504 304.115V271.132Z" fill="black"/>
<path opacity="0.1" d="M342.806 270.914L293.428 287.366L293.602 287.888L342.98 271.435L342.806 270.914Z" fill="black"/>
<path opacity="0.1" d="M352.698 269.277L293.414 291.791L293.61 292.305L352.894 269.791L352.698 269.277Z" fill="black"/>
<path opacity="0.1" d="M361.769 269.193L293.732 297.005L293.941 297.514L361.977 269.702L361.769 269.193Z" fill="black"/>
<path opacity="0.1" d="M371.66 266.808L294.541 301.599L294.768 302.1L371.887 267.309L371.66 266.808Z" fill="black"/>
<path opacity="0.1" d="M379.953 266.817L295.146 303.837L295.367 304.341L380.174 267.321L379.953 266.817Z" fill="black"/>
<path opacity="0.1" d="M398.106 263.742L296.428 307.601L296.646 308.105L398.325 264.247L398.106 263.742Z" fill="black"/>
<path opacity="0.3" d="M143.639 224.132L240.514 203.793L299.531 215.062L220.148 240.623L143.639 224.132Z" fill="white"/>
<path d="M413.019 225.413C413.019 225.413 418.027 227.431 415.088 230.547C412.149 233.664 299.531 266.218 299.531 266.218L413.019 225.413Z" fill="#E0B581"/>
<path d="M170.864 58.5437C170.864 58.5437 149.948 57.2848 152.392 71.94C152.392 71.94 151.902 74.5292 154.252 75.7055C154.252 75.7055 154.291 74.6061 156.399 74.9854C157.151 75.1145 157.917 75.1514 158.678 75.0953C159.704 75.0252 160.68 74.6239 161.458 73.952C161.458 73.952 167.342 71.5223 169.631 61.9134C169.631 61.9134 171.327 59.819 171.283 59.2803L167.738 60.7865C167.738 60.7865 168.943 63.3316 167.997 65.448C167.997 65.448 167.881 60.8799 167.199 60.9844C167.061 60.9844 165.366 61.8694 165.366 61.8694C165.366 61.8694 167.441 66.3055 165.872 69.5268C165.872 69.5268 166.466 64.0627 164.716 62.1882L162.228 63.6394C162.228 63.6394 164.656 68.2185 163.01 71.9565C163.01 71.9565 163.434 66.2231 161.705 63.9913L159.448 65.7503C159.448 65.7503 161.733 70.2634 160.34 73.3638C160.34 73.3638 160.159 66.6903 158.964 66.1846C158.964 66.1846 156.988 67.9217 156.691 68.6363C156.691 68.6363 158.254 71.9345 157.28 73.6441C157.28 73.6441 156.691 69.197 156.179 69.175C156.179 69.175 154.214 72.1214 154.01 74.1224C154.105 72.2569 154.688 70.4489 155.7 68.8782C154.568 69.0921 153.523 69.633 152.695 70.4338C152.695 70.4338 152.997 68.3504 156.19 68.169C156.19 68.169 157.814 65.9317 158.249 65.7998C158.249 65.7998 155.073 65.5304 153.152 66.3825C153.152 66.3825 154.847 64.42 158.826 65.2831L161.028 63.469C161.028 63.469 156.856 62.9193 155.084 63.5295C155.084 63.5295 157.126 61.7924 161.628 63.0568L164.056 61.611C164.056 61.611 160.494 60.8469 158.375 61.1218C158.375 61.1218 160.61 59.9179 164.766 61.2207L166.494 60.4456C166.494 60.4456 163.89 59.9344 163.125 59.852C162.36 59.7695 162.322 59.5606 162.322 59.5606C163.974 59.2896 165.669 59.4798 167.221 60.1103C167.221 60.1103 170.936 58.7745 170.864 58.5437Z" fill="#E0B581"/>
<path opacity="0.1" d="M465.122 118.781C465.122 118.781 444.206 117.522 446.65 132.177C446.65 132.177 446.16 134.766 448.51 135.943C448.51 135.943 448.549 134.843 450.657 135.223C451.41 135.349 452.174 135.386 452.936 135.333C453.953 135.258 454.918 134.857 455.688 134.189C455.688 134.189 461.577 131.76 463.862 122.151C463.862 122.151 465.557 120.056 465.513 119.518L461.979 121.024C461.979 121.024 463.185 123.569 462.238 125.685C462.238 125.685 462.122 121.117 461.445 121.222C461.308 121.222 459.607 122.107 459.607 122.107C459.607 122.107 461.682 126.543 460.119 129.764C460.119 129.764 460.713 124.3 458.957 122.426L456.469 123.877C456.469 123.877 458.897 128.456 457.251 132.194C457.251 132.194 457.675 126.46 455.947 124.229L453.695 125.988C453.695 125.988 455.974 130.501 454.581 133.601C454.581 133.601 454.4 126.928 453.205 126.422C453.205 126.422 451.235 128.159 450.932 128.874C450.932 128.874 452.495 132.172 451.527 133.881C451.527 133.881 450.932 129.434 450.426 129.412C450.426 129.412 448.461 132.359 448.257 134.36C448.352 132.493 448.937 130.685 449.952 129.115C448.818 129.33 447.772 129.871 446.942 130.671C446.942 130.671 447.25 128.588 450.437 128.406C450.437 128.406 452.06 126.169 452.495 126.032C452.495 126.032 449.325 125.768 447.398 126.62C447.398 126.62 449.094 124.657 453.073 125.52L455.275 123.706C455.275 123.706 451.097 123.157 449.33 123.767C449.33 123.767 451.367 122.03 455.875 123.294L458.297 121.848C458.297 121.848 454.736 121.084 452.616 121.359C452.616 121.359 454.851 120.155 459.007 121.458L460.741 120.683C460.741 120.683 458.132 120.172 457.367 120.089C456.602 120.007 456.563 119.798 456.563 119.798C458.215 119.523 459.912 119.714 461.462 120.348C461.462 120.348 465.188 119.012 465.122 118.781Z" fill="#E0B581"/>
<path opacity="0.1" d="M206.092 149.081C206.092 149.081 196.977 130.209 185.374 139.51C185.374 139.51 182.869 140.346 182.991 142.968C182.991 142.968 183.954 142.468 184.642 144.491C184.899 145.206 185.239 145.888 185.655 146.524C186.218 147.387 187.047 148.043 188.016 148.393C188.016 148.393 193.008 152.34 202.525 149.647C202.525 149.647 205.184 150.103 205.619 149.784L202.58 147.437C202.58 147.437 200.929 149.729 198.628 149.933C198.628 149.933 202.569 147.607 202.145 147.069C202.057 146.959 200.494 145.898 200.494 145.898C200.494 145.898 197.626 149.872 194.049 150.076C194.049 150.076 199.113 147.932 199.894 145.485L197.417 144.023C197.417 144.023 194.594 148.377 190.526 148.762C190.526 148.762 195.744 146.338 196.85 143.743L194.219 142.644C194.219 142.644 191.385 146.832 187.994 147.135C187.994 147.135 193.74 143.721 193.597 142.429C193.597 142.429 191.115 141.561 190.344 141.643C190.344 141.643 188.242 144.606 186.26 144.606C186.26 144.606 189.854 141.918 189.634 141.484C189.634 141.484 186.1 141.209 184.24 142.033C185.917 141.201 187.782 140.822 189.651 140.934C188.909 140.051 187.926 139.403 186.822 139.07C186.822 139.07 188.792 138.323 190.504 141.011C190.504 141.011 193.256 141.335 193.581 141.649C193.581 141.649 192.265 138.757 190.586 137.498C190.586 137.498 193.129 138.009 194.291 141.896L196.96 142.951C196.96 142.951 195.425 139.037 194.01 137.801C194.01 137.801 196.52 138.73 197.615 143.298L200.059 144.705C200.059 144.705 198.997 141.225 197.72 139.516C197.72 139.516 199.861 140.879 200.747 145.134L202.272 146.266C202.272 146.266 201.446 143.743 201.171 143.039C200.896 142.336 201.034 142.193 201.034 142.193C202.081 143.498 202.744 145.068 202.949 146.728C202.949 146.728 205.894 149.246 206.092 149.081Z" fill="#E0B581"/>
<path opacity="0.1" d="M417.334 92.1201C417.334 92.1201 408.224 73.2487 396.616 82.5497C396.616 82.5497 394.117 83.3853 394.232 86.0074C394.232 86.0074 395.201 85.5126 395.884 87.5301C396.14 88.2481 396.482 88.9328 396.902 89.5695C397.463 90.4303 398.29 91.0846 399.258 91.433C399.258 91.433 404.256 95.3799 413.767 92.6918C413.767 92.6918 416.426 93.1426 416.866 92.8238L413.844 90.471C413.844 90.471 412.193 92.7688 409.898 92.9722C409.898 92.9722 413.833 90.6414 413.409 90.1027C413.321 89.9928 411.758 88.9318 411.758 88.9318C411.758 88.9318 408.896 92.9062 405.313 93.1096C405.313 93.1096 410.382 90.9657 411.164 88.525L408.648 87.0738C408.648 87.0738 405.83 91.422 401.757 91.8123C401.757 91.8123 406.975 89.3826 408.087 86.788L405.45 85.6886C405.45 85.6886 402.615 89.8828 399.23 90.1797C399.23 90.1797 404.971 86.766 404.828 85.4797C404.828 85.4797 402.351 84.6056 401.581 84.6936C401.581 84.6936 399.478 87.651 397.491 87.651C397.491 87.651 401.091 84.9629 400.871 84.5287C400.871 84.5287 397.337 84.2538 395.471 85.0784C397.147 84.246 399.013 83.8669 400.882 83.979C400.143 83.0955 399.161 82.4476 398.058 82.1155C398.058 82.1155 400.028 81.3679 401.74 84.0559C401.74 84.0559 404.492 84.3857 404.817 84.6991C404.817 84.6991 403.502 81.8021 401.817 80.5433C401.817 80.5433 404.36 81.06 405.522 84.9684L408.197 86.0239C408.197 86.0239 406.661 82.1045 405.246 80.8676C405.246 80.8676 407.756 81.7966 408.846 86.3647L411.296 87.7719C411.296 87.7719 410.228 84.2978 408.951 82.5827C408.951 82.5827 411.098 83.946 411.978 88.2007L413.503 89.3331C413.503 89.3331 412.683 86.81 412.402 86.1063C412.121 85.4027 412.264 85.2653 412.264 85.2653C413.309 86.5716 413.97 88.1414 414.174 89.8004C414.174 89.8004 417.163 92.296 417.334 92.1201Z" fill="#E0B581"/>
<path opacity="0.1" d="M446.448 185.466C446.448 185.466 437.339 166.589 425.713 175.89C425.713 175.89 423.214 176.726 423.33 179.348C423.33 179.348 424.299 178.853 424.981 180.87C425.236 181.588 425.576 182.273 425.994 182.91C426.555 183.771 427.382 184.425 428.35 184.773C428.35 184.773 433.348 188.726 442.865 186.032C442.865 186.032 445.518 186.488 445.958 186.164L442.92 183.817C442.92 183.817 441.269 186.115 438.968 186.318C438.968 186.318 442.903 183.987 442.48 183.448C442.391 183.339 440.828 182.278 440.828 182.278C440.828 182.278 437.966 186.252 434.383 186.461C434.383 186.461 439.452 184.311 440.234 181.871L437.751 180.409C437.751 180.409 434.933 184.762 430.86 185.147C430.86 185.147 436.078 182.717 437.19 180.123L434.553 179.023C434.553 179.023 431.719 183.212 428.333 183.514C428.333 183.514 434.08 180.101 433.937 178.809C433.937 178.809 431.454 177.935 430.684 178.023C430.684 178.023 428.581 180.98 426.594 180.98C426.594 180.98 430.194 178.292 429.974 177.858C429.974 177.858 426.44 177.583 424.574 178.408C426.253 177.576 428.12 177.197 429.99 177.308C429.251 176.423 428.267 175.775 427.161 175.445C427.161 175.445 429.132 174.692 430.843 177.385C430.843 177.385 433.596 177.71 433.92 178.023C433.92 178.023 432.605 175.131 430.926 173.867C430.926 173.867 433.469 174.384 434.63 178.292L437.3 179.348C437.3 179.348 435.764 175.428 434.35 174.197C434.35 174.197 436.86 175.12 437.949 179.694L440.399 181.096C440.399 181.096 439.331 177.622 438.054 175.906C438.054 175.906 440.201 177.27 441.087 181.53L442.612 182.629C442.612 182.629 441.786 180.106 441.511 179.403C441.236 178.699 441.373 178.562 441.373 178.562C442.42 179.866 443.081 181.437 443.283 183.097C443.283 183.097 446.277 185.631 446.448 185.466Z" fill="#E0B581"/>
<path opacity="0.1" d="M111.158 431.058C118.147 431.058 123.813 430.426 123.813 429.646C123.813 428.865 118.147 428.233 111.158 428.233C104.169 428.233 98.5039 428.865 98.5039 429.646C98.5039 430.426 104.169 431.058 111.158 431.058Z" fill="#E0B581"/>
<path opacity="0.1" d="M28.2032 407.047C35.192 407.047 40.8575 406.415 40.8575 405.634C40.8575 404.854 35.192 404.222 28.2032 404.222C21.2144 404.222 15.5488 404.854 15.5488 405.634C15.5488 406.415 21.2144 407.047 28.2032 407.047Z" fill="#E0B581"/>
<path opacity="0.1" d="M174.393 447.005C181.381 447.005 187.047 446.373 187.047 445.592C187.047 444.812 181.381 444.18 174.393 444.18C167.404 444.18 161.738 444.812 161.738 445.592C161.738 446.373 167.404 447.005 174.393 447.005Z" fill="#E0B581"/>
<path opacity="0.1" d="M498.43 412.27C505.419 412.27 511.084 411.637 511.084 410.857C511.084 410.077 505.419 409.444 498.43 409.444C491.441 409.444 485.775 410.077 485.775 410.857C485.775 411.637 491.441 412.27 498.43 412.27Z" fill="#E0B581"/>
<path opacity="0.1" d="M393.127 405.414C400.116 405.414 405.781 404.782 405.781 404.002C405.781 403.221 400.116 402.589 393.127 402.589C386.138 402.589 380.473 403.221 380.473 404.002C380.473 404.782 386.138 405.414 393.127 405.414Z" fill="#E0B581"/>
<path opacity="0.1" d="M325.005 438.848C333.271 438.848 339.971 437.698 339.971 436.281C339.971 434.863 333.271 433.713 325.005 433.713C316.74 433.713 310.039 434.863 310.039 436.281C310.039 437.698 316.74 438.848 325.005 438.848Z" fill="#E0B581"/>
<path d="M331.683 410.478C331.683 410.478 310.844 421.23 321.61 433.895C321.61 433.895 322.623 436.644 325.551 436.451C325.551 436.451 324.968 435.385 327.202 434.533C327.998 434.226 328.753 433.825 329.454 433.34C330.4 432.686 331.107 431.743 331.468 430.652C331.468 430.652 335.728 424.957 332.426 414.419C332.426 414.419 332.855 411.44 332.481 410.956L329.949 414.424C329.949 414.424 332.563 416.178 332.866 418.756C332.866 418.756 330.114 414.43 329.564 414.908C329.443 415.007 328.309 416.805 328.309 416.805C328.309 416.805 332.844 419.878 333.18 423.868C333.18 423.868 330.626 418.278 327.868 417.481L326.289 420.295C326.289 420.295 331.242 423.308 331.793 427.837C331.793 427.837 328.914 422.093 325.975 420.933L324.813 423.907C324.813 423.907 329.591 426.941 330.032 430.712C330.032 430.712 326.035 424.407 324.599 424.605C324.599 424.605 323.696 427.398 323.817 428.261C323.817 428.261 327.191 430.514 327.252 432.73C327.252 432.73 324.136 428.799 323.658 429.058C323.658 429.058 323.459 433.01 324.417 435.066C324.417 435.066 322.766 432.13 323.036 429.058C322.07 429.91 321.376 431.026 321.038 432.268C321.038 432.268 320.14 430.097 323.096 428.096C323.096 428.096 323.377 425.023 323.718 424.643C323.718 424.643 320.52 426.205 319.161 428.118C319.161 428.118 319.661 425.265 323.999 423.846L325.1 420.834C325.1 420.834 320.762 422.67 319.425 424.286C319.425 424.286 320.388 421.455 325.441 420.097L326.938 417.349C326.938 417.349 323.085 418.646 321.203 420.097C321.203 420.097 322.661 417.662 327.4 416.541L328.617 414.809C328.617 414.809 325.821 415.804 325.039 416.161C324.258 416.519 324.103 416.343 324.103 416.343C325.532 415.136 327.268 414.348 329.118 414.067C329.118 414.067 331.875 410.664 331.683 410.478Z" fill="#E0B581"/>
<path d="M393.534 207.399C389.934 197.631 370.119 196.713 361.521 199.203C355.411 200.979 342.531 202.98 335.651 203.986L335.205 203.562C336.097 203.299 336.119 202.65 336.009 201.688C335.944 200.42 335.963 199.149 336.064 197.884C340.28 199.192 344.034 196.097 344.034 196.097C348.988 193.899 347.656 184.488 348.602 181.915C349.312 179.991 350.077 168.656 350.419 163.005H350.49L350.529 161.108C350.578 160.289 350.6 159.811 350.6 159.811C350.6 159.811 351.085 145.992 352.031 143.194C352.912 140.621 353.628 127.659 353.738 125.603C353.738 125.427 353.738 125.334 353.738 125.334L353.666 124.135C353.716 123.261 353.738 122.288 353.732 121.266C353.732 116.566 353.242 110.645 353.182 109.689C353.182 109.551 353.182 109.387 353.182 109.189C353.22 107.182 352.967 97.1335 344.408 93.3351C341.254 91.9278 337.462 90.2512 333.79 88.6186C332.844 80.4554 330.68 72.3362 330.867 64.1126C330.867 62.8758 330.978 61.6389 331.099 60.4076C331.099 60.7649 331.06 61.1277 331.055 61.507C331.055 62.3041 331.055 63.1067 331.055 63.9037C331.379 53.6187 335.271 43.2787 334.908 33.2136C334.875 34.1975 334.803 35.187 334.709 36.1765C334.9 32.7721 334.543 29.3592 333.653 26.0674C333.322 24.9075 332.877 23.7091 331.924 22.934C331.024 22.3098 329.992 21.9016 328.908 21.7412C326.303 21.0754 323.657 20.5832 320.987 20.268C320.582 19.0277 319.979 17.8603 319.204 16.8103C313.623 9.15838 305.355 1.9682 295.58 0.319082C290.675 -0.505479 285.033 0.181655 281.698 3.68329C281.349 3.9909 281.022 4.32146 280.718 4.67276C278.924 6.81113 278.153 9.62013 276.315 11.753C276.193 11.8959 276.056 12.0279 275.924 12.1653C272.324 15.3811 266.715 16.0517 262.713 18.9377C262.008 19.4557 261.347 20.0312 260.737 20.6583C259.125 22.254 257.679 24.0093 256.422 25.897C254.622 28.4256 252.773 31.0587 252.2 34.0766C251.05 40.1234 255.173 45.8568 255.938 51.9421C257.644 65.5583 242.557 77.6409 245.414 91.0758C246.176 94.3763 247.859 97.3935 250.268 99.7776C244.384 105.099 239.375 110.261 239.375 110.261V110.568H238.445L238.539 111.668H238.445L238.957 117.632L238.445 126.317C238.445 126.317 238.445 126.411 238.445 126.587V126.631V126.867C238.445 126.867 238.445 126.961 238.445 127.137H238.478C238.649 130.319 239.326 141.764 240.129 144.177C241.076 146.976 241.555 160.795 241.555 160.795C241.555 160.795 242.601 180.326 243.559 182.91C244.516 185.493 243.157 194.877 248.127 197.092C249.581 198.206 251.303 198.919 253.12 199.159C252.866 201.215 253.026 202.705 253.846 203.172C254.197 203.378 254.595 203.492 255.002 203.502C254.665 204.001 254.365 204.525 254.105 205.069C252.132 204.863 250.193 204.407 248.336 203.711C242.997 201.512 225.279 196.565 220.132 200.044C214.986 203.524 202.601 206.679 208.32 220.686C214.039 234.692 216.703 235.044 216.703 235.044C218.464 236.32 220.008 237.87 221.277 239.634C222.995 242.212 238.996 248.111 242.997 248.111C244.698 248.084 246.399 248.169 248.089 248.364C248.089 248.364 243.746 252.168 244.324 254.377C244.902 256.587 243.003 274.277 243.003 274.277C243.003 274.277 247.406 278.707 249.289 272.897L249.355 272.985C249.707 273.463 251.611 275.624 255.195 272.897C256.661 271.786 258.219 270.8 259.851 269.951L277.201 267.499C279.01 267.386 280.823 267.373 282.633 267.46C285.386 267.686 288.088 266.059 289.789 264.8C293.383 266.163 297.423 267.653 299.344 268.197C303.241 269.296 321.152 274.095 325.341 272.595C326.212 272.249 326.986 271.698 327.598 270.989L331.594 271.116L329.723 271.49C329.723 271.49 333.366 271.55 338.32 271.616L338.111 271.737L344.325 271.682C353.419 271.765 363.634 271.792 364.978 271.49C367.08 271.022 378.006 271.352 381.226 271.49H382.123C382.123 271.49 394.128 269.098 389.174 256.933C385.365 247.588 373.658 244.873 368.462 244.125C369.926 243.834 371.186 243.609 372.023 243.477C375.65 242.927 382.696 239.629 383.268 238.502C383.841 237.375 389.747 234.104 391.271 232.241C392.796 230.377 397.15 217.168 393.534 207.399ZM294.099 234.736L293.51 234.929L293.114 235.061L292.354 235.808C291.749 235.401 291.099 234.973 290.422 234.533C291.616 234.604 292.844 234.676 294.099 234.736Z" fill="url(#paint0_linear)"/>
<path d="M329.195 176.775C329.195 176.775 337.617 198.763 342.406 196.564C347.194 194.366 345.895 185.021 346.809 182.459C347.723 179.897 348.735 160.471 348.735 160.471C348.735 160.471 349.198 146.728 350.112 143.946C350.959 141.39 351.647 128.5 351.763 126.471C351.763 126.295 351.763 126.202 351.763 126.202L350.855 110.26L345.714 108.979L333.791 113.377L332.14 122.794L331.496 126.471L331.221 128.038L329.195 176.775Z" fill="#BE6F72"/>
<path opacity="0.1" d="M331.969 173.092C331.969 173.092 340.005 179.661 342.427 180.238C344.849 180.815 346.335 185.938 346.335 185.938" fill="black"/>
<path d="M263.335 177.737C263.335 177.737 254.914 199.725 250.125 197.526C245.336 195.327 246.635 185.982 245.721 183.421C244.808 180.859 243.795 161.432 243.795 161.432C243.795 161.432 243.333 147.69 242.419 144.908C241.571 142.352 240.883 129.462 240.768 127.433C240.768 127.257 240.768 127.164 240.768 127.164L241.681 111.222L246.822 109.941L258.745 114.339L260.396 123.756L261.04 127.433L261.315 129L263.335 177.737Z" fill="#BE6F72"/>
<path d="M318.174 60.0664H299.377V89.3273H318.174V60.0664Z" fill="#3E373A"/>
<path opacity="0.1" d="M318.174 60.0664H299.377V89.3273H318.174V60.0664Z" fill="black"/>
<path d="M260.033 199.637C260.033 199.637 253.61 206.69 255.993 207.971C258.377 209.251 273.794 233.257 273.794 233.257C273.794 233.257 324.433 239.485 333.983 230.14C343.533 220.795 343.341 204.101 343.341 204.101C343.341 204.101 335.668 205.75 334.831 204.854C333.994 203.958 329.398 199.637 329.398 199.637C329.398 199.637 264.437 195.701 260.033 199.637Z" fill="#4B4B5B"/>
<path opacity="0.02" d="M260.033 199.637C260.033 199.637 253.61 206.69 255.993 207.971C258.377 209.251 273.794 233.257 273.794 233.257C273.794 233.257 324.433 239.485 333.983 230.14C343.533 220.795 343.341 204.101 343.341 204.101C343.341 204.101 335.668 205.75 334.831 204.854C333.994 203.958 329.398 199.637 329.398 199.637C329.398 199.637 264.437 195.701 260.033 199.637Z" fill="black"/>
<path d="M351.195 110.491L334.682 123.684L329.69 124.047L327.857 124.179L297.071 126.433L265.146 124.102L260.396 123.756L254.341 123.316L241.682 111.222C241.682 111.222 250.643 101.635 258.492 95.1652C261.585 92.6091 264.508 90.5422 266.638 89.7286L267.001 89.6022C268.341 89.0804 269.537 88.2475 270.491 87.1725C276.689 80.7904 282.419 65.0413 282.419 65.0413C282.419 65.0413 309.759 50.9358 306.456 69.439C303.154 87.9421 318.747 83.3685 318.747 83.3685L323.888 85.7103L325.919 86.6393L331.099 89.0085L342.784 94.3627C351.954 98.5789 351.195 110.491 351.195 110.491Z" fill="#BE6F72"/>
<path opacity="0.1" d="M295.789 80.1089C309.368 80.1089 320.376 69.1151 320.376 55.5535C320.376 41.9919 309.368 30.998 295.789 30.998C282.209 30.998 271.201 41.9919 271.201 55.5535C271.201 69.1151 282.209 80.1089 295.789 80.1089Z" fill="black"/>
<path opacity="0.1" d="M351.233 127.983H240.768C240.768 127.807 240.768 127.714 240.768 127.714L241.681 111.772C241.681 111.772 250.642 102.185 258.491 95.7151L327.845 92.9665L331.071 89.5693L342.756 94.9235C351.932 99.1342 351.194 111.046 351.194 111.046C351.194 111.046 352.449 124.85 351.233 127.983Z" fill="black"/>
<path d="M351.233 127.433H240.768C240.768 127.257 240.768 127.164 240.768 127.164L241.681 111.222C241.681 111.222 250.642 101.635 258.491 95.1653L327.845 92.4167L331.071 89.0195L342.756 94.3737C351.932 98.5844 351.194 110.497 351.194 110.497C351.194 110.497 352.449 124.3 351.233 127.433Z" fill="#E7C7CA"/>
<path opacity="0.1" d="M278.082 82.7311C278.082 82.7311 295.508 104.906 318.72 82.2749C341.931 59.6434 321.29 132.755 321.29 132.755L271.201 138.691L278.082 82.7311Z" fill="black"/>
<path d="M278.082 83.8303C278.082 83.8303 295.508 106.005 318.72 83.374C341.931 60.7426 321.29 133.854 321.29 133.854L271.201 139.79L278.082 83.8303Z" fill="#E7C7CA"/>
<path opacity="0.1" d="M325.893 87.7224L327.737 115.807L329.713 125.152L331.221 132.298C331.221 132.298 335.074 187.269 333.973 190.017C332.873 192.766 334.524 194.965 334.755 196.427C334.986 197.889 334.524 201.561 334.706 203.21C334.887 204.86 334.706 205.591 330.489 205.003C326.273 204.414 320.394 203.392 320.394 203.392C320.394 203.392 305.533 204.491 300.397 202.661C295.262 200.83 285.536 200.825 285.536 200.825C285.536 200.825 270.856 201.193 266.089 200.643C261.322 200.094 258.746 206.509 255.631 204.673C252.516 202.837 259.297 185.07 261.499 179.936C263.7 174.802 258.565 161.796 258.565 161.796L265.17 125.201L266.64 116.906V90.8283L267.003 90.7019C268.343 90.18 269.539 89.3472 270.493 88.2722L272.144 114.515L323.884 116.351V86.8154" fill="black"/>
<path d="M325.893 86.6228L327.737 114.707L329.713 124.052L331.221 131.199C331.221 131.199 335.074 186.169 333.973 188.918C332.873 191.666 334.524 193.865 334.755 195.327C334.986 196.79 334.524 200.462 334.706 202.111C334.887 203.76 334.706 204.491 330.489 203.903C326.273 203.315 320.394 202.292 320.394 202.292C320.394 202.292 305.533 203.392 300.397 201.561C295.262 199.731 285.536 199.725 285.536 199.725C285.536 199.725 270.856 200.093 266.089 199.544C261.322 198.994 258.746 205.409 255.631 203.573C252.516 201.737 259.297 183.971 261.499 178.836C263.7 173.702 258.565 160.696 258.565 160.696L265.17 124.102L266.64 115.807V89.7287L267.003 89.6022C268.343 89.0804 269.539 88.2476 270.493 87.1725L272.144 113.416L323.884 115.252V85.7158" fill="#E7C7CA"/>
<path opacity="0.1" d="M331.841 28.0134C331.528 26.8645 331.093 25.6716 330.19 24.902C329.328 24.2839 328.332 23.8771 327.284 23.7146C324.773 23.0553 322.221 22.5668 319.644 22.2524C319.276 21.0318 318.718 19.8763 317.992 18.8277C312.598 11.2198 304.617 4.04612 295.227 2.42449C290.311 1.57244 284.615 2.33653 281.466 6.20647C279.738 8.33384 278.995 11.1538 277.25 13.2427C273.887 17.2996 267.815 17.7998 263.577 20.9386C261.315 22.5877 259.675 24.979 258.073 27.2987C256.339 29.8109 254.556 32.4275 254.005 35.4289C252.904 41.4262 256.873 47.1432 257.605 53.1954C259.256 66.7347 244.725 78.7458 247.472 92.1037C249.073 99.8931 256.278 105.379 263.731 108.161C266.357 109.145 269.357 110.123 270.584 112.641C271.134 113.74 271.228 115.01 271.745 116.12C273.485 119.825 279.204 119.968 282.275 117.269C285.347 114.57 286.315 110.206 286.679 106.132C288.154 88.3437 281.02 70.7696 281.851 52.9371C282.099 47.5445 283.618 41.4262 288.457 38.9855C294.968 35.6873 302.801 41.1843 309.967 40.1344C313.359 48.3753 314.079 57.4704 312.026 66.1411C310.886 70.885 308.916 75.4861 308.773 80.3785C308.558 87.827 312.582 94.6324 316.06 101.218C316.807 102.449 317.306 103.814 317.53 105.236C317.585 106.679 317.316 108.116 316.743 109.441C314.778 114.724 311.387 119.628 311.002 125.251C310.889 125.908 311.037 126.582 311.415 127.131C311.803 127.498 312.303 127.722 312.835 127.769C318.78 128.786 323.921 123.525 326.821 118.242C330.055 112.408 331.94 105.924 332.337 99.2664C332.937 88.0744 328.918 77.0637 329.166 65.8607C329.452 53.124 335.215 40.2993 331.841 28.0134Z" fill="black"/>
<path d="M332.392 27.4636C332.078 26.3147 331.643 25.1218 330.741 24.3522C329.879 23.7341 328.883 23.3273 327.834 23.1648C325.324 22.5055 322.771 22.017 320.194 21.7026C319.826 20.482 319.269 19.3265 318.543 18.2779C313.149 10.67 305.168 3.49632 295.778 1.87468C290.862 1.02263 285.165 1.78673 282.017 5.65667C280.288 7.78403 279.545 10.604 277.801 12.6929C274.437 16.7498 268.366 17.25 264.128 20.3888C261.866 22.0379 260.225 24.4292 258.624 26.7489C256.89 29.2611 255.106 31.8777 254.556 34.8791C253.455 40.8764 257.424 46.5934 258.156 52.6456C259.807 66.1849 245.276 78.196 248.022 91.5539C249.624 99.3433 256.829 104.829 264.282 107.611C266.908 108.595 269.907 109.573 271.135 112.091C271.685 113.19 271.779 114.46 272.296 115.571C274.036 119.276 279.755 119.419 282.826 116.72C285.897 114.02 286.866 109.656 287.229 105.582C288.704 87.7939 281.571 70.2198 282.402 52.3873C282.65 46.9947 284.169 40.8764 289.007 38.4357C295.519 35.1375 303.351 40.6345 310.518 39.5846C313.909 47.8255 314.629 56.9206 312.577 65.5913C311.437 70.3352 309.467 74.9363 309.324 79.8287C309.109 87.2772 313.132 94.0826 316.611 100.668C317.358 101.9 317.857 103.264 318.081 104.686C318.136 106.129 317.867 107.566 317.294 108.892C315.329 114.174 311.938 119.078 311.553 124.701C311.44 125.358 311.588 126.032 311.966 126.581C312.353 126.948 312.854 127.172 313.386 127.219C319.33 128.236 324.471 122.975 327.372 117.693C330.606 111.858 332.491 105.374 332.887 98.7166C333.487 87.5246 329.469 76.5139 329.717 65.3109C330.003 52.5742 335.766 39.7495 332.392 27.4636Z" fill="#3E373A"/>
<path d="M320.234 270.857L342.07 271.555L338.938 255.383L322.21 256.971L320.234 270.857Z" fill="#C3C7D9"/>
<path d="M387.892 232.526C386.422 234.357 380.736 237.655 380.186 238.754C379.636 239.854 372.849 243.152 369.359 243.702C365.869 244.251 354.866 246.637 352.846 247.918C351.399 248.842 339.779 251.766 332.145 253.388C330.077 253.876 327.984 254.252 325.875 254.514C322.573 254.696 286.432 242.421 286.432 242.421L293.4 235.275L293.785 235.143C295.756 234.478 304.86 231.405 309.913 229.943C315.604 228.293 322.209 221.516 322.209 221.516C322.209 221.516 331.93 218.217 333.218 217.849C334.506 217.481 329.915 205.024 329.915 205.024C329.915 205.024 351.013 202.1 359.27 199.621C367.526 197.142 386.61 198.06 390.094 207.773C393.578 217.486 389.384 230.696 387.892 232.526Z" fill="#4B4B5B"/>
<path d="M291.748 263.491C291.748 263.491 287.531 267.889 283.31 267.526C279.088 267.163 264.325 268.625 264.325 268.625C261.65 269.691 259.145 271.141 256.889 272.929C253.438 275.645 251.605 273.479 251.264 273.017L251.203 272.929C249.365 278.707 245.148 274.304 245.148 274.304C245.148 274.304 246.981 256.713 246.42 254.514C245.858 252.315 250.047 248.539 250.047 248.539L255.001 247.28L267.551 244.07L285.533 250.298L291.748 263.491Z" fill="#E7C7CA"/>
<path opacity="0.1" d="M254.979 247.28L251.264 273.018L251.203 272.93C249.365 278.707 245.148 274.304 245.148 274.304C245.148 274.304 246.981 256.713 246.42 254.514C245.858 252.316 250.047 248.539 250.047 248.539L254.979 247.28Z" fill="black"/>
<path opacity="0.1" d="M280.949 174.07C280.949 174.07 290.67 177.369 299.113 174.07H280.949Z" fill="black"/>
<path opacity="0.1" d="M314.135 180.304C314.135 180.304 318.169 182.316 321.29 180.304H314.135Z" fill="black"/>
<path opacity="0.1" d="M314.135 185.075C314.135 185.075 320.922 185.982 322.21 184.152L314.135 185.075Z" fill="black"/>
<path opacity="0.1" d="M311.934 195.327C311.934 195.327 324.682 193.678 327.846 191.479L311.934 195.327Z" fill="black"/>
<path opacity="0.1" d="M273.035 191.479C273.035 191.479 280.191 195.509 285.513 195.327L273.035 191.479Z" fill="black"/>
<path opacity="0.1" d="M332.139 253.388C330.071 253.876 327.978 254.253 325.869 254.515C322.567 254.696 286.426 242.421 286.426 242.421L293.394 235.275L293.779 235.143C294.88 235.918 295.783 236.583 296.427 237.089C299.46 239.475 302.388 236.358 303.489 236.358C304.59 236.358 314.129 244.235 314.129 244.235C314.129 244.235 322.936 246.253 324.405 248.083C325.875 249.914 331.01 249.551 331.924 250.832C332.199 251.227 332.232 252.2 332.139 253.388Z" fill="black"/>
<path d="M264.328 205.772C264.328 205.772 255.422 206.283 250.286 204.123C245.151 201.963 228.087 196.977 223.134 200.478C218.18 203.98 206.252 207.075 211.756 221.004C217.26 234.934 219.831 235.297 219.831 235.297C221.534 236.572 223.021 238.113 224.234 239.859C225.886 242.427 241.298 248.286 245.151 248.286C249.004 248.286 255.79 248.286 265.329 254.883C274.868 261.479 283.494 262.216 283.494 262.216C283.494 262.216 295.603 267.163 299.373 268.263C303.144 269.362 320.372 274.123 324.412 272.66C328.453 271.198 331.018 262.029 331.018 262.029C331.018 262.029 332.85 253.783 331.931 252.503C331.012 251.222 325.877 251.585 324.412 249.754C322.948 247.924 314.136 245.906 314.136 245.906C314.136 245.906 304.619 238.023 303.518 238.023C302.417 238.023 299.489 241.135 296.456 238.754C290.415 234.286 284.067 230.245 277.461 226.661C270.492 222.994 264.328 205.772 264.328 205.772Z" fill="#4B4B5B"/>
<path opacity="0.1" d="M246.422 211.087C248.008 210.764 249.647 210.81 251.212 211.223C252.776 211.636 254.225 212.404 255.443 213.468C259.847 217.134 274.664 224.495 274.664 224.495" fill="black"/>
<path opacity="0.1" d="M356.518 210.856C356.518 210.856 336.885 213.825 333.219 217.854L356.518 210.856Z" fill="black"/>
<path d="M379.087 271.555H378.222C375.118 271.445 364.599 271.115 362.574 271.555C360.19 272.105 328.629 271.555 328.629 271.555L334.799 270.274C334.799 270.274 332.509 262.26 333.963 261.594C333.963 261.594 325.706 256.163 331.931 252.497C338.157 248.83 344.867 250.375 344.867 250.375L360.493 245.087L363.493 244.07C363.493 244.07 381.107 244.988 385.873 257.081C390.64 269.175 379.087 271.555 379.087 271.555Z" fill="#E7C7CA"/>
<path opacity="0.1" d="M379.086 271.556H378.221C383.346 267.334 394.938 254.482 360.492 245.115L363.492 244.098C363.492 244.098 381.106 245.016 385.872 257.109C390.639 269.203 379.086 271.556 379.086 271.556Z" fill="black"/>
<path d="M346.703 257.307C347.235 257.307 347.667 256.876 347.667 256.345C347.667 255.814 347.235 255.383 346.703 255.383C346.171 255.383 345.74 255.814 345.74 256.345C345.74 256.876 346.171 257.307 346.703 257.307Z" fill="#4B4B5B"/>
<path d="M341.106 258.896C341.638 258.896 342.069 258.465 342.069 257.934C342.069 257.402 341.638 256.972 341.106 256.972C340.574 256.972 340.143 257.402 340.143 257.934C340.143 258.465 340.574 258.896 341.106 258.896Z" fill="#4B4B5B"/>
<g opacity="0.1">
<path opacity="0.1" d="M313.833 54.6463C314.047 48.5999 312.97 42.5774 310.674 36.9787C303.518 38.0451 295.68 32.5315 289.163 35.8298C284.341 38.2705 282.827 44.3887 282.558 49.7813C282.492 51.2051 282.481 52.6288 282.508 54.0526C282.508 53.5468 282.508 53.0356 282.558 52.5299C282.811 47.1373 284.325 41.019 289.163 38.5783C295.68 35.2801 303.507 40.7771 310.674 39.7272C312.618 44.4696 313.688 49.5238 313.833 54.6463Z" fill="black"/>
<path opacity="0.1" d="M258.381 53.6402C258.475 52.4424 258.451 51.2382 258.309 50.0451C257.726 45.2077 255.078 40.5847 254.599 35.8682C253.983 41.5576 257.61 47.0217 258.309 52.7937C258.381 53.0905 258.381 53.3544 258.381 53.6402Z" fill="black"/>
<path opacity="0.1" d="M287.384 102.971C287.043 107.05 286.079 111.409 282.98 114.114C279.881 116.818 274.174 116.67 272.451 112.965C271.9 111.865 271.818 110.585 271.284 109.485C270.062 106.967 267.056 105.989 264.431 105.005C256.973 102.218 249.779 96.7594 248.177 88.9481C248.034 88.2404 247.936 87.5243 247.885 86.8042C247.75 88.4406 247.848 90.0878 248.177 91.6966C249.779 99.4859 256.984 104.967 264.431 107.754C267.056 108.738 270.062 109.716 271.284 112.234C271.834 113.333 271.928 114.603 272.451 115.713C274.185 119.418 279.903 119.561 282.98 116.862C286.057 114.163 287.015 109.798 287.384 105.72C287.551 103.573 287.608 101.419 287.554 99.2661C287.554 100.514 287.483 101.745 287.384 102.971Z" fill="black"/>
<path opacity="0.1" d="M329.898 62.7048C329.898 63.5019 329.898 64.2935 329.898 65.0851C330.207 54.8605 333.961 44.581 333.592 34.5708C333.306 43.8279 330.108 53.2938 329.898 62.7048Z" fill="black"/>
<path opacity="0.1" d="M318.087 104.065C318.222 103.413 318.265 102.745 318.214 102.081C317.992 100.658 317.493 99.2926 316.744 98.0622C313.563 92.0154 309.935 85.8257 309.506 79.1138C309.506 79.3996 309.467 79.6635 309.462 79.9713C309.242 87.4143 313.265 94.2252 316.744 100.811C317.335 101.831 317.787 102.925 318.087 104.065Z" fill="black"/>
<path opacity="0.1" d="M333.064 96.1106C332.654 102.77 330.756 109.254 327.511 115.087C324.604 120.369 319.469 125.63 313.519 124.613C312.986 124.567 312.484 124.34 312.099 123.97C311.987 123.844 311.899 123.699 311.84 123.541C311.774 123.97 311.719 124.404 311.686 124.844C311.572 125.499 311.72 126.172 312.099 126.718C312.484 127.089 312.986 127.316 313.519 127.361C319.469 128.378 324.604 123.118 327.511 117.835C330.756 112.003 332.654 105.519 333.064 98.8592C333.13 97.5729 333.136 96.292 333.097 95.0112C333.086 95.3795 333.086 95.7423 333.064 96.1106Z" fill="black"/>
</g>
<path opacity="0.1" d="M333.961 261.595C333.961 261.595 347.892 267.433 357.079 254.515" stroke="black" stroke-miterlimit="10"/>
<path opacity="0.1" d="M336.701 271.797C336.701 271.797 348.079 264.409 362.571 271.555" stroke="black" stroke-miterlimit="10"/>
<path opacity="0.1" d="M260.545 270.121C260.545 270.121 265.323 259.357 278.082 267.564" stroke="black" stroke-miterlimit="10"/>
<path opacity="0.1" d="M245.057 110.947L254.799 102.152C254.799 102.152 292.575 99.6783 294.138 112.503C294.138 112.503 307.53 97.2981 335.696 100.684L347.612 110.161L314.675 124.597L282.667 135.684L259.093 125.146L245.057 110.947Z" fill="black"/>
<path d="M245.057 111.497L254.799 102.702C254.799 102.702 292.575 100.228 294.138 113.053C294.138 113.053 307.53 97.8479 335.696 101.234L347.612 110.711L314.675 125.146L282.667 136.234L259.093 125.696L245.057 111.497Z" fill="#D5D6DB"/>
<path opacity="0.1" d="M240.746 112.597L245.056 164.088L290.741 166.38L288.76 115.109L288.721 114.246L240.746 112.597Z" fill="black"/>
<path d="M240.746 111.497L245.056 162.988L290.741 165.28L288.76 114.009L288.721 113.146L240.746 111.497Z" fill="#E0B581"/>
<path opacity="0.1" d="M349.704 111.497L302.576 118.555V170.277L348.63 163.631L349.704 111.497Z" fill="black"/>
<path d="M349.704 110.397L302.576 117.456V169.178L348.63 162.532L349.704 110.397Z" fill="#E0B581"/>
<path opacity="0.3" d="M338.59 123.019L313.133 125.845L313.689 134.508L338.574 131.792L338.59 123.019Z" fill="white"/>
<path d="M247.532 190.562L250.125 197.526C250.125 197.526 253.978 200.825 258.194 199.175C262.41 197.526 266.087 196.707 267.92 195.102C269.753 193.497 272.323 185.433 272.323 185.433C272.323 185.433 274.894 176.637 277.459 174.439C280.024 172.24 286.816 141.945 277.459 144.908C268.102 147.871 260.946 175.357 260.946 175.357C260.946 175.357 259.295 177.369 256.911 177.555C254.528 177.742 249.756 177.187 248.837 179.205C247.917 181.222 244.78 186.532 247.532 190.562Z" fill="#BE6F72"/>
<path opacity="0.1" d="M302.575 118.55C300.162 119.093 297.656 119.065 295.256 118.467C292.856 117.87 290.629 116.72 288.754 115.109L290.741 166.375C290.741 166.375 295.42 171.432 302.575 170.278V118.55Z" fill="black"/>
<path d="M302.575 117.45C300.162 117.993 297.656 117.965 295.256 117.368C292.856 116.77 290.629 115.62 288.754 114.009L290.741 165.275C290.741 165.275 295.42 170.332 302.575 169.178V117.45Z" fill="#E0B581"/>
<path opacity="0.1" d="M302.575 117.45C300.162 117.993 297.656 117.965 295.256 117.368C292.856 116.77 290.629 115.62 288.754 114.009L290.741 165.275C290.741 165.275 295.42 170.332 302.575 169.178V117.45Z" fill="black"/>
<path opacity="0.1" d="M303.676 111.673C303.676 111.673 322.847 105.819 327.845 106.643L303.676 111.673Z" fill="black"/>
<path opacity="0.1" d="M282.232 109.117C282.232 109.117 263.649 104.719 260.545 105.967L282.232 109.117Z" fill="black"/>
<path opacity="0.1" d="M315.764 112.404C315.764 112.404 328.583 107.71 333.218 109.942L315.764 112.404Z" fill="black"/>
<path opacity="0.1" d="M309.309 230.168C311.295 228.678 313.41 227.366 315.627 226.249C318.93 224.66 324.985 220.537 324.985 220.537" fill="black"/>
<path opacity="0.1" d="M260.546 174.07C260.546 174.07 252.504 180.639 250.088 181.217C247.671 181.794 246.18 186.917 246.18 186.917" fill="black"/>
<path d="M344.975 189.583L342.41 196.564C342.41 196.564 338.557 199.863 334.335 198.214C330.113 196.564 326.448 195.745 324.609 194.14C322.771 192.535 320.206 184.471 320.206 184.471C320.206 184.471 317.641 175.676 315.07 173.477C312.5 171.278 305.713 140.984 315.07 143.946C324.428 146.909 331.583 174.395 331.583 174.395C331.583 174.395 333.234 176.407 335.618 176.594C338.001 176.78 342.773 176.225 343.693 178.243C344.612 180.26 347.727 185.57 344.975 189.583Z" fill="#BE6F72"/>
<path opacity="0.1" d="M340.479 176.742C340.479 176.742 345.735 180.117 345.713 184.152L340.479 176.742Z" fill="black"/>
<path d="M295.877 78.9048C309.456 78.9048 320.464 67.911 320.464 54.3494C320.464 40.7878 309.456 29.7939 295.877 29.7939C282.297 29.7939 271.289 40.7878 271.289 54.3494C271.289 67.911 282.297 78.9048 295.877 78.9048Z" fill="#BE6F72"/>
<path d="M280.437 47.7585C283.42 47.2913 286.034 45.5597 288.886 44.5647C295.265 42.3274 302.322 43.8611 308.778 45.8785C311.255 46.6536 313.771 47.5276 316.369 47.5276C318.967 47.5276 321.724 46.4667 323.051 44.2294C324.273 42.1735 324.036 39.5019 323.007 37.3415C321.977 35.1812 320.255 33.4441 318.515 31.806C312.791 26.4079 305.69 21.3616 297.836 21.9113C294.676 22.1366 291.654 23.2635 288.748 24.5114C285.089 26.0863 281.527 27.8779 278.081 29.8765C275.433 31.4102 270.529 33.4606 269.004 36.2641C265.537 42.5803 275.042 48.6051 280.437 47.7585Z" fill="#3E373A"/>
<path opacity="0.1" d="M323.051 41.9206C321.725 44.1579 318.967 45.2188 316.369 45.2188C313.771 45.2188 311.255 44.3778 308.773 43.6027C302.316 41.5853 295.265 40.0461 288.88 42.2889C286.035 43.2838 283.415 45.0374 280.431 45.4772C276.083 46.1588 269.082 42.3768 268.322 37.5669C267.469 43.1244 275.588 47.8849 280.431 47.1263C283.415 46.6591 286.035 44.9275 288.88 43.938C295.265 41.6952 302.316 43.2344 308.773 45.2518C311.255 46.0269 313.765 46.9009 316.369 46.8679C318.972 46.835 321.725 45.8125 323.051 43.5697C323.739 42.3496 324.009 40.9388 323.822 39.5513C323.736 40.3867 323.473 41.1943 323.051 41.9206Z" fill="black"/>
<path d="M522.588 339.834C522.588 339.834 525.852 344.095 521.08 350.532C516.307 356.969 512.377 362.4 513.963 366.413C513.963 366.413 521.162 354.462 527.019 354.292C532.875 354.121 529.022 347.019 522.588 339.834Z" fill="#E0B581"/>
<path opacity="0.1" d="M522.587 339.834C522.871 340.246 523.095 340.696 523.253 341.17C528.966 347.877 532.016 354.138 526.517 354.292C521.398 354.44 515.261 363.582 513.791 365.885C513.838 366.071 513.895 366.255 513.962 366.435C513.962 366.435 521.161 354.484 527.018 354.314C532.874 354.143 529.021 347.019 522.587 339.834Z" fill="black"/>
<path d="M528.643 345.266C528.643 346.766 528.472 347.981 528.268 347.981C528.065 347.981 527.889 346.766 527.889 345.266C527.889 343.765 528.098 344.474 528.307 344.474C528.516 344.474 528.643 343.765 528.643 345.266Z" fill="#FFD037"/>
<path d="M530.728 347.058C529.413 347.772 528.262 348.206 528.163 348.025C528.064 347.844 529.049 347.113 530.365 346.376C531.68 345.639 531.163 346.178 531.262 346.376C531.361 346.574 532.049 346.337 530.728 347.058Z" fill="#FFD037"/>
<path d="M505.338 339.834C505.338 339.834 502.074 344.095 506.847 350.532C511.619 356.969 515.549 362.4 513.958 366.413C513.958 366.413 506.764 354.462 500.902 354.292C495.04 354.121 498.92 347.019 505.338 339.834Z" fill="#E0B581"/>
<path opacity="0.1" d="M505.338 339.834C505.054 340.246 504.83 340.696 504.672 341.17C498.959 347.877 495.909 354.138 501.408 354.292C506.522 354.44 512.665 363.582 514.134 365.885C514.088 366.072 514.029 366.256 513.958 366.435C513.958 366.435 506.764 354.484 500.902 354.314C495.04 354.143 498.92 347.019 505.338 339.834Z" fill="black"/>
<path d="M499.271 345.266C499.271 346.766 499.437 347.981 499.646 347.981C499.855 347.981 500.026 346.766 500.026 345.266C500.026 343.765 499.811 344.474 499.607 344.474C499.404 344.474 499.271 343.765 499.271 345.266Z" fill="#FFD037"/>
<path d="M497.192 347.058C498.507 347.772 499.658 348.206 499.757 348.025C499.856 347.844 498.87 347.113 497.555 346.376C496.239 345.639 496.757 346.178 496.658 346.376C496.559 346.574 495.871 346.337 497.192 347.058Z" fill="#FFD037"/>
<path opacity="0.1" d="M513.962 399.022C532.81 399.022 548.089 396.681 548.089 393.794C548.089 390.907 532.81 388.566 513.962 388.566C495.115 388.566 479.836 390.907 479.836 393.794C479.836 396.681 495.115 399.022 513.962 399.022Z" fill="#E0B581"/>
<path d="M531.525 360.668L531.36 361.998L531.129 363.878L531.035 364.665L530.804 366.545L530.705 367.331L530.479 369.205L527.865 390.589C527.634 392.496 524.513 393.986 520.742 393.986H507.174C503.404 393.986 500.289 392.496 500.052 390.589L497.437 369.205L497.206 367.331L497.113 366.545L496.881 364.665L496.782 363.878L496.557 361.998L496.391 360.668C496.265 359.569 497.949 358.678 500.085 358.678H527.837C529.968 358.678 531.657 359.585 531.525 360.668Z" fill="#65617D"/>
<path d="M531.36 361.999L531.135 363.879H496.788L496.557 361.999H531.36Z" fill="#9D9CB5"/>
<path d="M531.037 364.665L530.811 366.545H497.114L496.883 364.665H531.037Z" fill="#9D9CB5"/>
<path d="M530.712 367.331L530.481 369.211H497.439L497.213 367.331H530.712Z" fill="#9D9CB5"/>
</g>
<defs>
<linearGradient id="paint0_linear" x1="300.886" y1="275.909" x2="300.886" y2="0.000250274" gradientUnits="userSpaceOnUse">
<stop stop-color="#808080" stop-opacity="0.25"/>
<stop offset="0.54" stop-color="#808080" stop-opacity="0.12"/>
<stop offset="1" stop-color="#808080" stop-opacity="0.1"/>
</linearGradient>
<clipPath id="clip0">
<rect width="563" height="447" fill="white"/>
</clipPath>
</defs>
</svg>
