<svg width="719" height="710" viewBox="0 0 719 710" fill="none" xmlns="http://www.w3.org/2000/svg">
<path d="M265.993 302.937C-18.7989 276.38 -33.5594 426.755 311.9 622.204C402.796 673.63 533.351 607.078 600.318 479.511C667.285 351.944 646.732 209.003 554.411 160.243C462.089 111.484 373.666 312.977 265.993 302.937Z" fill="#FBF5EF"/>
<path d="M581.541 288.995L565.65 280.145L566.839 279.482L582.731 288.333L581.541 288.995Z" fill="#CBCBCB"/>
<path d="M567.682 288.995L566.494 288.333L582.385 279.482L583.574 280.145L567.682 288.995Z" fill="#CBCBCB"/>
<path d="M449.407 220.401L448.641 221.97L453.129 224.381L453.896 222.812L449.407 220.401Z" fill="#CBCBCB"/>
<path d="M542.479 272.383L533.544 267.582L534.311 266.013L543.246 270.814L542.479 272.383ZM524.609 262.782L515.673 257.982L516.44 256.413L525.376 261.213L524.609 262.782ZM506.738 253.182L497.803 248.381L498.57 246.812L507.505 251.613L506.738 253.182ZM488.868 243.581L479.933 238.781L480.7 237.212L489.635 242.012L488.868 243.581ZM470.998 233.981L462.062 229.181L462.829 227.612L471.764 232.412L470.998 233.981Z" fill="#CBCBCB"/>
<path d="M552.183 275.613L551.416 277.182L555.905 279.593L556.672 278.024L552.183 275.613Z" fill="#CBCBCB"/>
<path d="M213.23 338.408C213.23 338.958 213.213 339.504 213.179 340.046C212.988 343.168 212.236 346.225 210.962 349.054C210.952 349.078 210.94 349.101 210.93 349.123C210.871 349.255 210.81 349.386 210.748 349.515C210.369 350.315 209.948 351.093 209.488 351.845C207.387 355.298 204.507 358.155 201.102 360.163C197.698 362.172 193.874 363.27 189.968 363.362L190.204 377.557L193.274 375.862L193.823 376.955L190.227 378.94L190.667 405.304L190.671 405.656L188.297 406.21L188.302 405.856L189.05 363.363C185.906 363.316 182.803 362.615 179.92 361.3C177.037 359.985 174.432 358.082 172.256 355.703C172.107 355.541 171.958 355.373 171.814 355.208L171.797 355.189C169.984 353.116 168.518 350.738 167.461 348.153C167.484 348.181 167.508 348.207 167.531 348.234C165.141 342.374 164.979 335.778 167.078 329.797C169.177 323.815 173.379 318.902 178.822 316.064C178.905 316.021 178.989 315.979 179.071 315.936C184.455 313.217 190.617 312.718 196.336 314.538C202.054 316.358 206.912 320.365 209.946 325.763C210.091 326.018 210.231 326.279 210.366 326.541C212.25 330.184 213.235 334.264 213.23 338.408Z" fill="#E5E5E5"/>
<path d="M210.024 349.14C227.259 349.14 241.23 334.492 241.23 316.424C241.23 298.355 227.259 283.708 210.024 283.708C192.79 283.708 178.818 298.355 178.818 316.424C178.818 334.492 192.79 349.14 210.024 349.14Z" fill="#E5E5E5"/>
<path opacity="0.2" d="M186.983 294.57C184.073 301.709 183.678 309.7 185.869 317.115C188.061 324.531 192.696 330.887 198.947 335.05C205.198 339.212 212.656 340.909 219.99 339.836C227.324 338.764 234.056 334.992 238.982 329.196C237.203 333.557 234.542 337.461 231.182 340.637C227.822 343.813 223.843 346.185 219.522 347.588C215.201 348.992 210.64 349.394 206.156 348.767C201.671 348.139 197.371 346.497 193.552 343.954C189.733 341.411 186.487 338.028 184.04 334.04C181.592 330.051 180 325.552 179.375 320.855C178.75 316.157 179.107 311.374 180.421 306.835C181.735 302.296 183.974 298.112 186.983 294.57Z" fill="black"/>
<path d="M211.712 407.562L208.525 406.625L208.532 406.265L209.487 351.846L209.535 349.132L209.536 349.053L209.703 339.545L209.945 325.765V325.763L210.109 316.422H210.197L210.365 326.542L210.584 339.714L210.74 349.059V349.128L210.747 349.514V349.516L211.05 367.734L211.081 369.544L211.707 407.199L211.712 407.562Z" fill="#3F3D56"/>
<path d="M215.072 365.515L209.914 368.362L210.633 369.794L215.791 366.947L215.072 365.515Z" fill="#3F3D56"/>
<path d="M614.545 210.542C575.158 208.101 535.652 208.738 496.355 212.447C477.414 214.242 458.173 216.181 439.582 220.512C424.608 224.001 407.229 229.898 397.899 243.632C395.945 246.399 394.628 249.603 394.052 252.992C393.475 256.382 393.654 259.865 394.575 263.17C396.8 271 402.334 277.517 408.227 282.621C421.792 294.369 438.622 301.206 453.655 310.539C481.104 327.58 506.225 350.55 522.349 379.728C529.444 392.568 536.194 409.64 528.293 423.788C520.553 437.648 503.274 442.424 489.184 444.675C471.522 447.498 453.33 446.732 435.594 445.152C416.151 443.251 396.816 440.282 377.669 436.257C340.159 428.706 302.991 419.101 264.959 414.733C245.89 412.381 226.66 411.798 207.494 412.991C190.184 414.215 172.726 417.085 156.464 423.629C143.934 428.671 130.576 436.3 123.808 449.023C117.283 461.287 119.828 475.431 126.933 486.746C135.481 500.361 148.81 509.691 162.669 516.51C178.448 524.274 195.325 529.306 212.224 533.586C220.795 535.757 229.412 537.719 238.03 539.672C239.827 540.079 240.596 537.184 238.791 536.775C221.413 532.838 203.984 528.888 187.037 523.189C171.355 517.916 155.306 511.16 142.463 500.086C132.073 491.127 122.195 478.041 122.808 463.163C123.426 448.164 135.43 437.692 147.194 431.246C161.897 423.191 178.602 419.267 194.97 417.216C213.712 415.027 232.613 414.757 251.405 416.411C289.347 419.438 326.44 428.499 363.64 436.402C399.78 444.08 437.047 451.19 474.083 449.221C488.762 448.44 504.491 446.235 517.452 438.467C523.387 434.91 528.738 429.895 531.754 423.367C534.471 417.157 535.33 410.229 534.218 403.497C532.117 388.708 523.738 374.995 515.378 363.216C506.214 350.44 495.584 338.895 483.728 328.844C470.716 317.865 456.686 308.283 441.849 300.242C433.981 295.899 426.001 291.723 418.503 286.693C411.314 281.87 404.222 276.067 399.831 268.237C396.034 261.465 395.338 253.736 399.293 246.868C403.293 239.921 410.185 235.077 416.982 231.536C433.357 223.006 452.396 220.723 470.312 218.383C508.782 213.377 547.551 211.35 586.305 212.32C595.724 212.552 605.138 212.961 614.545 213.546C616.387 213.66 616.38 210.656 614.545 210.542V210.542Z" fill="black"/>
<path d="M589.558 114.255L595.508 109.266C590.886 108.732 588.987 111.374 588.21 113.466C584.599 111.894 580.668 113.954 580.668 113.954L592.572 118.485C591.971 116.803 590.926 115.336 589.558 114.255Z" fill="#3F3D56"/>
<path d="M560.685 130.049L566.635 125.06C562.013 124.526 560.114 127.168 559.337 129.26C555.726 127.688 551.795 129.748 551.795 129.748L563.699 134.279C563.098 132.597 562.053 131.13 560.685 130.049Z" fill="#3F3D56"/>
<path d="M589.558 155.056L595.508 150.067C590.886 149.533 588.987 152.175 588.21 154.267C584.599 152.695 580.668 154.755 580.668 154.755L592.572 159.286C591.971 157.604 590.926 156.137 589.558 155.056Z" fill="#3F3D56"/>
<path d="M500.366 162.441C510.266 162.441 518.291 154.028 518.291 143.649C518.291 133.27 510.266 124.856 500.366 124.856C490.467 124.856 482.441 133.27 482.441 143.649C482.441 154.028 490.467 162.441 500.366 162.441Z" fill="#FF6583"/>
<path d="M556.577 201.56H468.641C468.531 201.561 468.421 201.552 468.312 201.533L509.903 126.012C510.157 125.542 510.525 125.151 510.97 124.878C511.415 124.606 511.922 124.462 512.437 124.462C512.953 124.462 513.459 124.606 513.904 124.878C514.349 125.151 514.718 125.542 514.971 126.012L542.882 176.691L544.219 179.115L556.577 201.56Z" fill="#E0B581"/>
<path d="M605.535 201.559H529.48L544.218 179.116L545.278 177.499L564.482 148.251C564.822 147.804 565.248 147.436 565.732 147.173C566.216 146.909 566.747 146.755 567.292 146.721C567.836 146.687 568.381 146.773 568.892 146.975C569.402 147.176 569.866 147.488 570.254 147.89C570.354 148.004 570.446 148.125 570.531 148.251L605.535 201.559Z" fill="#E0B581"/>
<path d="M480.077 374.77C488.412 379.137 493.487 384.905 493.487 391.232C493.487 404.862 469.962 415.91 440.944 415.91C428.327 415.91 416.753 413.82 407.695 410.339C417.316 415.38 431.28 418.554 446.829 418.554C475.847 418.554 499.371 407.506 499.371 393.876C499.371 386.173 491.853 379.295 480.077 374.77Z" fill="#F1F1F1"/>
<path d="M498.615 384.13C508.02 389.059 513.746 395.568 513.746 402.707C513.746 418.086 487.202 430.553 454.458 430.553C440.222 430.553 427.162 428.194 416.941 424.266C427.797 429.955 443.554 433.536 461.099 433.536C493.842 433.536 520.387 421.069 520.387 405.69C520.387 396.997 511.902 389.237 498.615 384.13Z" fill="#F1F1F1"/>
<path d="M472.981 378.893C478.853 381.97 482.428 386.034 482.428 390.492C482.428 400.094 465.855 407.878 445.411 407.878C437.446 407.986 429.522 406.658 421.986 403.953C428.764 407.504 438.603 409.741 449.557 409.741C470.001 409.741 486.574 401.957 486.574 392.354C486.574 386.927 481.277 382.081 472.981 378.893Z" fill="#F1F1F1"/>
<path d="M390.473 377.131C390.473 377.131 391.763 396.905 428.753 396.905C465.743 396.905 476.787 377.131 476.787 377.131H390.473Z" fill="#3F3D56"/>
<path d="M442.978 325.248C437.638 320.995 430.936 319.073 424.274 319.885C430.227 321.389 435.485 325.044 439.124 330.207C442.763 335.371 444.551 341.713 444.174 348.12C443.798 354.528 441.281 360.592 437.065 365.248C432.849 369.904 427.203 372.855 421.119 373.582C426.939 375.055 433.065 374.382 438.467 371.677C443.869 368.972 448.218 364.399 450.783 358.728C453.348 353.057 453.972 346.632 452.551 340.535C451.129 334.438 447.749 329.04 442.978 325.248Z" fill="#3F3D56"/>
<path d="M430.856 316.316H428.334V379.255H430.856V316.316Z" fill="#3F3D56"/>
<path d="M596.604 269.555L596.591 269.53L596.557 267.993L604.458 255.966L596.566 266.842L596.538 267.167L596.268 254.875L603.092 242.406L596.249 252.715L596.32 227.248L596.32 227.163L596.318 227.246L595.864 247.318L589.645 239.165L595.844 249.047L595.708 260.043L589.985 249.312L595.687 261.659L595.611 267.773L595.403 284.712L595.387 285.978C595.914 285.982 596.436 285.973 596.953 285.95L596.595 269.68L596.604 269.555Z" fill="#CBCBCB"/>
<path d="M558.774 274.841L558.761 274.817L558.727 273.28L566.628 261.253L558.736 272.129L558.708 272.454L558.438 260.161L565.262 247.692L558.418 258.002L558.49 232.534L558.489 232.45L558.487 232.533L558.034 252.605L551.814 244.452L558.014 254.334L557.878 265.329L552.155 254.598L557.857 266.946L557.781 273.06L557.572 289.999L557.557 291.265C558.084 291.269 558.606 291.26 559.122 291.237L558.764 274.967L558.774 274.841Z" fill="#CBCBCB"/>
<path d="M577.266 258.095L577.253 258.071L577.219 256.534L585.12 244.507L577.228 255.383L577.2 255.708L576.93 243.415L583.754 230.946L576.91 241.256L576.982 215.788L576.981 215.704L576.979 215.787L576.526 235.859L570.307 227.706L576.506 237.588L576.37 248.583L570.647 237.852L576.349 250.2L576.273 256.314L576.064 273.253L576.049 274.518C576.576 274.523 577.098 274.513 577.614 274.491L577.257 258.221L577.266 258.095Z" fill="#CBCBCB"/>
<path d="M264.82 550.76C270.392 550.76 274.909 546.025 274.909 540.184C274.909 534.343 270.392 529.607 264.82 529.607C259.249 529.607 254.732 534.343 254.732 540.184C254.732 546.025 259.249 550.76 264.82 550.76Z" fill="#E0B581"/>
<path d="M625.749 215.331C628.65 215.331 631.002 212.865 631.002 209.824C631.002 206.782 628.65 204.317 625.749 204.317C622.848 204.317 620.496 206.782 620.496 209.824C620.496 212.865 622.848 215.331 625.749 215.331Z" fill="#E0B581"/>
<path d="M175.556 639.623C175.556 639.623 168.481 620.741 189.705 606.581L175.556 639.623Z" fill="#FAFAFA"/>
<path d="M166.785 639.625C166.785 639.625 164.49 626.496 146.729 626.609L166.785 639.625Z" fill="#FAFAFA"/>
<path d="M378.457 651.64C378.457 651.64 368.729 626.465 397.912 607.583L378.457 651.64Z" fill="#F2F2F3"/>
<path d="M366.394 650.639C366.394 650.639 363.444 633.471 340.607 633.619L366.394 650.639Z" fill="#F2F2F3"/>
<path d="M276.523 465.88C276.37 466.171 276.239 466.474 276.132 466.786L248.577 473.955L243.783 468.756L235.354 475.315L242.986 485.383C243.603 486.197 244.455 486.778 245.414 487.041C246.372 487.304 247.387 487.233 248.304 486.84L278.204 474.031C279.187 474.79 280.366 475.217 281.586 475.255C282.806 475.293 284.008 474.941 285.032 474.246C286.057 473.551 286.855 472.545 287.32 471.363C287.786 470.18 287.898 468.877 287.64 467.626C287.382 466.376 286.767 465.237 285.877 464.362C284.987 463.487 283.864 462.917 282.657 462.727C281.45 462.538 280.217 462.738 279.121 463.301C278.025 463.864 277.119 464.764 276.523 465.88L276.523 465.88Z" fill="#A0616A"/>
<path d="M182.47 529.672C183.329 529.394 184.119 528.922 184.785 528.289C185.451 527.656 185.977 526.877 186.325 526.008C186.673 525.139 186.835 524.201 186.8 523.259C186.765 522.317 186.533 521.395 186.121 520.557L205.084 465.301L191.915 462.854L177.416 517.939C176.119 518.758 175.155 520.047 174.704 521.562C174.254 523.077 174.349 524.712 174.972 526.159C175.595 527.605 176.702 528.762 178.084 529.409C179.466 530.057 181.026 530.15 182.47 529.672Z" fill="#A0616A"/>
<path d="M202.674 475.106L189.672 469.875C189.302 469.726 188.967 469.495 188.69 469.198C188.412 468.902 188.199 468.546 188.065 468.155C187.931 467.764 187.879 467.347 187.912 466.933C187.945 466.519 188.063 466.118 188.258 465.756L195.079 453.077C195.816 451.097 197.272 449.505 199.128 448.648C200.983 447.792 203.087 447.742 204.977 448.51C206.868 449.277 208.391 450.799 209.213 452.742C210.035 454.685 210.088 456.89 209.362 458.874L206.353 473.037C206.267 473.442 206.098 473.823 205.859 474.154C205.619 474.485 205.315 474.758 204.966 474.955C204.616 475.151 204.231 475.266 203.835 475.293C203.44 475.319 203.044 475.255 202.674 475.106V475.106Z" fill="#E0B581"/>
<path d="M232.023 633.41L239.041 633.409L242.38 605.028L232.021 605.029L232.023 633.41Z" fill="#A0616A"/>
<path d="M230.232 631.007L244.054 631.007H244.055C245.212 631.007 246.357 631.246 247.426 631.71C248.494 632.174 249.465 632.854 250.283 633.711C251.101 634.569 251.75 635.587 252.193 636.707C252.635 637.828 252.863 639.028 252.863 640.241V640.541L230.233 640.542L230.232 631.007Z" fill="#2F2E41"/>
<path d="M192.523 633.41L199.541 633.409L202.88 605.028L192.521 605.029L192.523 633.41Z" fill="#A0616A"/>
<path d="M190.732 631.007L204.554 631.007H204.554C205.711 631.007 206.857 631.246 207.925 631.71C208.994 632.174 209.965 632.854 210.783 633.711C211.601 634.569 212.25 635.587 212.692 636.707C213.135 637.828 213.363 639.028 213.363 640.241V640.541L190.733 640.542L190.732 631.007Z" fill="#2F2E41"/>
<path d="M199.882 621.988H191C190.651 621.988 190.306 621.914 189.986 621.77C189.665 621.626 189.376 621.415 189.136 621.151C188.895 620.886 188.708 620.573 188.586 620.231C188.465 619.889 188.41 619.524 188.427 619.159L192.645 524.133L192.911 524.125L235.8 522.953L244.193 618.034C244.225 618.39 244.189 618.75 244.088 619.091C243.986 619.433 243.821 619.751 243.602 620.025C243.382 620.299 243.113 620.525 242.809 620.689C242.506 620.853 242.174 620.952 241.834 620.981L231.858 621.817C231.231 621.87 230.608 621.68 230.105 621.284C229.602 620.888 229.255 620.313 229.129 619.668L216.368 551.983C216.333 551.777 216.229 551.591 216.075 551.459C215.921 551.327 215.726 551.258 215.527 551.263H215.524C215.324 551.258 215.129 551.329 214.975 551.463C214.821 551.596 214.718 551.783 214.684 551.99L202.409 619.809C202.293 620.422 201.978 620.975 201.517 621.372C201.056 621.769 200.478 621.987 199.882 621.988Z" fill="#2F2E41"/>
<path d="M216.148 439.381C223.914 439.381 230.209 432.782 230.209 424.641C230.209 416.5 223.914 409.9 216.148 409.9C208.383 409.9 202.088 416.5 202.088 424.641C202.088 432.782 208.383 439.381 216.148 439.381Z" fill="#A0616A"/>
<path d="M211.436 535.272C204.734 535.272 197.851 533.425 192.145 527.965C191.841 527.677 191.607 527.317 191.46 526.916C191.314 526.514 191.26 526.082 191.303 525.655C191.914 519.902 194.877 490.196 193.208 470.353C192.883 466.647 193.383 462.912 194.67 459.443C195.958 455.974 197.996 452.866 200.625 450.365C203.208 447.869 206.309 446.037 209.683 445.012C213.057 443.988 216.612 443.8 220.067 444.463H220.067C220.243 444.496 220.418 444.53 220.593 444.565C231.85 446.849 239.671 457.771 238.786 469.971C237.494 487.772 236.337 511.85 238.154 525.467C238.23 526.024 238.137 526.592 237.889 527.091C237.641 527.59 237.251 527.995 236.772 528.25C232.636 530.441 222.274 535.272 211.436 535.272Z" fill="#E0B581"/>
<path d="M229.781 476.169C229.451 475.939 229.173 475.637 228.964 475.284C228.756 474.93 228.623 474.534 228.574 474.122L226.861 459.724C226.317 457.676 226.57 455.486 227.564 453.634C228.558 451.781 230.212 450.418 232.164 449.842C234.115 449.266 236.205 449.525 237.975 450.562C239.744 451.599 241.05 453.329 241.604 455.374L247.247 468.674C247.408 469.054 247.489 469.465 247.484 469.881C247.48 470.296 247.39 470.705 247.221 471.081C247.052 471.457 246.808 471.79 246.505 472.058C246.202 472.326 245.848 472.522 245.466 472.634L232.049 476.548C231.667 476.66 231.267 476.684 230.876 476.618C230.484 476.553 230.111 476.4 229.781 476.169Z" fill="#E0B581"/>
<path d="M211.241 439.175C209.91 439.201 208.587 438.95 207.349 438.437C206.805 438.217 206.239 438.036 205.696 437.816C200.895 435.871 197.732 430.51 197.619 425.116C197.505 419.721 200.17 414.485 204.127 411.034C208.084 407.584 213.209 405.812 218.342 405.402C223.87 404.961 230.094 406.431 233.184 411.257C234.006 412.542 234.581 414.101 234.094 415.652C233.948 416.12 233.687 416.54 233.338 416.869C231.958 418.156 230.583 417.189 229.177 417.103C227.244 416.986 225.508 418.626 224.884 420.547C224.26 422.469 224.534 424.585 225.038 426.545C225.422 427.724 225.664 428.949 225.758 430.191C225.799 430.814 225.687 431.437 225.434 432.002C225.18 432.567 224.793 433.055 224.309 433.419C223.102 434.185 221.515 433.742 220.307 432.977C219.098 432.213 218.054 431.151 216.748 430.588C215.443 430.026 213.689 430.151 212.929 431.398C212.688 431.851 212.524 432.346 212.446 432.859C211.765 436.113 211.922 435.921 211.241 439.175V439.175Z" fill="#2F2E41"/>
<path d="M268.402 641.628H158.768C158.615 641.628 158.469 641.575 158.36 641.481C158.252 641.387 158.191 641.26 158.191 641.127C158.191 640.994 158.252 640.867 158.36 640.773C158.469 640.679 158.615 640.626 158.768 640.626H268.402C268.555 640.626 268.701 640.679 268.81 640.773C268.918 640.867 268.979 640.994 268.979 641.127C268.979 641.26 268.918 641.387 268.81 641.481C268.701 641.575 268.555 641.628 268.402 641.628Z" fill="#CCCCCC"/>
<path d="M395.524 547.05C395.846 546.277 396.008 545.436 396 544.587C395.991 543.739 395.811 542.903 395.473 542.138C395.135 541.373 394.647 540.698 394.043 540.16C393.439 539.623 392.734 539.236 391.978 539.026L390.368 518.47L382.629 525.11L385.344 543.613C385.105 545.018 385.348 546.469 386.027 547.692C386.707 548.915 387.775 549.825 389.03 550.249C390.285 550.672 391.639 550.581 392.836 549.991C394.033 549.401 394.989 548.355 395.524 547.05Z" fill="#FFB8B8"/>
<path d="M390.951 536.657L384.319 537.479C383.983 537.52 383.641 537.489 383.316 537.387C382.991 537.286 382.69 537.115 382.431 536.887C382.173 536.659 381.963 536.378 381.814 536.061C381.664 535.745 381.58 535.4 381.565 535.048L380.598 511.815L368.027 476.155C367.523 475.048 367.293 473.829 367.359 472.607C367.424 471.384 367.782 470.199 368.4 469.157C368.709 468.653 369.061 468.181 369.454 467.745C370.228 466.88 371.191 466.222 372.263 465.827C373.334 465.432 374.482 465.312 375.607 465.476C376.767 465.637 377.874 466.082 378.835 466.775C379.795 467.469 380.583 468.39 381.132 469.463L389.331 487.302C392.76 494.763 394.379 502.982 394.047 511.242L393.122 534.224C393.098 534.825 392.87 535.398 392.479 535.843C392.088 536.287 391.559 536.574 390.984 536.653L390.951 536.657Z" fill="#E0B581"/>
<path d="M414.144 636.862L408.116 639.624L395.043 616.666L403.939 612.589L414.144 636.862Z" fill="#FFB8B8"/>
<path d="M417.964 642.754L398.706 651.64L398.599 651.384C398.167 650.349 397.933 649.235 397.91 648.105C397.887 646.975 398.077 645.852 398.467 644.799C398.858 643.746 399.442 642.785 400.186 641.969C400.93 641.153 401.82 640.5 402.804 640.046L402.805 640.045L414.567 634.618L417.964 642.754Z" fill="#2F2E41"/>
<path d="M332.009 644.633H325.537L322.459 618.6L332.01 618.601L332.009 644.633Z" fill="#FFB8B8"/>
<path d="M333.917 651.639L311.951 651.638V651.354C311.951 650.208 312.172 649.074 312.602 648.015C313.032 646.956 313.661 645.994 314.455 645.183C315.249 644.373 316.192 643.73 317.229 643.292C318.266 642.853 319.378 642.627 320.501 642.627H320.502L333.918 642.628L333.917 651.639Z" fill="#2F2E41"/>
<path d="M397.177 636.068L360.006 549.098C359.938 548.935 359.825 548.798 359.68 548.705C359.535 548.613 359.367 548.57 359.198 548.583C359.029 548.595 358.868 548.663 358.737 548.775C358.606 548.888 358.512 549.041 358.468 549.212L335.819 633.214C335.67 633.802 335.325 634.315 334.847 634.66C334.369 635.005 333.789 635.16 333.212 635.096L320.843 633.799C320.205 633.729 319.619 633.401 319.209 632.886C318.798 632.37 318.595 631.706 318.644 631.037C322.578 579.732 328.78 531.312 347.36 499.614L347.459 499.445L375.563 505.223L413.083 630.487C413.268 631.132 413.205 631.828 412.908 632.425C412.61 633.022 412.101 633.474 411.49 633.682L400.176 637.495C399.596 637.693 398.967 637.656 398.412 637.392C397.857 637.127 397.417 636.655 397.177 636.068Z" fill="#2F2E41"/>
<path d="M360.662 455.389C368.046 455.389 374.033 449.113 374.033 441.371C374.033 433.63 368.046 427.354 360.662 427.354C353.277 427.354 347.291 433.63 347.291 441.371C347.291 449.113 353.277 455.389 360.662 455.389Z" fill="#FFB8B8"/>
<path d="M345.082 502.476L344.91 502.439L344.869 502.259C343.049 494.18 343.005 485.362 344.74 476.053C345.62 471.295 348.069 467.016 351.655 463.97C355.241 460.923 359.735 459.305 364.344 459.4C369.346 459.507 374.12 461.619 377.689 465.304C381.258 468.989 383.353 473.969 383.545 479.225C384.124 495.236 377.9 509.118 377.837 509.256L377.745 509.46L345.082 502.476Z" fill="#E0B581"/>
<path d="M309.617 528.417C310.398 528.297 311.144 527.999 311.803 527.546C312.462 527.092 313.018 526.493 313.431 525.791C313.844 525.09 314.104 524.302 314.194 523.484C314.283 522.666 314.199 521.837 313.949 521.057L329.144 508.829L319.71 505.454L306.726 517.583C305.496 518.109 304.494 519.088 303.91 520.333C303.326 521.578 303.2 523.003 303.556 524.339C303.912 525.674 304.726 526.827 305.843 527.579C306.96 528.33 308.303 528.629 309.617 528.417V528.417Z" fill="#FFB8B8"/>
<path d="M317.954 519.12C317.453 519.429 316.863 519.541 316.29 519.436C315.717 519.33 315.199 519.014 314.83 518.545L310.604 513.21C310.39 512.939 310.231 512.625 310.138 512.287C310.045 511.949 310.02 511.594 310.064 511.246C310.109 510.897 310.222 510.562 310.396 510.261C310.57 509.959 310.802 509.699 311.077 509.496L329.228 496.094L351.129 465.86C351.747 464.822 352.604 463.963 353.621 463.359C354.638 462.755 355.784 462.426 356.954 462.402C357.524 462.398 358.093 462.45 358.654 462.557C359.765 462.763 360.812 463.247 361.706 463.967C362.6 464.687 363.313 465.622 363.786 466.692C364.281 467.79 364.518 468.994 364.477 470.206C364.437 471.418 364.12 472.603 363.553 473.661L347.336 501.082L347.301 501.142L317.954 519.12Z" fill="#E0B581"/>
<path d="M362.929 440.296C361.938 438.586 359.752 438.103 357.854 438.298C355.956 438.493 354.11 439.193 352.203 439.178C346.907 439.135 342.82 432.365 345.046 427.325C346.872 423.191 351.432 421.376 355.558 419.952C364.207 416.965 374.142 414.096 381.991 418.938C384.492 420.527 386.544 422.788 387.933 425.486C389.323 428.185 390.001 431.224 389.896 434.289C389.72 438.1 388.328 442.015 389.505 445.625C390.863 449.791 395.168 452.025 399.236 453.107C406.367 455.002 413.887 454.696 421.063 456.396C428.239 458.096 435.592 462.609 437.526 470.054C438.797 474.944 437.471 480.208 435.276 484.724C433.036 489.33 429.923 493.409 426.127 496.709C422.332 500.01 417.934 502.463 413.203 503.918C408.473 505.374 403.508 505.801 398.615 505.174C393.721 504.546 389.001 502.878 384.744 500.27C376.068 494.957 369.805 485.977 366.071 476.194C363.954 470.488 362.463 464.547 361.628 458.487C360.792 452.814 361.502 447.081 363.016 441.565C363.088 441.359 363.117 441.139 363.102 440.92C363.087 440.702 363.028 440.489 362.929 440.296Z" fill="#2F2E41"/>
<path d="M411.66 652.643H302.026C301.873 652.643 301.726 652.591 301.618 652.497C301.51 652.403 301.449 652.275 301.449 652.143C301.449 652.01 301.51 651.883 301.618 651.789C301.726 651.695 301.873 651.642 302.026 651.642H411.66C411.813 651.642 411.96 651.695 412.068 651.789C412.176 651.883 412.237 652.01 412.237 652.143C412.237 652.275 412.176 652.403 412.068 652.497C411.96 652.591 411.813 652.643 411.66 652.643Z" fill="#CCCCCC"/>
</svg>
