<svg width="1360" height="160" viewBox="0 0 1360 160" fill="none" xmlns="http://www.w3.org/2000/svg">
<g clip-path="url(#clip0)">
<rect width="1360" height="160" fill="#18313E"/>
<path d="M567.464 96V64.848H578.984C582.712 64.848 585.568 65.72 587.552 67.464C589.552 69.208 590.552 71.52 590.552 74.4C590.552 77.232 589.552 79.52 587.552 81.264C585.568 82.992 582.712 83.856 578.984 83.856H573.128V96H567.464ZM584.312 96L576.056 81.408H582.104L591.704 96H584.312ZM573.128 80.064H578.408C580.488 80.064 582.064 79.592 583.136 78.648C584.208 77.688 584.744 76.448 584.744 74.928C584.744 73.376 584.256 72.128 583.28 71.184C582.304 70.224 580.872 69.744 578.984 69.744H573.128V80.064ZM607.043 96.672C605.059 96.672 603.243 96.16 601.595 95.136C599.947 94.112 598.627 92.68 597.635 90.84C596.643 88.984 596.147 86.816 596.147 84.336C596.147 81.776 596.635 79.576 597.611 77.736C598.603 75.896 599.923 74.488 601.571 73.512C603.219 72.536 605.043 72.048 607.043 72.048C608.899 72.048 610.499 72.424 611.843 73.176C613.203 73.912 614.291 74.92 615.107 76.2C615.939 77.464 616.499 78.896 616.787 80.496C617.075 82.096 617.091 83.744 616.835 85.44H600.659V82.368H612.827L611.723 83.088C611.771 82.336 611.731 81.576 611.603 80.808C611.491 80.04 611.267 79.336 610.931 78.696C610.595 78.056 610.115 77.544 609.491 77.16C608.883 76.76 608.099 76.56 607.139 76.56C605.987 76.56 605.011 76.848 604.211 77.424C603.411 78 602.803 78.784 602.387 79.776C601.971 80.768 601.763 81.888 601.763 83.136V85.392C601.763 86.704 601.955 87.864 602.339 88.872C602.739 89.88 603.323 90.672 604.091 91.248C604.875 91.824 605.859 92.112 607.043 92.112C608.147 92.112 609.075 91.856 609.827 91.344C610.579 90.832 611.059 90.064 611.267 89.04H616.979C616.739 90.544 616.171 91.872 615.275 93.024C614.395 94.16 613.251 95.056 611.843 95.712C610.435 96.352 608.835 96.672 607.043 96.672ZM632.496 96.672C630.256 96.672 628.328 96.368 626.712 95.76C625.112 95.136 623.88 94.248 623.016 93.096C622.152 91.928 621.712 90.528 621.696 88.896H626.928C626.976 90.048 627.432 90.888 628.296 91.416C629.16 91.944 630.336 92.208 631.824 92.208C632.64 92.208 633.36 92.088 633.984 91.848C634.624 91.608 635.12 91.28 635.472 90.864C635.824 90.448 636 89.984 636 89.472C636 88.816 635.76 88.304 635.28 87.936C634.816 87.552 634.064 87.2 633.024 86.88L627.936 85.056C626.112 84.4 624.712 83.536 623.736 82.464C622.76 81.392 622.272 80.112 622.272 78.624C622.272 76.656 623.16 75.072 624.936 73.872C626.728 72.656 629.12 72.048 632.112 72.048C635.088 72.048 637.384 72.704 639 74.016C640.632 75.312 641.472 76.96 641.52 78.96H636.192C636.112 78.192 635.744 77.584 635.088 77.136C634.432 76.688 633.44 76.464 632.112 76.464C630.912 76.464 629.968 76.712 629.28 77.208C628.608 77.688 628.272 78.256 628.272 78.912C628.272 80.016 629.216 80.848 631.104 81.408L636.624 83.472C638.416 84.08 639.808 84.864 640.8 85.824C641.792 86.784 642.288 88 642.288 89.472C642.288 90.704 641.872 91.872 641.04 92.976C640.224 94.064 639.08 94.952 637.608 95.64C636.136 96.328 634.432 96.672 632.496 96.672ZM658.288 96.672C656.16 96.672 654.232 96.216 652.504 95.304C650.792 94.392 649.432 93.032 648.424 91.224C647.416 89.4 646.912 87.12 646.912 84.384C646.912 81.6 647.416 79.296 648.424 77.472C649.432 75.648 650.792 74.288 652.504 73.392C654.232 72.496 656.16 72.048 658.288 72.048C660.384 72.048 662.28 72.496 663.976 73.392C665.688 74.288 667.048 75.648 668.056 77.472C669.064 79.296 669.568 81.6 669.568 84.384C669.568 87.12 669.064 89.4 668.056 91.224C667.048 93.032 665.688 94.392 663.976 95.304C662.28 96.216 660.384 96.672 658.288 96.672ZM658.096 91.728C659.216 91.728 660.208 91.456 661.072 90.912C661.952 90.352 662.64 89.528 663.136 88.44C663.648 87.352 663.904 86 663.904 84.384C663.904 81.92 663.416 80.064 662.44 78.816C661.48 77.568 660.16 76.944 658.48 76.944C657.344 76.944 656.336 77.224 655.456 77.784C654.576 78.328 653.88 79.152 653.368 80.256C652.872 81.36 652.624 82.736 652.624 84.384C652.624 86.816 653.112 88.648 654.088 89.88C655.08 91.112 656.416 91.728 658.096 91.728ZM691.812 72.624H697.476V96H691.812V72.624ZM675.828 72.624H681.492V86.928C681.492 88.448 681.868 89.592 682.62 90.36C683.372 91.112 684.404 91.488 685.716 91.488C686.836 91.488 687.852 91.2 688.764 90.624C689.692 90.032 690.428 89.168 690.972 88.032C691.532 86.88 691.812 85.456 691.812 83.76H693.348C693.348 86.608 692.98 88.968 692.244 90.84C691.508 92.712 690.492 94.112 689.196 95.04C687.9 95.968 686.404 96.432 684.708 96.432C683.044 96.432 681.54 96.136 680.196 95.544C678.852 94.952 677.788 94 677.004 92.688C676.22 91.376 675.828 89.648 675.828 87.504V72.624ZM706.402 96V72.624H712.066V96H706.402ZM710.674 85.776C710.674 82.72 711.018 80.192 711.706 78.192C712.394 76.192 713.314 74.712 714.466 73.752C715.634 72.776 716.93 72.288 718.354 72.288C718.738 72.288 719.098 72.312 719.434 72.36C719.786 72.408 720.13 72.48 720.466 72.576L720.37 78.24C719.954 78.144 719.506 78.064 719.026 78C718.546 77.936 718.114 77.904 717.73 77.904C716.482 77.904 715.434 78.208 714.586 78.816C713.754 79.408 713.122 80.288 712.69 81.456C712.274 82.624 712.066 84.064 712.066 85.776H710.674ZM734.077 96.672C732.125 96.672 730.309 96.168 728.629 95.16C726.965 94.136 725.613 92.704 724.573 90.864C723.549 89.008 723.037 86.832 723.037 84.336C723.037 81.696 723.549 79.464 724.573 77.64C725.613 75.8 726.965 74.408 728.629 73.464C730.309 72.52 732.125 72.048 734.077 72.048C735.597 72.048 736.933 72.296 738.085 72.792C739.253 73.272 740.245 73.928 741.061 74.76C741.877 75.576 742.517 76.488 742.981 77.496C743.445 78.504 743.741 79.52 743.869 80.544L738.157 80.688C737.901 79.664 737.421 78.816 736.717 78.144C736.029 77.472 735.133 77.136 734.029 77.136C733.117 77.136 732.261 77.392 731.461 77.904C730.661 78.4 730.005 79.176 729.493 80.232C728.997 81.288 728.749 82.656 728.749 84.336C728.749 85.936 728.981 87.272 729.445 88.344C729.925 89.4 730.565 90.2 731.365 90.744C732.165 91.272 733.053 91.536 734.029 91.536C735.469 91.536 736.517 91.192 737.173 90.504C737.829 89.8 738.157 88.864 738.157 87.696H743.869C743.869 89.344 743.493 90.848 742.741 92.208C741.989 93.568 740.885 94.656 739.429 95.472C737.973 96.272 736.189 96.672 734.077 96.672ZM759.34 96.672C757.356 96.672 755.54 96.16 753.892 95.136C752.244 94.112 750.924 92.68 749.932 90.84C748.94 88.984 748.444 86.816 748.444 84.336C748.444 81.776 748.932 79.576 749.908 77.736C750.9 75.896 752.22 74.488 753.868 73.512C755.516 72.536 757.34 72.048 759.34 72.048C761.196 72.048 762.796 72.424 764.14 73.176C765.5 73.912 766.588 74.92 767.404 76.2C768.236 77.464 768.796 78.896 769.084 80.496C769.372 82.096 769.388 83.744 769.132 85.44H752.956V82.368H765.124L764.02 83.088C764.068 82.336 764.028 81.576 763.9 80.808C763.788 80.04 763.564 79.336 763.228 78.696C762.892 78.056 762.412 77.544 761.788 77.16C761.18 76.76 760.396 76.56 759.436 76.56C758.284 76.56 757.308 76.848 756.508 77.424C755.708 78 755.1 78.784 754.684 79.776C754.268 80.768 754.06 81.888 754.06 83.136V85.392C754.06 86.704 754.252 87.864 754.636 88.872C755.036 89.88 755.62 90.672 756.388 91.248C757.172 91.824 758.156 92.112 759.34 92.112C760.444 92.112 761.372 91.856 762.124 91.344C762.876 90.832 763.356 90.064 763.564 89.04H769.276C769.036 90.544 768.468 91.872 767.572 93.024C766.692 94.16 765.548 95.056 764.14 95.712C762.732 96.352 761.132 96.672 759.34 96.672ZM784.793 96.672C782.553 96.672 780.625 96.368 779.009 95.76C777.409 95.136 776.177 94.248 775.313 93.096C774.449 91.928 774.009 90.528 773.993 88.896H779.225C779.273 90.048 779.729 90.888 780.593 91.416C781.457 91.944 782.633 92.208 784.121 92.208C784.937 92.208 785.657 92.088 786.281 91.848C786.921 91.608 787.417 91.28 787.769 90.864C788.121 90.448 788.297 89.984 788.297 89.472C788.297 88.816 788.057 88.304 787.577 87.936C787.113 87.552 786.361 87.2 785.321 86.88L780.233 85.056C778.409 84.4 777.009 83.536 776.033 82.464C775.057 81.392 774.569 80.112 774.569 78.624C774.569 76.656 775.457 75.072 777.233 73.872C779.025 72.656 781.417 72.048 784.409 72.048C787.385 72.048 789.681 72.704 791.297 74.016C792.929 75.312 793.769 76.96 793.817 78.96H788.489C788.409 78.192 788.041 77.584 787.385 77.136C786.729 76.688 785.737 76.464 784.409 76.464C783.209 76.464 782.265 76.712 781.577 77.208C780.905 77.688 780.569 78.256 780.569 78.912C780.569 80.016 781.513 80.848 783.401 81.408L788.921 83.472C790.713 84.08 792.105 84.864 793.097 85.824C794.089 86.784 794.585 88 794.585 89.472C794.585 90.704 794.169 91.872 793.337 92.976C792.521 94.064 791.377 94.952 789.905 95.64C788.433 96.328 786.729 96.672 784.793 96.672Z" fill="white"/>
<path opacity="0.25" d="M1320.93 189.459C1305.41 189.459 1291.95 184.208 1280.56 173.708C1269.18 163.207 1264 149.556 1264 132.754C1264 114.903 1269.18 101.252 1279.53 90.7512C1289.88 80.2504 1303.34 75 1318.86 75C1334.39 75 1347.85 80.2504 1359.23 89.7011C1370.62 100.202 1375.8 113.853 1375.8 130.654C1375.8 147.456 1370.62 161.107 1360.27 171.607C1349.92 183.158 1336.46 189.459 1320.93 189.459Z" fill="#DEB580"/>
<path opacity="0.25" d="M1202.93 75.4589C1187.41 75.4589 1173.95 70.2085 1162.56 59.7077C1151.18 49.2068 1146 35.5558 1146 18.7545C1146 0.903099 1151.18 -12.748 1161.53 -23.2488C1171.88 -33.7496 1185.34 -39 1200.86 -39C1216.39 -39 1229.85 -33.7496 1241.23 -24.2989C1252.62 -13.798 1257.8 -0.146992 1257.8 16.6543C1257.8 33.4556 1252.62 47.1067 1242.27 57.6075C1231.92 69.1584 1218.46 75.4589 1202.93 75.4589Z" fill="#D4E6ED"/>
<path opacity="0.25" d="M21.25 180C10 180 0.25 176.147 -8 168.44C-16.25 160.734 -20 150.716 -20 138.385C-20 125.284 -16.25 115.266 -8.75 107.56C-1.25 99.8532 8.49999 96 19.75 96C31 96 40.75 99.8532 49 106.789C57.25 114.495 61 124.514 61 136.844C61 149.174 57.25 159.193 49.75 166.899C42.25 175.376 33.25 180 21.25 180Z" fill="white"/>
</g>
<defs>
<clipPath id="clip0">
<rect width="1360" height="160" fill="white"/>
</clipPath>
</defs>
</svg>
